<svg width="120" height="120" viewBox="0 0 120 120" fill="none" xmlns="http://www.w3.org/2000/svg">
<circle cx="60" cy="60" r="60" fill="#100645"/>
<path d="M72.6939 25.0156L73.748 17.7166L66.8737 20.4503L72.6939 25.0156Z" fill="#CC2724"/>
<path d="M79.5666 22.2832L73.7483 17.7166L72.6942 25.0155L79.5666 22.2832Z" fill="#B32320"/>
<path d="M66.874 20.4503L65.82 27.7493L72.6942 25.0156L66.874 20.4503Z" fill="#EA2D29"/>
<path d="M71.6399 32.3145L78.5123 29.5822L72.694 25.0155L71.6399 32.3145Z" fill="#CC2724"/>
<path d="M72.6943 25.0155L65.82 27.7492L71.6402 32.3145L72.6943 25.0155Z" fill="#B32320"/>
<path d="M79.5664 22.2833L72.694 25.0155L78.5123 29.5822L79.5664 22.2833Z" fill="#EA2D29"/>
<path d="M76.1759 27.7489L72.0635 29.3839L68.58 26.6519L69.2108 22.2836L73.3251 20.6473L76.8067 23.3806L76.1759 27.7489Z" fill="#FF615E"/>
<path d="M14.8839 73.1517L15.2655 74.9194L15.2632 74.9229L19.1037 77.8154L20.4671 82.4159L20.4677 82.4189L25.2393 81.7576L25.2422 81.7569L29.4728 84.047L32.3848 80.215L37.0042 78.849L37.0071 78.8483L36.3483 74.0956L36.3477 74.0927L38.6529 69.8736L38.2713 68.1059L14.8839 73.1517Z" fill="url(#paint0_linear_262_172)"/>
<path d="M14.3032 54.8129L15.4613 60.1771L20.8314 61.2824L19.2063 53.7544L14.3032 54.8129Z" fill="url(#paint1_linear_262_172)"/>
<path d="M31.2341 51.1578L26.3311 52.2162L27.9562 59.7442L32.3921 56.522L31.2341 51.1578Z" fill="url(#paint2_linear_262_172)"/>
<path d="M19.2058 53.7544L20.831 61.2824L24.7315 62.0862L27.956 59.7442L26.3309 52.2162L19.2058 53.7544Z" fill="url(#paint3_linear_262_172)"/>
<path d="M31.8887 49.6967L13.1039 53.752L13.6489 56.2769L32.4338 52.2216L31.8887 49.6967Z" fill="url(#paint4_linear_262_172)"/>
<path d="M32.1612 50.9577L13.3763 55.013L13.6486 56.274L32.4334 52.2187L32.1612 50.9577Z" fill="url(#paint5_linear_262_172)"/>
<path d="M26.5758 70.6276L17.1855 68.9303L17.1861 68.9332L14.8839 73.1517L26.5758 70.6276Z" fill="#FFBE05"/>
<path d="M26.5758 70.6277L18.7214 76.0448L18.722 76.0477L20.0854 80.6483L26.5758 70.6277Z" fill="#FFBE05"/>
<path d="M26.5758 70.6277L14.8839 73.1517L14.881 73.1523L18.7214 76.0448L26.5758 70.6277Z" fill="#FFE005"/>
<path d="M26.5758 70.6276L16.5297 64.177L17.1856 68.9303L26.5758 70.6276Z" fill="#FFE005"/>
<path d="M26.5757 70.6277L20.0854 80.6483L24.857 79.987L26.5764 70.6306L26.5757 70.6277Z" fill="#FFE005"/>
<path d="M24.8569 79.9869L24.8598 79.9863L29.0904 82.2764L26.5763 70.6305L24.8569 79.9869Z" fill="#FFBE05"/>
<path d="M26.5757 70.6277L32.0024 78.4444L36.6225 77.0813L26.5757 70.6277Z" fill="#FFBE05"/>
<path d="M21.1518 62.8103L16.5294 64.1769L26.5756 70.6276L21.1518 62.8103Z" fill="#FFBE05"/>
<path d="M35.966 72.325L26.5757 70.6277L36.6225 77.0813L36.6248 77.0777L35.966 72.325Z" fill="#FFE005"/>
<path d="M26.5763 70.6306L29.0904 82.2764L32.0024 78.4444L26.5757 70.6277L26.5763 70.6306Z" fill="#FFE005"/>
<path d="M26.5759 70.6276L24.0612 58.9789L21.1521 62.8103L26.5759 70.6276Z" fill="#FFE005"/>
<path d="M26.5758 70.6276L38.2713 68.1059L38.2707 68.103L34.4332 65.2099L26.5758 70.6276Z" fill="#FFE005"/>
<path d="M26.5757 70.6277L35.966 72.325L38.2711 68.1059L26.5757 70.6277Z" fill="#FFBE05"/>
<path d="M26.5756 70.6276L28.2974 61.2677L28.2944 61.2683L24.0609 58.9789L26.5756 70.6276Z" fill="#FFBE05"/>
<path d="M33.0697 60.6093L33.069 60.6064L28.2975 61.2677L26.5758 70.6276L33.0697 60.6093Z" fill="#FFE005"/>
<path d="M26.5756 70.6276L34.4329 65.2099L34.43 65.2105L33.0695 60.6093L26.5756 70.6276Z" fill="#FFBE05"/>
<g style="mix-blend-mode:multiply">
<path d="M28.1666 77.9984C32.2535 77.1161 34.8542 73.1009 33.9754 69.0302C33.0966 64.9594 29.0711 62.3746 24.9843 63.2569C20.8974 64.1392 18.2968 68.1544 19.1755 72.2251C20.0543 76.2959 24.0798 78.8806 28.1666 77.9984Z" fill="#E86B05"/>
</g>
<g style="mix-blend-mode:overlay" opacity="0.7">
<path d="M24.9449 63.0735C20.7553 63.9779 18.0907 68.0918 18.9916 72.2649C19.8925 76.4381 24.0169 79.0863 28.2065 78.1818C32.3962 77.2774 35.0607 73.1635 34.1598 68.9904C33.2589 64.8172 29.1317 62.1696 24.9449 63.0735ZM28.1669 77.9984C24.0796 78.8808 20.0547 76.2964 19.1758 72.2251C18.2969 68.1539 20.8972 64.1393 24.9845 63.2569C29.0719 62.3745 33.0968 64.9589 33.9756 69.0302C34.8545 73.1014 32.2543 77.116 28.1669 77.9984Z" fill="white"/>
</g>
<path d="M33.6743 69.0952C34.5174 73.0004 32.0227 76.852 28.102 77.6984C24.1813 78.5448 20.3198 76.0654 19.4768 72.1601C18.6337 68.2549 21.1284 64.4033 25.0491 63.5569C28.9698 62.7105 32.8312 65.1899 33.6743 69.0952Z" fill="url(#paint6_linear_262_172)"/>
<path d="M30.249 67.6157L27.8876 67.6622L26.3304 65.8923C25.7669 65.252 25.1003 65.3959 24.8481 66.2123L24.1598 68.467L21.9895 69.3988C21.1996 69.737 21.1314 70.4131 21.8335 70.9016L23.7705 72.2481L23.9862 74.5942C24.066 75.4456 24.6882 75.7197 25.3723 75.2032L27.2593 73.7809L29.5649 74.2981C30.4011 74.4864 30.8578 73.9794 30.5763 73.1715L30.3155 72.4171L29.8056 70.9483L31.0146 68.9226C31.4527 68.188 31.1116 67.6002 30.2525 67.618L30.249 67.6157Z" fill="url(#paint7_linear_262_172)"/>
<g style="mix-blend-mode:multiply" opacity="0.6">
<path d="M25.2392 81.7576L24.8569 79.987L29.0905 82.2764L29.4727 84.047L25.2392 81.7576Z" fill="#E86B05"/>
</g>
<g style="mix-blend-mode:multiply" opacity="0.6">
<path d="M32.3849 80.215L32.0027 78.4444L36.6227 77.0812L37.0043 78.8489L32.3849 80.215Z" fill="#E86B05"/>
</g>
<path d="M18.7253 76.0622L19.1038 77.8153L20.4679 82.4188L20.0856 80.6482L18.7253 76.0622Z" fill="#E86B05"/>
<path d="M35.9658 72.325L36.3474 74.0927L37.004 78.8489L36.6224 77.0812L35.9658 72.325Z" fill="#FFE005"/>
<path fill-rule="evenodd" clip-rule="evenodd" d="M86.8143 31.8326C91.1729 34.5507 89.3824 46.6645 86.2687 51.6574C83.1549 56.6502 79.2159 56.1182 74.8574 53.4001C70.4988 50.682 66.819 46.7873 69.9293 41.7944C71.6754 38.991 77.0537 36.9175 80.3038 35.6556C82.8412 34.67 84.9011 30.6389 86.8109 31.8291L86.8143 31.8326Z" fill="#FEA9AC"/>
<path fill-rule="evenodd" clip-rule="evenodd" d="M85.3956 37.0641C88.3286 38.3396 85.8424 45.7096 83.9052 48.8165C82.7525 50.6683 81.4156 51.2993 79.9526 51.1492C79.8741 51.1424 75.5156 51.8756 73.558 47.9161C72.8998 46.586 72.0063 44.3966 73.6535 42.8346C74.7721 41.7773 76.7945 41.0168 78.8476 40.2768C81.5998 39.2877 83.9393 36.4298 85.3956 37.0607V37.0641Z" fill="#F46C6E"/>
<path fill-rule="evenodd" clip-rule="evenodd" d="M32.8271 31.8325C28.4685 34.5506 30.259 46.6645 33.3727 51.6573C36.4865 56.6502 40.4255 56.1182 44.784 53.4001C49.1426 50.682 52.8224 46.7873 49.7121 41.7944C47.966 38.991 42.5877 36.9175 39.3376 35.6556C36.8002 34.67 34.7403 30.6389 32.8305 31.8291L32.8271 31.8325Z" fill="#FEA9AC"/>
<path fill-rule="evenodd" clip-rule="evenodd" d="M34.2423 37.0641C31.3094 38.3396 33.7956 45.7096 35.7327 48.8165C36.8854 50.6683 38.2223 51.2992 39.6854 51.1492C39.7638 51.1424 44.1224 51.8756 46.0799 47.9161C46.7382 46.586 47.6317 44.3965 45.981 42.8346C44.8658 41.7773 42.84 41.0168 40.787 40.2767C38.0347 39.2877 35.6952 36.4298 34.2389 37.0607L34.2423 37.0641Z" fill="#F46C6E"/>
<path fill-rule="evenodd" clip-rule="evenodd" d="M68.2718 41.5284C73.8308 43.9669 81.6509 49.3315 82.0806 60.3233C82.1045 60.9576 82.125 61.5817 82.1352 62.1922C85.6275 65.2718 87.6942 69.0949 87.6942 73.2386C87.6942 83.4187 75.212 91.6685 59.8174 91.6685C44.4227 91.6685 31.9405 83.4187 31.9405 73.2386C31.9405 69.0949 34.0073 65.2718 37.4995 62.1922C37.5132 61.5817 37.5302 60.9576 37.5541 60.3233C37.9838 49.3008 45.8483 43.9362 51.4107 41.5079C51.8301 39.0115 54.064 36.2252 53.6615 34.2267C53.6411 34.1278 53.682 34.0357 53.7707 33.9743C53.8594 33.9095 53.9753 33.8925 54.0879 33.9231C55.9568 34.4449 56.5229 36.2184 57.3926 37.5314C57.4608 37.6337 57.5904 37.6883 57.7302 37.6678C57.87 37.6507 57.9723 37.5655 57.9996 37.4495C58.6374 34.7826 58.0576 31.9621 60.0663 29.4623C60.1516 29.3566 60.3085 29.3122 60.4551 29.36C60.5984 29.4043 60.6836 29.5237 60.6666 29.6533C60.2369 32.4396 61.925 33.2035 62.2183 36.2422C62.2285 36.365 62.3343 36.4639 62.4775 36.4878C62.6207 36.5117 62.764 36.4571 62.8322 36.348C63.429 35.4169 64.077 34.8133 64.3294 31.7712C64.3396 31.6654 64.4146 31.5768 64.5306 31.5358C64.6465 31.4949 64.7761 31.512 64.8716 31.5802C67.1327 33.2172 68.1149 38.6364 68.265 41.525L68.2718 41.5284Z" fill="#FFCECD"/>
<path fill-rule="evenodd" clip-rule="evenodd" d="M47.9457 66.046C47.9457 65.8038 47.857 65.5822 47.6865 65.4116C47.516 65.2377 47.2909 65.1456 47.0487 65.1456C46.8066 65.1456 46.5849 65.2343 46.411 65.4048C46.2336 65.5787 46.1416 65.8038 46.1416 66.0494C46.1416 66.2949 46.2371 66.52 46.411 66.6905C46.5849 66.8611 46.8066 66.9531 47.0487 66.9531C47.2909 66.9531 47.516 66.8577 47.6865 66.6837C47.8536 66.5132 47.9457 66.2915 47.9457 66.0528V66.046ZM45.7084 66.046C45.7084 65.8038 45.6198 65.5822 45.4492 65.4116C45.2787 65.2377 45.0536 65.1456 44.8115 65.1456C44.5694 65.1456 44.3477 65.2343 44.1737 65.4048C43.9964 65.5787 43.9043 65.8038 43.9043 66.0494C43.9043 66.2949 43.9998 66.52 44.1737 66.6905C44.3477 66.8611 44.5694 66.9531 44.8115 66.9531C45.0536 66.9531 45.2787 66.8577 45.4492 66.6837C45.6164 66.5132 45.7084 66.2915 45.7084 66.0528V66.046ZM46.8271 64.1941C46.8271 63.952 46.735 63.7337 46.5679 63.5598C46.3973 63.3858 46.1723 63.2903 45.9301 63.2903C45.688 63.2903 45.4663 63.379 45.2924 63.5495C45.115 63.7201 45.0229 63.9486 45.0229 64.1941C45.0229 64.4397 45.1184 64.6613 45.2924 64.8353C45.4663 65.0058 45.688 65.0979 45.9301 65.0979C46.1723 65.0979 46.3973 65.0024 46.5679 64.8285C46.735 64.6579 46.8271 64.4362 46.8271 64.1975V64.1941Z" fill="#F46C6E"/>
<path fill-rule="evenodd" clip-rule="evenodd" d="M75.7404 66.046C75.7404 65.8038 75.6517 65.5822 75.4812 65.4116C75.3106 65.2377 75.0856 65.1456 74.8434 65.1456C74.6013 65.1456 74.3796 65.2343 74.2057 65.4048C74.0283 65.5787 73.9362 65.8038 73.9362 66.0494C73.9362 66.2949 74.0317 66.52 74.2057 66.6905C74.3796 66.8611 74.6013 66.9531 74.8434 66.9531C75.0856 66.9531 75.3106 66.8577 75.4812 66.6837C75.6483 66.5132 75.7404 66.2915 75.7404 66.0528V66.046ZM73.5031 66.046C73.5031 65.8038 73.4144 65.5822 73.2439 65.4116C73.0734 65.2377 72.8483 65.1456 72.6062 65.1456C72.364 65.1456 72.1424 65.2343 71.9684 65.4048C71.7945 65.5787 71.699 65.8038 71.699 66.0494C71.699 66.2949 71.7945 66.52 71.9684 66.6905C72.1424 66.8611 72.364 66.9531 72.6062 66.9531C72.8483 66.9531 73.0734 66.8577 73.2439 66.6837C73.411 66.5132 73.5031 66.2915 73.5031 66.0528V66.046ZM74.6217 64.1941C74.6217 63.952 74.5297 63.7337 74.3625 63.5598C74.192 63.3858 73.9669 63.2903 73.7248 63.2903C73.4827 63.2903 73.261 63.379 73.087 63.5495C72.9097 63.7201 72.8176 63.9486 72.8176 64.1941C72.8176 64.4397 72.9131 64.6613 73.087 64.8353C73.261 65.0058 73.4827 65.0979 73.7248 65.0979C73.9669 65.0979 74.192 65.0024 74.3625 64.8285C74.5297 64.6579 74.6217 64.4362 74.6217 64.1975V64.1941Z" fill="#F46C6E"/>
<path fill-rule="evenodd" clip-rule="evenodd" d="M66.7683 54.3175C64.8516 54.5563 63.4874 56.3024 63.7262 58.2225C63.9649 60.1425 65.711 61.5033 67.6311 61.2646C69.5478 61.0258 70.9119 59.2797 70.6732 57.3596C70.4345 55.443 68.6883 54.0788 66.7683 54.3175Z" fill="#460003"/>
<path fill-rule="evenodd" clip-rule="evenodd" d="M67.9691 55.2997C67.3211 55.3816 66.8607 55.9716 66.9425 56.6196C67.0244 57.2676 67.6144 57.728 68.2624 57.6461C68.9104 57.5643 69.3708 56.9743 69.2889 56.3263C69.2071 55.6783 68.6171 55.2179 67.9691 55.2997Z" fill="#DDF2EC"/>
<path fill-rule="evenodd" clip-rule="evenodd" d="M52.0111 54.3175C50.0944 54.5563 48.7302 56.3024 48.969 58.2225C49.2077 60.1391 50.9538 61.5033 52.8739 61.2646C54.7906 61.0258 56.1547 59.2797 55.916 57.3596C55.6773 55.443 53.9277 54.0788 52.0111 54.3175Z" fill="#460003"/>
<path fill-rule="evenodd" clip-rule="evenodd" d="M53.212 55.2997C52.564 55.3816 52.1036 55.9716 52.1855 56.6196C52.2673 57.2676 52.8573 57.728 53.5053 57.6461C54.1533 57.5643 54.6137 56.9743 54.5318 56.3263C54.45 55.6783 53.86 55.2179 53.212 55.2997Z" fill="#DDF2EC"/>
<path fill-rule="evenodd" clip-rule="evenodd" d="M49.8591 52.6396C51.3392 52.3667 53.8459 51.7256 55.4965 52.2781C56.5776 52.6396 56.8539 51.5073 55.7284 50.7263C54.1835 49.6554 51.7178 50.2148 50.0808 50.9037C48.4301 51.596 47.4991 53.0727 49.8625 52.6362L49.8591 52.6396Z" fill="#460003"/>
<path fill-rule="evenodd" clip-rule="evenodd" d="M69.7794 52.6396C68.2993 52.3667 65.7927 51.7256 64.142 52.2781C63.0609 52.6396 62.7847 51.5073 63.9101 50.7263C65.455 49.6554 67.9208 50.2148 69.5578 50.9037C71.2084 51.596 72.1395 53.0727 69.776 52.6362L69.7794 52.6396Z" fill="#460003"/>
<path fill-rule="evenodd" clip-rule="evenodd" d="M63.4254 75.3905C75.6859 70.7933 70.0553 84.8204 59.9127 84.8477C49.7087 84.8749 44.0542 70.7865 56.3317 75.3905C59.1283 76.4375 60.6323 76.4375 63.4288 75.3905H63.4254Z" fill="#460003"/>
<path fill-rule="evenodd" clip-rule="evenodd" d="M65.5947 82.7366C63.91 83.7529 61.9729 84.3225 60.0153 84.3259C57.9485 84.3327 55.9091 83.712 54.1527 82.6002C54.0368 82.5252 53.9754 82.399 53.989 82.2591C54.0027 82.1193 54.0879 82.0068 54.2175 81.9624C55.7693 81.3963 57.5768 81.045 59.6094 81.045C61.8637 81.045 63.8588 81.4509 65.5402 82.0954C65.6663 82.1432 65.7516 82.2591 65.7618 82.399C65.7721 82.5388 65.7107 82.665 65.5913 82.7366H65.5947Z" fill="#CE3963"/>
<path fill-rule="evenodd" clip-rule="evenodd" d="M59.8787 74.838C67.5385 73.1499 70.0929 68.0342 69.1619 65.1934C67.709 60.7564 62.0205 62.523 59.8753 65.2582C57.7335 62.5264 52.0415 60.7598 50.5887 65.1934C49.6576 68.0342 52.2325 73.1465 59.8753 74.838H59.8787Z" fill="#FF8E94"/>
<path fill-rule="evenodd" clip-rule="evenodd" d="M64.111 65.6435C62.9344 65.6435 61.9829 66.595 61.9829 67.7716C61.9829 68.9482 62.9344 69.8997 64.111 69.8997C65.2876 69.8997 66.2391 68.9482 66.2391 67.7716C66.2391 66.595 65.2876 65.6435 64.111 65.6435ZM55.6429 65.6435C54.4663 65.6435 53.5148 66.595 53.5148 67.7716C53.5148 68.9482 54.4663 69.8997 55.6429 69.8997C56.8195 69.8997 57.771 68.9482 57.771 67.7716C57.771 66.595 56.8195 65.6435 55.6429 65.6435Z" fill="#E82E2F"/>
<path d="M102.065 71.9354C102.464 70.1064 102.224 68.4743 101.348 67.0384C100.683 65.9676 99.1585 64.7553 96.7748 63.4014L97.6548 59.3652C98.0321 59.7356 98.2865 60.076 98.4167 60.3873C98.547 60.6986 97.0674 60.6496 97.1516 61.3981L100.43 62.1265L103.621 62.1304C103.621 62.1304 103.62 62.1272 103.621 62.1252L103.622 62.1254C103.623 62.0944 103.622 62.064 103.621 62.0338C103.622 61.9913 103.623 61.9488 103.622 61.9071L103.615 61.8858C103.655 60.249 103.329 58.8902 102.529 57.7692C101.729 56.6485 100.402 55.814 98.5475 55.2662L98.8655 53.8076L97.0231 53.4059L96.7053 54.8635C94.6081 54.5404 92.9081 54.8511 91.6048 55.7974C90.3018 56.7427 89.4601 58.0902 89.0786 59.8398L89.0773 59.8457C89.0695 59.8815 89.0629 59.9164 89.056 59.9524C89.0482 59.9881 89.0388 60.0225 89.0308 60.0592L89.0297 60.0642C88.7511 61.342 88.7753 62.481 89.1035 63.4845C89.431 64.4869 89.9609 65.0174 90.5845 65.5746C90.819 65.7849 91.1213 66.0203 91.4914 66.282C91.4961 66.283 91.5007 66.284 91.5044 66.2848C92.1157 66.7166 92.9021 67.25 93.8805 67.8201L92.7463 73.022C92.2304 72.56 91.8915 72.0846 91.7292 71.5968C91.5755 71.1358 93.0955 70.6226 93.1409 69.7006C93.1441 69.6462 92.4892 68.9927 92.346 68.9448L88.1997 68.6451C88.1997 68.6451 84.689 68.6702 84.6887 68.6712C84.684 68.7461 86.3207 69.0894 86.3171 69.1635L86.3128 69.2499C86.25 70.2649 86.2626 71.0623 86.4143 71.8203C86.5661 72.5784 86.8562 73.3177 87.2854 74.0395C87.714 74.7602 88.277 75.3738 88.9726 75.8802C89.6682 76.3865 90.6202 76.8385 91.8285 77.2361L91.2689 79.8028L93.1113 80.2045L93.6709 77.6378C94.7166 77.8148 95.6261 77.8457 96.3999 77.7315C97.1738 77.6173 97.944 77.3296 98.7092 76.8693C99.4747 76.408 100.16 75.7751 100.762 74.9704C101.365 74.1647 101.783 73.2272 102.017 72.1558C102.026 72.1141 102.034 72.0722 102.042 72.0303C102.049 71.9995 102.057 71.9701 102.064 71.9394L102.065 71.9354ZM97.1413 71.6628C97.1224 71.7492 97.0974 71.8332 97.0709 71.9148C97.0709 71.9148 97.0709 71.9148 97.0711 71.9138C97.0013 72.1232 96.9059 72.3167 96.7837 72.496C96.7833 72.498 96.781 72.4996 96.7806 72.5016C96.7522 72.5432 96.7221 72.5835 96.6905 72.6223C96.6853 72.6285 96.6801 72.6346 96.6746 72.6418C96.6441 72.6798 96.6117 72.7175 96.5787 72.754C96.5739 72.7581 96.5698 72.7635 96.566 72.7679C96.4937 72.8467 96.4147 72.921 96.3294 72.9929C95.9028 73.3493 95.3128 73.542 94.5569 73.5738L95.5395 69.067C96.2842 69.5788 96.7553 70.0601 96.9509 70.5105C97.0778 70.8013 97.1688 71.5367 97.1411 71.6638L97.1413 71.6628Z" fill="url(#paint8_linear_262_172)"/>
<path d="M97.7843 58.7703L92.4269 57.6023L91.4153 62.2422L96.7727 63.4102L97.7843 58.7703Z" fill="#A85007"/>
<path d="M95.5806 68.8782L93.6525 68.4578L92.6408 73.0977L94.569 73.5181L95.5806 68.8782Z" fill="#A85007"/>
<path d="M95.6438 68.2066L94.0892 67.8677L92.7923 73.8162L94.4144 73.8849L95.6438 68.2066Z" fill="#A85007"/>
<path d="M93.6009 77.6215L92.0363 77.2803L91.4766 79.847L93.0413 80.1882L93.6009 77.6215Z" fill="url(#paint9_linear_262_172)"/>
<path d="M102.034 61.5518L97.1517 61.3974C97.0675 60.6488 96.9607 60.119 96.8305 59.8077C96.7002 59.4964 96.4459 59.156 96.0695 58.7858L95.1403 63.0474C97.5241 64.4013 99.0477 65.6134 99.713 66.6842C100.589 68.1213 100.829 69.7534 100.431 71.5804C100.197 72.6518 99.7789 73.5893 99.1761 74.395C98.5733 75.2007 97.8892 75.8337 97.123 76.2939C96.3569 76.754 95.5876 77.0419 94.8138 77.1561C94.0399 77.2703 93.1304 77.2394 92.0856 77.0626L91.4786 79.8467L89.6362 79.445L90.2432 76.6609C89.0347 76.2643 88.0827 75.8123 87.3873 75.305C86.6917 74.7986 86.1287 74.1849 85.7002 73.4643C85.2716 72.7437 84.9806 72.0042 84.8289 71.2461C84.6772 70.4881 84.6318 69.6014 84.6946 68.5864L89.9427 69.0057C89.882 70.0107 89.9329 70.7572 90.0961 71.2452C90.2584 71.733 90.5974 72.2084 91.1133 72.6704L92.2481 67.4655C90.6695 66.5451 89.5676 65.8056 88.9454 65.2466C88.3217 64.6894 87.8473 63.9089 87.52 62.9056C87.1916 61.903 87.1678 60.7621 87.4462 59.4852C87.8274 57.7366 88.6701 56.3893 89.9734 55.443C91.2764 54.4977 92.9766 54.1861 95.0739 54.5091L95.3914 53.0525L97.2338 53.4542L96.916 54.9118C98.7698 55.4606 100.097 56.2951 100.897 57.4149C101.696 58.5357 102.077 59.9146 102.037 61.5514L102.034 61.5518ZM94.2422 58.3104C93.6591 58.4007 93.2287 58.5752 92.9516 58.8351C92.6746 59.0951 92.4909 59.4326 92.4006 59.8466C92.3103 60.2607 92.3298 60.681 92.4739 61.0484C92.6171 61.4155 92.9312 61.7659 93.4165 62.0974L94.2422 58.3104ZM92.9215 73.2196C93.6775 73.1878 94.2677 72.9941 94.694 72.6387C95.1197 72.2822 95.3903 71.8388 95.5063 71.3066C95.6072 70.8439 95.5589 70.3872 95.3624 69.9366C95.1659 69.4861 94.6957 69.005 93.952 68.4933L92.9215 73.2196Z" fill="url(#paint10_linear_262_172)"/>
<g style="mix-blend-mode:overlay" opacity="0.72">
<path d="M96.0663 58.7994C96.4436 59.1698 96.697 59.51 96.8273 59.8213C96.9575 60.1326 97.0643 60.6624 97.1485 61.411L102.031 61.5654C102.071 59.9286 101.691 58.5498 100.891 57.4288C100.092 56.308 98.7639 55.4736 96.9099 54.9258L97.2279 53.4672L95.3855 53.0655L95.0675 54.5241C92.9702 54.201 91.2711 54.5119 89.967 55.458C88.664 56.4033 87.8211 57.7516 87.4398 59.5001C87.1612 60.778 87.1854 61.917 87.5136 62.9205C87.8409 63.9238 88.3156 64.7034 88.939 65.2616C89.1734 65.4719 89.4758 65.7073 89.8459 65.969C90.2586 66.0839 90.6763 66.1896 91.1007 66.2821C93.9736 66.9085 96.836 66.949 99.5658 66.4854C98.8388 65.4667 97.3626 64.3252 95.1344 63.0604L96.0633 58.7998L96.0663 58.7994ZM93.4142 62.1112C92.9289 61.7797 92.6148 61.4293 92.4717 61.0622C92.3285 60.695 92.3037 60.2943 92.3983 59.8604C92.4929 59.4265 92.6723 59.1089 92.9494 58.8489C93.2264 58.589 93.657 58.4135 94.2399 58.3242L93.4142 62.1112Z" fill="#FFFAFC"/>
</g>
<g style="mix-blend-mode:overlay">
<path d="M95.5154 63.2631L95.4727 63.4587C97.3904 64.5477 98.7502 65.5451 99.5558 66.451C98.8661 65.4966 97.5197 64.4333 95.5154 63.2631Z" fill="white"/>
<path d="M100.884 57.4024C100.143 56.3712 98.9472 55.5863 97.3082 55.0407L97.2463 55.3247C98.857 55.8007 100.069 56.4946 100.884 57.4024Z" fill="white"/>
<path d="M96.8272 59.8213C96.9575 60.1326 97.0642 60.6624 97.1485 61.4109L97.4296 61.4202C97.3545 60.8828 97.2651 60.4857 97.1596 60.2339C97.0539 59.983 96.8648 59.7109 96.5985 59.4209C96.694 59.5593 96.774 59.6932 96.8272 59.8213Z" fill="white"/>
<path d="M92.5791 67.8786C92.4505 67.8037 92.3265 67.7299 92.205 67.6576L91.1122 72.6699C90.9909 72.5613 90.8804 72.4519 90.7796 72.3425C90.9531 72.5926 91.1738 72.8393 91.4455 73.0827L92.5801 67.8788L92.5791 67.8786Z" fill="white"/>
<path d="M93.7496 62.5099L94.5722 58.7368C94.4123 58.7612 94.2653 58.7926 94.1294 58.8306L93.417 62.0983C93.2278 61.9686 93.0653 61.8365 92.9285 61.7016C93.0992 61.9822 93.3719 62.2518 93.7503 62.5111L93.7496 62.5099Z" fill="white"/>
<path d="M95.3633 69.9355C95.5598 70.3861 95.6081 70.8428 95.5072 71.3055C95.3911 71.8377 95.1205 72.2811 94.6949 72.6376C94.3536 72.9221 93.9055 73.1021 93.3544 73.1785L93.2557 73.6313C94.0116 73.5995 94.6018 73.4058 95.0282 73.0504C95.4536 72.6949 95.7244 72.2505 95.8405 71.7183C95.9414 71.2556 95.894 70.7991 95.6975 70.3485C95.6021 70.1301 95.4415 69.9047 95.2178 69.6719C95.2758 69.7604 95.3269 69.8496 95.3651 69.9359L95.3633 69.9355Z" fill="white"/>
<path d="M86.0302 73.8772C85.6017 73.1566 85.3106 72.417 85.1589 71.659C85.0072 70.9009 84.9618 70.0142 85.0255 68.9995L89.9232 69.3902C89.9271 69.2662 89.9327 69.1384 89.9415 69.0051L84.6934 68.5859C84.6306 69.6009 84.6759 70.4876 84.8276 71.2456C84.9794 72.0036 85.2693 72.744 85.699 73.4638C85.887 73.7804 86.1055 74.0725 86.3452 74.3473C86.2343 74.1952 86.1283 74.039 86.0313 73.8764L86.0302 73.8772Z" fill="white"/>
<path d="M90.5741 77.074C90.4397 77.0301 90.3094 76.9851 90.1812 76.9394L89.6348 79.4455L90.0379 79.5334L90.5741 77.074Z" fill="white"/>
<path d="M87.515 62.9197C87.7861 63.7506 88.1598 64.426 88.6346 64.9518C88.3148 64.4993 88.0527 63.9596 87.8483 63.3325C87.5198 62.33 87.4958 61.19 87.7745 59.9121C87.7749 59.9102 87.7753 59.9082 87.7755 59.9072C87.7762 59.9042 87.7766 59.9022 87.7773 59.8992C88.1585 58.1507 89.0003 56.8032 90.3035 55.8569C91.6065 54.9115 93.3067 54.5999 95.404 54.923L95.722 53.4644L97.1612 53.7782L97.232 53.4535L95.3896 53.0518L95.0718 54.5094C92.9746 54.1863 91.2755 54.4972 89.9713 55.4433C88.6683 56.3886 87.8256 57.7359 87.4442 59.4855C87.4435 59.4884 87.4431 59.4904 87.4425 59.4934C87.442 59.4954 87.4416 59.4974 87.4414 59.4984C87.1628 60.7762 87.187 61.9152 87.5152 62.9187L87.515 62.9197Z" fill="white"/>
</g>
<path d="M98.863 53.8091L97.2983 53.468L96.981 54.9236L98.5457 55.2647L98.863 53.8091Z" fill="url(#paint11_linear_262_172)"/>
<g style="mix-blend-mode:overlay" opacity="0.72">
<path d="M91.9387 68.9184L89.8997 69.0023L84.6934 68.5859L88.1998 68.6472L91.9387 68.9184Z" fill="#FFFAFC"/>
</g>
<path d="M102.031 61.5654L103.621 62.1303L100.43 62.1264L97.2082 61.4125L102.031 61.5654Z" fill="#C26B18"/>
<g style="mix-blend-mode:overlay" opacity="0.72">
<path d="M98.7661 64.8746L98.4224 65.0503C98.4224 65.0503 99.1748 65.6242 99.8826 66.6771C100.241 67.212 100.617 68.1987 100.675 68.9188C100.85 71.0578 100.374 72.3157 100.134 72.9372C99.8928 73.5587 100.286 73.554 100.818 73.7926C101.35 74.0313 101.756 72.8541 102.043 72.0263C102.329 71.1994 102.456 68.7983 101.378 67.2319C100.666 66.199 98.9128 64.5561 98.7663 64.8736L98.7661 64.8746Z" fill="#FFFAFC"/>
</g>
<g style="mix-blend-mode:overlay" opacity="0.72">
<path d="M99.9592 66.5388C99.9592 66.5388 100.991 68.3146 100.895 69.8039C100.799 71.2933 101.573 70.9647 101.881 70.8074C102.19 70.6501 102.056 68.8839 101.823 68.2786C101.589 67.6732 100.715 66.3666 100.227 66.0138C99.7398 65.661 99.4697 65.8496 99.9601 66.539L99.9592 66.5388Z" fill="#FFFAFC"/>
</g>
<path d="M71.6431 89.9054L73.3056 98.3929L73.3709 98.3801L76.9492 97.6308L78.9214 97.1491L71.6431 89.9054Z" fill="#1A7605"/>
<path d="M75.7979 101.244L73.3337 98.537L73.3187 98.5209L72.0728 101.974L71.3949 103.867L77.14 102.742L75.7979 101.244Z" fill="#289D2C"/>
<path d="M76.949 97.6308L73.3707 98.3801L73.3265 98.5003L73.3337 98.537L75.7979 101.244L77.14 102.742L78.9213 97.1491L76.949 97.6308Z" fill="#2FB725"/>
<path d="M67.6354 99.3597L71.2581 98.8218L73.2192 98.4112L73.3055 98.3929L71.6429 89.9053L67.6354 99.3597Z" fill="#289D2C"/>
<path d="M73.3186 98.5208L73.2191 98.4112L71.2579 98.8218L67.6353 99.3597L71.3948 103.867L72.0727 101.974L73.3186 98.5208Z" fill="#1A7605"/>
<path d="M75.7979 101.244L72.0728 101.974L69.6436 99.0618L72.2377 92.9418L76.949 97.6308L75.7979 101.244Z" fill="#43D439"/>
<defs>
<linearGradient id="paint0_linear_262_172" x1="29.0013" y1="81.8628" x2="26.5224" y2="70.3801" gradientUnits="userSpaceOnUse">
<stop stop-color="#FFA705"/>
<stop offset="0.45" stop-color="#FF9605"/>
<stop offset="1" stop-color="#FF8605"/>
</linearGradient>
<linearGradient id="paint1_linear_262_172" x1="18.3621" y1="61.7362" x2="17.0727" y2="55.7633" gradientUnits="userSpaceOnUse">
<stop stop-color="#3AA1F0"/>
<stop offset="0.64" stop-color="#2583CA"/>
<stop offset="1" stop-color="#1C76BA"/>
</linearGradient>
<linearGradient id="paint2_linear_262_172" x1="28.5089" y1="50.4264" x2="28.5089" y2="50.4264" gradientUnits="userSpaceOnUse">
<stop stop-color="#3AA1F0"/>
<stop offset="0.64" stop-color="#2583CA"/>
<stop offset="1" stop-color="#1C76BA"/>
</linearGradient>
<linearGradient id="paint3_linear_262_172" x1="22.4947" y1="51.7247" x2="22.4947" y2="51.7247" gradientUnits="userSpaceOnUse">
<stop stop-color="white"/>
<stop offset="0.27" stop-color="#E3E6EB"/>
<stop offset="0.75" stop-color="#B9C0CD"/>
<stop offset="1" stop-color="#A9B2C2"/>
</linearGradient>
<linearGradient id="paint4_linear_262_172" x1="12.7066" y1="55.1575" x2="31.9183" y2="51.0101" gradientUnits="userSpaceOnUse">
<stop stop-color="#FFEA05"/>
<stop offset="0.59" stop-color="#FFCB05"/>
<stop offset="1" stop-color="#FFBB05"/>
</linearGradient>
<linearGradient id="paint5_linear_262_172" x1="23.3645" y1="55.7522" x2="22.8453" y2="53.3468" gradientUnits="userSpaceOnUse">
<stop stop-color="#FFEA05"/>
<stop offset="0.59" stop-color="#FFCB05"/>
<stop offset="1" stop-color="#FFBB05"/>
</linearGradient>
<linearGradient id="paint6_linear_262_172" x1="21.6081" y1="66.0157" x2="33.6832" y2="77.3126" gradientUnits="userSpaceOnUse">
<stop stop-color="#FFA705"/>
<stop offset="0.45" stop-color="#FF9605"/>
<stop offset="1" stop-color="#FF8605"/>
</linearGradient>
<linearGradient id="paint7_linear_262_172" x1="29.8798" y1="73.6023" x2="21.3981" y2="65.8557" gradientUnits="userSpaceOnUse">
<stop stop-color="#FFEA05"/>
<stop offset="0.59" stop-color="#FFCB05"/>
<stop offset="1" stop-color="#FFBB05"/>
</linearGradient>
<linearGradient id="paint8_linear_262_172" x1="102.068" y1="59.3652" x2="93.2654" y2="67.2063" gradientUnits="userSpaceOnUse">
<stop stop-color="#EBB43A"/>
<stop offset="1" stop-color="#C26B18"/>
</linearGradient>
<linearGradient id="paint9_linear_262_172" x1="92.8199" y1="77.4449" x2="92.2893" y2="79.8786" gradientUnits="userSpaceOnUse">
<stop stop-color="#EBB43A"/>
<stop offset="1" stop-color="#C26B18"/>
</linearGradient>
<linearGradient id="paint10_linear_262_172" x1="96.438" y1="52.304" x2="90.2258" y2="80.7968" gradientUnits="userSpaceOnUse">
<stop stop-color="#F7E436"/>
<stop offset="1" stop-color="#D58D21"/>
</linearGradient>
<linearGradient id="paint11_linear_262_172" x1="98.263" y1="52.8025" x2="97.7497" y2="55.1567" gradientUnits="userSpaceOnUse">
<stop stop-color="#F7E436"/>
<stop offset="1" stop-color="#D58D21"/>
</linearGradient>
</defs>
</svg>
