<svg width="32" height="32" viewBox="0 0 32 32" fill="none" xmlns="http://www.w3.org/2000/svg">
<rect x="1" y="1" width="30" height="30" rx="15" fill="#DDF2EC"/>
<path fill-rule="evenodd" clip-rule="evenodd" d="M23.6265 7.8992C24.858 8.66716 24.3521 12.0897 23.4724 13.5003C22.5926 14.911 21.4797 14.7607 20.2483 13.9937C19.0169 13.2257 17.9772 12.1254 18.856 10.7147C19.3493 9.92267 20.8688 9.33683 21.7871 8.98032C22.504 8.70185 23.086 7.56292 23.6256 7.8992H23.6265Z" fill="#FEA9AC"/>
<path fill-rule="evenodd" clip-rule="evenodd" d="M23.2257 9.37634C24.0543 9.73671 23.3519 11.8189 22.8046 12.6967C22.4789 13.22 22.1012 13.3982 21.6878 13.3558C21.6657 13.3539 20.4343 13.562 19.8812 12.4424C19.6952 12.0656 19.4428 11.448 19.9091 11.0067C20.2252 10.708 20.7966 10.4931 21.3766 10.284C22.1542 10.0036 22.8152 9.19615 23.2266 9.37537L23.2257 9.37634Z" fill="#F46C6E"/>
<path fill-rule="evenodd" clip-rule="evenodd" d="M8.37342 7.8992C7.14199 8.66716 7.64786 12.0897 8.52759 13.5003C9.40731 14.911 10.5202 14.7607 11.7516 13.9937C12.9831 13.2257 14.0227 12.1254 13.144 10.7147C12.6506 9.92267 11.1311 9.33683 10.2128 8.98032C9.49596 8.70185 8.91397 7.56292 8.37438 7.8992H8.37342Z" fill="#FEA9AC"/>
<path fill-rule="evenodd" clip-rule="evenodd" d="M8.77327 9.37634C7.94461 9.73671 8.64704 11.8189 9.19434 12.6967C9.52002 13.22 9.89773 13.3982 10.3111 13.3558C10.3333 13.3539 11.5647 13.562 12.1178 12.4424C12.3037 12.0656 12.5562 11.448 12.0898 11.0067C11.7738 10.708 11.2024 10.4931 10.6223 10.284C9.84378 10.0036 9.18374 9.19615 8.7723 9.37537L8.77327 9.37634Z" fill="#F46C6E"/>
<path fill-rule="evenodd" clip-rule="evenodd" d="M18.3877 10.6386C19.9583 11.3275 22.1677 12.8432 22.2891 15.9487C22.2959 16.128 22.3016 16.3043 22.3045 16.4768C23.2912 17.3469 23.8751 18.427 23.8751 19.5977C23.8751 22.4739 20.3485 24.8048 15.999 24.8048C11.6495 24.8048 8.12293 22.473 8.12293 19.5977C8.12293 18.427 8.70684 17.3469 9.69352 16.4768C9.69738 16.3043 9.70219 16.128 9.70894 15.9487C9.83035 12.8345 12.0523 11.3189 13.6239 10.6328C13.7424 9.92749 14.3735 9.14027 14.2598 8.57562C14.254 8.54768 14.2656 8.52167 14.2906 8.50432C14.3157 8.48601 14.3485 8.48119 14.3803 8.48987C14.9083 8.63729 15.0682 9.13834 15.3139 9.50931C15.3332 9.53821 15.3698 9.55363 15.4093 9.54785C15.4488 9.54303 15.4777 9.51894 15.4854 9.48618C15.6656 8.73268 15.5018 7.93582 16.0694 7.22953C16.0935 7.19966 16.1378 7.18714 16.1792 7.20063C16.2197 7.21316 16.2438 7.24688 16.239 7.28349C16.1175 8.07072 16.5945 8.28559 16.6774 9.14508C16.6803 9.17977 16.7101 9.20772 16.7506 9.21446C16.7911 9.22121 16.8315 9.20579 16.8508 9.17495C17.0194 8.9119 17.2025 8.74135 17.2738 7.88186C17.2767 7.85199 17.2979 7.82694 17.3307 7.81538C17.3634 7.80381 17.4 7.80863 17.427 7.8279C18.0659 8.29041 18.3434 9.8215 18.3858 10.6376L18.3877 10.6386Z" fill="#FFCECD"/>
<path fill-rule="evenodd" clip-rule="evenodd" d="M12.6449 17.5656C12.6449 17.4972 12.6198 17.4345 12.5717 17.3864C12.5235 17.3372 12.4599 17.3112 12.3915 17.3112C12.3231 17.3112 12.2604 17.3363 12.2113 17.3844C12.1622 17.4326 12.1352 17.4972 12.1352 17.5666C12.1352 17.6359 12.1622 17.6986 12.2113 17.7477C12.2604 17.7959 12.3231 17.8219 12.3915 17.8219C12.4599 17.8219 12.5235 17.7949 12.5717 17.7458C12.6189 17.6976 12.6449 17.635 12.6449 17.5675V17.5656ZM12.0128 17.5656C12.0128 17.4972 11.9878 17.4345 11.9396 17.3864C11.8914 17.3372 11.8278 17.3112 11.7594 17.3112C11.691 17.3112 11.6283 17.3363 11.5792 17.3844C11.5301 17.4326 11.5031 17.4972 11.5031 17.5666C11.5031 17.6359 11.5301 17.6986 11.5792 17.7477C11.6283 17.7959 11.691 17.8219 11.7594 17.8219C11.8278 17.8219 11.8914 17.7949 11.9396 17.7458C11.9868 17.6976 12.0128 17.635 12.0128 17.5675V17.5656ZM12.3288 17.0424C12.3288 16.974 12.3038 16.9123 12.2556 16.8632C12.2074 16.814 12.1438 16.787 12.0754 16.787C12.007 16.787 11.9444 16.8121 11.8952 16.8603C11.8451 16.9084 11.8191 16.973 11.8191 17.0424C11.8191 17.1118 11.8461 17.1744 11.8952 17.2235C11.9444 17.2717 12.007 17.2977 12.0754 17.2977C12.1438 17.2977 12.2074 17.2707 12.2556 17.2216C12.3028 17.1734 12.3288 17.1108 12.3288 17.0433V17.0424Z" fill="#F46C6E"/>
<path fill-rule="evenodd" clip-rule="evenodd" d="M20.4978 17.5656C20.4978 17.4972 20.4727 17.4345 20.4246 17.3864C20.3764 17.3372 20.3128 17.3112 20.2444 17.3112C20.176 17.3112 20.1124 17.3363 20.0642 17.3844C20.0151 17.4326 19.9881 17.4972 19.9881 17.5666C19.9881 17.6359 20.0151 17.6986 20.0642 17.7477C20.1133 17.7959 20.176 17.8219 20.2444 17.8219C20.3128 17.8219 20.3764 17.7949 20.4246 17.7458C20.4718 17.6976 20.4978 17.635 20.4978 17.5675V17.5656ZM19.8657 17.5656C19.8657 17.4972 19.8407 17.4345 19.7925 17.3864C19.7443 17.3372 19.6807 17.3112 19.6123 17.3112C19.5439 17.3112 19.4803 17.3363 19.4321 17.3844C19.383 17.4326 19.356 17.4972 19.356 17.5666C19.356 17.6359 19.383 17.6986 19.4321 17.7477C19.4813 17.7959 19.5439 17.8219 19.6123 17.8219C19.6807 17.8219 19.7443 17.7949 19.7925 17.7458C19.8397 17.6976 19.8657 17.635 19.8657 17.5675V17.5656ZM20.1818 17.0424C20.1818 16.974 20.1567 16.9123 20.1085 16.8632C20.0603 16.814 19.9968 16.787 19.9283 16.787C19.8599 16.787 19.7973 16.8121 19.7482 16.8603C19.6981 16.9084 19.672 16.973 19.672 17.0424C19.672 17.1118 19.699 17.1744 19.7482 17.2235C19.7973 17.2717 19.8599 17.2977 19.9283 17.2977C19.9968 17.2977 20.0603 17.2707 20.1085 17.2216C20.1557 17.1734 20.1818 17.1108 20.1818 17.0433V17.0424Z" fill="#F46C6E"/>
<path fill-rule="evenodd" clip-rule="evenodd" d="M16.0163 20.0496C18.1805 19.5727 18.9022 18.1274 18.6391 17.3237C18.2287 16.0702 16.6215 16.5693 16.0154 17.3421C15.4103 16.5702 13.8021 16.0711 13.3916 17.3237C13.1286 18.1264 13.8561 19.5708 16.0154 20.0496H16.0163Z" fill="#FF8E94"/>
<path fill-rule="evenodd" clip-rule="evenodd" d="M17.2121 17.4519C16.8797 17.4519 16.6108 17.7207 16.6108 18.0532C16.6108 18.3856 16.8797 18.6544 17.2121 18.6544C17.5445 18.6544 17.8134 18.3856 17.8134 18.0532C17.8134 17.7207 17.5445 17.4519 17.2121 17.4519ZM14.8196 17.4519C14.4872 17.4519 14.2183 17.7207 14.2183 18.0532C14.2183 18.3856 14.4872 18.6544 14.8196 18.6544C15.152 18.6544 15.4208 18.3856 15.4208 18.0532C15.4208 17.7207 15.152 17.4519 14.8196 17.4519Z" fill="#E82E2F"/>
<path fill-rule="evenodd" clip-rule="evenodd" d="M18.7153 12.0743L18.0466 13.0706C17.982 13.166 17.8683 13.2074 17.7575 13.1756L16.6051 12.8422C16.4943 12.8104 16.3806 12.8519 16.316 12.9473C16.2515 13.0427 16.2563 13.1641 16.3266 13.2546L17.0676 14.1989C17.1389 14.2895 17.1428 14.4109 17.0782 14.5063L16.4057 15.4997C16.3411 15.5951 16.345 15.7165 16.4163 15.8071C16.4876 15.8977 16.6032 15.9314 16.7121 15.8919L17.8385 15.4795C17.9464 15.44 18.063 15.4737 18.1343 15.5643L18.8714 16.5115C18.9417 16.602 19.0583 16.6358 19.1672 16.5962C19.2761 16.5567 19.3435 16.4565 19.3387 16.3409L19.2944 15.1413C19.2905 15.0257 19.358 14.9254 19.4669 14.8859L20.5952 14.4774C20.7031 14.4379 20.7715 14.3377 20.7677 14.223C20.7638 14.1074 20.6887 14.013 20.5778 13.9812L19.4235 13.6526C19.3127 13.6208 19.2375 13.5254 19.2337 13.4098L19.1942 12.2101C19.1903 12.0945 19.1161 11.9991 19.0053 11.9673C18.8945 11.9355 18.7808 11.977 18.7163 12.0724L18.7153 12.0743Z" fill="#F5AC00"/>
<path fill-rule="evenodd" clip-rule="evenodd" d="M13.2848 12.0743L13.9535 13.0706C14.0181 13.166 14.1318 13.2074 14.2426 13.1756L15.395 12.8432C15.5058 12.8114 15.6195 12.8528 15.684 12.9482C15.7486 13.0436 15.7438 13.165 15.6734 13.2556L14.9325 14.1999C14.8612 14.2905 14.8573 14.4119 14.9219 14.5073L15.5944 15.5007C15.659 15.5961 15.6551 15.7175 15.5838 15.8081C15.5125 15.8986 15.3969 15.9324 15.288 15.8929L14.1616 15.4804C14.0537 15.4409 13.9371 15.4747 13.8658 15.5652L13.1287 16.5124C13.0584 16.603 12.9418 16.6367 12.8329 16.5972C12.724 16.5577 12.6566 16.4575 12.6614 16.3419L12.7057 15.1432C12.7095 15.0276 12.6421 14.9274 12.5332 14.8879L11.4049 14.4793C11.297 14.4398 11.2286 14.3396 11.2324 14.2249C11.2363 14.1103 11.3114 14.0149 11.4222 13.9831L12.5766 13.6545C12.6874 13.6227 12.7625 13.5273 12.7664 13.4117L12.8059 12.2121C12.8098 12.0964 12.884 12.0011 12.9948 11.9693C13.1056 11.9375 13.2193 11.9789 13.2838 12.0743H13.2848Z" fill="#F5AC00"/>
<path fill-rule="evenodd" clip-rule="evenodd" d="M15.0789 20.2028C11.8307 19.0389 12.9552 22.632 16.0241 22.631C19.094 22.6291 20.0951 18.8307 16.9877 20.2028C16.318 20.4986 15.9085 20.5006 15.0779 20.2028H15.0789Z" fill="#460003"/>
<path fill-rule="evenodd" clip-rule="evenodd" d="M15.0443 20.2982C14.6782 20.1672 14.2089 20.039 13.8158 20.0795C13.6096 20.1007 13.3908 20.1749 13.2849 20.3666C13.2492 20.4322 13.2299 20.5035 13.2232 20.5767C13.2203 20.6056 13.2357 20.6326 13.2617 20.6451C13.9622 20.9785 14.9056 21.2175 16.0339 21.2175C17.14 21.2175 18.0573 20.9737 18.7405 20.6335C18.7636 20.622 18.7781 20.5998 18.7781 20.5738C18.781 20.4553 18.7578 20.3377 18.6933 20.2404C18.5786 20.067 18.3686 20.013 18.172 20.0072C17.7981 19.9957 17.3655 20.1479 17.0283 20.2973C16.2719 20.6316 15.818 20.5776 15.0443 20.3001V20.2982Z" fill="#DDF2EC"/>
<rect x="1" y="1" width="30" height="30" rx="15" stroke="#FCB00D" stroke-width="2"/>
</svg>
