<svg width="60" height="82" viewBox="0 0 60 82" fill="none" xmlns="http://www.w3.org/2000/svg">
<path d="M59.2279 52.3501C59.2279 68.64 45.9683 81.8473 29.614 81.8473C13.2597 81.8473 0 68.64 0 52.3501V49.1718H59.2279V52.3501Z" fill="url(#paint0_linear_102_751)"/>
<path d="M0 49.7691C0 66.0589 13.2597 79.2663 29.614 79.2663C45.9683 79.2663 59.2279 66.0589 59.2279 49.7691V49.1718H0V49.7691Z" fill="url(#paint1_linear_102_751)"/>
<path d="M8.17334 3.19305V16.7765L20.589 22.2556V3.19305H8.17334Z" fill="url(#paint2_linear_102_751)"/>
<path d="M51.047 3.19305H38.6313V22.2556L51.047 16.7765V3.19305Z" fill="url(#paint3_linear_102_751)"/>
<path d="M20.5889 3.19305V22.2556L29.6137 26.2377L38.6312 22.2556V3.19305H20.5889Z" fill="url(#paint4_linear_102_751)"/>
<path d="M53.3941 0H5.82666V6.39351H53.3941V0Z" fill="url(#paint5_linear_102_751)"/>
<path d="M53.3941 3.19305H5.82666V6.38612H53.3941V3.19305Z" fill="url(#paint6_linear_102_751)"/>
<path d="M29.614 78.6616C45.9693 78.6616 59.2279 65.4553 59.2279 49.1644C59.2279 32.8736 45.9693 19.6672 29.614 19.6672C13.2586 19.6672 0 32.8736 0 49.1644C0 65.4553 13.2586 78.6616 29.614 78.6616Z" fill="url(#paint7_linear_102_751)"/>
<g style="mix-blend-mode:overlay">
<path d="M29.6141 19.6672C27.2746 19.6672 25.0091 19.9475 22.8325 20.4563L53.9642 65.9557C57.281 61.1919 59.2355 55.4104 59.2355 49.1644C59.2355 47.3651 59.0652 45.61 58.7542 43.8992L45.1911 24.0771C40.6675 21.2822 35.337 19.6672 29.6215 19.6672H29.6141Z" fill="url(#paint8_linear_102_751)"/>
<path d="M10.6908 26.4811C4.64217 31.4882 0.644287 38.8404 0.0742188 47.1439L20.7151 77.3121C23.5211 78.1896 26.5121 78.669 29.6141 78.669C34.7966 78.669 39.6607 77.3416 43.8955 75.0113L10.6908 26.4811Z" fill="url(#paint9_linear_102_751)"/>
</g>
<path d="M29.6139 72.7032C42.6654 72.7032 53.2458 62.1645 53.2458 49.1644C53.2458 36.1643 42.6654 25.6257 29.6139 25.6257C16.5623 25.6257 5.98193 36.1643 5.98193 49.1644C5.98193 62.1645 16.5623 72.7032 29.6139 72.7032Z" fill="url(#paint10_linear_102_751)"/>
<g style="mix-blend-mode:multiply">
<path d="M29.6138 71.6561C42.0848 71.6561 52.1945 61.5862 52.1945 49.1645C52.1945 36.7427 42.0848 26.6729 29.6138 26.6729C17.1429 26.6729 7.0332 36.7427 7.0332 49.1645C7.0332 61.5862 17.1429 71.6561 29.6138 71.6561Z" fill="#E86B05"/>
</g>
<path d="M29.6141 70.2697C41.3163 70.2697 50.8029 60.8205 50.8029 49.1644C50.8029 37.5083 41.3163 28.0592 29.6141 28.0592C17.9118 28.0592 8.42529 37.5083 8.42529 49.1644C8.42529 60.8205 17.9118 70.2697 29.6141 70.2697Z" fill="url(#paint11_linear_102_751)"/>
<path d="M41.9482 42.8373L35.1814 41.5173L31.8276 35.5072C30.6134 33.3318 28.6219 33.3318 27.4077 35.5072L24.0539 41.5173L17.2871 42.8373C14.8292 43.3166 14.2147 45.2044 15.9175 47.0333L20.6187 52.0699L19.7895 58.8911C19.486 61.3689 21.0999 62.534 23.3728 61.4869L29.6287 58.5888L35.8847 61.4869C38.1576 62.534 39.7715 61.3689 39.468 58.8911L39.1866 56.5756L38.6388 52.0699L43.34 47.0333C45.0428 45.2044 44.4283 43.3166 41.9704 42.8373H41.9482Z" fill="url(#paint12_linear_102_751)"/>
<g style="mix-blend-mode:overlay">
<path d="M41.9485 42.8373L37.5508 41.9819L41.9855 48.4639L43.3181 47.0333C45.0209 45.2044 44.4064 43.3166 41.9485 42.8373Z" fill="url(#paint13_linear_102_751)"/>
<path d="M34.0636 60.6389L21.337 42.0409L17.2725 42.8299C14.8145 43.3093 14.2 45.1971 15.9028 47.0259L20.604 52.0626L19.7749 58.8838C19.4713 61.3615 21.0853 62.5267 23.3581 61.4795L29.6141 58.5814L34.0636 60.6389Z" fill="url(#paint14_linear_102_751)"/>
</g>
<defs>
<linearGradient id="paint0_linear_102_751" x1="17.9238" y1="38.6487" x2="49.7958" y2="84.6423" gradientUnits="userSpaceOnUse">
<stop stop-color="#FFA705"/>
<stop offset="0.45" stop-color="#FF9605"/>
<stop offset="1" stop-color="#FF8605"/>
</linearGradient>
<linearGradient id="paint1_linear_102_751" x1="29.614" y1="72.9392" x2="29.614" y2="55.1007" gradientUnits="userSpaceOnUse">
<stop stop-color="#FFEA05"/>
<stop offset="0.59" stop-color="#FFCB05"/>
<stop offset="1" stop-color="#FFBB05"/>
</linearGradient>
<linearGradient id="paint2_linear_102_751" x1="14.3775" y1="22.0639" x2="14.3775" y2="6.9392" gradientUnits="userSpaceOnUse">
<stop stop-color="#F03A3A"/>
<stop offset="0.64" stop-color="#CA2525"/>
<stop offset="1" stop-color="#BA1C1C"/>
</linearGradient>
<linearGradient id="paint3_linear_102_751" x1="44.8429" y1="-1.59288e-05" x2="44.8429" y2="-1.59288e-05" gradientUnits="userSpaceOnUse">
<stop stop-color="#F03A3A"/>
<stop offset="0.64" stop-color="#CA2525"/>
<stop offset="1" stop-color="#BA1C1C"/>
</linearGradient>
<linearGradient id="paint4_linear_102_751" x1="29.6137" y1="19.8811" x2="29.6137" y2="4.66791" gradientUnits="userSpaceOnUse">
<stop stop-color="white"/>
<stop offset="0.27" stop-color="#E3E6EB"/>
<stop offset="0.75" stop-color="#B9C0CD"/>
<stop offset="1" stop-color="#A9B2C2"/>
</linearGradient>
<linearGradient id="paint5_linear_102_751" x1="4.13126" y1="3.19307" x2="52.787" y2="3.19307" gradientUnits="userSpaceOnUse">
<stop stop-color="#FFEA05"/>
<stop offset="0.59" stop-color="#FFCB05"/>
<stop offset="1" stop-color="#FFBB05"/>
</linearGradient>
<linearGradient id="paint6_linear_102_751" x1="29.6141" y1="10.1986" x2="29.6141" y2="4.10747" gradientUnits="userSpaceOnUse">
<stop stop-color="#FFEA05"/>
<stop offset="0.59" stop-color="#FFCB05"/>
<stop offset="1" stop-color="#FFBB05"/>
</linearGradient>
<linearGradient id="paint7_linear_102_751" x1="13.7779" y1="26.5032" x2="52.1892" y2="81.9306" gradientUnits="userSpaceOnUse">
<stop stop-color="#FFEA05"/>
<stop offset="0.59" stop-color="#FFCB05"/>
<stop offset="1" stop-color="#FFBB05"/>
</linearGradient>
<linearGradient id="paint8_linear_102_751" x1="28.5406" y1="52.0699" x2="50.0525" y2="32.5614" gradientUnits="userSpaceOnUse">
<stop stop-color="white"/>
<stop offset="0.11" stop-color="white" stop-opacity="0.87"/>
<stop offset="0.44" stop-color="white" stop-opacity="0.5"/>
<stop offset="0.71" stop-color="white" stop-opacity="0.23"/>
<stop offset="0.9" stop-color="white" stop-opacity="0.06"/>
<stop offset="1" stop-color="white" stop-opacity="0"/>
</linearGradient>
<linearGradient id="paint9_linear_102_751" x1="4.64958" y1="68.4629" x2="23.597" y2="53.5236" gradientUnits="userSpaceOnUse">
<stop stop-color="white"/>
<stop offset="0.11" stop-color="white" stop-opacity="0.87"/>
<stop offset="0.44" stop-color="white" stop-opacity="0.5"/>
<stop offset="0.71" stop-color="white" stop-opacity="0.23"/>
<stop offset="0.9" stop-color="white" stop-opacity="0.06"/>
<stop offset="1" stop-color="white" stop-opacity="0"/>
</linearGradient>
<linearGradient id="paint10_linear_102_751" x1="41.0819" y1="65.174" x2="8.49273" y2="19.3316" gradientUnits="userSpaceOnUse">
<stop stop-color="#FFEA05"/>
<stop offset="0.59" stop-color="#FFCB05"/>
<stop offset="1" stop-color="#FFBB05"/>
</linearGradient>
<linearGradient id="paint11_linear_102_751" x1="18.2793" y1="32.9484" x2="45.7696" y2="72.6133" gradientUnits="userSpaceOnUse">
<stop stop-color="#FFA705"/>
<stop offset="0.45" stop-color="#FF9605"/>
<stop offset="1" stop-color="#FF8605"/>
</linearGradient>
<linearGradient id="paint12_linear_102_751" x1="37.2025" y1="59.6802" x2="17.7816" y2="32.3596" gradientUnits="userSpaceOnUse">
<stop stop-color="#FFEA05"/>
<stop offset="0.59" stop-color="#FFCB05"/>
<stop offset="1" stop-color="#FFBB05"/>
</linearGradient>
<linearGradient id="paint13_linear_102_751" x1="37.8987" y1="46.9005" x2="42.3767" y2="42.8344" gradientUnits="userSpaceOnUse">
<stop stop-color="white"/>
<stop offset="0.11" stop-color="white" stop-opacity="0.87"/>
<stop offset="0.44" stop-color="white" stop-opacity="0.5"/>
<stop offset="0.71" stop-color="white" stop-opacity="0.23"/>
<stop offset="0.9" stop-color="white" stop-opacity="0.06"/>
<stop offset="1" stop-color="white" stop-opacity="0"/>
</linearGradient>
<linearGradient id="paint14_linear_102_751" x1="34.9224" y1="42.0556" x2="20.1813" y2="56.8551" gradientUnits="userSpaceOnUse">
<stop stop-color="white"/>
<stop offset="0.11" stop-color="white" stop-opacity="0.87"/>
<stop offset="0.44" stop-color="white" stop-opacity="0.5"/>
<stop offset="0.71" stop-color="white" stop-opacity="0.23"/>
<stop offset="0.9" stop-color="white" stop-opacity="0.06"/>
<stop offset="1" stop-color="white" stop-opacity="0"/>
</linearGradient>
</defs>
</svg>
