<svg width="85" height="56" viewBox="0 0 85 56" fill="none" xmlns="http://www.w3.org/2000/svg">
<path d="M68.4555 26.8504C68.4555 26.8504 68.4639 26.8655 68.4667 26.8745C69.4985 27.9488 70.1444 29.4685 70.1444 31.1507C70.1444 34.4098 67.7313 37.055 64.7562 37.055C61.7811 37.055 59.3681 34.4129 59.3681 31.1507C59.3681 27.8886 61.7811 25.2464 64.7562 25.2464C64.9548 25.2464 65.1504 25.2585 65.3462 25.2826C65.4049 25.2826 65.4636 25.2765 65.5252 25.2765C65.5699 25.2765 65.6146 25.2765 65.6594 25.2795C65.6622 25.2795 65.6678 25.2795 65.6706 25.2765C66.3249 23.9795 66.4115 21.1327 66.3025 19.2248C66.0928 15.5203 65.1645 13.0225 65.1645 13.0225C65.1645 13.0225 60.8164 13.0677 57.819 16.721C56.2839 18.5898 55.4758 20.3352 55.0312 21.2681C56.214 22.2883 56.9745 23.8682 56.9745 25.6467C56.9745 28.7252 54.6957 31.217 51.8884 31.217C49.081 31.217 46.8022 28.7222 46.8022 25.6467C46.8022 22.5711 49.081 20.0734 51.8884 20.0734C52.5203 20.0734 53.1243 20.1998 53.6835 20.4315L42.5381 0.253967L31.3927 20.4315C31.9519 20.1998 32.5559 20.0734 33.1878 20.0734C35.9979 20.0734 38.274 22.5681 38.274 25.6467C38.274 28.7252 35.9979 31.217 33.1878 31.217C30.3777 31.217 28.1016 28.7222 28.1016 25.6467C28.1016 23.8712 28.8622 22.2883 30.0449 21.2681C29.6031 20.3352 28.7923 18.5928 27.2572 16.721C24.2597 13.0677 19.9117 13.0225 19.9117 13.0225C19.9117 13.0225 18.9834 15.5203 18.7737 19.2248C18.6647 21.1297 18.7513 23.9765 19.4056 25.2765C19.4084 25.2765 19.414 25.2765 19.4168 25.2795C19.4615 25.2795 19.5063 25.2765 19.551 25.2765C19.6098 25.2765 19.6685 25.2765 19.73 25.2826C19.9229 25.2585 20.1187 25.2464 20.32 25.2464C23.2951 25.2464 25.7081 27.8886 25.7081 31.1507C25.7081 34.4129 23.2951 37.055 20.32 37.055C17.3449 37.055 14.9318 34.4129 14.9318 31.1507C14.9318 29.4655 15.5777 27.9488 16.6095 26.8745C16.6123 26.8685 16.6179 26.8594 16.6207 26.8504C14.4984 24.8612 5.48086 21.3283 0.0759277 24.151L16.6626 55.7731H68.4191L85.0058 24.151C79.6009 21.3283 70.5834 24.8612 68.4611 26.8504H68.4555Z" fill="url(#paint0_linear_31_342)"/>
<g style="mix-blend-mode:multiply">
<path d="M68.4134 52.3455H16.6569L1.55495 23.5582C1.03766 23.7117 0.537134 23.9073 0.0673828 24.1541L16.6541 55.7761H68.4106L84.9973 24.1541C84.5275 23.9073 84.027 23.7147 83.5097 23.5582L68.4078 52.3455H68.4134Z" fill="url(#paint1_linear_31_342)"/>
</g>
<g style="mix-blend-mode:overlay">
<path d="M47.3083 28.0301C47.2412 28.3912 47.2048 28.7613 47.2048 29.1435C47.2048 32.222 49.4837 34.7138 52.291 34.7138C55.0984 34.7138 57.3772 32.219 57.3772 29.1435C57.3772 28.2738 57.1927 27.4553 56.8711 26.724C56.4014 29.2699 54.349 31.1868 51.8856 31.1868C49.8668 31.1868 48.1276 29.8958 47.3055 28.0301H47.3083Z" fill="white"/>
<path d="M33.5904 34.7168C36.4005 34.7168 38.6766 32.2221 38.6766 29.1465C38.6766 28.2798 38.4921 27.4613 38.1677 26.73C37.6952 29.2729 35.6428 31.1869 33.1822 31.1869C31.169 31.1869 29.4326 29.9019 28.6077 28.0421C28.5406 28.4002 28.5015 28.7674 28.5015 29.1465C28.5015 32.2251 30.7803 34.7168 33.5876 34.7168H33.5904Z" fill="white"/>
<path d="M64.7535 37.019C62.5809 37.019 60.7159 35.6106 59.863 33.5823C59.8071 33.9284 59.7708 34.2805 59.7708 34.6446C59.7708 37.9037 62.1838 40.5489 65.1589 40.5489C68.134 40.5489 70.5471 37.9067 70.5471 34.6446C70.5471 33.7629 70.3653 32.9293 70.0494 32.1769C69.5936 34.9305 67.3958 37.019 64.7507 37.019H64.7535Z" fill="white"/>
<path d="M20.7225 40.5489C23.6976 40.5489 26.1107 37.9067 26.1107 34.6446C26.1107 33.7629 25.9289 32.9293 25.6129 32.1769C25.1544 34.9305 22.9594 37.0159 20.3143 37.0159C18.1445 37.0159 16.2767 35.6076 15.4238 33.5823C15.3679 33.9284 15.3315 34.2805 15.3315 34.6416C15.3315 37.9007 17.7446 40.5459 20.7197 40.5459L20.7225 40.5489Z" fill="white"/>
<path d="M69.9457 29.5528C72.7587 27.8255 78.8626 25.7701 83.521 26.9437L85.003 24.118C79.598 21.2952 70.5805 24.8282 68.4583 26.8173C68.461 26.8264 68.4667 26.8324 68.4694 26.8414C69.1685 27.5697 69.6829 28.5056 69.9485 29.5528H69.9457Z" fill="white"/>
<path d="M56.3537 22.9653C56.8123 22.1498 57.4163 21.2049 58.2243 20.2208C61.2218 16.5675 65.5698 16.5224 65.5698 16.5224C65.5698 16.5224 65.978 17.6268 66.3163 19.4505C66.3136 19.3632 66.3079 19.2789 66.3052 19.1947C66.0954 15.4902 65.1672 12.9924 65.1672 12.9924C65.1672 12.9924 60.8192 13.0376 57.8217 16.6909C56.2866 18.5597 55.4785 20.3051 55.0339 21.238C55.5764 21.7074 56.0238 22.2973 56.3565 22.9684L56.3537 22.9653Z" fill="white"/>
<path d="M19.1764 22.7216C19.3862 19.0171 20.3145 16.5194 20.3145 16.5194C20.3145 16.5194 24.6625 16.5645 27.6599 20.2178C28.2471 20.9341 28.7281 21.6322 29.1223 22.2732C29.388 21.888 29.6927 21.5359 30.0395 21.235C29.5977 20.3021 28.7868 18.5597 27.2517 16.6879C24.2542 13.0346 19.9062 12.9894 19.9062 12.9894C19.9062 12.9894 18.9779 15.4872 18.7682 19.1917C18.6759 20.8047 18.7263 23.0857 19.1401 24.5362C19.1289 23.8922 19.1457 23.2663 19.1764 22.7186V22.7216Z" fill="white"/>
<path d="M15.2394 29.1525C15.5246 28.2648 15.9943 27.4733 16.6039 26.8384C16.6067 26.8323 16.6123 26.8233 16.6151 26.8143C14.4928 24.8251 5.47525 21.2922 0.0703125 24.1149L1.6613 27.1453C6.04564 25.6677 12.035 27.4372 15.2394 29.1495V29.1525Z" fill="white"/>
<path d="M33.9091 20.1065L42.9406 3.75382L51.9386 20.0463C52.5509 20.0523 53.1353 20.1787 53.6778 20.4014L42.5324 0.223877L31.387 20.4014C31.9462 20.1697 32.5502 20.0433 33.1821 20.0433C33.4282 20.0433 33.6686 20.0704 33.9063 20.1065H33.9091Z" fill="white"/>
</g>
<path d="M42.3171 29.1194L34.4236 40.5489L42.3171 51.9813L50.2106 40.5489L42.3171 29.1194Z" fill="#D58D21"/>
<path d="M42.1828 31.6082L36.0173 40.4375L42.1828 49.3963L48.0211 40.7385L42.1828 31.6082Z" fill="url(#paint2_linear_31_342)"/>
<g style="mix-blend-mode:overlay">
<path d="M42.317 40.5489V31.6082L36.0173 40.4375L42.317 40.5489Z" fill="white"/>
</g>
<g style="mix-blend-mode:overlay">
<path d="M48.0211 40.7385H36.0173L42.317 31.6082L48.0211 40.7385Z" fill="white"/>
</g>
<g style="mix-blend-mode:overlay" opacity="0.53">
<path d="M42.1828 49.3963V31.6082L36.0173 40.4375L42.1828 49.3963Z" fill="white"/>
</g>
<defs>
<linearGradient id="paint0_linear_31_342" x1="42.5353" y1="12.4387" x2="42.5353" y2="60.9341" gradientUnits="userSpaceOnUse">
<stop stop-color="#F7E436"/>
<stop offset="1" stop-color="#CE7C1D"/>
</linearGradient>
<linearGradient id="paint1_linear_31_342" x1="42.5351" y1="30.6241" x2="42.5351" y2="58.7674" gradientUnits="userSpaceOnUse">
<stop offset="0.25" stop-color="#F7E436"/>
<stop offset="1" stop-color="#D58D21"/>
</linearGradient>
<linearGradient id="paint2_linear_31_342" x1="41.6543" y1="32.0686" x2="42.3925" y2="46.9839" gradientUnits="userSpaceOnUse">
<stop stop-color="#F7E436"/>
<stop offset="1" stop-color="#CE7C1D"/>
</linearGradient>
</defs>
</svg>
