<svg width="71" height="68" viewBox="0 0 71 68" fill="none" xmlns="http://www.w3.org/2000/svg">
<path d="M45.2749 2.30816L44.8677 0L70.4467 16.6438L61.8661 13.1041L45.2749 2.30816Z" fill="#FFED66"/>
<path d="M8.44259 36.7977L0.328369 41.6943L44.8678 0L45.275 2.30816L8.44259 36.7977Z" fill="#F57105"/>
<path d="M70.4469 16.6438L70.8467 25.6921L26.3073 67.3863L25.9075 58.3454L70.4469 16.6438Z" fill="url(#paint0_linear_28_109)"/>
<path d="M25.9074 58.3454L26.3072 67.3863L0.728153 50.7425L0.328369 41.6943L25.9074 58.3454Z" fill="#F57105"/>
<path d="M25.0264 47.5937L25.9074 58.3454L0.328369 41.6943L8.44259 36.7977L25.0264 47.5937Z" fill="url(#paint1_linear_28_109)"/>
<path style="mix-blend-mode:overlay" opacity="0.7" d="M25.0635 47.9919L25.0265 47.5937L8.44269 36.7977L8.13916 36.9821L25.0635 47.9919Z" fill="url(#paint2_linear_28_109)"/>
<path d="M61.8661 13.1041L70.4468 16.6438L25.9074 58.3454L25.0264 47.5937L61.8661 13.1041Z" fill="url(#paint3_linear_28_109)"/>
<path style="mix-blend-mode:overlay" opacity="0.7" d="M62.1771 13.2369L61.8661 13.1041L25.0264 47.5937L25.0634 47.9846L62.1771 13.2369Z" fill="url(#paint4_linear_28_109)"/>
<path d="M45.275 2.30817L61.8662 13.1041L25.0265 47.5937L8.44263 36.7977L45.275 2.30817Z" fill="url(#paint5_linear_28_109)"/>
<path style="mix-blend-mode:overlay" d="M38.5303 8.62794L50.6794 23.583L61.8661 13.1041L45.2749 2.30817L38.5303 8.62794Z" fill="url(#paint6_linear_28_109)"/>
<path style="mix-blend-mode:overlay" d="M25.9148 46.7604L40.8624 32.7714L28.7133 17.8163L13.7656 31.8127L25.9148 46.7604Z" fill="url(#paint7_linear_28_109)"/>
<path d="M20.9028 30.4485C20.3994 30.9204 20.0588 31.4071 19.8959 31.9012C19.733 32.4027 19.7478 32.882 19.9403 33.3392C20.1328 33.8038 20.503 34.202 21.0286 34.5486L24.7896 36.9969C25.3079 37.3361 25.8779 37.5426 26.4998 37.6089C27.1143 37.6753 27.7214 37.6016 28.3285 37.3877C28.9356 37.1738 29.4834 36.8346 29.9943 36.3627C30.4977 35.8907 30.8383 35.404 30.9937 34.9026C31.1566 34.4085 31.1418 33.9292 30.9493 33.4646C30.7568 33 30.3941 32.6018 29.861 32.2552L27.5511 30.7508L24.8711 33.2655L26.411 34.2684L27.5289 33.2212L28.2989 33.7227C28.6394 33.9439 28.8245 34.1946 28.8541 34.4822C28.8764 34.7698 28.7283 35.05 28.4173 35.345C28.1064 35.64 27.7732 35.8022 27.4105 35.8391C27.0477 35.8686 26.6997 35.7727 26.3518 35.5515L22.5908 33.1032C22.2428 32.8746 22.0577 32.6239 22.0355 32.3437C22.0133 32.0635 22.1614 31.7685 22.4723 31.4809C22.7833 31.1859 23.1164 31.031 23.4866 30.9942C23.842 30.9573 24.1899 31.0532 24.5379 31.2818L26.1 29.8217C25.567 29.4751 24.9969 29.2686 24.375 29.2022C23.7605 29.1359 23.1534 29.2022 22.5538 29.4234C21.9541 29.6373 21.4062 29.9839 20.9028 30.4559" fill="url(#paint8_linear_28_109)"/>
<path d="M34.6066 29.5488C34.2957 29.8437 33.9699 29.9986 33.6293 30.0281C33.2888 30.0502 32.9408 29.9544 32.5854 29.7184L28.8245 27.2701C28.0989 26.7982 28.0471 26.2672 28.669 25.6847C29.2909 25.1021 29.972 25.0431 30.6975 25.5224L34.4585 27.9707C34.8139 28.1993 35.0064 28.45 35.036 28.7155C35.0656 28.981 34.9249 29.2612 34.614 29.5562M27.0995 24.667C26.596 25.139 26.2629 25.6183 26.1148 26.1124C25.9593 26.6064 25.9889 27.0858 26.1814 27.5356C26.3739 27.9854 26.7515 28.3836 27.2771 28.7302L31.0381 31.1785C31.5712 31.5251 32.1338 31.7316 32.7409 31.8053C33.348 31.8717 33.9403 31.8053 34.54 31.5988C35.1322 31.3924 35.6875 31.0531 36.1909 30.5812C36.6944 30.1092 37.0275 29.6225 37.1756 29.1284C37.3237 28.6344 37.3089 28.1624 37.109 27.7126C36.9091 27.2554 36.5463 26.8572 36.0133 26.5106L32.2523 24.0623C31.7192 23.7157 31.1492 23.5092 30.5421 23.4355C29.9424 23.3691 29.3353 23.4355 28.743 23.642C28.1507 23.8484 27.6029 24.1877 27.0921 24.667" fill="url(#paint9_linear_28_109)"/>
<path d="M32.8743 19.4313L31.3196 20.884L40.1741 26.6507L44.7939 22.322L43.0911 21.2158L40.0261 24.0845L32.8743 19.4313Z" fill="url(#paint10_linear_28_109)"/>
<path d="M45.9266 18.5611L40.4703 15.0067L41.3735 14.1586C41.6918 13.8563 42.0546 13.6867 42.4618 13.6498C42.8616 13.5982 43.2392 13.6867 43.5797 13.9079L46.7484 15.9653C47.089 16.1866 47.2741 16.4668 47.2889 16.7839C47.3111 17.101 47.1556 17.4033 46.8373 17.7057L45.934 18.5537M39.6855 13.0451L37.2275 15.3459L46.0821 21.1126L48.5401 18.8118C49.0583 18.3251 49.3989 17.8237 49.5543 17.2927C49.7098 16.7691 49.6802 16.2677 49.4803 15.781C49.2656 15.2943 48.8732 14.874 48.3106 14.5052L45.1419 12.4478C44.5718 12.0791 43.9647 11.8579 43.328 11.7841C42.6765 11.7104 42.0398 11.7841 41.4105 11.998C40.7812 12.2192 40.2037 12.5658 39.6855 13.0525" fill="url(#paint11_linear_28_109)"/>
<path style="mix-blend-mode:overlay" d="M20.9101 42.5054C25.6927 45.5731 29.0243 48.8916 28.3654 49.924C27.6991 50.9564 23.2866 49.3045 18.5039 46.2368C13.7213 43.1691 10.3897 39.8507 11.056 38.8256C11.7223 37.7932 16.1348 39.4451 20.9175 42.5054H20.9101Z" fill="url(#paint12_radial_28_109)"/>
<defs>
<linearGradient id="paint0_linear_28_109" x1="29.5932" y1="59.2528" x2="70.0675" y2="21.8489" gradientUnits="userSpaceOnUse">
<stop stop-color="#FFA705"/>
<stop offset="0.45" stop-color="#FF9605"/>
<stop offset="1" stop-color="#FF8605"/>
</linearGradient>
<linearGradient id="paint1_linear_28_109" x1="-9.21473" y1="68.8317" x2="18.7077" y2="45.1251" gradientUnits="userSpaceOnUse">
<stop stop-color="#FFA705"/>
<stop offset="0.45" stop-color="#FF9605"/>
<stop offset="1" stop-color="#FF8605"/>
</linearGradient>
<linearGradient id="paint2_linear_28_109" x1="21.6374" y1="45.5141" x2="2.1401" y2="32.9893" gradientUnits="userSpaceOnUse">
<stop stop-color="white"/>
<stop offset="0.11" stop-color="white" stop-opacity="0.87"/>
<stop offset="0.44" stop-color="white" stop-opacity="0.5"/>
<stop offset="0.71" stop-color="white" stop-opacity="0.23"/>
<stop offset="0.9" stop-color="white" stop-opacity="0.06"/>
<stop offset="1" stop-color="white" stop-opacity="0"/>
</linearGradient>
<linearGradient id="paint3_linear_28_109" x1="84.2758" y1="50.7326" x2="46.3756" y2="36.5446" gradientUnits="userSpaceOnUse">
<stop stop-color="#FFEA05"/>
<stop offset="0.59" stop-color="#FFCB05"/>
<stop offset="1" stop-color="#FFBB05"/>
</linearGradient>
<linearGradient id="paint4_linear_28_109" x1="61.2821" y1="13.8844" x2="22.6423" y2="50.3313" gradientUnits="userSpaceOnUse">
<stop stop-color="white"/>
<stop offset="0.11" stop-color="white" stop-opacity="0.87"/>
<stop offset="0.44" stop-color="white" stop-opacity="0.5"/>
<stop offset="0.71" stop-color="white" stop-opacity="0.23"/>
<stop offset="0.9" stop-color="white" stop-opacity="0.06"/>
<stop offset="1" stop-color="white" stop-opacity="0"/>
</linearGradient>
<linearGradient id="paint5_linear_28_109" x1="62.9557" y1="27.6503" x2="-0.130426" y2="21.496" gradientUnits="userSpaceOnUse">
<stop stop-color="#FFEA05"/>
<stop offset="0.59" stop-color="#FFCB05"/>
<stop offset="1" stop-color="#FFBB05"/>
</linearGradient>
<linearGradient id="paint6_linear_28_109" x1="36.3844" y1="22.7202" x2="54.2083" y2="7.59066" gradientUnits="userSpaceOnUse">
<stop stop-color="white"/>
<stop offset="0.11" stop-color="white" stop-opacity="0.87"/>
<stop offset="0.44" stop-color="white" stop-opacity="0.5"/>
<stop offset="0.71" stop-color="white" stop-opacity="0.23"/>
<stop offset="0.9" stop-color="white" stop-opacity="0.06"/>
<stop offset="1" stop-color="white" stop-opacity="0"/>
</linearGradient>
<linearGradient id="paint7_linear_28_109" x1="40.2602" y1="24.1335" x2="18.2402" y2="38.136" gradientUnits="userSpaceOnUse">
<stop stop-color="white"/>
<stop offset="0.11" stop-color="white" stop-opacity="0.87"/>
<stop offset="0.44" stop-color="white" stop-opacity="0.5"/>
<stop offset="0.71" stop-color="white" stop-opacity="0.23"/>
<stop offset="0.9" stop-color="white" stop-opacity="0.06"/>
<stop offset="1" stop-color="white" stop-opacity="0"/>
</linearGradient>
<linearGradient id="paint8_linear_28_109" x1="17.992" y1="50.8374" x2="33.527" y2="14.2668" gradientUnits="userSpaceOnUse">
<stop stop-color="#FFA705"/>
<stop offset="0.45" stop-color="#FF9605"/>
<stop offset="1" stop-color="#FF8605"/>
</linearGradient>
<linearGradient id="paint9_linear_28_109" x1="21.1258" y1="52.171" x2="36.6681" y2="15.5998" gradientUnits="userSpaceOnUse">
<stop stop-color="#FFA705"/>
<stop offset="0.45" stop-color="#FF9605"/>
<stop offset="1" stop-color="#FF8605"/>
</linearGradient>
<linearGradient id="paint10_linear_28_109" x1="24.3752" y1="53.5544" x2="39.9175" y2="16.9833" gradientUnits="userSpaceOnUse">
<stop stop-color="#FFA705"/>
<stop offset="0.45" stop-color="#FF9605"/>
<stop offset="1" stop-color="#FF8605"/>
</linearGradient>
<linearGradient id="paint11_linear_28_109" x1="26.9841" y1="54.65" x2="42.5196" y2="18.0868" gradientUnits="userSpaceOnUse">
<stop stop-color="#FFA705"/>
<stop offset="0.45" stop-color="#FF9605"/>
<stop offset="1" stop-color="#FF8605"/>
</linearGradient>
<radialGradient id="paint12_radial_28_109" cx="0" cy="0" r="1" gradientUnits="userSpaceOnUse" gradientTransform="translate(19.6622 45.2358) rotate(-57.1069) scale(2.23051 10.2132)">
<stop stop-color="white"/>
<stop offset="0.03" stop-color="white" stop-opacity="0.9"/>
<stop offset="0.1" stop-color="white" stop-opacity="0.72"/>
<stop offset="0.17" stop-color="white" stop-opacity="0.55"/>
<stop offset="0.25" stop-color="white" stop-opacity="0.4"/>
<stop offset="0.33" stop-color="white" stop-opacity="0.27"/>
<stop offset="0.41" stop-color="white" stop-opacity="0.17"/>
<stop offset="0.51" stop-color="white" stop-opacity="0.1"/>
<stop offset="0.62" stop-color="white" stop-opacity="0.04"/>
<stop offset="0.76" stop-color="white" stop-opacity="0"/>
<stop offset="1" stop-color="white" stop-opacity="0"/>
</radialGradient>
</defs>
</svg>
