<svg width="40" height="30" viewBox="0 0 40 30" fill="none" xmlns="http://www.w3.org/2000/svg">
<path d="M13.3432 27.3337C20.7124 27.3337 26.6863 21.2148 26.6863 13.6669C26.6863 6.11886 20.7124 0 13.3432 0C5.97393 0 0 6.11886 0 13.6669C0 21.2148 5.97393 27.3337 13.3432 27.3337Z" fill="url(#paint0_linear_102_1223)"/>
<path d="M26.0345 14.8508C26.0345 14.8508 24.8328 20.8608 21.8335 22.9469C21.8335 22.9469 23.7065 18.8821 23.5329 16.0045C23.5329 16.0045 24.6298 17.5741 26.0345 14.8508Z" fill="#C2C2C2"/>
<path d="M25.5661 10.91C25.5661 10.91 26.7613 13.5763 25.1405 14.9715C23.5196 16.3667 23.0481 14.1498 23.6179 12.5031C24.1876 10.8564 24.7803 10.0716 25.5694 10.91H25.5661Z" fill="#C2C2C2"/>
<g style="mix-blend-mode:multiply" opacity="0.32">
<path d="M8.86706 0.791504C6.31958 3.28005 4.7315 6.78815 4.7315 10.6786C4.7315 18.2281 10.7073 24.3454 18.0747 24.3454C19.6464 24.3454 21.1526 24.0637 22.5508 23.5539C20.1572 25.8949 16.9122 27.3371 13.3399 27.3371C5.97577 27.3371 0 21.2163 0 13.6669C0 7.72722 3.70007 2.67636 8.86706 0.791504Z" fill="url(#paint1_linear_102_1223)"/>
</g>
<g opacity="0.55">
<g style="mix-blend-mode:overlay">
<path d="M23.8343 7.57296C23.8343 7.57296 27.3314 17.46 18.9391 19.5327C10.5435 21.6054 5.66469 4.2359 11.6012 2.2672C17.5376 0.298506 21.683 4.34658 23.8343 7.57296Z" fill="#C2C2C2"/>
</g>
<g style="mix-blend-mode:overlay">
<path d="M22.9633 6.29181C22.9633 6.29181 25.3372 12.9961 19.643 14.4014C13.9522 15.8066 10.6417 4.02797 14.666 2.69315C18.6902 1.35833 21.5029 4.10176 22.9633 6.29181Z" fill="#C2C2C2"/>
</g>
<g style="mix-blend-mode:overlay">
<path d="M22.0139 5.95306C22.0139 5.95306 23.5365 10.256 19.8823 11.1582C16.228 12.0604 14.103 4.50085 16.6865 3.64227C19.27 2.78704 21.0741 4.5478 22.0139 5.95306Z" fill="#C2C2C2"/>
</g>
</g>
<path d="M17.9307 3.79315C18.042 3.69589 18.1697 3.62211 18.3072 3.5718L18.3171 3.56845C18.3498 3.55503 18.3858 3.54832 18.4218 3.53826L19.5941 3.19952L20.082 3.77974C20.9169 4.14866 21.8272 4.84961 22.6294 5.79874C23.4382 6.75794 23.9818 7.79427 24.2175 8.69645L24.6923 9.26325L24.2601 10.2359C24.2241 10.3499 24.1749 10.4539 24.1193 10.5511L24.1029 10.588H24.0996C24.0374 10.6853 23.9654 10.7792 23.8803 10.8563C22.9274 11.6981 20.822 10.8027 19.1782 8.85072C17.5345 6.90215 16.9746 4.63832 17.9274 3.79315H17.9307Z" fill="url(#paint2_linear_102_1223)"/>
<path d="M19.2729 3.39075C18.4412 4.12524 18.9291 6.10064 20.3632 7.80103C21.7974 9.50142 23.6344 10.2829 24.4628 9.54838C25.2945 8.81389 24.8066 6.83848 23.3724 5.13809C21.9382 3.4377 20.1013 2.65626 19.2729 3.39075Z" fill="url(#paint3_linear_102_1223)"/>
<path d="M22.741 5.59418C22.646 5.92956 22.5642 6.26494 22.4954 6.60033C22.4496 6.84516 22.3448 7.07657 22.2466 7.25432L21.5 6.19787C21.8209 5.82559 22.2662 5.61095 22.741 5.59418Z" fill="#61615F"/>
<path d="M22.9011 5.06765C22.8454 5.2454 22.7897 5.4198 22.7406 5.5942C22.2691 5.61097 21.8238 5.82562 21.4996 6.19789L21.2017 5.77866C21.6077 5.21857 22.2593 4.94356 22.8978 5.06765H22.9011Z" fill="#4B4B49"/>
<path d="M23.0356 4.73227C23.0126 4.78257 22.993 4.83288 22.9733 4.88319C22.7572 5.51035 22.5935 6.14087 22.4724 6.76133L22.6328 6.80493C22.6819 6.81835 22.731 6.82841 22.7801 6.83847C22.7114 7.11013 22.5739 7.37173 22.4625 7.55619L22.2497 7.25435C22.3447 7.07659 22.4527 6.84518 22.4986 6.60035C22.5673 6.26497 22.6492 5.92958 22.7441 5.5942C22.7932 5.41645 22.8489 5.24205 22.9046 5.06765C22.2661 4.94356 21.6145 5.21857 21.2084 5.77866L20.9956 5.47682C21.1724 5.26888 21.3296 5.13137 21.5261 5.00393C21.9746 4.71885 22.5215 4.61153 23.0388 4.73227H23.0356Z" fill="#2D2D2D"/>
<path d="M23.1045 6.53662C23.1733 6.25155 23.2518 5.95977 23.3402 5.67469C23.445 5.32589 23.6579 5.03411 23.9296 4.82617L24.4273 6.02684C24.2931 6.1677 24.1392 6.28173 23.9624 6.37229C23.6972 6.50309 23.4057 6.5601 23.1045 6.53998V6.53662Z" fill="#61615F"/>
<path d="M23.1044 6.53661C23.0258 6.53325 22.9472 6.52319 22.8687 6.50978C22.9833 6.0067 23.1273 5.50027 23.3074 4.99049C23.3958 4.74231 23.5432 4.52431 23.7298 4.34656L23.9296 4.8228C23.6578 5.03074 23.4449 5.32252 23.3402 5.67132C23.2518 5.95975 23.1732 6.24818 23.1044 6.53325V6.53661Z" fill="#4B4B49"/>
<path d="M22.78 6.83844C22.7308 6.82838 22.6817 6.81832 22.6326 6.80491L22.4722 6.76131C22.59 6.13749 22.757 5.51033 22.9732 4.88316C22.9895 4.83285 23.0124 4.78255 23.0354 4.73224C23.1598 4.45052 23.3497 4.19898 23.5887 4.00781L23.7328 4.3499C23.5462 4.5243 23.3988 4.7423 23.3104 4.99384C23.1303 5.50027 22.9862 6.00669 22.8716 6.51312C22.9502 6.52989 23.0288 6.5366 23.1074 6.53995C23.4086 6.56008 23.7001 6.50306 23.9653 6.37226C24.1421 6.28506 24.296 6.16768 24.4303 6.02682L24.5743 6.37226C24.4368 6.49971 24.2862 6.60368 24.1159 6.69088C23.7132 6.88875 23.258 6.94241 22.7865 6.84515L22.78 6.83844Z" fill="#2D2D2D"/>
<path d="M25.2656 4.50417C25.0954 4.80937 24.9447 5.11792 24.8138 5.42983C24.7155 5.65789 24.5846 5.85912 24.4274 6.02346L23.9297 4.82279C24.303 4.53436 24.8007 4.40691 25.2656 4.50082V4.50417Z" fill="#61615F"/>
<path d="M25.5504 4.03124C25.4489 4.19223 25.3507 4.34315 25.2623 4.50749C24.7973 4.41358 24.2996 4.54103 23.9263 4.82946L23.7266 4.35321C24.1948 3.9038 24.9479 3.74952 25.5471 4.0346L25.5504 4.03124Z" fill="#4B4B49"/>
<path d="M25.7763 3.73949C25.7403 3.78309 25.7043 3.82334 25.6748 3.87029C25.2884 4.42703 24.997 5.00388 24.7645 5.5841L24.9119 5.66123C24.9577 5.68471 25.0003 5.70483 25.0461 5.72496C24.9217 5.97649 24.7645 6.19114 24.5746 6.36889L24.4305 6.02345C24.5877 5.85911 24.7187 5.65788 24.8169 5.42982C24.9479 5.11791 25.0985 4.80936 25.2688 4.50416C25.3572 4.33983 25.4554 4.1889 25.5569 4.02792C24.9544 3.7462 24.2013 3.89712 23.7364 4.34653L23.5923 4.00444C23.7691 3.85687 23.9721 3.73949 24.1882 3.66235C24.6958 3.47118 25.2917 3.4846 25.7796 3.73949H25.7763Z" fill="#2D2D2D"/>
<path d="M25.4097 5.50698C25.5341 5.24539 25.6716 4.98379 25.8255 4.7289C26.0122 4.42034 26.3003 4.19899 26.6376 4.08496L26.7358 5.38625C26.5786 5.47345 26.4149 5.53717 26.2381 5.56735C25.9696 5.62101 25.6913 5.59418 25.4097 5.50698Z" fill="#61615F"/>
<path d="M25.4098 5.50693C25.3378 5.48346 25.2657 5.45663 25.1904 5.42309C25.4033 4.96026 25.6554 4.50078 25.973 4.05808C26.1302 3.84343 26.3463 3.67574 26.5951 3.56842L26.6344 4.08491C26.3004 4.19894 26.0123 4.42029 25.8224 4.72885C25.6652 4.98374 25.5277 5.24198 25.4065 5.50693H25.4098Z" fill="#4B4B49"/>
<path d="M25.0428 5.72496C24.997 5.70483 24.9544 5.68471 24.9086 5.66123L24.7612 5.5841C24.997 5.00053 25.2884 4.42367 25.6715 3.87029C25.7043 3.82334 25.7403 3.78309 25.773 3.73949C25.976 3.49466 26.2511 3.31355 26.5654 3.19952L26.5949 3.5718C26.346 3.67912 26.1299 3.84681 25.9728 4.06146C25.6551 4.50416 25.3997 4.96028 25.1902 5.42647C25.2622 5.45665 25.3342 5.48348 25.4096 5.51031C25.6912 5.59751 25.9695 5.62434 26.238 5.57068C26.4148 5.5405 26.5785 5.47677 26.7357 5.38957L26.7652 5.76185C26.6178 5.83563 26.4639 5.88929 26.3002 5.91948C25.9073 5.98991 25.4783 5.92954 25.0428 5.72831V5.72496Z" fill="#2D2D2D"/>
<path d="M28.0326 4.3231C27.7346 4.51426 27.4792 4.73226 27.2566 4.97039C27.0928 5.14478 26.9193 5.28565 26.7359 5.38626L26.6377 4.08497C27.0961 3.92734 27.6495 4.00784 28.0359 4.31974L28.0326 4.3231Z" fill="#61615F"/>
<path d="M28.5333 4.06145C28.3565 4.13188 28.1895 4.2325 28.0356 4.32305C27.6525 4.01115 27.0959 3.93065 26.6374 4.08828L26.5981 3.57179C27.2236 3.29343 28.1175 3.46782 28.5333 4.06145Z" fill="#4B4B49"/>
<path d="M28.8968 3.94074C28.8411 3.95416 28.7822 3.97092 28.7298 3.99105C28.0684 4.23588 27.5543 4.64169 27.1581 5.09446L27.2596 5.2219C27.2891 5.26215 27.3185 5.29904 27.348 5.33593C27.1581 5.51704 26.9682 5.66461 26.7652 5.76522L26.7357 5.39295C26.9191 5.29233 27.0926 5.15147 27.2563 4.97707C27.479 4.73895 27.7344 4.52095 28.0324 4.32978C28.1863 4.23923 28.3532 4.13862 28.5301 4.06819C28.1142 3.47791 27.2203 3.30016 26.5949 3.57853L26.5654 3.20625C26.8012 3.12576 27.0599 3.08551 27.3251 3.09557C27.9407 3.11234 28.5792 3.44102 28.8968 3.94745V3.94074Z" fill="#2D2D2D"/>
<path d="M27.7212 5.28561C27.9242 5.10115 28.1567 4.93681 28.4154 4.80601C28.7297 4.63832 29.1095 4.63497 29.4501 4.77248L28.733 5.84906C28.5758 5.82893 28.435 5.79204 28.2975 5.73167C28.0945 5.63441 27.9111 5.48684 27.7245 5.28561H27.7212Z" fill="#61615F"/>
<path d="M27.7214 5.28561C27.6722 5.23195 27.6264 5.17829 27.5806 5.11457C27.9342 4.78254 28.373 4.50082 28.9034 4.32977C29.1654 4.24257 29.4568 4.25263 29.7351 4.34319L29.4502 4.77248C29.1097 4.63497 28.7299 4.63832 28.4155 4.80601C28.1569 4.93681 27.9244 5.10451 27.7214 5.28561Z" fill="#4B4B49"/>
<path d="M27.3447 5.33257C27.3152 5.29567 27.2858 5.25878 27.2563 5.21854L27.1548 5.09109C27.551 4.63832 28.0651 4.23586 28.7265 3.98768C28.7822 3.96756 28.8378 3.95079 28.8935 3.93737C29.2177 3.86359 29.5909 3.89042 29.9347 4.03463L29.7285 4.34319C29.4501 4.25263 29.1554 4.24257 28.8968 4.32977C28.3663 4.50082 27.9275 4.78254 27.5739 5.11457C27.6197 5.17829 27.6689 5.23195 27.7147 5.28561C27.9013 5.48684 28.0847 5.63441 28.2877 5.73167C28.4252 5.79204 28.566 5.82893 28.7232 5.84906L28.5169 6.15761C28.3827 6.13749 28.2648 6.10395 28.1469 6.05364C27.8784 5.92955 27.6263 5.68807 27.3382 5.33257H27.3447Z" fill="#2D2D2D"/>
<path d="M30.3929 5.83569C30.0458 5.81892 29.7184 5.82563 29.3844 5.86923C29.1453 5.89941 28.9096 5.86252 28.7295 5.85246L29.4466 4.77588C29.6889 4.86979 29.8755 5.02742 30.0392 5.20517C30.2095 5.37621 30.3176 5.61098 30.3896 5.83904L30.3929 5.83569Z" fill="#61615F"/>
<path d="M30.94 5.88931C30.76 5.85577 30.5766 5.83901 30.3932 5.8323C30.3212 5.60424 30.2099 5.36947 30.0429 5.19842C29.8791 5.02067 29.6925 4.8664 29.4502 4.76913L29.7351 4.33984C29.8235 4.37003 29.9086 4.40692 29.997 4.44717C30.0756 4.48741 30.1444 4.53437 30.2131 4.58467C30.3507 4.68529 30.4751 4.80267 30.5864 4.93012C30.7861 5.21855 30.94 5.5271 30.9433 5.88596L30.94 5.88931Z" fill="#4B4B49"/>
<path d="M31.3001 5.97654C31.2445 5.95977 31.1921 5.94635 31.1364 5.93629C30.9694 5.90611 30.8057 5.87928 30.6485 5.85915C30.4815 5.84909 30.3178 5.83903 30.1606 5.83903C29.8496 5.82897 29.5319 5.8558 29.2307 5.89605V6.06374C29.2373 6.11404 29.2405 6.16435 29.2405 6.21131C29.103 6.21801 28.972 6.21466 28.8476 6.20124C28.7199 6.17441 28.6151 6.17441 28.5234 6.161L28.7297 5.85245C28.9098 5.86586 29.1423 5.8994 29.3846 5.86922C29.7186 5.82562 30.046 5.82226 30.3931 5.83568C30.5765 5.83903 30.7598 5.85915 30.9399 5.89269C30.9399 5.53719 30.7828 5.22528 30.583 4.93685C30.475 4.80605 30.3473 4.69202 30.2098 4.59141C30.141 4.5411 30.0722 4.4975 29.9936 4.4539C29.9085 4.4103 29.8201 4.37676 29.7317 4.34658L29.938 4.03802C30.0591 4.08833 30.2098 4.16212 30.3014 4.22584C30.4029 4.29292 30.4979 4.3667 30.5896 4.44719C31.0218 4.81947 31.3034 5.40639 31.2968 5.97654H31.3001Z" fill="#2D2D2D"/>
<path d="M29.5877 6.42931C29.7285 6.4226 29.8693 6.41925 30.0167 6.41925C30.1575 6.42596 30.2983 6.43602 30.4424 6.45279C30.8025 6.48297 31.1103 6.67414 31.3559 6.94245L30.2295 7.54949C30.0855 7.44888 29.9676 7.32814 29.8792 7.18392C29.7187 6.97599 29.6401 6.71439 29.5845 6.42931H29.5877Z" fill="#61615F"/>
<path d="M29.5874 6.42928C29.5743 6.3555 29.5677 6.27836 29.5645 6.19451C29.8068 6.1811 30.0622 6.17774 30.3208 6.19116C30.5697 6.21463 30.8316 6.24817 31.1034 6.30183C31.3588 6.3622 31.5979 6.50642 31.8041 6.70094L31.3555 6.94242C31.1067 6.67411 30.8022 6.48294 30.442 6.45276C30.2946 6.43599 30.1538 6.42593 30.0163 6.41922C29.869 6.41922 29.7249 6.41922 29.5874 6.42928Z" fill="#4B4B49"/>
<path d="M29.2404 6.21131C29.2404 6.16436 29.2339 6.11405 29.2339 6.06374V5.89605C29.5319 5.85581 29.8495 5.82897 30.1605 5.83904C30.3177 5.83904 30.4814 5.8491 30.6484 5.85916C30.8089 5.87928 30.9693 5.90611 31.1363 5.9363C31.192 5.94636 31.2444 5.96313 31.3 5.97654C31.6176 6.05703 31.8861 6.27168 32.1285 6.52322L31.8076 6.69762C31.6013 6.50309 31.359 6.36223 31.1068 6.29851C30.8351 6.24485 30.5731 6.21131 30.3243 6.18783C30.0623 6.17442 29.8069 6.18113 29.5679 6.19119C29.5679 6.27168 29.5777 6.34882 29.5908 6.42596C29.6465 6.71103 29.7218 6.97263 29.8855 7.18057C29.9739 7.32478 30.0918 7.44552 30.2359 7.54613L29.9117 7.72053C29.784 7.62327 29.6825 7.51595 29.6006 7.3818C29.378 7.07995 29.2732 6.68085 29.2404 6.20796V6.21131Z" fill="#2D2D2D"/>
<path d="M31.67 8.36446C31.4015 8.14647 31.0905 7.98884 30.8023 7.86474C30.5895 7.77419 30.3799 7.67693 30.2358 7.54613L31.3622 6.93909C31.67 7.32478 31.8305 7.88151 31.6733 8.36446H31.67Z" fill="#61615F"/>
<path d="M32.0956 8.7367C31.9712 8.59919 31.814 8.47845 31.67 8.36442C31.8271 7.88147 31.67 7.32474 31.3589 6.93905L31.8075 6.69757C31.9254 6.82837 32.0334 6.98265 32.1218 7.14698C32.2135 7.30797 32.2528 7.50249 32.2855 7.6836C32.3248 7.86806 32.3117 8.05923 32.279 8.23698C32.2462 8.41809 32.1971 8.58578 32.0956 8.7367Z" fill="#4B4B49"/>
<path d="M32.3412 9.03186C32.3052 8.9849 32.2692 8.93795 32.2332 8.89435C31.778 8.37115 31.1985 8.019 30.6582 7.81777C30.6353 7.86472 30.6025 7.91503 30.5763 7.95863C30.5501 8.00223 30.5272 8.04248 30.5043 8.08272C30.2849 7.96869 30.059 7.86137 29.9116 7.72051L30.2358 7.54611C30.3799 7.67356 30.5894 7.77417 30.8023 7.86472C31.0904 7.98546 31.4015 8.14645 31.67 8.36445C31.814 8.47512 31.9712 8.59921 32.0956 8.73672C32.1971 8.5858 32.243 8.41811 32.279 8.237C32.3118 8.05589 32.3248 7.86472 32.2856 7.68362C32.2495 7.50251 32.2102 7.30799 32.1218 7.14701C32.0334 6.98267 31.9286 6.83175 31.8075 6.69759L32.1284 6.52319C32.2856 6.73113 32.4427 6.96254 32.5311 7.2275C32.6294 7.5394 32.6883 7.86472 32.6425 8.18334C32.6228 8.4986 32.5017 8.79038 32.3412 9.03186Z" fill="#2D2D2D"/>
<path d="M30.6845 8.42145C30.9203 8.54889 31.1691 8.70988 31.3754 8.90775C31.6537 9.14252 31.7913 9.49132 31.8273 9.85689L30.5699 9.65566C30.5175 9.48797 30.488 9.32363 30.5011 9.15929C30.4946 9.0352 30.511 8.91446 30.5503 8.79037C30.5797 8.66963 30.6157 8.54889 30.6812 8.42145H30.6845Z" fill="#61615F"/>
<path d="M30.6846 8.42145C30.7173 8.36108 30.7501 8.294 30.7894 8.22357C31.0055 8.33089 31.2052 8.46505 31.4213 8.62268C31.621 8.78366 31.8077 8.97148 31.9976 9.18277C32.1679 9.38735 32.2792 9.65566 32.3283 9.93738L31.8273 9.85689C31.788 9.49132 31.6505 9.14587 31.3755 8.90775C31.1692 8.70988 30.9171 8.54889 30.6846 8.42145Z" fill="#4B4B49"/>
<path d="M30.501 8.08606C30.5239 8.04581 30.5468 8.00557 30.573 7.96197C30.5992 7.91501 30.6319 7.86806 30.6548 7.82111C31.1951 8.01898 31.7714 8.37449 32.2298 8.89769C32.2691 8.94129 32.3051 8.98824 32.3379 9.03519C32.4459 9.16935 32.518 9.32027 32.5736 9.48461C32.626 9.64559 32.6752 9.82334 32.6882 10.0011L32.3281 9.94408C32.2789 9.66236 32.1676 9.39405 31.9974 9.18947C31.8042 8.97818 31.6208 8.79036 31.4211 8.62938C31.2049 8.47175 31.0052 8.33424 30.7891 8.23027C30.7531 8.3007 30.7171 8.36778 30.6843 8.42815C30.6188 8.55559 30.5828 8.67633 30.5533 8.79707C30.514 8.92116 30.4977 9.0419 30.5042 9.16599C30.4911 9.33033 30.5206 9.49467 30.573 9.66236L30.2128 9.60534C30.1702 9.45107 30.1473 9.30685 30.1604 9.15928C30.144 8.98824 30.2063 8.81719 30.2488 8.64615C30.275 8.55895 30.3176 8.46839 30.3634 8.37784C30.3994 8.28729 30.4453 8.19338 30.501 8.09277V8.08606Z" fill="#2D2D2D"/>
<path d="M31.2841 11.185C31.1728 10.8597 31.0025 10.541 30.8421 10.2627C30.7242 10.0547 30.6129 9.85016 30.5703 9.65228L31.8277 9.85351C31.8539 10.3532 31.6574 10.8731 31.2809 11.1816L31.2841 11.185Z" fill="#61615F"/>
<path d="M31.4643 11.7216C31.4086 11.5371 31.3464 11.356 31.2842 11.185C31.6607 10.8764 31.8572 10.3566 31.831 9.85687L32.332 9.93736C32.4466 10.6618 32.0537 11.4231 31.4675 11.7216H31.4643Z" fill="#4B4B49"/>
<path d="M31.5362 12.0805C31.5264 12.0268 31.5199 11.9698 31.5068 11.9161C31.4315 11.5908 31.307 11.2621 31.1924 10.9703C31.068 10.6719 30.9108 10.3868 30.7569 10.1386L30.6063 10.209C30.5605 10.2325 30.5179 10.2526 30.4753 10.2728C30.364 10.0346 30.2494 9.80992 30.2134 9.59863L30.5736 9.65565C30.6129 9.85352 30.7275 10.0615 30.8453 10.266C31.0058 10.5444 31.1761 10.863 31.2874 11.1883C31.3496 11.3594 31.4118 11.5405 31.4675 11.725C32.0536 11.4265 32.4465 10.6652 32.3319 9.94072L32.6921 9.99774C32.6986 10.256 32.6921 10.5344 32.6135 10.7859C32.44 11.3795 32.0438 11.8725 31.5362 12.0838V12.0805Z" fill="#2D2D2D"/>
<path d="M30.4325 10.6752C30.5471 10.9268 30.6748 11.2051 30.76 11.4869C30.8647 11.8256 30.8615 12.2046 30.7305 12.5299L29.6729 11.8021C29.7121 11.6143 29.7776 11.4399 29.8595 11.2756C30.0068 11.0307 30.1837 10.8329 30.4292 10.6752H30.4325Z" fill="#61615F"/>
<path d="M30.4326 10.6752C30.4916 10.6383 30.557 10.6014 30.6258 10.5578C30.855 10.9972 31.0417 11.5036 31.1628 12.0268C31.2316 12.2917 31.2217 12.5634 31.1497 12.8149L30.7306 12.5265C30.8583 12.2012 30.8616 11.8222 30.7601 11.4835C30.6749 11.2017 30.5472 10.92 30.4326 10.6718V10.6752Z" fill="#4B4B49"/>
<path d="M30.4752 10.2694C30.5178 10.2493 30.5603 10.2292 30.6062 10.2057L30.7568 10.1353C30.9107 10.3868 31.0679 10.6685 31.1923 10.967C31.3069 11.2588 31.428 11.5908 31.5066 11.9128C31.5197 11.9664 31.5296 12.0201 31.5361 12.0771C31.5885 12.3924 31.5623 12.7278 31.4542 13.0263L31.153 12.8183C31.2218 12.5634 31.2349 12.2951 31.1661 12.0302C31.0449 11.5036 30.8583 10.9972 30.6291 10.5612C30.5571 10.6048 30.4948 10.6417 30.4359 10.6786C30.1903 10.8362 30.0102 11.0341 29.8662 11.2789C29.7843 11.4432 29.7155 11.6176 29.6795 11.8055L29.375 11.5975C29.4208 11.4231 29.4896 11.2588 29.5649 11.1045C29.614 11.014 29.673 10.9301 29.7417 10.8496C29.8007 10.7691 29.8662 10.6953 29.9447 10.6283C30.1052 10.4941 30.2755 10.3734 30.4785 10.2694H30.4752Z" fill="#2D2D2D"/>
<path d="M29.7744 13.5394C29.7613 13.194 29.7155 12.8418 29.6664 12.5098C29.6336 12.265 29.6369 12.0268 29.6762 11.8021L30.7338 12.5299C30.6913 12.6439 30.6421 12.7546 30.5799 12.8586C30.5144 12.9592 30.4391 13.0531 30.3573 13.1369C30.1935 13.3113 30.0004 13.4522 29.7744 13.5361V13.5394Z" fill="#61615F"/>
<path d="M29.7941 14.0962L29.7744 13.5428C30.0003 13.4589 30.1935 13.3181 30.3573 13.1437C30.4391 13.0565 30.5144 12.9626 30.5799 12.8653C30.6389 12.7613 30.6912 12.6507 30.7338 12.5366L31.1529 12.8251C30.9925 13.4858 30.4326 14.0022 29.7973 14.0995L29.7941 14.0962Z" fill="#4B4B49"/>
<path d="M29.8101 14.4382C29.8035 14.3913 29.797 14.3477 29.7904 14.2974C29.7839 13.9586 29.7741 13.63 29.7511 13.308C29.7282 12.986 29.6791 12.6607 29.6333 12.3555L29.4663 12.3689C29.4172 12.3723 29.368 12.379 29.3189 12.389C29.296 12.1073 29.3189 11.8457 29.3713 11.5975L29.6758 11.8055C29.6365 12.0302 29.6365 12.2683 29.666 12.5131C29.7151 12.8452 29.761 13.1973 29.7741 13.5428L29.7937 14.0961C30.4289 13.9989 30.9889 13.4824 31.1493 12.8217L31.4506 13.0296C31.3752 13.2577 31.2672 13.479 31.1198 13.6601C30.9529 13.8781 30.7531 14.076 30.5174 14.2035C30.4028 14.2705 30.2816 14.3276 30.1572 14.3712C30.095 14.3946 30.0327 14.4114 29.9673 14.4282C29.9018 14.4483 29.8625 14.4382 29.8035 14.4416L29.8101 14.4382Z" fill="#2D2D2D"/>
<path d="M29.1226 12.7781C29.1521 13.0665 29.1717 13.365 29.1881 13.6702C29.1946 13.858 29.1881 14.0358 29.1619 14.1967C29.1553 14.3678 29.116 14.5154 29.0899 14.6629L27.9766 14.0324C27.9962 13.8983 28.0486 13.7775 28.1075 13.6534C28.1632 13.5293 28.2352 13.4086 28.3269 13.3046C28.3924 13.2241 28.4644 13.147 28.5398 13.0799C28.5987 13.0263 28.6544 12.9894 28.7198 12.9491C28.8443 12.872 28.9785 12.815 29.1259 12.7747L29.1226 12.7781Z" fill="#61615F"/>
<path d="M29.1226 12.7781C29.1979 12.758 29.2765 12.7412 29.3518 12.7244C29.3845 12.9827 29.4009 13.2342 29.4173 13.4992C29.4304 13.7608 29.4337 14.0425 29.4795 14.2806C29.4959 14.398 29.509 14.5087 29.5221 14.616C29.5352 14.7233 29.5253 14.8139 29.5319 14.9111L29.0898 14.6596C29.116 14.5087 29.1553 14.3644 29.1619 14.1934C29.1848 14.0324 29.1946 13.858 29.1881 13.6669C29.175 13.3617 29.1521 13.0632 29.1226 12.7747V12.7781Z" fill="#4B4B49"/>
<path d="M29.3192 12.389C29.3683 12.3823 29.4174 12.3756 29.4665 12.3689L29.6335 12.3555C29.6826 12.6607 29.7317 12.986 29.7514 13.308C29.7743 13.6266 29.7841 13.9586 29.7907 14.2973C29.7972 14.3476 29.8038 14.3912 29.8103 14.4382C29.8398 14.6964 29.8594 14.9144 29.8529 15.0989L29.5353 14.9178C29.5287 14.8205 29.5353 14.73 29.5254 14.6227C29.5123 14.5153 29.4992 14.4013 29.4829 14.2873C29.437 14.0525 29.4338 13.7674 29.4207 13.5058C29.4043 13.2409 29.3912 12.986 29.3552 12.7311C29.2799 12.7445 29.2013 12.7613 29.126 12.7848C28.9786 12.825 28.8444 12.882 28.7199 12.9592C28.6577 12.9994 28.6021 13.0363 28.5398 13.09C28.4645 13.1604 28.3958 13.2342 28.327 13.3147C28.2353 13.4186 28.1633 13.5394 28.1076 13.6635C28.052 13.7876 27.9996 13.9083 27.9767 14.0424L27.6558 13.8613C27.6885 13.7205 27.7507 13.593 27.8162 13.4622C27.8817 13.3314 27.9603 13.204 28.0585 13.0933C28.3205 12.7781 28.4514 12.7043 28.661 12.5969C28.8673 12.503 29.0801 12.436 29.3126 12.3991L29.3192 12.389Z" fill="#2D2D2D"/>
<path d="M28.599 15.7865C28.4975 15.6624 28.3927 15.5249 28.2945 15.3739C28.2061 15.2264 28.121 15.0654 28.0457 14.891C27.9442 14.6395 27.9114 14.3343 27.9802 14.0324L29.0935 14.6629C29.0018 15.0654 28.8512 15.4108 28.599 15.7831V15.7865Z" fill="#61615F"/>
<path d="M28.9626 16.142C28.8382 16.038 28.7203 15.9173 28.5991 15.7865C28.8512 15.4142 29.0019 15.0654 29.0936 14.6663L29.5356 14.9179C29.5356 15.3807 29.3621 15.7127 28.9626 16.1454V16.142Z" fill="#4B4B49"/>
<path d="M29.2014 16.3432C29.1654 16.3164 29.1326 16.2862 29.0934 16.256C28.6284 15.9072 28.2158 15.4008 27.9702 14.73L27.8032 14.8306C27.7574 14.8642 27.7116 14.9011 27.6657 14.9413C27.5544 14.6193 27.5446 14.2337 27.6559 13.8547L27.9768 14.0358C27.908 14.3376 27.9408 14.6428 28.0423 14.8944C28.1176 15.0688 28.206 15.2297 28.2911 15.3773C28.3894 15.5282 28.4941 15.6657 28.5956 15.7898C28.7168 15.9206 28.8347 16.038 28.9591 16.1453C29.3586 15.7127 29.5321 15.384 29.5321 14.9178L29.8497 15.0989C29.8497 15.1694 29.8399 15.2297 29.8301 15.2935C29.8235 15.3572 29.8104 15.4142 29.7875 15.4712C29.7024 15.7362 29.5059 16.0045 29.1981 16.3466L29.2014 16.3432Z" fill="#2D2D2D"/>
<path d="M27.6459 15.5215C27.7278 15.6658 27.826 15.7999 27.9275 15.924C28.0257 16.0481 28.1272 16.1621 28.2418 16.2694C28.5005 16.5243 28.7068 16.7826 28.8542 17.0576L27.6197 17.3695C27.5575 17.2655 27.5051 17.1515 27.4625 17.0308C27.4265 16.9067 27.3971 16.7792 27.3807 16.6451C27.3447 16.2393 27.4363 15.8301 27.6492 15.5215H27.6459Z" fill="#61615F"/>
<path d="M27.6459 15.5215C27.7015 15.441 27.7572 15.3673 27.8194 15.3035C28.101 15.81 28.471 16.1956 28.8639 16.4807C29.0637 16.6216 29.2176 16.7692 29.342 16.9301L28.8508 17.0542C28.7035 16.7826 28.4972 16.5243 28.2385 16.2661C28.1239 16.1588 28.0224 16.0447 27.9242 15.9206C27.8227 15.7965 27.7244 15.6624 27.6426 15.5182L27.6459 15.5215Z" fill="#4B4B49"/>
<path d="M27.669 14.9413C27.7148 14.9011 27.7574 14.8642 27.8065 14.8307L27.9735 14.73C28.2191 15.4008 28.6316 15.9072 29.0966 16.256C29.1359 16.2862 29.1687 16.3164 29.2047 16.3432C29.4077 16.5076 29.5747 16.6686 29.6991 16.8396L29.3455 16.9302C29.2178 16.7725 29.0639 16.6216 28.8674 16.4807C28.4745 16.1957 28.1045 15.8066 27.8229 15.3035C27.7607 15.3673 27.7017 15.4411 27.6493 15.5215C27.4365 15.8267 27.3448 16.2359 27.3808 16.6451C27.3972 16.7792 27.4267 16.9067 27.4627 17.0308C27.5053 17.1515 27.5609 17.2655 27.6199 17.3695L27.2662 17.4601C27.2106 17.3427 27.1582 17.2219 27.1189 17.0911C27.0829 16.9603 27.0567 16.8228 27.0403 16.682C26.965 16.0045 27.2237 15.3136 27.6723 14.9413H27.669Z" fill="#2D2D2D"/>
<path d="M29.1683 18.2985C28.8474 18.2113 28.5232 18.0872 28.2056 17.9262C27.9666 17.8088 27.7701 17.6143 27.6162 17.3695L28.8507 17.0576C29.0569 17.4332 29.165 17.839 29.165 18.2985H29.1683Z" fill="#61615F"/>
<path d="M29.6693 18.4092C29.4991 18.3823 29.3386 18.3421 29.1683 18.2951C29.1683 17.8323 29.0603 17.4265 28.854 17.0542L29.3452 16.9301C29.653 17.3292 29.7774 17.8088 29.6693 18.4092Z" fill="#4B4B49"/>
<path d="M29.9837 18.4729C29.9379 18.4628 29.892 18.4561 29.8429 18.446C29.2503 18.3655 28.6379 18.1811 28.0486 17.8558L27.9831 18.0302C27.9634 18.0838 27.947 18.1375 27.9339 18.1945C27.6622 18.0302 27.4264 17.7786 27.2627 17.46L27.6163 17.3694C27.767 17.6143 27.9667 17.8088 28.2057 17.9262C28.5201 18.0872 28.8475 18.2113 29.1684 18.2985C29.3387 18.3454 29.4991 18.3857 29.6694 18.4125C29.7774 17.8122 29.653 17.3326 29.3452 16.9334L29.6988 16.8429C29.7971 16.9703 29.8626 17.1078 29.9248 17.2521C30.0525 17.5908 30.0754 17.9966 29.9837 18.4729Z" fill="#2D2D2D"/>
<path d="M28.2319 18.6372C28.5331 18.7512 28.8213 18.8451 29.116 18.9055C29.4663 18.986 29.7741 19.1168 30.0295 19.2946L29.0734 20.1565C28.8769 20.0324 28.6903 19.8714 28.5495 19.6635C28.3301 19.3549 28.2253 18.9826 28.2286 18.6339L28.2319 18.6372Z" fill="#61615F"/>
<path d="M28.2319 18.6372C28.2352 18.5433 28.245 18.4561 28.2647 18.3655C28.7657 18.5835 29.2732 18.711 29.7676 18.768C30.0067 18.7982 30.226 18.8586 30.4127 18.9491L30.0329 19.2912C29.7774 19.1134 29.4697 18.9826 29.1193 18.9022C28.8246 18.8384 28.5332 18.7479 28.2352 18.6338L28.2319 18.6372Z" fill="#4B4B49"/>
<path d="M27.9338 18.1945C27.9502 18.1375 27.9633 18.0838 27.9829 18.0302L28.0484 17.8558C28.6378 18.1811 29.2501 18.3656 29.8428 18.446C29.8919 18.4561 29.9377 18.4628 29.9836 18.4729C30.2521 18.5198 30.4845 18.6003 30.6843 18.7076L30.4125 18.9558C30.2259 18.8653 30.0098 18.8049 29.7675 18.7747C29.2763 18.7144 28.7655 18.5869 28.2645 18.3723C28.2481 18.4595 28.2383 18.55 28.2318 18.6439C28.2252 18.9927 28.33 19.365 28.5527 19.6735C28.6935 19.8815 28.8801 20.0425 29.0766 20.1666L28.8015 20.4147C28.605 20.2739 28.4184 20.0961 28.2711 19.8815C27.9141 19.3751 27.7963 18.7412 27.9338 18.2046V18.1945Z" fill="#2D2D2D"/>
<path d="M30.8579 20.2672C30.6942 20.3041 30.5272 20.3276 30.3569 20.341C30.1834 20.3611 30.0099 20.3678 29.8363 20.3678C29.5711 20.3712 29.3157 20.2907 29.0767 20.1532L30.0328 19.2913C30.3897 19.5327 30.6647 19.8547 30.8612 20.2639L30.8579 20.2672Z" fill="#61615F"/>
<path d="M31.3526 20.1364C31.1922 20.1934 31.0285 20.2336 30.8582 20.2672C30.6617 19.8546 30.3867 19.536 30.0298 19.2945L30.4096 18.9525C30.8877 19.1805 31.1955 19.5629 31.3526 20.1364Z" fill="#4B4B49"/>
<path d="M31.6538 20.0425C31.6112 20.0592 31.5686 20.0727 31.5195 20.0894C30.9694 20.3041 30.3309 20.3946 29.6662 20.3812L29.6826 20.5657C29.6891 20.6227 29.6989 20.6797 29.7088 20.7367C29.3977 20.7132 29.0834 20.5992 28.8018 20.408L29.0768 20.1599C29.3158 20.2974 29.5745 20.3779 29.8365 20.3745C30.01 20.3745 30.1868 20.3678 30.3571 20.3477C30.5274 20.3343 30.6944 20.3074 30.8581 20.2739C31.0283 20.2403 31.1921 20.2001 31.3525 20.1431C31.1953 19.5662 30.8875 19.1839 30.4095 18.9592L30.6813 18.711C30.8352 18.7848 30.9629 18.8854 31.0807 18.9927C31.3525 19.251 31.5293 19.5897 31.6505 20.0492L31.6538 20.0425Z" fill="#2D2D2D"/>
<path d="M30.1641 20.995C30.4817 20.9681 30.7862 20.9145 31.0776 20.8373C31.428 20.7434 31.7521 20.7132 32.0534 20.7267L31.6572 21.9642C31.4116 21.9575 31.1529 21.9005 30.927 21.7798C30.5734 21.6054 30.3147 21.3102 30.1673 20.995H30.1641Z" fill="#61615F"/>
<path d="M30.1641 20.995C30.1248 20.9145 30.0986 20.8239 30.0757 20.7401C30.6192 20.7065 31.1333 20.5992 31.5885 20.408C31.8111 20.3208 32.0207 20.2605 32.2073 20.2336L32.0501 20.7267C31.7489 20.7132 31.4247 20.7434 31.0744 20.8373C30.783 20.9178 30.4784 20.9681 30.1608 20.995H30.1641Z" fill="#4B4B49"/>
<path d="M29.7057 20.7333C29.6958 20.6763 29.686 20.6193 29.6795 20.5623L29.6631 20.3778C30.3278 20.3946 30.963 20.3007 31.5164 20.086C31.5622 20.0693 31.6081 20.0559 31.6506 20.0391C31.9028 19.9519 32.1254 19.9016 32.3219 19.8748L32.2073 20.2303C32.0174 20.2571 31.8078 20.3175 31.5884 20.4047C31.1333 20.5958 30.6159 20.7032 30.0757 20.7367C30.0986 20.8239 30.1248 20.9111 30.1641 20.9916C30.3114 21.3068 30.5701 21.602 30.9237 21.7764C31.1497 21.9005 31.4083 21.9541 31.6539 21.9608L31.5393 22.3163C31.2774 22.2929 31.0089 22.2191 30.7698 22.0916C30.187 21.7931 29.8072 21.2666 29.7057 20.73V20.7333Z" fill="#2D2D2D"/>
<path d="M33.219 21.0352C33.1175 21.1694 33.0029 21.2868 32.8752 21.4142C32.7475 21.5316 32.6067 21.6356 32.4495 21.7462C32.2268 21.8905 31.942 21.9743 31.6538 21.9642L32.05 20.7267C32.4626 20.7468 32.8228 20.8474 33.219 21.0386V21.0352Z" fill="#61615F"/>
<path d="M33.4807 20.6059C33.412 20.7602 33.3203 20.8876 33.2188 21.0352C32.8226 20.8474 32.4657 20.7434 32.0498 20.7233L32.207 20.2303C32.6916 20.1565 33.0223 20.2873 33.4774 20.6026L33.4807 20.6059Z" fill="#4B4B49"/>
<path d="M33.6085 20.3309C33.5921 20.3712 33.5757 20.4114 33.5561 20.4517C33.3531 20.9849 32.9078 21.488 32.3085 21.8435C32.3478 21.8938 32.3871 21.9475 32.4297 21.9944C32.469 22.038 32.5116 22.0749 32.5574 22.1152C32.2627 22.2828 31.9058 22.3499 31.5391 22.3197L31.6537 21.9642C31.9451 21.9709 32.2267 21.8904 32.4493 21.7462C32.6032 21.6389 32.744 21.5316 32.875 21.4142C33.0027 21.2868 33.1206 21.1694 33.2188 21.0352C33.3203 20.8877 33.412 20.7602 33.4808 20.6059C33.0256 20.2907 32.6949 20.1599 32.2103 20.2337L32.3249 19.8782C32.4723 19.8647 32.6032 19.858 32.7244 19.8815C33.0093 19.9218 33.245 20.0794 33.6085 20.3276V20.3309Z" fill="#2D2D2D"/>
<path d="M33.127 22.0447C33.3791 21.82 33.5919 21.5718 33.7458 21.3035C33.9423 20.995 34.1224 20.7166 34.3254 20.5087L34.9835 21.6255C34.8034 21.81 34.5808 21.981 34.309 22.0749C34.1093 22.1588 33.8899 22.1722 33.6934 22.1789C33.4904 22.1587 33.2972 22.1319 33.127 22.0447Z" fill="#61615F"/>
<path d="M33.1271 22.0447C33.0387 22.0011 32.9568 21.9541 32.8848 21.9005C33.3334 21.545 33.6477 21.0855 33.8081 20.6327C33.89 20.4114 33.9686 20.2168 34.0668 20.0659L34.3288 20.5086C34.1258 20.7166 33.9457 20.9949 33.7492 21.3035C33.592 21.5718 33.3792 21.8166 33.1303 22.0447H33.1271Z" fill="#4B4B49"/>
<path d="M32.5574 22.1151C32.5116 22.0749 32.469 22.0346 32.4297 21.9944C32.3872 21.9474 32.3479 21.8938 32.3086 21.8435C32.9078 21.488 33.3531 20.9849 33.5561 20.4516C33.5758 20.408 33.5922 20.3678 33.6085 20.3309C33.6544 20.2101 33.6969 20.0995 33.7428 20.0089C33.7853 19.9083 33.8279 19.8177 33.877 19.7473L34.0637 20.0659C33.9654 20.2169 33.8869 20.4114 33.805 20.6327C33.6445 21.0855 33.3269 21.545 32.8816 21.9005C32.9569 21.9541 33.0388 22.0011 33.1239 22.0447C33.2909 22.1319 33.4841 22.1587 33.6904 22.1788C33.8901 22.1721 34.1095 22.1587 34.306 22.0749C34.5777 21.981 34.8004 21.8099 34.9805 21.6255L35.1704 21.9474C34.9609 22.1352 34.7153 22.3096 34.4206 22.4103C33.7231 22.6719 32.9766 22.5075 32.5542 22.1151H32.5574Z" fill="#2D2D2D"/>
<g style="mix-blend-mode:overlay">
<path d="M5.56963 10.3465C5.44847 10.4471 5.33387 10.5478 5.22909 10.6484C4.95404 9.95749 4.82961 9.64223 4.61678 9.10226C4.61678 9.10226 3.38888 9.36386 3.76871 8.57907C4.14854 7.79427 4.96714 8.27722 4.96714 8.27722C5.08829 7.77415 6.08698 7.18723 6.33256 7.56621C6.57814 7.94855 5.73335 8.53882 5.73335 8.53882C5.94618 9.01842 6.06406 9.28672 6.31619 9.86694C6.03787 10.0011 5.78574 10.1621 5.56963 10.3432V10.3465Z" fill="white"/>
<path d="M13.0156 21.7932C13.4118 22.8664 13.5919 23.3628 13.8735 24.1912C13.8735 24.1912 15.252 24.4126 14.7904 25.09C14.3287 25.7709 13.4708 24.929 13.4708 24.929C13.3267 25.4053 12.256 25.6535 12.0039 25.2108C11.7517 24.7647 12.6522 24.4126 12.6522 24.4126C12.3346 23.6143 12.1447 23.1482 11.7354 22.1554C12.1872 22.2191 12.7864 22.2057 13.0124 21.7932H13.0156Z" fill="white"/>
<path d="M1.99731 16.5981C2.21015 16.5041 2.63254 17.3795 2.63254 17.3795C2.95344 17.3493 3.14335 17.3225 3.56902 17.2621C3.58867 17.5069 3.6607 17.7685 3.81788 18.0335C3.92266 18.2045 4.04708 18.3488 4.18133 18.446C4.25337 18.4963 4.32213 18.5332 4.39089 18.5567C3.75894 18.5902 3.48061 18.5969 3.02875 18.5802C3.02875 18.5802 3.04184 19.8412 2.52449 19.1101C2.00714 18.3789 2.42626 17.9496 2.42626 17.9496C2.089 17.6579 1.7812 16.692 1.99404 16.5981H1.99731Z" fill="white"/>
<path d="M14.5679 13.801C15.2326 13.8144 15.5502 13.8379 16.1298 13.9318C16.1298 13.9318 16.156 12.4058 17.0269 13.4622C17.8979 14.5187 17.0106 14.8306 17.0106 14.8306C17.5476 15.2934 17.9405 16.5746 17.5476 16.5779C17.1546 16.5779 16.6176 15.4309 16.6176 15.4309C16.133 15.3773 15.8711 15.3672 15.3177 15.3739C15.1245 14.8541 14.8724 14.3208 14.5679 13.8043V13.801Z" fill="white"/>
<path d="M8.01221 20.1632C8.02858 20.1029 8.04168 20.0693 8.04168 20.0693C8.04168 20.0693 8.03185 20.1062 8.01221 20.1632Z" fill="black"/>
<path d="M9.63623 21.535C9.72464 21.3304 9.83597 21.1862 9.83597 21.1862C9.83597 21.1862 9.76721 21.3505 9.63623 21.535Z" fill="black"/>
<path d="M4.25675 16.3532C4.25675 16.3532 3.69355 17.2353 4.07338 17.8457C4.12577 17.9295 4.18144 17.9899 4.2371 18.0268C4.58419 18.2683 5.00004 17.7015 5.00004 17.7015C5.00004 17.7015 4.59401 18.4393 5.32748 19.2543C5.40606 19.3415 5.48137 19.4086 5.55341 19.4522C6.08386 19.7976 6.38838 19.0665 6.4375 18.9256C6.44405 18.9088 6.44732 18.9021 6.44732 18.9021C6.44732 18.9021 6.44732 18.9122 6.4375 18.9256C6.37528 19.1067 6.00855 20.2973 6.8206 20.787C7.55406 21.2297 7.91097 20.4415 8.00921 20.1598C8.02558 20.0995 8.03867 20.0659 8.03867 20.0659C8.03867 20.0659 8.02885 20.1028 8.00921 20.1598C7.91752 20.4784 7.68504 21.5215 8.4316 21.9172C8.99152 22.2157 9.40737 21.8434 9.63331 21.5282C9.72171 21.3236 9.83304 21.1794 9.83304 21.1794C9.83304 21.1794 9.76428 21.3437 9.63331 21.5282C9.48596 21.8636 9.39755 22.3666 9.94437 22.6752C9.96402 22.6853 9.98366 22.6953 10.0033 22.7054C10.8481 23.1011 11.2705 21.5818 11.2705 21.5818C11.2705 21.5818 12.3249 21.9038 12.5377 21.5081C12.7473 21.1157 12.6294 20.0525 12.6294 20.0525C12.6294 20.0525 15.56 20.5623 15.226 16.8261C14.9902 14.1699 12.875 11.5807 10.4945 10.4337C8.77541 9.60197 6.91556 9.80656 5.8743 10.6517C3.41196 12.6472 4.5449 14.891 4.75446 14.9916C4.96402 15.0922 3.8409 15.1593 3.73612 15.4074C3.62807 15.6556 4.25675 16.3499 4.25675 16.3499V16.3532ZM10.0393 16.1017C10.5501 15.0218 11.634 14.6025 12.4558 15.2364C13.2777 15.8703 13.5593 17.2487 13.0583 18.2716C12.5541 19.2945 11.4473 19.6568 10.6156 19.0832C9.7872 18.5097 9.52852 17.185 10.0393 16.105V16.1017ZM7.09892 17.7786C7.27574 17.5103 8.317 16.7926 8.4316 17.2219C8.4316 17.2219 8.89329 18.7814 8.58877 19.0329C8.28425 19.2845 8.01575 18.4427 7.66539 18.3421C7.31503 18.2381 6.92538 18.0469 7.1022 17.7786H7.09892ZM6.11333 14.0726C6.47024 13.2912 7.26592 12.9055 7.8815 13.2778C8.49382 13.6534 8.68701 14.6629 8.30718 15.4779C7.92735 16.2929 7.13167 16.588 6.54228 16.1822C5.95289 15.7764 5.7597 14.8541 6.11661 14.0726H6.11333Z" fill="white"/>
</g>
<path d="M34.9378 20.3745L39.8298 18.9525L35.4486 21.5986L39.892 24.1375L34.9673 22.8395L36.3556 27.8502L33.7689 23.3627L31.2934 27.9139L32.5606 22.8697L27.6687 24.2918L32.0465 21.6422L27.6064 19.1067L32.5311 20.4047L31.1395 15.394L33.7263 19.8781L36.205 15.3303L34.9378 20.3745Z" fill="#C80A0C"/>
<path d="M32.4263 21.6389L28.9751 19.6668L32.8029 20.6763L31.7223 16.7825L33.7328 20.2672L35.6549 16.7356L34.6725 20.6529L38.4708 19.5461L35.0687 21.6054L38.52 23.5741L34.6955 22.5679L35.7727 26.4583L33.7655 22.9737L31.8402 26.5087L32.8258 22.5914L29.0242 23.6948L32.4263 21.6389Z" fill="#FF6620"/>
<path d="M32.8062 21.6321L30.3472 20.2302L33.0747 20.948L32.3053 18.1743L33.7362 20.6562L35.1081 18.1375L34.4074 20.9312L37.1153 20.143L34.689 21.6087L37.1481 23.0139L34.4238 22.2962L35.1933 25.0698L33.7591 22.588L32.3904 25.1067L33.0911 22.313L30.3832 23.1011L32.8062 21.6321Z" fill="#FE9F21"/>
<path d="M33.1862 21.6288L31.7192 20.7903L33.3466 21.2196L32.8882 19.5628L33.7428 21.0452L34.5614 19.5427L34.1423 21.2096L35.7566 20.74L34.3093 21.6154L35.7795 22.4538L34.1521 22.0246L34.6105 23.678L33.7559 22.199L32.9373 23.7015L33.3564 22.0346L31.7389 22.5042L33.1862 21.6288Z" fill="#FAE226"/>
<path d="M33.5656 21.6255L33.0908 21.3505L33.618 21.4913L33.4674 20.9547L33.7457 21.4343L34.0109 20.948L33.8767 21.488L34.4006 21.337L33.9291 21.6188L34.4071 21.8904L33.88 21.7529L34.0273 22.2895L33.7522 21.8099L33.4837 22.2962L33.6213 21.7563L33.0974 21.9072L33.5656 21.6255Z" fill="white"/>
<path d="M38.6115 27.5853L38.9651 28.085L38.5001 27.6926L38.4052 28.303L38.3462 27.6859L37.8583 28.0481L38.2414 27.5719L37.6455 27.4746L38.2447 27.4143L37.8911 26.9145L38.3561 27.3069L38.4543 26.6965L38.5132 27.3103L39.0011 26.9481L38.618 27.4243L39.2139 27.5249L38.6115 27.5853Z" fill="#FE9F21"/>
<path d="M38.3722 27.3505L38.4475 26.8743L38.4934 27.3539L38.8732 27.0721L38.5752 27.4411L39.0369 27.5182L38.572 27.5652L38.847 27.9542L38.4835 27.649L38.4082 28.1219L38.3657 27.6456L37.9858 27.9274L38.2805 27.5551L37.8188 27.4813L38.2871 27.4344L38.012 27.0453L38.3722 27.3505Z" fill="#FE9F21"/>
<path d="M38.389 27.3908L38.4414 27.0554L38.4742 27.3942L38.7459 27.1929L38.5331 27.4579L38.8638 27.5115L38.5298 27.5451L38.7263 27.8234L38.4676 27.6054L38.4152 27.9442L38.3825 27.6021L38.114 27.8033L38.3235 27.5384L37.9961 27.4847L38.3268 27.4512L38.1303 27.1762L38.389 27.3908Z" fill="#FAE226"/>
<path d="M38.4052 27.4344L38.4379 27.2332L38.4576 27.4377L38.618 27.317L38.4903 27.4746L38.6868 27.5082L38.4903 27.5283L38.6049 27.6926L38.451 27.5618L38.4216 27.7631L38.4019 27.5618L38.2415 27.6826L38.3659 27.5249L38.1694 27.4914L38.3692 27.4713L38.2513 27.3069L38.4052 27.4344Z" fill="white"/>
<path d="M38.4215 27.478L38.4313 27.4143L38.4379 27.478L38.4903 27.4411L38.4477 27.4914L38.5132 27.5015L38.4477 27.5082L38.487 27.5619L38.4379 27.5183L38.4248 27.5854L38.4182 27.5183L38.3658 27.5585L38.4084 27.5082L38.3462 27.4982L38.4084 27.4914L38.3724 27.4378L38.4215 27.478Z" fill="white"/>
<path d="M32.7143 29.4567L32.9828 29.8357L32.6291 29.5372L32.5571 30L32.5113 29.5338L32.1413 29.8089L32.4294 29.4467L31.9775 29.3729L32.436 29.3259L32.1675 28.9469L32.5211 29.2454L32.5931 28.7826L32.6357 29.2488L33.009 28.9738L32.7176 29.336L33.1694 29.4098L32.7143 29.4567Z" fill="#FE9F21"/>
<path d="M32.5309 29.2756L32.5899 28.9167L32.6226 29.279L32.9108 29.0677L32.6848 29.3494L33.0352 29.4064L32.6816 29.4399L32.8911 29.7351L32.6161 29.5037L32.5604 29.8659L32.5244 29.5037L32.2362 29.715L32.4622 29.4332L32.1118 29.3762L32.4655 29.3393L32.2559 29.0442L32.5309 29.2756Z" fill="#FE9F21"/>
<path d="M32.5439 29.3091L32.5832 29.0542L32.6094 29.3124L32.8157 29.1582L32.652 29.3594L32.9041 29.3996L32.652 29.4265L32.7993 29.6378L32.6029 29.4734L32.5636 29.7283L32.5406 29.4701L32.3344 29.621L32.4948 29.4231L32.2427 29.3795L32.4981 29.356L32.3475 29.1448L32.5439 29.3091Z" fill="#FAE226"/>
<path d="M32.557 29.3426L32.58 29.1884L32.5963 29.3426L32.7175 29.2521L32.6225 29.3728L32.7699 29.3963L32.6193 29.4131L32.7077 29.5372L32.5931 29.4399L32.5669 29.5908L32.5538 29.4365L32.4293 29.5304L32.5276 29.4097L32.377 29.3862L32.5276 29.3695L32.4392 29.2454L32.557 29.3426Z" fill="white"/>
<path d="M32.5669 29.3762L32.5767 29.3259L32.58 29.3762L32.6193 29.346L32.5898 29.3863L32.6389 29.393L32.5898 29.3964L32.6193 29.44L32.58 29.4064L32.5734 29.4567L32.5669 29.4064L32.5276 29.4366L32.5571 29.3964L32.5112 29.3896L32.5603 29.3829L32.5309 29.3427L32.5669 29.3762Z" fill="white"/>
<path d="M34.8101 14.7066L35.5862 15.8033L34.5646 14.9447L34.355 16.2829L34.224 14.9313L33.1533 15.7261L33.9915 14.6797L32.6851 14.4651L34.0046 14.3343L33.2286 13.2342L34.2502 14.0962L34.4598 12.7546L34.5875 14.1062L35.6615 13.3114L34.82 14.3578L36.1297 14.5724L34.8101 14.7066Z" fill="#C80A0C"/>
<path d="M34.2861 14.1901L34.4498 13.1504L34.548 14.1968L35.383 13.5797L34.7281 14.3947L35.7432 14.5624L34.7216 14.663L35.3241 15.5182L34.5284 14.8474L34.3647 15.8871L34.2664 14.8407L33.4315 15.4578L34.0864 14.6428L33.0713 14.4752L34.0929 14.3745L33.4904 13.5227L34.2861 14.1901Z" fill="#FF6620"/>
<path d="M34.319 14.284L34.4369 13.5428L34.5089 14.2907L35.1016 13.8513L34.6366 14.4315L35.3603 14.5489L34.6301 14.6227L35.059 15.2298L34.4926 14.7535L34.378 15.4947L34.3059 14.7468L33.7133 15.1895L34.1782 14.6093L33.4546 14.4886L34.1848 14.4148L33.7526 13.8077L34.319 14.284Z" fill="#FE9F21"/>
<path d="M34.3548 14.3779L34.4235 13.9352L34.4661 14.3812L34.8197 14.1196L34.5447 14.4651L34.9769 14.5389L34.5414 14.5825L34.7968 14.9447L34.4595 14.6596L34.3908 15.1023L34.3482 14.6563L33.9913 14.9179L34.2696 14.5724L33.8374 14.502L34.2729 14.4584L34.0175 14.0962L34.3548 14.3779Z" fill="#FAE226"/>
<path d="M34.3911 14.4751L34.414 14.3309L34.4271 14.4751L34.5417 14.3913L34.4501 14.502L34.5909 14.5255L34.4501 14.5389L34.5319 14.6563L34.4239 14.5657L34.4009 14.7066L34.3878 14.5623L34.2732 14.6495L34.3616 14.5355L34.2241 14.512L34.3649 14.4986L34.2798 14.3812L34.3911 14.4751Z" fill="white"/>
<path d="M26.4405 23.5372L27.2133 24.6339L26.1917 23.7753L25.9821 25.1135L25.8544 23.7619L24.7804 24.5568L25.6219 23.5104L24.3154 23.2957L25.6317 23.1649L24.8557 22.0649L25.8773 22.9268L26.0869 21.5886L26.2179 22.9369L27.2886 22.142L26.4503 23.1884L27.7568 23.403L26.4405 23.5372Z" fill="#C80A0C"/>
<path d="M25.9135 23.0208L26.0773 21.9811L26.1755 23.0275L27.0105 22.4104L26.3556 23.2253L27.3739 23.393L26.349 23.4937L26.9515 24.3489L26.1558 23.6781L25.9954 24.7212L25.8939 23.6714L25.0622 24.2885L25.7138 23.4735L24.6987 23.3092L25.7203 23.2052L25.1179 22.3534L25.9135 23.0208Z" fill="#FF6620"/>
<path d="M25.9493 23.1146L26.0639 22.3734L26.1359 23.1213L26.7286 22.682L26.2636 23.2622L26.9872 23.3796L26.2571 23.4533L26.6893 24.0604L26.1228 23.5841L26.0049 24.3253L25.9329 23.5774L25.3402 24.0201L25.8052 23.4399L25.0815 23.3192L25.8117 23.2454L25.3828 22.6384L25.9493 23.1146Z" fill="#FE9F21"/>
<path d="M25.9819 23.2085L26.0539 22.7692L26.0965 23.2119L26.4501 22.9503L26.1718 23.2957L26.604 23.3695L26.1685 23.4131L26.4239 23.7753L26.0866 23.4902L26.0179 23.9329L25.9753 23.4869L25.6217 23.7485L25.8967 23.403L25.4678 23.3326L25.9 23.289L25.6446 22.9268L25.9819 23.2085Z" fill="#FAE226"/>
<path d="M26.0181 23.3058L26.041 23.1616L26.0541 23.3058L26.1687 23.222L26.0803 23.3327L26.2211 23.3561L26.077 23.3696L26.1621 23.4869L26.0508 23.3964L26.0279 23.5406L26.0148 23.393L25.9002 23.4802L25.9919 23.3662L25.8511 23.3427L25.9919 23.3293L25.91 23.2119L26.0181 23.3058Z" fill="white"/>
<path d="M35.5894 23.601C35.5894 23.601 37.2266 24.6943 37.2888 25.2276C37.351 25.7608 36.8598 24.5736 35.5894 23.601Z" fill="#FAE226"/>
<path d="M36.3687 18.8284C36.3687 18.8284 36.9188 16.9066 37.4034 16.6953C37.8847 16.4807 36.9155 17.3024 36.3687 18.8284Z" fill="#FAE226"/>
<path d="M36.7451 19.1437C36.7451 19.1437 37.7045 17.3997 38.2219 17.3024C38.7392 17.2052 37.6128 17.782 36.7451 19.1437Z" fill="#FAE226"/>
<path d="M33.9194 24.5199C33.9194 24.5199 33.7524 26.4752 33.5559 26.663C33.3627 26.8508 33.6181 24.8922 33.9194 24.5199Z" fill="#FAE226"/>
<path d="M30.9233 25.2007C30.9233 25.2007 30.0032 26.9246 29.7511 27.0151C29.4989 27.1057 30.5009 25.4187 30.9233 25.2007Z" fill="#FAE226"/>
<path d="M30.3733 21.7026C30.3733 21.7026 27.983 20.7166 27.8193 20.8273C27.6556 20.9346 29.9706 21.6456 30.3733 21.7026Z" fill="#FAE226"/>
<path d="M31.4308 23.7183C31.4308 23.7183 29.3253 25.2711 29.3548 25.5159C29.3843 25.7607 31.4308 23.7183 31.4308 23.7183Z" fill="#FAE226"/>
<path d="M37.8813 21.0487C37.8813 21.0487 39.7412 20.5724 39.977 20.6999C40.2127 20.8273 38.3234 21.2197 37.8813 21.0487Z" fill="#FAE226"/>
<path d="M36.4736 21.6725C36.4736 21.6725 39.0146 22.2024 39.1717 22.0146C39.3289 21.8268 36.4736 21.6725 36.4736 21.6725Z" fill="#FAE226"/>
<defs>
<linearGradient id="paint0_linear_102_1223" x1="26.6896" y1="13.6669" x2="0" y2="13.6669" gradientUnits="userSpaceOnUse">
<stop stop-color="#636361"/>
<stop offset="0.25" stop-color="#5B5B5A"/>
<stop offset="0.63" stop-color="#474746"/>
<stop offset="1" stop-color="#2D2D2D"/>
</linearGradient>
<linearGradient id="paint1_linear_102_1223" x1="22.554" y1="14.0626" x2="32.243" y2="14.0626" gradientUnits="userSpaceOnUse">
<stop stop-color="#636361"/>
<stop offset="0.25" stop-color="#5B5B5A"/>
<stop offset="0.63" stop-color="#474746"/>
<stop offset="1" stop-color="#2D2D2D"/>
</linearGradient>
<linearGradient id="paint2_linear_102_1223" x1="24.6923" y1="7.18387" x2="17.4657" y2="7.18387" gradientUnits="userSpaceOnUse">
<stop stop-color="#636361"/>
<stop offset="0.25" stop-color="#5B5B5A"/>
<stop offset="0.63" stop-color="#474746"/>
<stop offset="1" stop-color="#2D2D2D"/>
</linearGradient>
<linearGradient id="paint3_linear_102_1223" x1="24.8721" y1="6.46956" x2="18.8701" y2="6.46956" gradientUnits="userSpaceOnUse">
<stop stop-color="#636361"/>
<stop offset="0.25" stop-color="#5B5B5A"/>
<stop offset="0.63" stop-color="#474746"/>
<stop offset="1" stop-color="#2D2D2D"/>
</linearGradient>
</defs>
</svg>
