<svg width="53" height="76" viewBox="0 0 53 76" fill="none" xmlns="http://www.w3.org/2000/svg">
<path d="M52.3718 50.4303C52.3718 44.8872 50.6494 40.316 47.2102 36.7138C44.6098 34.0355 39.4341 31.4896 31.6832 29.0761V16.8432C33.0086 17.6768 33.9593 18.5014 34.5325 19.3199C35.1057 20.1384 30.794 20.9299 31.5098 23.0424L41.4557 23.0816L50.6886 21.0804C50.6886 21.0804 50.6858 21.0713 50.6858 21.0653H50.6886C50.6718 20.975 50.6494 20.8878 50.6298 20.8005C50.6047 20.6771 50.5795 20.5537 50.5515 20.4333L50.518 20.3762C49.6009 15.6154 47.8001 11.8899 44.7775 9.15137C41.7577 6.41288 37.3901 4.83599 31.6804 4.4207V0H26.0965V4.4177C19.8248 4.8059 15.1021 6.77701 11.9285 10.337C8.75487 13.8941 7.16946 18.3238 7.16946 23.6262V23.6443C7.16946 23.7526 7.17226 23.858 7.17505 23.9663C7.17505 24.0746 7.16946 24.18 7.16946 24.2913V24.3064C7.16946 28.1794 7.95797 31.4595 9.54059 34.1559C11.1204 36.8492 12.9882 38.05 15.144 39.2687C15.9549 39.7292 16.9783 40.2197 18.2142 40.7433C18.2282 40.7433 18.2422 40.7433 18.2534 40.7433C20.2945 41.607 22.9061 42.6542 26.0965 43.6864V59.4523C24.3126 58.4412 23.032 57.2796 22.2546 55.9705C21.5192 54.7337 25.5932 52.2901 25.143 49.5937C25.1179 49.4342 22.8111 47.9567 22.3665 47.9085L10.1809 49.6569C10.1809 49.6569 0.0393066 51.944 0.0393066 51.947C0.0728603 52.1667 5.02482 52.1276 5.06117 52.3443L5.10311 52.5971C5.56168 55.5733 6.10134 57.8724 7.01847 59.9699C7.9356 62.0674 9.2414 64.0235 10.9387 65.8411C12.6331 67.6557 14.6491 69.0761 16.9811 70.1023C19.3131 71.1285 22.3525 71.8357 26.0993 72.2239V80.003H31.6832V72.2239C34.8205 72.0764 37.4712 71.5919 39.6382 70.7734C41.8052 69.9549 43.852 68.6368 45.7757 66.8222C47.6995 65.0045 49.2821 62.7415 50.518 60.0331C51.7539 57.3217 52.3718 54.3455 52.3718 51.0984C52.3718 50.972 52.369 50.8456 52.3662 50.7192C52.3662 50.6259 52.3718 50.5357 52.3718 50.4424V50.4303ZM37.9549 52.7475C37.9549 53.0093 37.9354 53.2681 37.9102 53.5209C37.9102 53.5209 37.9102 53.5209 37.9102 53.5179C37.8403 54.1679 37.6865 54.7878 37.446 55.3837C37.446 55.3897 37.4405 55.3957 37.4405 55.4018C37.3845 55.5402 37.323 55.6756 37.2559 55.808C37.2447 55.8291 37.2335 55.8501 37.2224 55.8742C37.158 56.0036 37.0881 56.133 37.0154 56.2594C37.0043 56.2745 36.9959 56.2925 36.9875 56.3076C36.8281 56.5814 36.6464 56.8462 36.445 57.108C35.4356 58.4081 33.8502 59.338 31.6832 59.9067V46.2474C34.1606 47.2585 35.8271 48.3539 36.6771 49.5336C37.2279 50.2949 37.9549 52.3653 37.9549 52.7505V52.7475Z" fill="url(#paint0_linear_31_317)"/>
<path d="M31.683 15.0406H15.4458V29.1032H31.683V15.0406Z" fill="#A85007"/>
<path d="M31.683 45.6756H25.8391V59.7382H31.683V45.6756Z" fill="#A85007"/>
<path d="M31.4427 43.6924H26.7312V61.7213L31.4679 60.8968L31.4427 43.6924Z" fill="#A85007"/>
<path d="M31.4705 72.2209H26.7283V80H31.4705V72.2209Z" fill="url(#paint1_linear_31_317)"/>
<path d="M45.7338 20.4063L31.5098 23.0394C30.794 20.9269 30.1509 19.4614 29.5777 18.6428C29.0045 17.8243 28.0538 16.9997 26.7312 16.1661V29.0822C34.4821 31.4957 39.655 34.0416 42.2554 36.7199C45.6974 40.325 47.4198 44.8962 47.4198 50.4334C47.4198 53.6804 46.8019 56.6567 45.566 59.3681C44.3301 62.0795 42.7503 64.3425 40.8238 66.1571C38.8972 67.9717 36.8532 69.2898 34.6862 70.1084C32.5192 70.9269 29.8685 71.4114 26.734 71.5589V79.997H21.1501V71.5589C17.4033 71.1737 14.3639 70.4665 12.0319 69.4373C9.69994 68.4111 7.68392 66.9907 5.98946 65.1761C4.295 63.3614 2.98641 61.4054 2.06928 59.3079C1.15214 57.2104 0.461496 54.6735 0.00292969 51.6973L15.4516 49.5998C15.9102 52.5459 16.5281 54.6735 17.3082 55.9826C18.0856 57.2916 19.3662 58.4532 21.1501 59.4644V43.6895C16.0024 42.0223 12.3479 40.5778 10.1949 39.353C8.03903 38.1342 6.17401 36.1752 4.59419 33.4788C3.01157 30.7855 2.22306 27.4993 2.22306 23.6293C2.22306 18.3298 3.81127 13.9001 6.98489 10.3401C10.1585 6.78305 14.8812 4.80893 21.1529 4.42073V0.00604248H26.7368V4.42374C32.4465 4.84203 36.8141 6.41892 39.8339 9.1544C42.8538 11.8929 44.825 15.6425 45.7422 20.4033L45.7338 20.4063ZM21.1445 15.9434C19.5144 16.5724 18.3792 17.3488 17.7416 18.2757C17.1041 19.2026 16.7854 20.2949 16.7854 21.5498C16.7854 22.8047 17.1069 24.0085 17.7556 24.9805C18.4015 25.9525 19.5312 26.768 21.1445 27.421V15.9434ZM26.7284 59.9128C28.8954 59.344 30.4808 58.4111 31.4902 57.1141C32.4969 55.814 33.0002 54.3605 33.0002 52.7475C33.0002 51.3452 32.5723 50.0542 31.7195 48.8745C30.8667 47.6949 29.203 46.5995 26.7284 45.5883V59.9128Z" fill="url(#paint2_linear_31_317)"/>
<g style="mix-blend-mode:overlay" opacity="0.72">
<path d="M26.7311 16.2083C28.0565 17.0418 29.0044 17.8664 29.5776 18.6849C30.1508 19.5035 30.7939 20.969 31.5097 23.0816L45.7337 20.4484C44.8166 15.6876 42.8481 11.938 39.8255 9.19953C36.8056 6.46104 32.4381 4.88415 26.7283 4.46886V0.0481567H21.1445V4.46886C14.8727 4.85706 10.1528 6.82817 6.97642 10.3882C3.80281 13.9452 2.2146 18.378 2.2146 23.6774C2.2146 27.5504 3.00311 30.8306 4.58573 33.5269C6.16554 36.2233 8.03057 38.1794 10.1864 39.4011C10.9973 39.8616 12.0207 40.3521 13.2565 40.8757C14.5232 40.9479 15.7982 40.9901 17.0845 40.9901C25.7916 40.9901 34.099 39.3018 41.7045 36.2383C38.9587 33.7496 33.9675 31.3783 26.7228 29.1243V16.2113L26.7311 16.2083ZM21.1473 27.4631C19.5339 26.8101 18.4042 25.9946 17.7583 25.0226C17.1124 24.0506 16.7881 22.907 16.7881 21.5919C16.7881 20.2769 17.1068 19.2447 17.7444 18.3178C18.3819 17.3909 19.5171 16.6115 21.1473 15.9856V27.4631Z" fill="#FFFAFC"/>
</g>
<g style="mix-blend-mode:overlay">
<path d="M27.9529 29.4704V30.0632C34.1883 32.0043 38.7516 34.0325 41.654 36.1451C39.0563 33.8189 34.4903 31.592 27.9529 29.4704Z" fill="white"/>
<path d="M39.7889 9.1273C36.9928 6.6115 33.0391 5.0948 27.9529 4.55011V5.41078C32.9132 5.7719 36.8586 7.01475 39.7889 9.1273Z" fill="white"/>
<path d="M29.5777 18.6849C30.1509 19.5035 30.794 20.969 31.5098 23.0815L32.3291 22.9311C31.7726 21.4234 31.2637 20.331 30.7996 19.669C30.3354 19.0099 29.6168 18.3419 28.6633 17.6708C29.0268 18.0108 29.3428 18.3479 29.5777 18.6849Z" fill="white"/>
<path d="M22.3692 44.6765C21.9498 44.5411 21.5444 44.4057 21.1473 44.2733V59.4644C20.7279 59.2266 20.3392 58.9798 19.9785 58.7271C20.6384 59.341 21.4325 59.9157 22.372 60.4484V44.6765H22.3692Z" fill="white"/>
<path d="M22.369 28.4051V16.9696C21.9216 17.1411 21.5162 17.3247 21.1471 17.5203V27.424C20.518 27.1682 19.9643 26.8884 19.4834 26.5844C20.1545 27.2886 21.1135 27.8965 22.3718 28.4081L22.369 28.4051Z" fill="white"/>
<path d="M31.7222 48.8715C32.575 50.0512 33.0028 51.3422 33.0028 52.7445C33.0028 54.3575 32.4995 55.811 31.4929 57.1111C30.6848 58.1493 29.5021 58.9528 27.9558 59.5215V60.8938C30.1228 60.325 31.7082 59.3921 32.7176 58.0951C33.7242 56.7981 34.2275 55.3416 34.2275 53.7286C34.2275 52.3262 33.8025 51.0352 32.9497 49.8556C32.5359 49.2838 31.9291 48.7331 31.135 48.2004C31.3587 48.4201 31.5628 48.6458 31.7278 48.8715H31.7222Z" fill="white"/>
<path d="M7.20565 66.1631C5.51119 64.3485 4.2026 62.3924 3.28546 60.2949C2.36833 58.1974 1.67768 55.6606 1.22191 52.6844L15.6388 50.7253C15.5717 50.3642 15.5074 49.991 15.4487 49.5998L0 51.6973C0.458567 54.6735 1.14921 57.2104 2.06635 59.3079C2.98348 61.4054 4.28928 63.3645 5.98653 65.1761C6.73031 65.9735 7.54678 66.6807 8.41358 67.3247C7.99696 66.9546 7.59152 66.5694 7.20845 66.1601L7.20565 66.1631Z" fill="white"/>
<path d="M22.3691 72.5459C21.9525 72.5038 21.5471 72.4556 21.1472 72.4045V80H22.3691V72.5459Z" fill="white"/>
<path d="M4.58841 33.524C5.897 35.7569 7.40412 37.4752 9.10977 38.697C7.89904 37.5896 6.80016 36.1932 5.81312 34.508C4.2305 31.8147 3.44199 28.5315 3.44199 24.6585C3.44199 24.6525 3.44199 24.6464 3.44199 24.6434C3.44199 24.6344 3.44199 24.6284 3.44199 24.6193C3.44199 19.3199 5.0274 14.8902 8.20102 11.3301C11.3746 7.77312 16.0973 5.799 22.3691 5.4108V0.990093H26.731V0.00604248H21.1471V4.42374C14.8754 4.81194 10.1555 6.78305 6.97911 10.3431C3.80549 13.9001 2.21729 18.3298 2.21729 23.6323C2.21729 23.6413 2.21729 23.6473 2.21729 23.6564C2.21729 23.6624 2.21729 23.6684 2.21729 23.6714C2.21729 27.5444 3.0058 30.8246 4.58841 33.5209V33.524Z" fill="white"/>
</g>
<path d="M31.6746 0.00604248H26.9324V4.41772H31.6746V0.00604248Z" fill="url(#paint3_linear_31_317)"/>
<g style="mix-blend-mode:overlay" opacity="0.72">
<path d="M21.1724 48.0891L15.3256 49.6178L0 51.6972L10.1835 49.6629L21.1724 48.0891Z" fill="#FFFAFC"/>
</g>
<path d="M45.7337 20.4484L50.6885 21.0803L41.4556 23.0815L31.6831 23.0484L45.7337 20.4484Z" fill="#C26B18"/>
<g style="mix-blend-mode:overlay" opacity="0.72">
<path d="M38.3743 32.0825L37.4907 32.8077C37.4907 32.8077 40.0296 33.9934 42.7419 36.5934C44.1176 37.9145 45.826 40.5327 46.4495 42.579C48.3034 48.6578 47.7218 52.5971 47.417 54.5471C47.1122 56.4971 48.2475 56.2353 49.9363 56.5904C51.6252 56.9455 52.0586 53.2832 52.3662 50.7072C52.6738 48.1342 51.5245 41.1074 47.417 37.2555C44.7076 34.7156 38.598 31.0683 38.3743 32.0795V32.0825Z" fill="#FFFAFC"/>
</g>
<g style="mix-blend-mode:overlay" opacity="0.72">
<path d="M42.8759 36.1451C42.8759 36.1451 46.9807 40.632 47.6433 45.0015C48.306 49.3711 50.336 47.9326 51.1301 47.2826C51.9242 46.6326 50.4227 41.607 49.3658 40.003C48.306 38.399 44.9535 35.17 43.3205 34.4568C41.6876 33.7436 41.0249 34.4598 42.8787 36.1451H42.8759Z" fill="#FFFAFC"/>
</g>
<defs>
<linearGradient id="paint0_linear_31_317" x1="44.4504" y1="14.0596" x2="23.9297" y2="42.2987" gradientUnits="userSpaceOnUse">
<stop stop-color="#EBB43A"/>
<stop offset="1" stop-color="#C26B18"/>
</linearGradient>
<linearGradient id="paint1_linear_31_317" x1="29.0994" y1="72.2028" x2="29.0994" y2="79.5787" gradientUnits="userSpaceOnUse">
<stop stop-color="#EBB43A"/>
<stop offset="1" stop-color="#C26B18"/>
</linearGradient>
<linearGradient id="paint2_linear_31_317" x1="23.7086" y1="-2.81972" x2="23.7086" y2="83.536" gradientUnits="userSpaceOnUse">
<stop stop-color="#F7E436"/>
<stop offset="1" stop-color="#D58D21"/>
</linearGradient>
<linearGradient id="paint3_linear_31_317" x1="29.3035" y1="-2.52781" x2="29.3035" y2="4.60731" gradientUnits="userSpaceOnUse">
<stop stop-color="#F7E436"/>
<stop offset="1" stop-color="#D58D21"/>
</linearGradient>
</defs>
</svg>
