<svg width="27" height="29" viewBox="0 0 27 29" fill="none" xmlns="http://www.w3.org/2000/svg">
<path d="M8.13894 1.80104C7.82521 1.31797 7.37796 0.922936 6.86842 0.672371C6.3611 0.412778 5.7848 0.329256 5.2441 0.378918C4.64555 0.428579 4.04923 0.496299 3.45068 0.532416C2.91888 0.568534 2.42713 0.717518 1.98434 0.974854C1.09653 1.4963 0.500204 2.43084 0.277694 3.43535C0.16199 3.93874 0.139739 4.47147 0.213167 4.99291C0.28437 5.51436 0.42455 6.04032 0.678211 6.53242C0.927421 7.02226 1.28789 7.48953 1.76628 7.81684C2.238 8.15544 2.8232 8.33829 3.41062 8.3428C4.00917 8.34506 4.6055 8.31571 5.20405 8.24799C5.7848 8.19607 6.31437 7.9568 6.75494 7.64077C7.6294 6.98614 8.2146 6.07643 8.51498 5.04483C8.66184 4.5279 8.73527 3.97034 8.68632 3.40826C8.63959 2.84619 8.45713 2.28411 8.14117 1.79878L8.13894 1.80104Z" fill="#BDBDBD"/>
<path d="M8.09212 1.83225C7.79619 1.37175 7.35339 1.01735 6.85942 0.829991C6.36545 0.633603 5.83588 0.629088 5.35526 0.730668C4.83014 0.843535 4.28499 0.958659 3.72872 1.01509C3.42611 1.04218 3.2303 1.05798 2.99221 1.1099C2.76303 1.15956 2.54052 1.22954 2.32246 1.32435C1.89302 1.50493 1.48137 1.79839 1.14539 2.18439C0.809397 2.5704 0.551286 3.0467 0.431131 3.56814C0.304301 4.08507 0.306526 4.63135 0.424456 5.15731C0.53126 5.68552 0.749319 6.17536 1.05416 6.59297C1.20546 6.80065 1.37457 6.98801 1.56148 7.14602C1.75061 7.30629 1.94197 7.42593 2.16225 7.54331C2.57834 7.74647 3.02781 7.84354 3.50176 7.81193C4.03356 7.78936 4.5609 7.74421 5.0838 7.67198C5.14165 7.66295 5.23288 7.65392 5.27293 7.64263L5.42424 7.60877C5.53104 7.58394 5.63562 7.55008 5.73798 7.50945C5.94491 7.43044 6.14739 7.32435 6.34098 7.19568C6.72592 6.93157 7.07748 6.59523 7.38009 6.20471C7.68048 5.8187 7.95194 5.38304 8.16333 4.909C8.37248 4.4327 8.52157 3.91351 8.52602 3.37401C8.53269 2.83902 8.38583 2.28823 8.0899 1.82999L8.09212 1.83225ZM8.18335 1.76904C8.7997 2.70809 9.04891 3.91803 8.87535 5.11216C8.78413 5.7081 8.59277 6.29726 8.2679 6.82548C7.94749 7.35144 7.51805 7.81871 7.00628 8.19342C6.74594 8.37627 6.45891 8.53202 6.15184 8.64489C5.99831 8.70132 5.84033 8.74647 5.6779 8.78033C5.59557 8.79839 5.51769 8.80968 5.42646 8.82096C5.33078 8.83225 5.28628 8.83451 5.2084 8.84128C4.64101 8.88868 4.07138 8.89771 3.50621 8.8774C2.88318 8.87062 2.22901 8.68552 1.70388 8.31758L1.60153 8.24308L1.52143 8.17762C1.45912 8.12796 1.39905 8.07604 1.33897 8.02412C1.22326 7.91577 1.11646 7.80065 1.01856 7.68101C0.822747 7.43947 0.662541 7.17762 0.533485 6.909C0.270925 6.37175 0.130744 5.78936 0.0550906 5.22277C-0.0205625 4.65166 -0.0183374 4.06701 0.0817918 3.49365C0.177471 2.9248 0.351028 2.35369 0.64474 1.82773C0.934002 1.30177 1.35232 0.818704 1.89969 0.489133C2.16893 0.326605 2.46487 0.204709 2.7697 0.127959C3.06564 0.046695 3.4172 0.0241217 3.66196 0.019607C4.20044 -0.00522369 4.74558 -0.00748102 5.31298 0.0173497C5.92266 0.0489524 6.51231 0.25437 6.9907 0.579426C7.47355 0.897711 7.87629 1.30629 8.1878 1.77356L8.18335 1.76904Z" fill="#FFFAFE"/>
<path d="M11.3276 6.93193C11.9173 7.52561 12.7583 7.88679 13.615 7.88453C15.3483 7.90033 17.0795 7.722 18.8128 7.56173C19.6784 7.48949 20.5462 7.42855 21.4117 7.41275C21.8456 7.40146 22.2773 7.40597 22.7112 7.41049C22.9226 7.41049 23.0872 7.3992 23.2741 7.37889C23.4588 7.35631 23.6435 7.31568 23.8215 7.25925C24.5402 7.0448 25.2144 6.57979 25.6683 5.91839C26.1289 5.26376 26.3381 4.40597 26.2201 3.57979C26.1022 2.7536 25.6594 1.97708 25.0141 1.46241C24.3755 0.93419 23.5434 0.692655 22.7535 0.746831C21.0201 0.864212 19.289 0.952249 17.5556 0.986109L14.9567 1.0448C14.5228 1.05609 14.0889 1.05609 13.6573 1.05834C13.5883 1.05834 13.4325 1.0606 13.3725 1.06963C13.2968 1.07414 13.1989 1.08769 13.1121 1.10123C12.9341 1.12832 12.7628 1.18024 12.5915 1.23667C11.2074 1.68814 10.2395 3.1667 10.3419 4.74909C10.3931 5.53464 10.7291 6.34277 11.3276 6.93193Z" fill="#BDBDBD"/>
<path d="M11.3676 6.8913C11.9417 7.47369 12.7628 7.78746 13.5504 7.74006C14.367 7.69491 15.1792 7.57076 15.9869 7.44661C16.7968 7.32245 17.6046 7.18927 18.4234 7.09898C19.2489 7.00417 20.0744 6.95902 20.911 6.95902C21.3316 6.96128 21.741 6.97934 22.1615 7.00868L22.7757 7.05609C22.9603 7.06737 23.1628 7.06963 23.3475 7.05609C23.5277 7.04254 23.7058 7.00868 23.9038 6.95225C24.0796 6.90259 24.2643 6.83261 24.4356 6.74909C24.7782 6.57527 25.0964 6.33374 25.3545 6.04029C25.8774 5.45338 26.1311 4.63397 26.0599 3.85293C25.9954 3.06963 25.5815 2.33825 25.0052 1.86196C24.4245 1.37211 23.6835 1.15767 22.9737 1.19604L21.7721 1.31342C21.3605 1.35406 20.9489 1.3834 20.5372 1.41726C19.7139 1.48272 18.8884 1.53238 18.0607 1.5685C17.2374 1.60688 16.4164 1.62494 15.5953 1.63848C15.1814 1.63848 14.7787 1.65202 14.3537 1.64299L13.7329 1.63171C13.526 1.62719 13.3791 1.62268 13.2033 1.64751L13.0698 1.66782C13.032 1.67685 13.0053 1.67685 12.9563 1.68814C12.874 1.7062 12.7672 1.73329 12.6916 1.75586C12.5224 1.80327 12.3689 1.8597 12.2087 1.94096C11.8994 2.10349 11.6013 2.31794 11.352 2.59559C10.8469 3.13961 10.5065 3.89807 10.4954 4.70169C10.4709 5.49852 10.7913 6.32697 11.3698 6.89807L11.3676 6.8913ZM11.2897 6.97257C10.6867 6.38114 10.2974 5.57753 10.1883 4.71071C10.086 3.84615 10.264 2.91613 10.7602 2.13509C11.0072 1.74683 11.3298 1.39243 11.7214 1.12155C11.9128 0.986109 12.1353 0.86647 12.3533 0.77392C12.4713 0.726516 12.5603 0.694913 12.676 0.656538C12.7272 0.638479 12.8006 0.620421 12.8629 0.602362C12.9274 0.586561 12.9519 0.579789 13.032 0.563987C13.2589 0.516583 13.526 0.496267 13.7284 0.49401L14.3403 0.475951L15.5641 0.430804C16.3852 0.405974 17.2085 0.385658 18.0295 0.387915C18.8462 0.3834 19.6628 0.367599 20.4816 0.34954L21.7098 0.31568L22.324 0.297622C22.5331 0.29085 22.7223 0.28182 22.9692 0.288592C23.9038 0.317938 24.8027 0.749089 25.4169 1.40823C26.0421 2.06737 26.3981 2.94322 26.4337 3.82584C26.4671 4.70846 26.1756 5.59108 25.626 6.27279C25.3568 6.61816 25.0275 6.91388 24.6559 7.1509C24.469 7.27053 24.2798 7.37437 24.0662 7.46241C23.8749 7.54141 23.6568 7.62268 23.4298 7.67234C23.2096 7.722 23.0004 7.74909 22.7734 7.76715L22.1549 7.80778C21.7521 7.83261 21.3405 7.86647 20.94 7.89807C20.1345 7.96354 19.3201 8.03803 18.5079 8.09446C17.6891 8.15767 16.8591 8.17798 16.0292 8.16444C15.1992 8.1509 14.367 8.09672 13.5393 8.029C12.6826 7.94774 11.8816 7.56625 11.2853 6.97257H11.2897Z" fill="#FFFAFE"/>
<path d="M8.13894 11.5528C7.82521 11.0697 7.37796 10.6746 6.86842 10.4241C6.3611 10.1667 5.7848 10.081 5.2441 10.1306C4.64555 10.1803 4.04923 10.2458 3.45068 10.2841C2.91888 10.3202 2.42713 10.4692 1.98434 10.7288C1.09653 11.2503 0.500204 12.1848 0.277694 13.1893C0.16199 13.6927 0.139739 14.2254 0.213167 14.7469C0.28437 15.2683 0.42455 15.7943 0.678211 16.2864C0.927421 16.7762 1.28789 17.2435 1.76628 17.5686C2.238 17.9072 2.8232 18.09 3.41062 18.0945C4.00917 18.0968 4.6055 18.0674 5.20405 17.9997C5.7848 17.9478 6.31437 17.7108 6.75494 17.3925C7.6294 16.7379 8.2146 15.8281 8.51498 14.7965C8.66184 14.2819 8.73527 13.7221 8.68632 13.16C8.63959 12.5979 8.45713 12.0358 8.14117 11.5505L8.13894 11.5528Z" fill="#BDBDBD"/>
<path d="M8.09224 11.5843C7.79631 11.1238 7.35351 10.7694 6.85954 10.5821C6.36557 10.3857 5.836 10.3812 5.35538 10.4827C4.83026 10.5956 4.28511 10.7107 3.72884 10.7672C3.42623 10.7943 3.23042 10.8101 2.99233 10.862C2.76315 10.9116 2.54064 10.9816 2.32258 11.0764C1.89091 11.257 1.4815 11.5505 1.14551 11.9365C0.809519 12.3225 0.551408 12.7988 0.431253 13.3202C0.304423 13.8371 0.306648 14.3834 0.424578 14.9094C0.531382 15.4376 0.749441 15.9274 1.05428 16.345C1.20559 16.5527 1.37469 16.7401 1.5616 16.8981C1.75296 17.0584 1.94209 17.178 2.16237 17.2954C2.57847 17.4985 3.03016 17.5956 3.50188 17.564C4.03368 17.5414 4.56102 17.4963 5.08392 17.4241C5.14177 17.415 5.233 17.406 5.27305 17.3947L5.42436 17.3608C5.53116 17.336 5.63574 17.3022 5.7381 17.2615C5.94503 17.1825 6.14751 17.0764 6.3411 16.9478C6.72604 16.6836 7.0776 16.3473 7.38021 15.9568C7.6806 15.5708 7.95206 15.1351 8.16345 14.6611C8.37261 14.187 8.52169 13.6656 8.52614 13.1261C8.53281 12.5911 8.38596 12.0403 8.09002 11.5821L8.09224 11.5843ZM8.18347 11.5211C8.79982 12.4602 9.04903 13.6701 8.87548 14.8642C8.78425 15.4602 8.59289 16.0493 8.26803 16.5776C7.94761 17.1035 7.51817 17.5708 7.0064 17.9455C6.74384 18.1283 6.45903 18.2818 6.15196 18.397C5.99843 18.4534 5.84045 18.4985 5.67802 18.5324C5.59569 18.5505 5.51781 18.5618 5.42658 18.573C5.33091 18.5843 5.2864 18.5866 5.20853 18.5934C4.64113 18.6408 4.0715 18.6498 3.50633 18.6295C2.8833 18.6204 2.22913 18.4376 1.70401 18.0697L1.60165 17.9952L1.52155 17.9297C1.45925 17.88 1.39917 17.8281 1.33909 17.7762C1.22339 17.6678 1.11658 17.5527 1.01868 17.4331C0.822869 17.1915 0.662663 16.9297 0.533608 16.6611C0.271047 16.1238 0.130866 15.5414 0.0552127 14.9748C-0.0204404 14.4037 -0.0182153 13.8191 0.0819138 13.2457C0.177593 12.6769 0.35115 12.1058 0.644862 11.5798C0.934124 11.0538 1.35467 10.5708 1.89981 10.2412C2.16905 10.0787 2.46499 9.95453 2.76982 9.88003C3.06576 9.79877 3.41733 9.7762 3.66209 9.77168C4.20056 9.74685 4.74571 9.74459 5.3131 9.76943C5.92278 9.80103 6.51243 10.0064 6.99082 10.3315C7.47367 10.6498 7.87641 11.0584 8.18792 11.5256L8.18347 11.5211Z" fill="#FFFAFE"/>
<path d="M25.0141 11.2141C24.3755 10.6859 23.5434 10.4444 22.7535 10.4985C21.0201 10.6159 19.289 10.704 17.5556 10.7378L14.9567 10.7988C14.5228 10.8101 14.0889 10.8101 13.6573 10.8123C13.5883 10.8123 13.4325 10.8146 13.3725 10.8236C13.2968 10.8281 13.1989 10.8417 13.1121 10.8552C12.9341 10.8823 12.7628 10.9342 12.5915 10.9884C11.2074 11.4398 10.2395 12.9184 10.3419 14.5008C10.3931 15.2864 10.7291 16.0945 11.3276 16.6836C11.9173 17.2773 12.7583 17.6385 13.615 17.6362C15.3483 17.652 17.0795 17.4737 18.8128 17.3134C19.6784 17.2412 20.5462 17.1803 21.4117 17.1645C21.8456 17.1532 22.2773 17.1577 22.7112 17.1622C22.9226 17.1622 23.0872 17.1509 23.2741 17.1306C23.4588 17.108 23.6435 17.0674 23.8215 17.011C24.5402 16.7965 25.2144 16.3315 25.6683 15.6701C26.1289 15.0155 26.3381 14.1577 26.2201 13.3315C26.1022 12.5053 25.6594 11.7288 25.0141 11.2141Z" fill="#BDBDBD"/>
<path d="M24.9807 11.2592C24.6025 10.95 24.1508 10.7401 23.6768 10.6565C23.441 10.6114 23.2007 10.6001 22.9626 10.6182C22.7312 10.6385 22.4775 10.6814 22.2372 10.7152C21.2582 10.862 20.2791 11.0177 19.2934 11.1238C18.3055 11.2299 17.3197 11.2638 16.3363 11.2705C15.8445 11.2683 15.3528 11.2683 14.8588 11.248C14.6163 11.2389 14.3581 11.2299 14.1134 11.2118L13.744 11.187C13.6417 11.178 13.4792 11.1712 13.4214 11.169H13.4548L13.3969 11.1712C12.8829 11.178 12.3533 11.3157 11.9016 11.6024C11.45 11.8936 11.0717 12.3202 10.8314 12.8213C10.5888 13.3202 10.4865 13.8868 10.5221 14.4398C10.5644 14.9906 10.758 15.5256 11.0695 15.9658C11.7103 16.8642 12.7539 17.2909 13.793 17.187C14.9233 17.1351 16.0559 17.0358 17.1951 16.9048L18.9174 16.713C19.4937 16.6565 20.0766 16.6114 20.6618 16.5866C21.247 16.5617 21.8367 16.5617 22.4197 16.5798C22.5665 16.5843 22.7089 16.5911 22.8357 16.5911C22.9604 16.5911 23.085 16.5843 23.2207 16.5753L23.3075 16.5662C23.3475 16.5617 23.3675 16.5572 23.3942 16.555C23.4432 16.5504 23.5055 16.5346 23.5634 16.5234C23.6212 16.5098 23.6746 16.4985 23.7503 16.4782C23.8281 16.4579 23.8637 16.4466 23.9238 16.4263C24.8539 16.1283 25.7128 15.3586 25.9865 14.2908C26.1267 13.7649 26.1178 13.1848 25.9398 12.6475C25.7617 12.1103 25.428 11.6182 24.9874 11.2615L24.9807 11.2592ZM25.0497 11.1712C25.5125 11.5369 25.8819 12.0222 26.1289 12.5708C26.2513 12.8439 26.3447 13.1396 26.3981 13.4398C26.4493 13.7423 26.4649 14.0561 26.4404 14.3676C26.4159 14.6814 26.3492 14.9929 26.2446 15.2976C26.1912 15.4489 26.1267 15.5956 26.0466 15.7513L25.9932 15.8484L25.962 15.9026L25.9309 15.9545C25.8886 16.0245 25.8441 16.0922 25.7973 16.1599C25.4258 16.6972 24.9006 17.1261 24.2954 17.4037C24.222 17.4353 24.1219 17.4782 24.0618 17.4985C23.9995 17.5234 23.9149 17.5527 23.8348 17.5775C23.7525 17.6001 23.6768 17.6249 23.5834 17.643L23.4588 17.6701L23.3319 17.6927C23.1806 17.7152 23.0182 17.731 22.8558 17.7378C22.6933 17.7446 22.5487 17.7446 22.4085 17.7468C21.8411 17.7559 21.276 17.7717 20.713 17.7988C20.1478 17.8281 19.5804 17.8642 19.0086 17.9003L17.2886 18.0222C16.1315 18.0922 14.9656 18.1532 13.7908 18.0967L13.5705 18.0854C13.4881 18.0809 13.4058 18.0741 13.3257 18.0629C13.1633 18.0448 13.0031 18.0109 12.8473 17.9658C12.5358 17.88 12.2376 17.7491 11.964 17.5866C11.688 17.4218 11.4388 17.2254 11.2141 16.9929C11.0027 16.7739 10.8047 16.5121 10.6534 16.2412C10.0348 15.1464 10.0059 13.7875 10.5243 12.6814C10.7758 12.1261 11.1473 11.6182 11.6369 11.2322C11.8794 11.038 12.1486 10.871 12.4423 10.7491C12.5937 10.6859 12.716 10.6362 12.8874 10.5866C12.9741 10.5617 13.0186 10.5482 13.1143 10.5279C13.19 10.5121 13.2656 10.4963 13.3546 10.4827H13.3302C13.5193 10.4579 13.6038 10.4556 13.7462 10.4443L14.1134 10.4173L14.8432 10.3631C15.3327 10.3225 15.8267 10.2999 16.3162 10.2728C17.3019 10.2299 18.2832 10.2344 19.2645 10.2615C20.2457 10.2909 21.2315 10.3405 22.2172 10.3608C22.4664 10.3653 22.7045 10.3608 22.9648 10.3744C23.2207 10.3902 23.4721 10.4308 23.7169 10.4985C24.2042 10.6317 24.6648 10.8597 25.0519 11.1802L25.0497 11.1712Z" fill="#FFFAFE"/>
<path d="M8.13894 21.2367C7.82521 20.7536 7.37796 20.3586 6.86842 20.108C6.3611 19.8484 5.7848 19.7649 5.2441 19.8146C4.64555 19.8642 4.04923 19.932 3.45068 19.9681C2.91888 20.0042 2.42713 20.1532 1.98434 20.4105C1.09653 20.932 0.500204 21.8665 0.277694 22.871C0.16199 23.3744 0.139739 23.9071 0.213167 24.4286C0.28437 24.95 0.42455 25.476 0.678211 25.9681C0.927421 26.4579 1.28789 26.9252 1.76628 27.2503C2.238 27.5889 2.8232 27.7717 3.41062 27.7762C4.00917 27.7785 4.6055 27.7491 5.20405 27.6814C5.7848 27.6295 6.31437 27.3925 6.75494 27.0742C7.6294 26.4196 8.2146 25.5098 8.51498 24.4782C8.66184 23.9613 8.73527 23.4038 8.68632 22.8417C8.63959 22.2796 8.45713 21.7175 8.14117 21.2322L8.13894 21.2367Z" fill="#BDBDBD"/>
<path d="M8.09227 21.2683C7.79633 20.8078 7.35354 20.4534 6.85957 20.2661C6.3656 20.0697 5.83603 20.0652 5.35541 20.1667C4.83029 20.2796 4.28514 20.3947 3.72887 20.4512C3.42625 20.4782 3.22822 20.494 2.99014 20.546C2.76095 20.5956 2.53844 20.6656 2.32038 20.7604C1.88872 20.941 1.4793 21.2345 1.14331 21.6205C0.807322 22.0065 0.549211 22.4828 0.429056 23.0042C0.302226 23.5211 0.304451 24.0674 0.422381 24.5934C0.529185 25.1216 0.747244 25.6114 1.05208 26.029C1.20339 26.2367 1.37249 26.4241 1.5594 26.5821C1.75076 26.7424 1.93989 26.862 2.16018 26.9794C2.57627 27.1825 3.02796 27.2796 3.49968 27.248C4.03148 27.2232 4.55883 27.1803 5.08172 27.108C5.13958 27.099 5.2308 27.09 5.27086 27.0787L5.42216 27.0448C5.52897 27.02 5.63355 26.9861 5.7359 26.9455C5.94283 26.8665 6.14532 26.7604 6.3389 26.6317C6.72384 26.3676 7.0754 26.0313 7.37802 25.6408C7.6784 25.2548 7.94987 24.8191 8.16125 24.3451C8.37041 23.8688 8.51949 23.3496 8.52394 22.8101C8.53062 22.2751 8.38376 21.7243 8.08782 21.2661L8.09227 21.2683ZM8.1835 21.2051C8.79985 22.1442 9.04906 23.3563 8.8755 24.5482C8.78428 25.1442 8.59292 25.7333 8.26805 26.2615C7.94764 26.7875 7.5182 27.2548 7.00643 27.6295C6.74609 27.8123 6.45905 27.9681 6.15199 28.081C5.99846 28.1374 5.84048 28.1825 5.67805 28.2164C5.59572 28.2345 5.51784 28.2457 5.42439 28.257C5.32871 28.2683 5.28421 28.2706 5.20633 28.2773C4.63893 28.3247 4.06931 28.3338 3.50413 28.3135C2.88111 28.3044 2.22693 28.1216 1.70181 27.7536L1.59945 27.6791L1.51935 27.6137C1.45705 27.564 1.39697 27.5121 1.33689 27.4602C1.22119 27.3518 1.11438 27.2367 1.01648 27.1171C0.820672 26.8755 0.660466 26.6137 0.53141 26.3451C0.268849 25.8078 0.128669 25.2254 0.0530154 24.6588C-0.0226377 24.0877 -0.0204126 23.5031 0.0797165 22.9297C0.175395 22.3609 0.348953 21.7898 0.642665 21.2638C0.931927 20.7378 1.35247 20.2548 1.89762 19.9252C2.16685 19.7627 2.46279 19.6408 2.76763 19.564C3.06356 19.4828 3.41513 19.4624 3.65989 19.4557C4.19836 19.4308 4.74351 19.4286 5.31313 19.4512C5.92281 19.4828 6.51246 19.6882 6.99085 20.0132C7.4737 20.3315 7.87644 20.7401 8.18795 21.2074L8.1835 21.2051Z" fill="#FFFAFE"/>
<path d="M25.0141 20.8981C24.3755 20.3721 23.5434 20.1283 22.7535 20.1825C21.0201 20.2999 19.289 20.3902 17.5556 20.4218L14.9567 20.4805C14.5228 20.4918 14.0889 20.4918 13.6573 20.494C13.5883 20.494 13.4325 20.4963 13.3725 20.5053C13.2968 20.5098 13.1989 20.5234 13.1121 20.5369C12.9341 20.564 12.7628 20.6159 12.5915 20.6724C11.2074 21.1238 10.2395 22.6024 10.3419 24.1848C10.3931 24.9703 10.7291 25.7784 11.3276 26.3676C11.9173 26.9613 12.7583 27.3225 13.615 27.3202C15.3483 27.336 17.0795 27.1577 18.8128 26.9974C19.6784 26.9252 20.5462 26.8642 21.4117 26.8484C21.8456 26.8371 22.2773 26.8417 22.7112 26.8462C22.9226 26.8462 23.0872 26.8349 23.2741 26.8146C23.4588 26.792 23.6435 26.7514 23.8215 26.6949C24.5402 26.4805 25.2144 26.0155 25.6683 25.3541C26.1289 24.6994 26.3381 23.8417 26.2201 23.0155C26.1022 22.1893 25.6594 21.4128 25.0141 20.8981Z" fill="#BDBDBD"/>
<path d="M24.9807 20.9432C24.6024 20.634 24.1508 20.424 23.6768 20.3405C23.4409 20.2954 23.2006 20.2841 22.9626 20.3021C22.7311 20.3224 22.4775 20.3653 22.2372 20.3992C21.2581 20.5459 20.2791 20.7017 19.2934 20.8078C18.3054 20.9139 17.3175 20.9477 16.3362 20.9545C15.8445 20.9522 15.3527 20.9522 14.8588 20.9319C14.6162 20.9229 14.3581 20.9139 14.1134 20.8958L13.744 20.871C13.6416 20.8619 13.4792 20.8552 13.4214 20.8529H13.457L13.3947 20.8552C12.8851 20.8597 12.3533 20.9996 11.9016 21.2863C11.4499 21.5775 11.0717 22.0064 10.8314 22.5053C10.5888 23.0042 10.4865 23.5707 10.5221 24.1238C10.5643 24.6746 10.7579 25.2096 11.0694 25.6498C11.7103 26.5482 12.7538 26.9748 13.7929 26.871C14.9233 26.8213 16.0559 26.7197 17.1929 26.5888L18.9151 26.3969C19.4914 26.3405 20.0744 26.2954 20.6596 26.2705C21.2448 26.2457 21.8344 26.2457 22.4174 26.2638C22.5643 26.2683 22.7067 26.275 22.8335 26.275C22.9581 26.275 23.0827 26.2683 23.2184 26.2592L23.3074 26.2502C23.3475 26.2457 23.3675 26.2412 23.3942 26.2389C23.4432 26.2344 23.5055 26.2186 23.5633 26.2073C23.6212 26.1938 23.6768 26.1825 23.7502 26.1622C23.8281 26.1419 23.8637 26.1306 23.9238 26.1103C24.8539 25.8123 25.7128 25.0425 25.9865 23.9748C26.1266 23.4489 26.1177 22.8687 25.9397 22.3315C25.7617 21.7942 25.428 21.3021 24.9874 20.9455L24.9807 20.9432ZM25.0497 20.8552C25.5125 21.2209 25.8819 21.7062 26.1266 22.2547C26.249 22.5279 26.3425 22.8236 26.3959 23.1238C26.447 23.4263 26.4626 23.74 26.4381 24.0516C26.4137 24.3653 26.3469 24.6768 26.2423 24.9816C26.1889 25.1328 26.1244 25.2796 26.0443 25.4353L25.9931 25.5324L25.962 25.5865L25.9308 25.6385C25.8885 25.7084 25.844 25.7762 25.7973 25.8439C25.4257 26.3811 24.9006 26.81 24.2954 27.0877C24.222 27.1193 24.1218 27.1622 24.0617 27.1825C23.9994 27.2073 23.9149 27.2367 23.8348 27.2615C23.7525 27.2841 23.6768 27.3089 23.5834 27.327L23.4565 27.354L23.3319 27.3766C23.1806 27.3992 23.0182 27.415 22.8557 27.4218C22.6933 27.4285 22.5487 27.4285 22.4085 27.4308C21.8389 27.4398 21.2759 27.4556 20.713 27.4827L19.0086 27.5843L17.2886 27.7062C16.1315 27.7762 14.9656 27.8371 13.7907 27.7807L13.5704 27.7694C13.4881 27.7649 13.4058 27.7581 13.3257 27.7468C13.1632 27.7288 13.003 27.6949 12.8473 27.6498C12.5358 27.564 12.2376 27.4353 11.9639 27.2705C11.688 27.1057 11.4388 26.9093 11.2141 26.6768C11.0027 26.4579 10.8046 26.196 10.6556 25.9252C10.037 24.8303 10.0081 23.4714 10.5265 22.3653C10.7779 21.81 11.1495 21.3021 11.6391 20.9161C11.8816 20.7197 12.1508 20.5549 12.4445 20.4331C12.5958 20.3698 12.7182 20.3202 12.8873 20.2705C12.9741 20.2457 13.0186 20.2321 13.1143 20.2118C13.1899 20.196 13.2656 20.1802 13.3546 20.1689H13.3279C13.517 20.1441 13.6016 20.1419 13.744 20.1306L14.1111 20.1035L14.8432 20.0493C15.3327 20.0087 15.8267 19.9861 16.3162 19.959C17.3019 19.9161 18.2832 19.9206 19.2622 19.9477C20.2435 19.9771 21.2292 20.0267 22.2171 20.047C22.4664 20.0516 22.7044 20.047 22.9648 20.0606C23.2207 20.0764 23.4721 20.117 23.7169 20.1847C24.2042 20.3179 24.6647 20.5459 25.0519 20.8642L25.0497 20.8552Z" fill="#FFFAFE"/>
</svg>
