<svg width="33" height="28" viewBox="0 0 33 28" fill="none" xmlns="http://www.w3.org/2000/svg">
<path d="M6.71946 14.9481L6.7573 15.0451C7.22901 16.219 8.15242 17.1828 9.24049 17.8804C10.3375 18.5801 11.5835 19.0429 12.854 19.3883L12.8985 19.3995V19.4469C12.9364 20.2618 12.9764 21.0745 12.9987 21.8871L13.0031 22.0135L12.8718 22.0451C11.4678 22.3747 10.0638 22.7855 8.80437 23.4244C8.19247 23.7472 7.58058 24.1512 7.28687 24.6794C7.21121 24.8171 7.17115 24.9255 7.13778 25.0948C7.11775 25.2122 7.10886 25.377 7.12888 25.5124C7.16448 25.7968 7.29131 26.07 7.48489 26.2822C7.84536 26.7133 8.54181 26.8645 9.22269 27.0045C9.91024 27.1354 10.6223 27.2122 11.3343 27.2686C12.7628 27.377 14.2069 27.3995 15.651 27.4108C17.0951 27.4199 18.5391 27.3792 19.9766 27.307C20.6953 27.2686 21.4117 27.219 22.1149 27.1377C22.4664 27.0948 22.8158 27.0474 23.154 26.9864L23.4054 26.9368L23.5211 26.9097L23.648 26.8781C23.7837 26.8397 23.935 26.7833 24.0618 26.7201C24.5892 26.4673 24.8762 26.0022 24.8317 25.4266C24.8139 25.1512 24.7182 24.9323 24.5224 24.7088C24.3288 24.4898 24.0574 24.2912 23.7659 24.1151C23.1785 23.763 22.5154 23.4808 21.8501 23.219C21.1803 22.9594 20.4972 22.7201 19.8097 22.4943L19.576 22.4176L19.5805 22.1828L19.645 19.4266L19.6495 19.2212L19.8341 19.1761C21.049 18.8781 22.2306 18.4131 23.2897 17.7517C24.3355 17.079 25.2545 16.1625 25.7462 15.0135L25.7707 14.9548L25.8263 14.9255C27.2704 14.149 28.5832 13.1264 29.7358 11.9503C30.8929 10.8013 31.7228 9.32279 32.041 7.74265C32.3703 6.1738 32.0922 4.46952 31.1221 3.26636C30.6459 2.65913 30.0228 2.18961 29.3331 1.88035C28.6411 1.5711 27.8756 1.43566 27.1035 1.4334H26.812L26.6652 1.13091C26.594 0.984188 26.5206 0.875836 26.3626 0.749425C26.2736 0.683962 26.1045 0.595926 25.9621 0.57561C25.9242 0.573353 25.8864 0.562066 25.8486 0.564323C25.813 0.564323 25.7751 0.559809 25.7084 0.564323L25.3546 0.568838L24.647 0.580125L21.8167 0.607213L16.1561 0.654617C14.2692 0.668161 12.3823 0.692992 10.4954 0.688477H7.66512L6.95755 0.692992H6.60376C6.61489 0.692992 6.48583 0.692991 6.47693 0.699763C6.45691 0.706535 6.44133 0.702021 6.40573 0.713308C6.27667 0.742653 6.15206 0.805858 6.05193 0.896152L6.03191 0.911953L6.023 0.920983L6.01856 0.925497L5.97629 0.972901C5.92288 1.02708 5.9251 1.03836 5.91175 1.05642C5.88282 1.0948 5.84723 1.16929 5.82053 1.22798L5.64698 1.6343L5.24645 1.63882C4.48547 1.64559 3.74007 1.78329 3.06809 2.08577C2.39611 2.38825 1.81091 2.86003 1.35254 3.44468C1.23906 3.59141 1.13226 3.74491 1.03881 3.90292C0.992079 3.97967 0.943121 4.06997 0.90752 4.13769C0.863018 4.23024 0.809614 4.33182 0.780688 4.40631C0.638282 4.73362 0.520361 5.10608 0.455833 5.47629C0.317878 6.22347 0.344582 7.01353 0.500338 7.77877C0.818526 9.32053 1.64625 10.7449 2.77438 11.8826C3.90472 13.0609 5.19083 14.0993 6.61266 14.8984L6.71725 14.9571L6.71946 14.9481ZM24.7917 11.1038C24.805 10.5643 24.8161 10.0226 24.8428 9.48306C24.8718 8.94356 24.9318 8.40631 25.0119 7.86906C25.092 7.33182 25.181 6.79457 25.299 6.25958C25.4147 5.72459 25.546 5.18961 25.7329 4.65687L25.7507 4.60721L25.8018 4.6027C25.9198 4.58915 26.0088 4.56432 26.1 4.53046C26.1712 4.49435 26.298 4.44243 26.4004 4.40857C26.6162 4.32956 26.8432 4.28216 27.079 4.25055C27.5441 4.20315 28.0804 4.23024 28.5788 4.55078C28.8258 4.71782 29.0282 4.93227 29.1795 5.22347L29.2151 5.2957L29.2619 5.40405C29.2886 5.47855 29.3108 5.54175 29.3286 5.60947C29.3665 5.74491 29.3865 5.88035 29.3954 6.01353C29.4288 6.55078 29.2663 7.04062 29.0527 7.465C28.5966 8.30247 28.0536 8.9887 27.4929 9.67945C26.9456 10.3702 26.3737 11.0835 25.6483 11.6185L24.7627 12.2686L24.7939 11.1038H24.7917ZM3.93365 9.2799C3.53759 8.73588 3.3084 8.05868 3.26835 7.38374C3.2372 6.70879 3.31063 6.05191 3.58654 5.48306C3.71559 5.22572 3.91585 4.99548 4.15839 4.82166C4.40092 4.64333 4.68351 4.51241 4.97499 4.4176C5.26871 4.32053 5.57354 4.26636 5.87838 4.24604L6.10756 4.24152C6.18321 4.24152 6.27223 4.25055 6.28558 4.24152C6.33898 4.2325 6.41685 4.21218 6.48583 4.18509L7.12888 3.93453L7.18228 4.67945C7.22233 5.22798 7.18005 5.77651 7.10885 6.32956C7.03987 6.88261 6.96867 7.43791 6.9887 7.9887C7.00873 8.53949 7.08883 9.08577 7.21344 9.62527C7.33582 10.1648 7.49379 10.6975 7.6095 11.2302L7.83869 12.2822L6.83517 11.7201C6.2878 11.4131 5.76712 11.0564 5.27538 10.6636C4.78141 10.2618 4.34084 9.85552 3.93365 9.2799Z" fill="#BDBDBD"/>
<path d="M6.77286 14.9278C7.03319 15.535 7.41812 16.07 7.86091 16.5372C8.30593 17.0045 8.8266 17.3995 9.3762 17.7223C9.9347 18.0519 10.5221 18.3138 11.1273 18.5327C11.7303 18.7562 12.3534 18.9368 12.9809 19.0903L13.1967 19.1422L13.2145 19.3815C13.2768 20.2528 13.3346 21.1219 13.3747 22L13.388 22.3002L13.0899 22.3747C11.7749 22.7065 10.4821 23.0993 9.28943 23.6727C8.98905 23.8172 8.71536 23.9707 8.45057 24.149C8.19246 24.3251 7.95883 24.5237 7.79862 24.7382C7.71852 24.842 7.65398 24.9594 7.62728 25.0519C7.59391 25.1603 7.58279 25.2709 7.59169 25.386C7.62061 25.6366 7.69181 25.7991 7.89207 26.0068C7.94325 26.0609 8.05673 26.14 8.17243 26.1941C8.29259 26.2528 8.43055 26.3025 8.5774 26.3431C8.72426 26.386 8.88001 26.4221 9.04244 26.456L9.28721 26.5056L9.52751 26.5485C10.1728 26.6546 10.847 26.7201 11.5123 26.7652C12.8607 26.8668 14.2158 26.8849 15.5798 26.912C16.2606 26.9255 16.9371 26.9278 17.618 26.9187C18.2966 26.9165 18.9775 26.9075 19.6584 26.8894C20.3392 26.8736 21.0134 26.8465 21.6876 26.7946C22.0214 26.7698 22.3574 26.7359 22.6912 26.693C22.8558 26.6727 23.0249 26.6479 23.1829 26.6208L23.3097 26.5982L23.3609 26.5892L23.4232 26.5756L23.5411 26.5485C23.5612 26.544 23.6212 26.5282 23.6457 26.5214C23.7926 26.4786 23.9239 26.4244 24.0529 26.3521C24.1664 26.2889 24.2732 26.1986 24.3533 26.0993C24.5157 25.8984 24.578 25.6275 24.5447 25.3431C24.5291 25.2122 24.4846 25.0971 24.4089 24.9819C24.3889 24.9526 24.3689 24.9255 24.3466 24.8962L24.3288 24.8758C24.3288 24.8758 24.3177 24.8623 24.3132 24.8578L24.271 24.8104L24.1953 24.7336L24.1085 24.6546C23.8705 24.4492 23.5857 24.2731 23.2942 24.1084C22.7134 23.781 22.0815 23.5237 21.4496 23.2731C20.8154 23.0248 20.1746 22.7946 19.5249 22.5801L19.398 22.5372V22.4018C19.427 21.3363 19.4648 20.2709 19.4848 19.2077V19.0745L19.6139 19.0451C20.2369 18.8962 20.8399 18.7133 21.4295 18.4763C22.0192 18.2438 22.5866 17.9571 23.1228 17.6208C23.6502 17.2844 24.1441 16.8804 24.5625 16.4176C24.9808 15.9503 25.319 15.4266 25.5504 14.8442L25.5793 14.7698L25.6594 14.7246C27.0479 13.9503 28.3028 12.9526 29.3998 11.7991C30.5079 10.6862 31.2845 9.27765 31.5938 7.77201C31.7517 7.02032 31.7629 6.25734 31.6249 5.5237C31.487 4.79233 31.1866 4.10384 30.7237 3.5553C30.2609 2.98871 29.6668 2.55982 28.9859 2.2912C28.6633 2.16479 28.3006 2.07223 27.9424 2.02257C27.7621 1.99774 27.5775 1.97968 27.3928 1.97291C27.3016 1.9684 27.2081 1.9684 27.1146 1.9684H26.812H26.4849L26.3336 1.66591L26.1912 1.38149L26.1601 1.31828L26.1423 1.2912C26.1289 1.26862 26.1178 1.25734 26.1022 1.23928C26.0867 1.22348 26.0688 1.20542 26.0421 1.1851L26.0333 1.17833L26.0288 1.17381C26.0444 1.1851 25.9954 1.14898 26.0622 1.19865H26.0577L26.0266 1.17381C26.0221 1.17381 26.0221 1.17381 26.0066 1.16253C25.9576 1.13544 25.8908 1.11512 25.8908 1.11738L25.9353 1.1219C25.8708 1.11738 25.8152 1.10609 25.8352 1.11061C25.8285 1.11061 25.8641 1.11512 25.8775 1.11061H25.7974H25.7484H25.675L25.3724 1.11964L24.7672 1.13318L23.5545 1.15576L21.1336 1.19639L16.294 1.24605C14.6808 1.26411 13.0676 1.25959 11.45 1.25734C9.83457 1.24831 8.22584 1.23928 6.60597 1.21445L6.65269 0.146727C6.66382 0.146727 6.67717 0.146727 6.70832 0.155756L6.77952 0.173815L6.95976 0.27991L7.10662 0.853273L6.89078 1.12867C6.79955 1.18284 6.7773 1.18284 6.75282 1.19187L6.71055 1.20316H6.70165L6.66827 1.20993H6.63489L6.62376 1.21445H6.61264H6.59484H6.56591H6.54366C6.54144 1.21445 6.54144 1.21445 6.54366 1.21445H6.55924L6.58149 1.20767C6.57481 1.20767 6.61487 1.2009 6.63934 1.19413C6.66604 1.1851 6.69053 1.17607 6.715 1.16253L6.67716 1.18284L6.64157 1.19413C6.62377 1.2009 6.60374 1.20542 6.58371 1.20993L6.53921 1.21896C6.52808 1.21896 6.50584 1.22348 6.52142 1.21896C6.53477 1.2167 6.54812 1.21445 6.56147 1.20993L6.54812 1.21445L6.52586 1.21896C6.49916 1.22573 6.47247 1.23476 6.45021 1.24605C6.43909 1.25056 6.42796 1.25734 6.41906 1.26411C6.41461 1.26637 6.41016 1.27088 6.40571 1.27314L6.36121 1.31151L6.33228 1.33634L6.31003 1.34989L6.40571 1.26637L6.34563 1.33183L6.35454 1.31828C6.35454 1.31828 6.37234 1.2912 6.36566 1.30023L6.35454 1.31828L6.33228 1.34989L6.31893 1.36795L6.31449 1.37246C6.29224 1.40181 6.34341 1.33409 6.33673 1.34086L6.33228 1.34763C6.32783 1.3544 6.32338 1.35892 6.33228 1.34763C6.33673 1.3386 6.32116 1.36795 6.31226 1.38375L6.28111 1.45372L6.11868 1.82167L5.98294 2.13318H5.65586C5.4556 2.13318 5.25979 2.13318 5.07288 2.13544C4.8971 2.13996 4.71019 2.1535 4.52996 2.17607C4.16949 2.22122 3.8157 2.29797 3.48194 2.42212C2.81218 2.66366 2.21141 3.09255 1.74414 3.65011C1.50828 3.93454 1.31915 4.22573 1.16785 4.55756C1.00987 4.90068 0.900833 5.23928 0.82963 5.61174C0.689449 6.34086 0.713926 7.11061 0.871908 7.86456C1.02544 8.60948 1.31025 9.34086 1.69297 10.0135C2.07568 10.6907 2.55185 11.3025 3.097 11.8781C4.16727 13.0406 5.39329 14.0609 6.74837 14.8894L6.76617 14.9007L6.77286 14.9187V14.9278ZM6.67716 14.9887C5.25311 14.2754 3.95366 13.307 2.78994 12.1986C1.59284 11.1106 0.638272 9.66592 0.21773 8.02709C-0.202812 6.41761 -0.0626299 4.51016 1.06772 3.09707C1.60396 2.41084 2.3249 1.85553 3.1415 1.52822C3.5487 1.36343 3.97145 1.25508 4.39645 1.19187C4.61005 1.16027 4.81922 1.13995 5.0395 1.12867C5.24866 1.11964 5.44892 1.11738 5.64473 1.11287L5.18191 1.42438L5.33544 1.05192C5.34657 1.02483 5.36659 0.975169 5.38439 0.939052C5.40441 0.896163 5.41999 0.86456 5.45782 0.799097L5.48452 0.756208L5.48897 0.751693L5.51345 0.717833H5.51122L5.5001 0.733634L5.48452 0.75395C5.48452 0.75395 5.47785 0.765237 5.48008 0.760722C5.4823 0.756208 5.50455 0.72009 5.5179 0.702032C5.53125 0.681716 5.5446 0.665914 5.55795 0.650113L5.63138 0.566592L5.66921 0.523702L5.72706 0.48307L5.67587 0.521445L5.71371 0.487585C5.73819 0.467269 5.76265 0.444695 5.78713 0.426636C5.83831 0.388262 5.88948 0.352144 5.94289 0.322799C6.04969 0.261851 6.16318 0.218962 6.28111 0.189616L6.2455 0.198646C6.28332 0.187359 6.32115 0.17833 6.35898 0.171558C6.38568 0.167043 6.37678 0.1693 6.37678 0.1693L6.35231 0.173815C6.33896 0.176072 6.32561 0.180587 6.31449 0.185102L6.24106 0.216704C6.26553 0.20316 6.29223 0.194131 6.32116 0.185102C6.34563 0.176072 6.38791 0.1693 6.38124 0.1693L6.41238 0.164785L6.44353 0.160271H6.47469L6.51696 0.155756H6.55256L6.56814 0.153499H6.57259H6.57036H6.53921L6.50807 0.160271L6.45911 0.171558C6.43463 0.180587 6.41238 0.17833 6.32116 0.234763L6.10533 0.510158L6.25218 1.08352L6.43241 1.18962L6.50361 1.20767C6.53477 1.21445 6.54812 1.21445 6.55924 1.21445L6.60597 0.146727L16.2784 0.0428893L21.118 0.0112867H23.5367L24.7427 0.00677195L25.3479 0.00225739H25.6505L25.7284 0H25.8285L25.8463 0.00225739H25.8552H25.8597C25.8441 0.00225739 25.8997 0.00225739 25.8263 0.00225739C25.8664 0.00225739 25.9264 0.00225728 25.9442 0.00677195C26.0132 0.0158013 26.0088 0.0158013 25.9954 0.0158013H26.0199L26.0399 0.0203161C26.2469 0.0564334 26.3781 0.117382 26.5139 0.189616C26.545 0.205418 26.5873 0.232506 26.6296 0.259594L26.6629 0.282167L26.7052 0.31377L26.7163 0.322799L26.7364 0.340858C26.792 0.386005 26.8499 0.442438 26.9055 0.505643C26.9611 0.568849 27.0145 0.638826 27.0546 0.708804C27.0768 0.742664 27.0968 0.781038 27.1169 0.819413L27.1569 0.89842L27.2949 1.1851L26.8165 0.882619L27.1169 0.887133C27.2259 0.887133 27.3327 0.891648 27.4417 0.89842C27.6598 0.911964 27.8756 0.934537 28.0915 0.968397C28.5276 1.03837 28.9481 1.14898 29.3731 1.3228C30.1853 1.65688 30.9373 2.21445 31.4869 2.91422C32.0566 3.62302 32.4015 4.48533 32.5461 5.35666C32.6952 6.23025 32.6395 7.12867 32.4348 7.96614C32.041 9.65011 31.0887 11.158 29.8693 12.2912C28.6811 13.4334 27.3438 14.4244 25.8842 15.1693L25.9932 15.0497C25.7217 15.6682 25.3257 16.237 24.8606 16.7156C24.3956 17.1986 23.8749 17.6095 23.3097 17.9549C22.7468 18.2935 22.1527 18.5734 21.5475 18.8126C20.9422 19.0497 20.3103 19.237 19.6828 19.3815L19.8119 19.219C19.783 20.2844 19.7696 21.3499 19.7474 22.4154L19.625 22.2393C20.9289 22.6682 22.2395 23.0745 23.5033 23.6953C23.8148 23.8533 24.1286 24.0248 24.4223 24.2551L24.5313 24.3454L24.6403 24.447L24.6848 24.4921L24.7138 24.5214L24.7382 24.5485C24.7716 24.5869 24.8028 24.6253 24.8339 24.6682C24.9585 24.833 25.0542 25.0451 25.0876 25.2573C25.121 25.4605 25.1232 25.6704 25.0831 25.8826C25.0409 26.0926 24.9541 26.298 24.8272 26.474C24.6982 26.6501 24.5447 26.7923 24.3644 26.9052C24.1998 27.009 24.0173 27.0948 23.8371 27.1558C23.7815 27.1738 23.757 27.1828 23.6969 27.2009L23.5656 27.237L23.4299 27.2709L23.3053 27.298C23.1273 27.3363 22.9582 27.3679 22.7868 27.3973C22.4419 27.456 22.0993 27.5056 21.7544 27.5485C21.0668 27.6321 20.3771 27.6907 19.6917 27.7381C19.0064 27.7856 18.3211 27.8284 17.6335 27.8555C16.9482 27.8804 16.2562 27.8939 15.5686 27.8984C14.2002 27.9052 12.8184 27.8781 11.4389 27.7833C10.7424 27.7291 10.0549 27.6546 9.35173 27.5305L9.08694 27.4808L8.83107 27.4244C8.65751 27.386 8.48172 27.3431 8.29926 27.2867C8.11903 27.2325 7.93213 27.1648 7.74522 27.0722C7.55609 26.9729 7.37363 26.8668 7.18672 26.6704C7.13777 26.6163 7.04431 26.5147 6.98423 26.4221C6.91748 26.3273 6.86186 26.2257 6.81068 26.1219C6.76395 26.0113 6.72612 25.9142 6.69497 25.7833L6.67495 25.6907L6.66381 25.6275L6.65046 25.5395C6.64601 25.5079 6.6438 25.4763 6.6438 25.447C6.63267 25.2167 6.6616 24.9752 6.73947 24.7562C6.8218 24.5192 6.9375 24.3363 7.06878 24.1693C7.33357 23.8375 7.64287 23.6005 7.95438 23.3973C8.26367 23.1964 8.59519 23.0248 8.91561 22.8804C10.2084 22.2867 11.5702 21.9391 12.9163 21.6524L12.6315 22.0271L12.5826 19.4176L12.8162 19.7088C12.1776 19.5192 11.5434 19.3025 10.9271 19.0384C10.313 18.7698 9.71442 18.4515 9.16037 18.0745C8.59965 17.693 8.08787 17.2461 7.65176 16.7269C7.22009 16.2167 6.88188 15.6208 6.66827 14.9932L6.67716 14.9887Z" fill="#FFFAFE"/>
<path d="M24.7361 11.1039C24.7539 10.5531 24.7138 10.0068 24.6493 9.44472C24.5892 8.8849 24.5447 8.31379 24.5714 7.7472C24.5981 7.1919 24.6893 6.63208 24.8451 6.09032C25.0008 5.55533 25.2233 5.01583 25.4815 4.5147L25.5816 4.32057L25.7195 4.32508H25.764C25.764 4.32508 25.7907 4.32508 25.8019 4.32508C25.8241 4.32508 25.8441 4.32508 25.8686 4.32508C25.9153 4.32282 25.9621 4.31379 26.0155 4.30251L25.991 4.31379C26.5184 4.13998 27.0524 4.04517 27.5931 4.06774C28.136 4.09032 28.7012 4.25962 29.1462 4.68174C29.5801 5.09032 29.8493 5.71786 29.8426 6.33862C29.8426 6.96842 29.6224 7.54856 29.3509 8.0384C29.0928 8.51921 28.7991 8.97745 28.4809 9.39957C28.3207 9.61176 28.156 9.81492 27.9891 10.0113C27.8334 10.1987 27.6576 10.4041 27.4796 10.5982C27.1258 10.991 26.7164 11.3635 26.2424 11.6501C26.1267 11.7246 26.0043 11.7924 25.882 11.8533L25.5282 12.0271C25.2946 12.1422 25.0609 12.2551 24.8362 12.3815L24.5825 12.5237L24.6226 12.2664C24.6537 12.0723 24.676 11.8804 24.696 11.6863C24.7138 11.4921 24.7249 11.298 24.7338 11.1039H24.7361ZM24.8473 11.1061C24.8451 11.3003 24.8473 11.4944 24.8518 11.6885C24.8607 11.8826 24.874 12.0768 24.894 12.2732L24.6804 12.1603C24.8696 11.9842 25.0476 11.7923 25.2278 11.605C25.3168 11.5124 25.4103 11.4131 25.4926 11.3206C25.5749 11.228 25.6528 11.1355 25.7307 11.0407C26.0355 10.6569 26.3136 10.2596 26.614 9.86233C26.7653 9.65917 26.9077 9.46278 27.0724 9.24833L27.5397 8.65239C27.849 8.26188 28.1538 7.87813 28.4186 7.47181C28.6856 7.09032 28.8681 6.684 28.9393 6.27768L28.9615 6.13321L28.9704 5.96616V5.81944C28.9704 5.79686 28.9637 5.75849 28.9615 5.72689C28.9615 5.70431 28.9571 5.67948 28.9526 5.65239C28.9215 5.44923 28.8436 5.23479 28.7256 5.05646C28.6656 4.96616 28.5944 4.87813 28.5165 4.80589L28.4431 4.74269C28.4431 4.74269 28.403 4.71108 28.383 4.69754C28.3363 4.66594 28.2895 4.63208 28.2383 4.60499C28.0381 4.49212 27.8089 4.42892 27.5708 4.4086C27.0924 4.37023 26.5985 4.49664 26.2002 4.7472L26.2113 4.74043L26.1757 4.75849C26.1156 4.78783 26.0489 4.81718 25.9799 4.83975C25.9465 4.85104 25.9064 4.86233 25.8708 4.87136L25.7752 4.89393L26.0133 4.70431C25.9042 5.23704 25.8553 5.76526 25.7774 6.30251C25.6951 6.83298 25.6038 7.35668 25.4659 7.88941C25.3324 8.41086 25.161 8.9323 25.0387 9.47181C24.9185 10.0068 24.8562 10.5598 24.8451 11.1084L24.8473 11.1061Z" fill="#FFFAFE"/>
<path d="M3.8891 9.31376C3.53976 8.82392 3.2683 8.27313 3.08807 7.66365C3.00129 7.35439 2.95011 7.04288 2.92119 6.72008C2.89893 6.39728 2.90782 6.05868 2.99238 5.72459C3.0124 5.64107 3.03466 5.55755 3.06581 5.47403C3.07916 5.4334 3.09474 5.39051 3.11031 5.34988L3.13479 5.28893L3.14147 5.27313V5.26636L3.15926 5.23701L3.17261 5.21218C3.19708 5.16026 3.26162 5.04514 3.31502 4.97064C3.36842 4.89164 3.42851 4.8194 3.49081 4.74942C3.61541 4.60947 3.76226 4.48983 3.91357 4.39051C3.96697 4.35665 4.06488 4.29796 4.14053 4.25958C4.21841 4.21895 4.29851 4.18509 4.37639 4.15349C4.5366 4.08803 4.69013 4.04965 4.85923 4.00902L4.96826 3.98644L5.09732 3.96387C5.17965 3.95259 5.26197 3.94581 5.34207 3.93904C5.50451 3.92775 5.66472 3.92775 5.82493 3.93678H5.85386H5.8583H5.87387H5.88056L5.89391 3.93904L5.94953 3.94581L6.06079 3.95936H6.08749C6.08749 3.95936 6.08304 3.96387 6.11419 3.96387H6.12754L6.18539 3.97516L6.23211 3.98419C6.23211 3.98419 6.24324 3.98419 6.24546 3.98644C6.23878 3.99547 6.25437 3.96839 6.14534 4.02482L6.21655 3.9887H6.24102C6.2922 3.9887 6.35227 3.97967 6.4168 3.96387C6.49022 3.94581 6.56143 3.92324 6.63264 3.90292C6.77727 3.86229 6.91967 3.81489 7.06208 3.76748L7.30238 3.68848L7.30683 3.9255C7.31128 4.27764 7.34912 4.62753 7.36914 4.9887C7.39139 5.35439 7.38694 5.71331 7.38249 6.07448C7.36247 6.79909 7.36023 7.4808 7.45814 8.12866C7.49819 8.45146 7.56271 8.78329 7.63614 9.10383C7.70957 9.42211 7.81193 9.75168 7.90984 10.0835C8.00997 10.4176 8.11677 10.763 8.19687 11.1219C8.27475 11.465 8.34596 11.8104 8.41048 12.1557L8.65747 13.4763L7.55604 12.8036C7.20003 12.5869 6.85292 12.3792 6.50358 12.1332C6.14979 11.8894 5.82048 11.5892 5.52009 11.2822C5.21748 10.9729 4.93711 10.6456 4.66342 10.3205C4.38974 9.99322 4.13163 9.66139 3.89132 9.31602L3.8891 9.31376ZM3.98032 9.2483C4.22063 9.58464 4.51657 9.87358 4.85034 10.1106C5.1841 10.3499 5.54901 10.544 5.91615 10.7201C6.28552 10.9007 6.6482 11.0542 7.01312 11.219C7.38248 11.3792 7.7563 11.5734 8.12344 11.7607L7.26901 12.4086C7.18446 12.0677 7.10435 11.7246 7.03315 11.3792L6.8151 10.3679C6.66157 9.67719 6.53027 8.92098 6.53917 8.17155C6.53917 7.40857 6.76169 6.68848 6.90409 6.01579C6.97529 5.67719 7.01757 5.33182 7.02424 4.99322C7.02424 4.6501 6.9931 4.29796 6.95305 3.94807L7.19781 4.10608C7.06208 4.16703 6.92412 4.23024 6.79061 4.29796C6.72386 4.33182 6.65489 4.36342 6.58813 4.39954C6.51248 4.43791 6.43015 4.47403 6.33224 4.49886L6.42792 4.46049C6.30109 4.52369 6.29886 4.49886 6.27439 4.50789L6.23211 4.5124L6.16981 4.51692L6.11864 4.52143H6.10529C6.12754 4.52143 6.10529 4.52369 6.10529 4.52369L6.07858 4.52821L5.96955 4.54401L5.91392 4.55304H5.90057L5.89391 4.55529C5.92283 4.55529 5.90058 4.55529 5.90726 4.55529H5.90503L5.88056 4.56207C5.74705 4.59141 5.61577 4.62753 5.48894 4.67268C5.42663 4.69525 5.36433 4.71782 5.30425 4.74265L5.11956 4.82392C5.00831 4.87584 4.88817 4.94356 4.78359 5.0045C4.33857 5.27764 4.076 5.54626 3.8891 6.01128C3.69329 6.47177 3.5442 7.04062 3.5086 7.60947C3.49747 7.89389 3.52863 8.18509 3.60873 8.46726C3.69106 8.74717 3.82012 9.01128 3.99145 9.2483H3.98032Z" fill="#FFFAFE"/>
</svg>
