<svg width="36" height="26" viewBox="0 0 36 26" fill="none" xmlns="http://www.w3.org/2000/svg">
<path d="M9.75242 20.2331L9.51656 20.513C9.14052 20.9577 8.88908 21.504 8.80453 22.0774C8.7222 22.6507 8.80452 23.2444 9.03371 23.7681C9.4854 24.8223 10.5512 25.5559 11.6571 25.5785C12.763 25.6304 13.8355 24.9825 14.3272 24.0164C14.5764 23.5356 14.6966 23.0051 14.6632 22.4566C14.6321 21.9374 14.4496 21.4092 14.1448 20.9803L13.5885 20.1993H14.5608L17.1887 20.1902H18.161L17.6359 21.0232C17.1041 21.8719 17.0886 23.0051 17.5825 23.8629C18.0587 24.7297 19.0333 25.2828 19.9812 25.2512C20.9691 25.2421 21.8747 24.6485 22.3153 23.7862C22.54 23.355 22.6446 22.8832 22.6223 22.3821C22.6023 21.9171 22.4466 21.4318 22.1818 21.0345L21.5632 20.0977L22.6802 20.039C22.8204 20.0322 22.9672 20.0232 23.0852 20.0119C23.1074 20.0119 23.1341 20.0051 23.1564 20.0029C23.1853 19.9713 23.2409 19.8968 23.2921 19.8132C23.3566 19.7117 23.4212 19.592 23.4835 19.4701C23.7327 18.9758 23.9619 18.4295 24.1821 17.8855C24.6249 16.7929 25.0344 15.6756 25.4527 14.5627L26.7032 11.2151L27.9715 7.86968L28.0093 7.7681L28.0649 7.71392L29.0929 6.72973L29.2064 6.62137H29.3332L32.3616 6.64846H32.5507L32.6375 6.65298H32.7309C32.8422 6.6462 32.9446 6.63492 33.058 6.60783C33.2761 6.55817 33.4852 6.4611 33.6766 6.33243C34.0593 6.07284 34.3619 5.67781 34.5689 5.23763C34.9761 4.34824 35.0139 3.27374 34.7024 2.33018C34.5377 1.86065 34.2707 1.42273 33.9013 1.09541C33.5364 0.765844 33.058 0.562683 32.5685 0.562683C31.5272 0.592028 30.4858 0.614602 29.4467 0.657491C28.9349 0.695866 28.3898 0.693609 27.9247 0.826791C27.8157 0.865166 27.7 0.930629 27.5865 0.987063C27.4775 1.0435 27.3863 1.11347 27.2906 1.19925C27.1015 1.36855 26.9257 1.56268 26.7477 1.75456C26.0356 2.51754 25.3414 3.31663 24.5982 4.06607L22.3798 6.30535L22.2886 6.39564H22.135C19.3804 6.45659 16.6235 6.47013 13.8711 6.43402C11.1164 6.38887 8.36397 6.31438 5.61153 6.17894L5.35341 6.16765C5.35341 6.16765 5.2555 6.16765 5.27998 6.16991C5.27998 6.16765 5.25773 6.17442 5.23993 6.17668C5.16428 6.20377 5.10643 6.23311 5.0508 6.32341C5.0241 6.36178 4.99072 6.46562 5.0063 6.53785L5.10197 7.03672L5.50472 9.0909C5.78063 10.4588 6.04319 11.8313 6.35248 13.1902C6.65064 14.5537 6.97996 15.9081 7.34487 17.2512C7.52733 17.9216 7.72536 18.592 7.96567 19.2331C8.02574 19.3911 8.09028 19.5514 8.16593 19.6891C8.24158 19.8336 8.30834 19.8968 8.44629 19.96C8.72221 20.0796 9.06709 20.1338 9.39863 20.1812L9.75465 20.2331H9.75242ZM8.89575 10.8561C8.73332 10.2399 8.59982 9.62363 8.47077 8.99383L8.41514 8.7207L8.72887 8.70038C9.74574 8.6304 10.7404 8.53334 11.7772 8.51302L14.8145 8.50851C15.8269 8.51754 16.8371 8.55365 17.8473 8.61235C18.8575 8.66878 19.8677 8.74778 20.8779 8.84259L21.2673 8.87871L21.2428 9.22183C21.2027 9.78616 21.1605 10.3482 21.1093 10.9126L21.0203 11.7568C20.9914 12.039 20.958 12.3211 20.9179 12.6033L20.9112 12.6462L20.869 12.6552C19.6385 12.9058 18.4014 13.039 17.162 13.1406C16.5434 13.1902 15.9226 13.2263 15.3018 13.2467C14.9925 13.2625 14.681 13.2692 14.3695 13.2692C14.058 13.276 13.7487 13.2692 13.4349 13.2534C12.8119 13.2309 12.1889 13.1722 11.5659 13.0999C11.2544 13.0638 10.9428 13.0254 10.6291 12.978L10.1552 12.8968C10.0751 12.881 9.99496 12.8629 9.90818 12.8358C9.82363 12.8132 9.70569 12.7523 9.63671 12.6733C9.3786 12.3866 9.27625 12.0819 9.16722 11.7771C9.06042 11.4724 8.97363 11.1654 8.89575 10.8561Z" fill="#BDBDBD"/>
<path d="M9.79471 20.2692C9.6078 20.513 9.41643 20.7433 9.28515 21.0096C9.14942 21.2737 9.0493 21.5514 8.98923 21.8381C8.8713 22.4114 8.93581 23.0119 9.15832 23.5378C9.37638 24.0683 9.75465 24.513 10.2219 24.8155C10.4533 24.969 10.7048 25.0886 10.9651 25.1631C11.0964 25.2015 11.2277 25.2286 11.3612 25.2444C11.4279 25.2534 11.4947 25.2579 11.5614 25.2602H11.775C12.2979 25.2466 12.832 25.048 13.2547 24.7229C13.4683 24.5604 13.653 24.3663 13.8043 24.1496C13.88 24.0412 13.9445 23.9284 14.0001 23.8087C14.0357 23.732 14.0558 23.6891 14.0802 23.6236C14.1047 23.5627 14.127 23.4995 14.147 23.4363C14.305 22.9284 14.2938 22.3821 14.1292 21.89C14.0446 21.6394 13.9289 21.4159 13.7687 21.2015L13.228 20.4633L12.7118 19.7568L13.5907 19.7455L15.8759 19.7139L18.161 19.6958L19.0489 19.6891L18.5727 20.4566L18.1188 21.1902L18.012 21.3663C17.9875 21.4092 17.9608 21.4588 17.9363 21.513C17.8874 21.6191 17.8473 21.7297 17.8139 21.8426C17.6893 22.294 17.6916 22.7952 17.8451 23.2376C17.8829 23.3482 17.9274 23.4566 17.983 23.5582C18.0053 23.5965 18.0542 23.6868 18.0765 23.7207C18.101 23.7636 18.1388 23.8155 18.1722 23.8606C18.3101 24.0457 18.4815 24.2128 18.675 24.3482C19.0578 24.6259 19.5206 24.7861 19.9879 24.7749C20.4618 24.7749 20.9224 24.6123 21.3118 24.3279C21.5031 24.1857 21.6767 24.0096 21.8146 23.8132C21.8858 23.7117 21.9415 23.6191 22.0038 23.4927C22.055 23.3911 22.1039 23.2737 22.1395 23.1586C22.2129 22.9261 22.2485 22.68 22.2463 22.4295C22.2463 22.1857 22.2018 21.9374 22.1195 21.7004C22.0794 21.583 22.0305 21.4679 21.9704 21.3572C21.917 21.2534 21.8347 21.1315 21.759 21.0096L21.3006 20.2782L20.9958 19.7907L21.5499 19.7749L22.3487 19.7523L22.747 19.741C22.8716 19.7365 23.0162 19.732 23.1163 19.7207L22.9539 19.8087C22.9761 19.7839 23.0207 19.7297 23.0496 19.6846C23.083 19.6349 23.123 19.5717 23.1519 19.522C23.2187 19.4114 23.2765 19.2963 23.3411 19.1744C23.4612 18.9396 23.5791 18.6936 23.6926 18.4453C23.9196 17.9509 24.131 17.4453 24.3357 16.9374C24.7473 15.9238 25.1412 14.8968 25.5283 13.8697L26.1113 12.3302L26.6831 10.7861C27.0725 9.75905 27.4486 8.72745 27.8268 7.69811L27.8424 7.65522L27.8758 7.62136C28.2719 7.23535 28.6657 6.84709 29.0573 6.45657L29.1196 6.39562H29.2153L32.2637 6.35951H32.6464C32.7643 6.35273 32.8622 6.34145 32.9579 6.31887C33.1693 6.27147 33.3562 6.1744 33.532 6.04574C33.8813 5.78388 34.1439 5.39562 34.3108 4.95996C34.6379 4.10894 34.5956 3.07057 34.2329 2.26244C34.046 1.85386 33.7656 1.50172 33.423 1.28276C33.2516 1.1744 33.0647 1.09765 32.8756 1.06154C32.7799 1.04348 32.6842 1.03445 32.5908 1.03445L32.2281 1.04799C31.2134 1.09088 30.1944 1.12474 29.1975 1.18569C28.9416 1.20149 28.6991 1.21729 28.4744 1.24664C28.3631 1.26244 28.2563 1.2805 28.1562 1.30533L28.0827 1.32565H28.0783C28.1495 1.30307 28.0939 1.32113 28.1094 1.31662L28.0983 1.32113L28.0761 1.33016L28.0583 1.33693C28.0204 1.35273 27.9715 1.37982 27.9181 1.40691L27.8291 1.45431C27.878 1.42723 27.8402 1.4498 27.8491 1.44303H27.8447L27.8335 1.45206L27.8135 1.46334L27.7757 1.48592L27.6933 1.55138L27.6422 1.59653L27.5754 1.65973L27.4575 1.77937C27.2928 1.95318 27.1193 2.14506 26.9479 2.33242C26.2715 3.08185 25.5862 3.86966 24.8564 4.60781L22.7136 6.80872L22.5534 6.9735L22.3131 6.98027C20.9024 7.02316 19.4828 7.03671 18.0698 7.04574C16.6524 7.05928 15.2417 7.03896 13.8221 7.00962C12.4114 6.9735 10.994 6.93964 9.58109 6.87418C8.16816 6.81097 6.75078 6.741 5.34452 6.64845L0.7052 6.3437L5.31337 5.67328L5.27999 5.67779L5.23104 5.68908L5.01966 5.82L5.14203 6.59201L5.27555 6.63942C5.31337 6.64619 5.32227 6.64619 5.33117 6.64619H5.34452H5.34675H5.35342H5.34452H5.32895H5.31782C5.31782 6.64619 5.31782 6.64619 5.32227 6.64619H5.33562H5.34452H5.34897C5.34897 6.64619 5.38902 6.63942 5.40905 6.6349C5.45355 6.62361 5.49583 6.6033 5.53365 6.58073C5.55145 6.56944 5.58483 6.54912 5.63156 6.50172C5.67383 6.45657 5.75393 6.36176 5.76506 6.18569C5.76951 6.09991 5.74726 6.00736 5.71166 5.93964C5.67606 5.86966 5.63156 5.82452 5.59596 5.79291C5.52253 5.73197 5.47581 5.71842 5.44243 5.70488L5.40459 5.69359C5.38679 5.68908 5.36677 5.68456 5.34897 5.6823L4.8906 5.89224C4.86167 5.9419 4.79715 6.03445 4.8105 6.21955C4.8194 6.30984 4.86167 6.40691 4.9173 6.47237C4.97292 6.54009 5.03078 6.57621 5.07528 6.60104C5.12201 6.62361 5.15761 6.63264 5.18431 6.63942H5.19543L5.21324 6.64393C5.23771 6.64845 5.26219 6.6507 5.28667 6.6507C5.35565 6.64844 5.33117 6.64844 5.34452 6.64619L5.36677 6.64167L5.3334 6.64845L5.41127 6.62587C5.39792 6.63039 5.39125 6.63264 5.3957 6.63039C5.40015 6.63039 5.41127 6.62136 5.4224 6.61233C5.43352 6.6033 5.44465 6.59201 5.45132 6.58524C5.458 6.57621 5.45801 6.57621 5.45801 6.57395L5.4402 6.6033C5.4758 6.55364 5.47357 6.54009 5.47802 6.53558C5.47802 6.52881 5.47803 6.52655 5.48025 6.52203C5.48025 6.51526 5.48025 6.51075 5.48025 6.49269C5.48025 6.48592 5.47135 6.41594 5.47802 6.46334L5.5203 6.70262L5.60263 7.17892L5.77174 8.13603L6.11218 10.0457C6.33024 11.3234 6.56386 12.5852 6.82198 13.8539C7.08009 15.1157 7.35823 16.3798 7.66084 17.6326C7.81882 18.2534 7.98571 18.8832 8.21044 19.4679C8.23937 19.5401 8.27052 19.6078 8.30612 19.6778C8.33727 19.732 8.37287 19.7771 8.42404 19.8132C8.44852 19.829 8.48412 19.8516 8.51083 19.8629C8.54643 19.8787 8.58648 19.8968 8.61985 19.9103C8.68661 19.9374 8.76227 19.96 8.83569 19.9825C9.13386 20.0661 9.45204 20.1157 9.76578 20.1789L9.857 20.197L9.79915 20.2715L9.79471 20.2692ZM9.63449 20.276C9.35413 20.2466 9.07154 20.2218 8.78451 20.1676C8.7044 20.1518 8.62431 20.1338 8.53975 20.1089C8.49748 20.0977 8.46187 20.0841 8.42404 20.0706C8.37509 20.0525 8.33949 20.0345 8.29721 20.0119C8.21266 19.9645 8.13702 19.8855 8.08584 19.8019C8.04356 19.732 8.00128 19.653 7.96568 19.5785C7.68754 18.9735 7.48061 18.3618 7.27813 17.741C6.88206 16.5017 6.5394 15.2512 6.21898 13.9916C5.9008 12.7387 5.59819 11.4656 5.31782 10.206C5.17319 9.57847 5.03746 8.93964 4.90173 8.30759L4.69924 7.35725L4.59911 6.88095L4.55017 6.64393C4.55017 6.64393 4.53014 6.54009 4.53459 6.49269C4.53459 6.434 4.53904 6.38659 4.54794 6.34145C4.55684 6.2963 4.56574 6.25567 4.58132 6.21052C4.5969 6.16763 4.61469 6.11797 4.67032 6.03445L4.6503 6.06379C4.67255 6.02768 4.69702 5.99156 4.7304 5.95319C4.76155 5.91481 4.80382 5.87418 4.84832 5.84032C4.89282 5.80646 4.93955 5.77937 4.97961 5.75905C5.01966 5.741 5.05081 5.72745 5.07528 5.71616L5.11533 5.70036L5.15538 5.69359C5.15538 5.69359 5.15539 5.69359 5.16207 5.69359L5.18431 5.68908L5.21547 5.68456C5.23104 5.68456 5.20657 5.68456 5.27777 5.68005C5.30448 5.68005 5.32894 5.68005 5.35342 5.68456H5.37122L5.38235 5.69133C5.41127 5.69811 5.44687 5.70714 5.49137 5.72971C5.53588 5.75228 5.59596 5.79066 5.64936 5.85838C5.70499 5.92384 5.74726 6.02316 5.75616 6.1112C5.77174 6.2963 5.70721 6.39111 5.67606 6.44077L5.5292 6.69133L5.21992 6.6507C5.19989 6.64844 5.17986 6.64393 5.15984 6.63942L5.11979 6.62813C5.08641 6.61459 5.03968 6.60104 4.96626 6.54009C4.93065 6.50849 4.88615 6.46334 4.85055 6.39337C4.81495 6.32565 4.7927 6.23309 4.79715 6.14732C4.80827 5.96899 4.88837 5.87644 4.93065 5.82903C4.97515 5.78163 5.01075 5.76131 5.02855 5.75003C5.06638 5.72745 5.11088 5.70714 5.15538 5.69585C5.17541 5.69133 5.20657 5.68456 5.21547 5.68456H5.22215H5.23327H5.25106L5.27777 5.6823H5.30669H5.33117H5.34452H5.35342H5.369H5.37345H5.3868C5.3868 5.6823 5.4046 5.6823 5.44243 5.69133L5.57593 5.73874L5.69831 6.51075L5.48692 6.64167L5.43797 6.65296L5.40459 6.65747L5.37345 5.6823C6.78639 5.72519 8.19042 5.76808 9.60113 5.79066L13.8288 5.8516H18.052C19.4627 5.84935 20.8645 5.82226 22.2775 5.80646L21.8792 5.97802L24.0575 3.81774C24.7807 3.1112 25.4527 2.36402 26.1603 1.60781C26.336 1.42045 26.5096 1.23535 26.701 1.04122L26.8545 0.88998L26.9279 0.822259L27.0214 0.740995L27.1215 0.664246C27.1571 0.637158 27.2061 0.607812 27.2483 0.580724L27.3596 0.517519L27.4397 0.476887C27.4975 0.447541 27.5621 0.413682 27.6422 0.379821L27.7134 0.350476L27.7356 0.341447L27.7467 0.336932L27.789 0.323388H27.7957L27.9069 0.294043C28.0538 0.260183 28.1984 0.237609 28.3386 0.219551C28.619 0.185691 28.8838 0.176661 29.133 0.165374C30.1654 0.11797 31.1756 0.115713 32.1925 0.0976544L32.5908 0.0931396C32.751 0.095397 32.909 0.115713 33.0625 0.15183C33.3696 0.224065 33.6544 0.354991 33.908 0.531063C34.4153 0.883208 34.7714 1.38885 34.9916 1.92158C35.0183 1.98479 35.0495 2.06379 35.0695 2.12474L35.0851 2.16989L35.0984 2.20826L35.1051 2.23309L35.1341 2.33693C35.1719 2.47463 35.203 2.61233 35.2275 2.75228C35.2765 3.03219 35.2987 3.31436 35.2943 3.59653C35.2854 4.16312 35.1763 4.72068 34.9471 5.2489C34.7224 5.76131 34.3731 6.24664 33.888 6.57847C33.7634 6.66199 33.6366 6.73197 33.4986 6.79066C33.3629 6.84709 33.2116 6.89449 33.0736 6.91933C32.9223 6.94867 32.7643 6.9577 32.6286 6.95544L32.2503 6.94416L29.202 6.85612L29.3599 6.79291C28.9527 7.16538 28.5455 7.54009 28.145 7.91933L28.194 7.84483C27.7935 8.86741 27.3907 9.88772 27.0013 10.9148C26.6075 11.9374 26.2248 12.969 25.8487 14.0006L24.7184 17.0977C24.5248 17.6146 24.3312 18.127 24.1265 18.6439C24.0242 18.9013 23.9174 19.1563 23.7994 19.4159C23.7416 19.5378 23.6815 19.671 23.6147 19.7997C23.5769 19.8719 23.5458 19.9261 23.5079 19.9916C23.4634 20.0638 23.4278 20.1202 23.3611 20.1992L23.301 20.2715L23.1987 20.2873C23.0362 20.3144 22.9116 20.3211 22.7714 20.3347L22.3731 20.3663L21.5766 20.4295L21.8258 19.9261L22.3175 20.6349C22.3976 20.7523 22.4822 20.8651 22.5712 21.0119C22.6557 21.1518 22.7269 21.2986 22.787 21.4521C22.9072 21.7545 22.9828 22.0796 23.0006 22.4114C23.0184 22.7387 22.9895 23.0728 22.9049 23.3934C22.8627 23.5559 22.8093 23.7071 22.7381 23.8674C22.678 24.0028 22.5957 24.1654 22.5067 24.3008C22.3287 24.583 22.1039 24.8335 21.8458 25.0435C21.3363 25.4679 20.6732 25.7229 20.0079 25.7387C19.3359 25.7703 18.6572 25.5582 18.1076 25.1789C17.8317 24.987 17.5847 24.75 17.38 24.4769C17.3289 24.4069 17.2821 24.3414 17.231 24.2602C17.1753 24.1721 17.1575 24.136 17.1086 24.0503C17.0263 23.899 16.9573 23.741 16.9017 23.5785C16.6791 22.9306 16.6591 22.2218 16.8549 21.5649C16.9039 21.4024 16.964 21.2421 17.0396 21.0864C17.0752 21.0096 17.1175 20.9329 17.1642 20.8516L17.2844 20.6597L17.7472 19.9329L18.1588 20.6936L15.8737 20.6846L13.5885 20.662L13.9512 19.9419L14.4718 20.6936C14.6699 20.9712 14.8323 21.3008 14.9324 21.6326C15.1438 22.3053 15.1193 23.0457 14.8879 23.6981C14.859 23.7794 14.8279 23.8606 14.7923 23.9396C14.7611 24.0141 14.7144 24.1089 14.681 24.1699C14.6009 24.3234 14.5074 24.4724 14.4029 24.6101C14.1937 24.8855 13.9445 25.127 13.6664 25.3211C13.1101 25.7139 12.4426 25.9238 11.7572 25.9058L11.5192 25.8922C11.4346 25.8832 11.3523 25.8742 11.2699 25.8584C11.1053 25.829 10.9429 25.7861 10.7849 25.732C10.4711 25.6236 10.1774 25.4633 9.91263 25.267C9.38751 24.8719 8.98255 24.3121 8.77784 23.6936C8.56868 23.0751 8.54643 22.4001 8.71999 21.7816C8.80454 21.4724 8.93804 21.1812 9.10938 20.9171C9.19393 20.7839 9.28962 20.6597 9.39419 20.5424L9.63005 20.2873L9.63449 20.276Z" fill="#FFFAFE"/>
<path d="M8.84009 10.8719C8.65541 10.1654 8.47296 9.45659 8.26158 8.75456L8.21484 8.59655L8.40398 8.5672C9.46535 8.39564 10.5156 8.13154 11.6126 8.04576C12.7095 7.97804 13.7576 7.9961 14.8456 8.07736C15.9248 8.1654 16.9973 8.33018 18.0676 8.43628C19.1356 8.54237 20.2103 8.60332 21.285 8.64395L21.5009 8.65298V8.89903C21.492 9.53108 21.4986 10.1654 21.4853 10.8042C21.4786 11.1315 21.4697 11.4408 21.4541 11.7591C21.4408 12.0728 21.4208 12.4047 21.3852 12.7207L21.3496 13.0458L21.0025 13.1315C19.9033 13.4024 18.7729 13.5717 17.6581 13.6959C17.1019 13.7636 16.5367 13.8042 15.9715 13.8291C15.6934 13.8449 15.3974 13.8449 15.1327 13.8539C14.8478 13.8629 14.5475 13.8539 14.2782 13.8471C13.693 13.8336 13.1368 13.7771 12.5716 13.6846C12.0109 13.5898 11.4613 13.4634 10.9117 13.3234C10.7737 13.2873 10.6424 13.2579 10.4956 13.2151L10.0862 13.0954C10.0194 13.0751 9.94152 13.048 9.87254 13.0209L9.82359 13.0006C9.80134 12.9916 9.77463 12.9803 9.75906 12.969C9.72123 12.9487 9.68563 12.9239 9.65003 12.899C9.57883 12.8494 9.51207 12.7636 9.47869 12.7139C9.43197 12.6485 9.39637 12.5853 9.35854 12.5175C9.21391 12.2489 9.14272 11.9713 9.06039 11.7004C8.98029 11.4295 8.90685 11.1541 8.84232 10.8787L8.84009 10.8719ZM8.94691 10.8449C9.01811 11.118 9.09822 11.3844 9.19834 11.6462C9.29847 11.9081 9.40305 12.1699 9.56104 12.3776C9.59886 12.4295 9.64336 12.4814 9.68564 12.5221C9.74127 12.5785 9.76796 12.6011 9.81691 12.6236C9.84139 12.6349 9.86587 12.6462 9.89257 12.653C9.90592 12.6575 9.91259 12.6575 9.92371 12.6598L9.9749 12.6688C10.0394 12.6823 10.0973 12.6891 10.1663 12.6959L10.5779 12.7207C10.7047 12.7275 10.8516 12.7297 10.9873 12.732C12.0976 12.741 13.2057 12.7275 14.2693 12.7004C14.5564 12.6914 14.8122 12.6778 15.0837 12.6643L15.9114 12.6169L17.5536 12.5153C18.655 12.443 19.7364 12.346 20.8178 12.1699L20.4328 12.5785L20.7532 10.732C20.8556 10.1135 20.9513 9.48819 21.0292 8.86291L21.2405 9.11574C20.1792 8.95095 19.1178 8.83583 18.0431 8.81325C16.9728 8.78616 15.9025 8.87194 14.8345 8.94192C13.7776 9.0277 12.6806 9.03899 11.6348 8.99158L8.42178 8.87871L8.56196 8.69136C8.60423 9.05479 8.64873 9.41822 8.71326 9.77713C8.77334 10.1361 8.85345 10.4927 8.94691 10.8449Z" fill="#FFFAFE"/>
</svg>
