<svg width="22" height="26" viewBox="0 0 22 26" fill="rgb(0,0,0)" xmlns="http://www.w3.org/2000/svg">
<path d="M13.8178 12.5261L14.452 12.0137C15.4488 11.21 16.1942 10.0972 16.5747 8.8579C16.7616 8.23487 16.8707 7.59153 16.8707 6.92562C16.8751 6.27776 16.7772 5.61185 16.5792 4.98205C16.1876 3.71794 15.3954 2.56444 14.3229 1.7518C13.2527 0.93916 11.9087 0.496723 10.5648 0.503495C9.21635 0.512524 7.8813 0.968506 6.81326 1.79018C5.74744 2.60959 4.95531 3.77212 4.56814 5.04526C4.18097 6.32065 4.21658 7.7044 4.61709 8.94593C5.01093 10.192 5.79862 11.289 6.82216 12.0565L7.46521 12.5374L6.76208 12.9572C4.49471 14.3116 2.46988 16.1559 1.38403 18.508C0.825536 19.6683 0.520693 20.9437 0.460616 22.2326C0.451715 22.3906 0.447266 22.5577 0.447266 22.7134C0.447266 22.8489 0.458396 22.9188 0.487322 22.9956C0.536274 23.1423 0.687575 23.3161 0.912309 23.4696C1.364 23.7789 1.98258 23.9911 2.60116 24.1559C3.22419 24.3274 3.87391 24.4538 4.53031 24.5577C5.18671 24.6638 5.84979 24.7541 6.51732 24.8263C7.85237 24.982 9.20078 25.0881 10.5514 25.1626C11.9043 25.2394 13.2571 25.2778 14.6122 25.2597C15.9628 25.2281 17.3313 25.1988 18.6485 24.9301C19.2938 24.7495 19.8946 24.4109 20.3329 23.903C20.7735 23.3997 21.0249 22.7495 21.1117 22.0881C21.2719 20.7473 20.8313 19.4155 20.2217 18.2371C19.6164 17.0453 18.7575 16.0227 17.7696 15.1536C17.2801 14.7112 16.7572 14.3139 16.212 13.9414C15.6713 13.5644 15.1062 13.2213 14.5254 12.9076L13.8156 12.5238L13.8178 12.5261Z" fill="#BDBDBD"/>
<path d="M13.7822 12.4832C14.0359 12.2484 14.3007 12.0182 14.5477 11.7789C14.7902 11.5464 15.0171 11.2868 15.2174 11.0159C15.6224 10.4742 15.945 9.87371 16.1608 9.2394C16.6014 7.97303 16.6481 6.58703 16.2721 5.32969C15.8961 4.07687 15.1329 2.9482 14.1026 2.18071C13.0902 1.40418 11.8041 0.993347 10.5469 1.01141C9.90833 1.01592 9.27863 1.12653 8.67563 1.33872C8.07041 1.54188 7.50523 1.83985 6.99123 2.23714C5.97659 3.00689 5.18224 4.13556 4.81287 5.40192C4.44796 6.67055 4.49691 8.0859 4.9842 9.34549C5.22674 9.97303 5.57385 10.5645 6.0211 11.0724C6.24138 11.3274 6.48392 11.5622 6.74425 11.7766C7.00459 11.9866 7.29163 12.1943 7.56531 12.3997L7.77002 12.5509L7.54974 12.6841C7.11807 12.9482 6.67972 13.2033 6.26363 13.4764C5.84309 13.7496 5.44257 14.0498 5.05095 14.3636C4.26995 14.9888 3.56459 15.7089 2.95714 16.4945C2.34747 17.2823 1.86017 18.1468 1.50638 19.0746C1.15482 19.9911 0.965689 20.9663 0.910062 21.9414C0.896711 22.1852 0.890034 22.4335 0.894485 22.6773C0.89671 22.8195 0.905613 22.815 0.918964 22.8466C0.927864 22.8624 0.983491 22.9301 1.05024 22.9843C1.34396 23.2191 1.79342 23.3974 2.24512 23.5351C2.47653 23.6051 2.70348 23.6615 2.95269 23.7225C3.1841 23.7789 3.42441 23.8286 3.6625 23.876C4.14534 23.9685 4.63041 24.0385 5.13328 24.1085C6.10787 24.2394 7.11807 24.3342 8.10824 24.4155C9.10508 24.4945 10.1019 24.5441 11.1077 24.587C12.1023 24.6344 13.1013 24.6593 14.0982 24.657L15.5912 24.6344C16.0896 24.6231 16.5814 24.6028 17.0687 24.5645C17.556 24.5261 18.0366 24.4651 18.5083 24.3771C18.6641 24.3387 18.8977 24.2575 19.0846 24.1694C19.2782 24.0769 19.4606 23.9663 19.6253 23.8376C19.9546 23.578 20.215 23.2417 20.3863 22.8444C20.5621 22.4471 20.6488 22.0001 20.66 21.5464C20.6889 20.6231 20.4241 19.6751 20.0303 18.7812C19.9346 18.5599 19.8233 18.3297 19.7121 18.113C19.6031 17.9008 19.4785 17.6863 19.3494 17.4809C19.0913 17.0656 18.7931 16.6728 18.4749 16.2936C17.1777 14.7834 15.5378 13.5938 13.7889 12.5712L13.7221 12.5329L13.7822 12.4787V12.4832ZM13.9268 12.5171C14.3563 12.7202 14.7902 12.9143 15.213 13.1423C15.6624 13.3794 16.1052 13.6435 16.5324 13.9189C16.9641 14.1965 17.3869 14.4877 17.7896 14.8173C18.1834 15.1356 18.5817 15.4832 18.9444 15.8579C19.3116 16.2304 19.6498 16.6344 19.9568 17.0656C20.1126 17.2823 20.255 17.499 20.393 17.7338C20.5287 17.9617 20.6511 18.1852 20.7735 18.4245C21.2474 19.3681 21.6056 20.4222 21.6279 21.5554C21.6412 22.1265 21.5478 22.7022 21.3297 23.2507C21.1161 23.7992 20.7579 24.3071 20.2995 24.6886C20.0725 24.8805 19.8256 25.043 19.5675 25.1762C19.3004 25.3094 19.0601 25.4132 18.7264 25.4967C18.2079 25.6051 17.6873 25.6796 17.171 25.7292C16.6548 25.7812 16.1408 25.8105 15.6313 25.8331L14.8703 25.8602L14.6812 25.8669H14.4853L14.1026 25.8715C13.0813 25.8715 12.0667 25.8444 11.0476 25.7924C10.0396 25.736 9.02274 25.6547 8.01255 25.5554C6.99568 25.4493 5.99885 25.3319 4.97753 25.1717C4.48356 25.0904 3.97178 25.0069 3.46446 24.8963C3.2108 24.8421 2.95937 24.7812 2.70126 24.7134C2.46317 24.648 2.20284 24.5735 1.9514 24.4877C1.44853 24.3094 0.934536 24.1175 0.442791 23.7044C0.320411 23.5893 0.200257 23.4674 0.0956773 23.2552L0.073425 23.201L0.0645228 23.1739C0.0556224 23.1468 0.0467253 23.1243 0.04005 23.0972C0.0244744 23.043 0.0133457 22.9843 0.00889548 22.9324C0.0022202 22.8782 0 22.8353 0 22.7879V22.6773C0.00890037 22.4087 0.0289262 22.1468 0.0556273 21.8805C0.162432 20.8173 0.440567 19.7766 0.874459 18.8082C1.30835 17.8511 1.8802 16.9505 2.5544 16.1626C3.2286 15.3681 4.00294 14.6818 4.8151 14.0566C5.62725 13.4335 6.51062 12.9008 7.38285 12.3952L7.36728 12.6818C7.09136 12.4674 6.81768 12.2733 6.53287 12.052C6.25473 11.8286 5.99662 11.5825 5.75854 11.3161C5.28682 10.7812 4.88853 10.1762 4.60149 9.51253C4.03409 8.19199 3.85163 6.67958 4.17427 5.2394C4.49246 3.79922 5.28682 2.4719 6.43274 1.50576C6.99791 1.03624 7.65876 0.657003 8.35299 0.39741C9.05167 0.146845 9.79485 0.011405 10.5336 0.000118352C12.0288 -0.00891099 13.5041 0.49899 14.6767 1.42901C15.8338 2.36355 16.6815 3.67732 17.0264 5.12427C17.2 5.83985 17.26 6.59831 17.1911 7.32518C17.1555 7.69086 17.0909 8.0543 16.9997 8.40644C16.9552 8.58025 16.9018 8.7631 16.8462 8.92563C16.7839 9.10396 16.7216 9.26874 16.6481 9.43804C16.3544 10.1017 15.9606 10.7157 15.4777 11.2417C15.2352 11.5058 14.9771 11.7473 14.6967 11.9663C14.4408 12.1581 14.1827 12.3365 13.9246 12.5193L13.9268 12.5171Z" fill="#FFFAFE"/>
</svg>
