<svg width="34" height="38" viewBox="0 0 34 38" fill="none" xmlns="http://www.w3.org/2000/svg">
<path fill-rule="evenodd" clip-rule="evenodd" d="M18.9563 2.34249C19.4566 1.71839 20.335 1.56567 21.0113 1.9852C23.8152 3.72555 30.8188 8.07238 33.2422 9.57645C33.7567 9.8957 34.048 10.4847 33.9935 11.0938C33.6965 14.3883 32.7488 24.899 32.4711 27.974C32.4234 28.507 32.1168 28.9807 31.654 29.2377C29.0046 30.7084 20.0057 35.7018 17.2568 37.2266C16.7594 37.5027 16.1547 37.4877 15.6709 37.1874C12.959 35.5041 4.03503 29.9656 2.44399 28.9778C2.28272 28.8776 2.1402 28.7491 2.0238 28.5981C1.75749 28.2529 1.23622 27.5781 0.791047 27.0018C0.335084 26.4111 0.342465 25.579 0.80865 24.9964C3.97541 21.0426 15.6561 6.46227 18.9563 2.34249Z" fill="#BC5D1D"/>
<path fill-rule="evenodd" clip-rule="evenodd" d="M16.7389 0.197049C17.2364 -0.078986 17.8411 -0.0640029 18.3249 0.235659C20.7915 1.76682 28.397 6.48707 30.9499 8.07182C31.4672 8.39281 31.7585 8.98522 31.7 9.5978C31.3979 12.761 30.4678 22.504 30.1873 25.4419C30.1368 25.9714 29.8307 26.4417 29.3708 26.697C26.727 28.1642 17.7196 33.1622 14.969 34.6887C14.4716 34.9648 13.8669 34.9498 13.3831 34.6501C10.9165 33.119 3.31101 28.3987 0.757505 26.814C0.240217 26.493 -0.0510775 25.9006 0.00740847 25.288C0.309491 22.1248 1.23959 12.3818 1.52009 9.44393C1.57063 8.91376 1.87612 8.4441 2.33663 8.18881C4.98042 6.72162 13.9884 1.72302 16.7389 0.197049Z" fill="#E0A644"/>
<path fill-rule="evenodd" clip-rule="evenodd" d="M16.4965 2.73494C16.9939 2.4589 17.5987 2.47389 18.0824 2.77355C20.264 4.12779 26.4062 7.93984 28.6633 9.34076C29.1806 9.66174 29.4713 10.2542 29.4134 10.8667C29.1454 13.6709 28.3919 21.5664 28.1432 24.1729C28.0926 24.7025 27.7866 25.1727 27.3266 25.428C24.9758 26.7327 17.656 30.7943 15.2115 32.1508C14.7141 32.4268 14.1094 32.4119 13.6256 32.1122C11.4434 30.758 5.30184 26.9459 3.04474 25.545C2.52745 25.224 2.23615 24.6316 2.29464 24.019C2.56209 21.2149 3.31616 13.3193 3.56486 10.7129C3.6154 10.1833 3.92089 9.71303 4.3814 9.45774C6.73276 8.15306 14.052 4.09148 16.4965 2.73494Z" fill="url(#paint0_radial_22_3470)"/>
<path fill-rule="evenodd" clip-rule="evenodd" d="M7.73494 24.8984C7.62763 24.8984 7.52598 24.8483 7.45955 24.7625C7.22674 24.4611 6.67311 23.7442 6.47721 23.4906C6.43292 23.433 6.41702 23.3581 6.43406 23.2872C6.64131 22.4193 7.99217 16.762 8.43394 14.9105C8.4629 14.7883 8.55375 14.6909 8.67242 14.654C8.7911 14.6177 8.91943 14.6477 9.01085 14.7324C9.83646 15.5023 11.6104 17.1568 12.3718 17.8668C12.4547 17.9446 12.57 17.9763 12.6801 17.9526C12.7909 17.929 12.8834 17.8535 12.9288 17.7486C13.5398 16.3431 15.3955 12.0775 15.961 10.778C16.0025 10.6829 16.0825 10.6115 16.1802 10.5815C16.2784 10.5516 16.3841 10.5671 16.4704 10.623C16.7531 10.808 17.133 11.0564 17.2988 11.1647C17.3533 11.1999 17.3965 11.25 17.4249 11.3094C17.744 11.9807 19.7552 16.2157 20.4576 17.6945C20.5099 17.8045 20.6144 17.8794 20.7336 17.8933C20.8528 17.9071 20.9709 17.8575 21.0465 17.7619C21.8074 16.7949 23.5977 14.5175 24.1519 13.8133C24.2479 13.6917 24.4165 13.6577 24.5505 13.7337C24.793 13.8709 25.1677 14.083 25.3971 14.2126C25.5187 14.2812 25.5885 14.4166 25.5749 14.5572C25.4437 15.9282 24.7708 22.9829 24.6181 24.5786C24.6005 24.7607 24.45 24.8996 24.27 24.8996H7.73494V24.8984Z" fill="#C06C40"/>
<path fill-rule="evenodd" clip-rule="evenodd" d="M6.7538 23.6848C6.655 23.6848 6.56131 23.6427 6.49488 23.5684C6.42844 23.494 6.39608 23.3949 6.40573 23.2952C6.55563 21.7278 7.11494 15.8665 7.31027 13.8213C7.32333 13.687 7.40964 13.5718 7.53343 13.5239C7.65721 13.4761 7.79747 13.5026 7.89513 13.5942C8.77469 14.4143 10.5344 16.0555 11.2362 16.7102C11.3112 16.7799 11.4122 16.8133 11.5139 16.8018C11.615 16.7897 11.7058 16.7332 11.7632 16.6479C12.5184 15.5138 14.9447 11.87 15.8453 10.5175C15.9151 10.4121 16.0355 10.3527 16.1604 10.3625C16.2853 10.3717 16.396 10.4478 16.4506 10.5625C17.0984 11.9271 18.7548 15.4141 19.3152 16.5932C19.3612 16.69 19.4475 16.7603 19.5509 16.7851C19.6537 16.8098 19.7621 16.7851 19.8456 16.7194C20.657 16.0774 22.7086 14.4529 23.7596 13.6208C23.8698 13.5337 24.0208 13.5211 24.1434 13.5896C24.2661 13.6576 24.3365 13.7936 24.3229 13.9348C24.1156 16.1079 23.5597 21.9335 23.4229 23.365C23.4053 23.5471 23.2548 23.6859 23.0748 23.6859H6.7538V23.6848Z" fill="#E1AC47"/>
<path fill-rule="evenodd" clip-rule="evenodd" d="M3.04705 25.5462C2.52635 25.1797 2.23789 24.5544 2.29979 23.909C2.57291 21.0484 3.29632 13.4663 3.55071 10.8051C3.60692 10.2173 3.94591 9.69635 4.45639 9.41283C6.86056 8.07875 13.9039 4.17047 16.4034 2.78338C16.9554 2.47738 17.6265 2.49351 18.1625 2.8266C20.3844 4.20562 26.2677 7.85746 28.5657 9.28316C28.778 9.41513 28.9558 9.58801 29.0926 9.78856C29.0648 9.76896 29.037 9.75052 29.008 9.73266C26.7106 8.30696 20.8274 4.65511 18.6049 3.27609C18.0683 2.94301 17.3977 2.92687 16.8458 3.23287C14.3468 4.61939 7.30346 8.52825 4.89929 9.86232C4.38882 10.1453 4.04926 10.6668 3.99304 11.2546C3.73922 13.9158 3.01525 21.4979 2.74212 24.3585C2.70124 24.7861 2.81424 25.2056 3.04705 25.5462Z" fill="#C06C40"/>
<defs>
<radialGradient id="paint0_radial_22_3470" cx="0" cy="0" r="1" gradientUnits="userSpaceOnUse" gradientTransform="translate(15.854 6.72506) rotate(74.7541) scale(32.1711 29.2826)">
<stop stop-color="#D7712D"/>
<stop offset="1" stop-color="#E3A965"/>
</radialGradient>
</defs>
</svg>
