<svg width="46" height="38" viewBox="0 0 46 38" fill="none" xmlns="http://www.w3.org/2000/svg">
<path fill-rule="evenodd" clip-rule="evenodd" d="M28.0973 34.5716C27.4296 34.5119 26.7807 34.6347 26.2184 34.8201C26.7452 34.4545 27.3202 33.9582 27.8442 33.2963C29.3461 31.3985 29.8657 28.8518 29.8657 28.8518C29.8657 28.8518 27.9469 29.3864 26.4443 31.2836C24.9424 33.1814 24.4229 35.7275 24.4229 35.7275L24.4267 35.7326C24.5067 35.8267 25.8243 37.3386 27.6766 37.5037C29.5887 37.6749 31.351 36.3472 31.351 36.3472C31.351 36.3472 30.0089 34.7423 28.0967 34.5711L28.0973 34.5716Z" fill="#00A7CC"/>
<path fill-rule="evenodd" clip-rule="evenodd" d="M32.2501 31.5821C31.6651 31.6204 31.1089 31.8102 30.6333 32.0412C31.0645 31.6621 31.528 31.1664 31.9354 30.5372C33.1021 28.7334 33.3652 26.5112 33.3652 26.5112C33.3652 26.5112 31.7339 27.2176 30.5672 29.0213C29.4005 30.825 29.1368 33.0478 29.1368 33.0478L29.1407 33.0512C29.2179 33.1199 30.4773 34.2234 32.1025 34.1181C33.7798 34.0088 35.2152 32.6529 35.2152 32.6529C35.2152 32.6529 33.9269 31.4739 32.2501 31.5827V31.5821Z" fill="#00A7CC"/>
<path fill-rule="evenodd" clip-rule="evenodd" d="M35.9174 28.1347C35.4351 28.2642 34.9916 28.5098 34.6186 28.7746C34.9411 28.3994 35.2791 27.9251 35.5572 27.3539C36.3548 25.7169 36.3631 23.8986 36.3631 23.8986C36.3631 23.8986 35.076 24.7385 34.2783 26.3754C33.4807 28.0124 33.4724 29.8308 33.4724 29.8308L33.4763 29.8325C33.5468 29.8747 34.6963 30.5422 36.0351 30.1829C37.4166 29.8122 38.4801 28.4867 38.4801 28.4867C38.4801 28.4867 37.2995 27.7634 35.9174 28.1341V28.1347Z" fill="#00A7CC"/>
<path fill-rule="evenodd" clip-rule="evenodd" d="M38.8664 24.7779C38.4534 24.9649 38.086 25.2449 37.7818 25.5294C38.0316 25.1593 38.2863 24.7019 38.48 24.1724C39.0351 22.6542 38.8791 21.1091 38.8791 21.1091C38.8791 21.1091 37.8223 22.0284 37.2678 23.5465C36.7128 25.0646 36.8682 26.6098 36.8682 26.6098L36.8715 26.6109C36.9375 26.6357 38.0082 27.0182 39.1533 26.4988C40.3356 25.9626 41.1515 24.667 41.1515 24.667C41.1515 24.667 40.0486 24.2417 38.8664 24.7779Z" fill="#00A7CC"/>
<path fill-rule="evenodd" clip-rule="evenodd" d="M41.3818 21.0932C41.0177 21.3157 40.7008 21.6149 40.4438 21.9095C40.6447 21.5456 40.844 21.1039 40.9816 20.6054C41.3763 19.1769 41.1165 17.8198 41.1165 17.8198C41.1165 17.8198 40.2168 18.782 39.8221 20.2105C39.4275 21.6391 39.6867 22.9961 39.6867 22.9961H39.69C39.7522 23.0096 40.763 23.2068 41.7743 22.5894C42.8177 21.9523 43.4694 20.6865 43.4694 20.6865C43.4694 20.6865 42.4259 20.4561 41.3818 21.0932Z" fill="#00A7CC"/>
<path fill-rule="evenodd" clip-rule="evenodd" d="M43.2002 17.6424C42.9166 17.8694 42.6774 18.1516 42.4875 18.4226C42.6257 18.1043 42.7567 17.7241 42.8328 17.3067C43.0503 16.1107 42.7334 15.0596 42.7334 15.0596C42.7334 15.0596 42.0635 15.9513 41.8464 17.1472C41.6289 18.3437 41.9458 19.3943 41.9458 19.3943H41.9486C42.0007 19.3965 42.8505 19.4168 43.6381 18.7859C44.4513 18.1347 44.8926 17.034 44.8926 17.034C44.8926 17.034 44.0134 16.9912 43.2002 17.6424Z" fill="#00A7CC"/>
<path fill-rule="evenodd" clip-rule="evenodd" d="M44.6061 14.5014C44.3879 14.7476 44.2148 15.0287 44.0821 15.2912C44.1643 15.0005 44.2331 14.6603 44.2497 14.3009C44.2986 13.2712 43.9034 12.4724 43.9034 12.4724C43.9034 12.4724 43.4294 13.3455 43.3805 14.3747C43.3317 15.4044 43.7274 16.2032 43.7274 16.2032H43.7296C43.7746 16.1936 44.5095 16.0342 45.1156 15.3515C45.7412 14.6468 45.9943 13.6491 45.9943 13.6491C45.9943 13.6491 45.2311 13.7962 44.6055 14.5009L44.6061 14.5014Z" fill="#00A7CC"/>
<path fill-rule="evenodd" clip-rule="evenodd" d="M45.8267 12.135C46.133 11.2207 45.9399 10.2778 45.9399 10.2778C45.9399 10.2778 45.2494 10.818 44.9436 11.7322C44.6372 12.6465 44.8303 13.5895 44.8303 13.5895C44.8303 13.5895 45.5203 13.0487 45.8267 12.135Z" fill="#00A7CC"/>
<path fill-rule="evenodd" clip-rule="evenodd" d="M13.2629 28.8518C13.2629 28.8518 13.3023 31.3985 14.4463 33.2963C14.8459 33.9588 15.3277 34.4545 15.7851 34.8201C15.2578 34.6347 14.6317 34.5119 13.9534 34.5716C12.0091 34.7429 10.3639 36.3477 10.3639 36.3477C10.3639 36.3477 11.8759 37.6755 13.8196 37.5042C15.7035 37.3386 17.3065 35.8267 17.4042 35.7332L17.4092 35.7281C17.4092 35.7281 17.3697 33.1814 16.2258 31.2842C15.0818 29.3864 13.2629 28.8524 13.2629 28.8524V28.8518Z" fill="#00A7CC"/>
<path fill-rule="evenodd" clip-rule="evenodd" d="M13.2002 33.0472C13.2002 33.0472 13.3556 30.8244 12.5292 29.0207C11.7027 27.217 10.2046 26.5106 10.2046 26.5106C10.2046 26.5106 10.0492 28.7328 10.8757 30.5366C11.1643 31.1658 11.5345 31.6621 11.8942 32.0406C11.4618 31.8096 10.9417 31.6192 10.3639 31.5815C8.70707 31.4722 7.19678 32.6518 7.19678 32.6518C7.19678 32.6518 8.37682 34.0082 10.0331 34.117C11.6383 34.2223 13.1059 33.1193 13.1958 33.0501L13.2002 33.0467V33.0472Z" fill="#00A7CC"/>
<path fill-rule="evenodd" clip-rule="evenodd" d="M9.46807 29.8325L9.47196 29.8308C9.47196 29.8308 9.80665 28.0124 9.31765 26.3754C8.82865 24.7385 7.70024 23.8986 7.70024 23.8986C7.70024 23.8986 7.36554 25.7169 7.85454 27.3539C8.0255 27.9251 8.2736 28.3994 8.52559 28.7746C8.202 28.5098 7.80514 28.2642 7.34722 28.1347C6.03563 27.764 4.71851 28.4873 4.71851 28.4873C4.71851 28.4873 5.53164 29.8122 6.84323 30.1834C8.1143 30.5422 9.38981 29.8747 9.46807 29.833V29.8325Z" fill="#00A7CC"/>
<path fill-rule="evenodd" clip-rule="evenodd" d="M6.68008 26.6109L6.68397 26.6098C6.68397 26.6098 7.13134 25.0641 6.86269 23.5465C6.59405 22.0284 5.71041 21.1091 5.71041 21.1091C5.71041 21.1091 5.26304 22.6548 5.53168 24.1724C5.62548 24.7019 5.79422 25.1593 5.97405 25.5294C5.72373 25.2449 5.40846 24.9649 5.03102 24.7779C3.94978 24.2417 2.76697 24.667 2.76697 24.667C2.76697 24.667 3.33923 25.9626 4.41991 26.4988C5.46729 27.0182 6.61014 26.6352 6.68063 26.6109H6.68008Z" fill="#00A7CC"/>
<path fill-rule="evenodd" clip-rule="evenodd" d="M4.54308 22.9967H4.54641C4.54641 22.9967 5.0615 21.6385 4.93661 20.2105C4.81117 18.7825 4.09294 17.8198 4.09294 17.8198C4.09294 17.8198 3.57785 19.1774 3.70274 20.6054C3.74659 21.1039 3.86259 21.5456 3.99525 21.9095C3.79321 21.6143 3.53344 21.3157 3.21096 21.0932C2.28791 20.4561 1.20056 20.6865 1.20056 20.6865C1.20056 20.6865 1.61297 21.9517 2.53657 22.5894C3.43076 23.2068 4.47925 23.0096 4.54363 22.9967H4.54308Z" fill="#00A7CC"/>
<path fill-rule="evenodd" clip-rule="evenodd" d="M1.38924 18.7859C2.05808 19.4168 2.91176 19.3965 2.96448 19.3943H2.96671C2.96671 19.3943 3.48179 18.3437 3.49012 17.1472C3.49844 15.9513 2.99668 15.0596 2.99668 15.0596C2.99668 15.0596 2.48159 16.1102 2.47326 17.3067C2.47048 17.7241 2.52988 18.1043 2.60815 18.4226C2.46883 18.1516 2.28343 17.8694 2.04254 17.6424C1.35206 16.9912 0.465088 17.034 0.465088 17.034C0.465088 17.034 0.698759 18.1342 1.38924 18.7859Z" fill="#00A7CC"/>
<path fill-rule="evenodd" clip-rule="evenodd" d="M1.78393 16.2032H1.78615C1.78615 16.2032 2.33232 15.4044 2.47774 14.3753C2.62317 13.3455 2.31345 12.473 2.31345 12.473C2.31345 12.473 1.76728 13.2723 1.62186 14.3015C1.57079 14.6609 1.57523 15.0011 1.60298 15.2918C1.51972 15.0293 1.39983 14.7482 1.22777 14.502C0.735436 13.7973 0 13.6503 0 13.6503C0 13.6503 0.0649296 14.6473 0.55726 15.3526C1.0346 16.0353 1.73952 16.1948 1.78282 16.2038L1.78393 16.2032Z" fill="#00A7CC"/>
<path fill-rule="evenodd" clip-rule="evenodd" d="M1.17722 13.5895C1.17722 13.5895 1.548 12.6459 1.41423 11.7322C1.27991 10.818 0.691553 10.2778 0.691553 10.2778C0.691553 10.2778 0.320779 11.2213 0.455101 12.135C0.588868 13.0487 1.17722 13.5895 1.17722 13.5895Z" fill="#00A7CC"/>
<path fill-rule="evenodd" clip-rule="evenodd" d="M23.7401 2.38917C24.2291 1.77911 25.0878 1.62983 25.7489 2.03992C28.4897 3.74111 35.3357 7.99016 37.7047 9.46039C38.2075 9.77247 38.4923 10.3482 38.4384 10.9436C38.1482 14.164 37.2218 24.4382 36.9504 27.444C36.9037 27.9651 36.604 28.4281 36.1516 28.6794C33.5612 30.117 24.7653 34.998 22.0783 36.4885C21.5921 36.7584 21.0009 36.7437 20.528 36.4502C17.8771 34.8048 9.15394 29.3908 7.59869 28.4253C7.44105 28.3273 7.30174 28.2017 7.18795 28.0541C6.92763 27.7167 6.41809 27.0571 5.98293 26.4937C5.53722 25.9164 5.54444 25.1029 6.00014 24.5334C9.09677 20.668 20.5147 6.41571 23.7407 2.38861L23.7401 2.38917Z" fill="#51C3E1"/>
<path fill-rule="evenodd" clip-rule="evenodd" d="M21.5726 0.291986C22.0589 0.0221604 22.6505 0.0368064 23.1229 0.329727C25.534 1.82644 32.9684 6.44051 35.4639 7.98961C35.9696 8.30337 36.2543 8.88245 36.1971 9.48125C35.9018 12.5733 34.9932 22.0971 34.719 24.9689C34.6696 25.4866 34.3705 25.9462 33.9209 26.1958C31.3371 27.63 22.5318 32.5155 19.8431 34.0077C19.3574 34.2776 18.7657 34.2629 18.2928 33.97C15.8817 32.4733 8.44734 27.8592 5.95128 26.3101C5.44563 25.9964 5.16089 25.4173 5.21806 24.8185C5.51334 21.7265 6.42251 12.2026 6.69671 9.33085C6.74611 8.8126 7.04472 8.35351 7.49486 8.10396C10.0792 6.66978 18.8845 1.78419 21.5726 0.291986Z" fill="#BBE7F1"/>
<path fill-rule="evenodd" clip-rule="evenodd" d="M21.3356 2.77275C21.8224 2.50292 22.4135 2.51757 22.8864 2.81049C25.0189 4.13427 31.0229 7.86056 33.2293 9.22997C33.7343 9.54373 34.0196 10.1228 33.9625 10.7216C33.7005 13.4627 32.9639 21.1806 32.7208 23.7284C32.6709 24.2461 32.3723 24.7058 31.9227 24.9553C29.6247 26.2306 22.4696 30.2008 20.0801 31.5269C19.5939 31.7967 19.0027 31.7821 18.5298 31.4891C16.3968 30.1654 10.3928 26.4391 8.18701 25.0697C7.68136 24.7559 7.3966 24.1768 7.45377 23.578C7.7152 20.837 8.45232 13.1191 8.69543 10.5712C8.74483 10.0535 9.04344 9.59386 9.49359 9.34432C11.7915 8.06898 18.9467 4.09878 21.3356 2.77275Z" fill="#51C3E1"/>
<path fill-rule="evenodd" clip-rule="evenodd" d="M12.7712 24.4376C12.6663 24.4376 12.567 24.3886 12.5026 24.3047C12.275 24.0101 11.7333 23.3093 11.5423 23.0615C11.4985 23.0051 11.4829 22.9319 11.5001 22.8626C11.7027 22.0143 13.0232 16.4843 13.455 14.6744C13.4833 14.5549 13.5722 14.4597 13.6882 14.4237C13.8036 14.3882 13.9296 14.4175 14.019 14.5003C14.826 15.2529 16.56 16.8701 17.3043 17.5641C17.3854 17.6402 17.498 17.6712 17.6057 17.6481C17.7139 17.625 17.8044 17.5512 17.8488 17.4487C18.4461 16.0747 20.2605 11.9051 20.8128 10.6349C20.8533 10.5419 20.9316 10.4721 21.0276 10.4428C21.1231 10.4135 21.2269 10.4287 21.3112 10.4833C21.5871 10.6642 21.959 10.9069 22.121 11.0128C22.1743 11.0472 22.2165 11.0962 22.2443 11.1542C22.5562 11.8105 24.5222 15.9502 25.2088 17.3957C25.2599 17.5033 25.362 17.5765 25.4786 17.59C25.5951 17.6036 25.7106 17.5551 25.7844 17.4616C26.5276 16.5164 28.2782 14.2902 28.8194 13.6018C28.9132 13.483 29.0781 13.4497 29.2096 13.5241C29.4461 13.6581 29.813 13.8654 30.0372 13.9922C30.156 14.0592 30.2242 14.1916 30.2109 14.329C30.0827 15.6692 29.4244 22.5652 29.2762 24.125C29.259 24.303 29.1119 24.4388 28.9354 24.4388H12.7718L12.7712 24.4376Z" fill="#00A7CC"/>
<path fill-rule="evenodd" clip-rule="evenodd" d="M11.8126 23.2513C11.716 23.2513 11.6244 23.2102 11.5595 23.1376C11.4945 23.0649 11.4629 22.968 11.4723 22.8705C11.6183 21.3383 12.1656 15.6089 12.3565 13.6097C12.3687 13.4785 12.4537 13.3658 12.5747 13.3191C12.6957 13.2723 12.8328 13.2982 12.9282 13.3878C13.788 14.1894 15.5081 15.7937 16.1947 16.4336C16.268 16.5018 16.3668 16.5344 16.4656 16.5232C16.5649 16.5113 16.6532 16.4561 16.7092 16.3728C17.4475 15.2642 19.8198 11.7024 20.7001 10.3803C20.7683 10.2772 20.886 10.2192 21.0081 10.2288C21.1302 10.2378 21.2385 10.3121 21.2917 10.4242C21.9251 11.7581 23.5441 15.1667 24.092 16.3193C24.1369 16.4139 24.2219 16.4826 24.3223 16.5068C24.4228 16.5311 24.5288 16.5068 24.6104 16.4426C25.4036 15.8151 27.409 14.2271 28.4364 13.4137C28.544 13.3286 28.6917 13.3163 28.8116 13.3833C28.9315 13.4498 29.0003 13.5827 28.9875 13.7207C28.7849 15.845 28.241 21.5394 28.1078 22.9387C28.0911 23.1167 27.9435 23.2525 27.7675 23.2525H11.8142L11.8126 23.2513Z" fill="#BBE7F1"/>
<path fill-rule="evenodd" clip-rule="evenodd" d="M8.18917 25.0708C7.67963 24.7126 7.39767 24.1014 7.45817 23.4705C7.72515 20.6742 8.43284 13.2627 8.68095 10.6614C8.7359 10.0868 9.06726 9.57756 9.56625 9.30041C11.9163 7.99635 18.8012 4.17599 21.244 2.8201C21.7835 2.52098 22.4396 2.53676 22.9641 2.86235C25.136 4.21035 30.8869 7.78004 33.1326 9.17367C33.3402 9.30267 33.5145 9.47166 33.6477 9.66769C33.6211 9.64854 33.5933 9.63051 33.5656 9.61305C31.3198 8.21942 25.5684 4.64973 23.3965 3.30173C22.8719 2.97614 22.2164 2.96037 21.6769 3.25948C19.2341 4.61481 12.3487 8.43573 9.99864 9.7398C9.49965 10.0164 9.16829 10.5262 9.11334 11.1008C8.86523 13.7021 8.15809 21.1136 7.89056 23.9098C7.85059 24.3278 7.96104 24.7379 8.18917 25.0708Z" fill="#00A7CC"/>
<path fill-rule="evenodd" clip-rule="evenodd" d="M20.1589 14.7442C20.4025 14.5527 20.7472 14.5668 20.9748 14.7775C21.3861 15.156 22.0166 15.7373 22.3563 16.0505C22.5051 16.1874 22.5811 16.388 22.5617 16.5907C22.4934 17.3078 22.3297 19.0259 22.2653 19.6996C22.2486 19.8771 22.1598 20.0393 22.0211 20.148C21.6298 20.455 20.8005 21.1045 20.2948 21.5017C20.0512 21.6926 19.7065 21.6786 19.4784 21.4684C19.0676 21.0893 18.4371 20.508 18.0968 20.1954C17.9486 20.0585 17.8726 19.8585 17.892 19.6557C17.9603 18.9386 18.124 17.2205 18.1884 16.5468C18.2051 16.3694 18.2933 16.2071 18.4326 16.0984C18.824 15.7914 19.6532 15.1419 20.1589 14.7453V14.7442Z" fill="#51C3E1"/>
<path fill-rule="evenodd" clip-rule="evenodd" d="M20.0341 15.1712C20.1196 15.1041 20.2395 15.1092 20.3188 15.183C20.6236 15.4635 21.3474 16.1311 21.5921 16.3569C21.6443 16.4048 21.6704 16.4747 21.6637 16.5451C21.621 16.9957 21.4611 18.6676 21.4206 19.089C21.4145 19.151 21.384 19.2073 21.3351 19.2456C21.0665 19.4563 20.1601 20.1666 19.8021 20.4471C19.7166 20.5136 19.5967 20.5091 19.5173 20.4353C19.2121 20.1542 18.4888 19.4873 18.2441 19.2614C18.1919 19.2135 18.1652 19.1436 18.1719 19.0727C18.2152 18.622 18.3751 16.9501 18.415 16.5288C18.4211 16.4668 18.4516 16.4099 18.5005 16.3722C18.7691 16.1615 19.6755 15.4511 20.0335 15.1706L20.0341 15.1712Z" fill="#D7F1FE"/>
</svg>
