<svg width="45" height="39" viewBox="0 0 45 39" fill="none" xmlns="http://www.w3.org/2000/svg">
<path fill-rule="evenodd" clip-rule="evenodd" d="M28.4299 35.2078C27.7485 35.1469 27.0853 35.2723 26.511 35.4616C27.049 35.0882 27.6363 34.5813 28.1714 33.9053C29.7055 31.967 30.2361 29.3659 30.2361 29.3659C30.2361 29.3659 28.2763 29.9119 26.7417 31.8496C25.2077 33.7879 24.6765 36.3884 24.6765 36.3884L24.6805 36.3936C24.7627 36.4897 26.1085 38.0339 28.0002 38.2024C29.9532 38.3773 31.7525 37.0213 31.7525 37.0213C31.7525 37.0213 30.3818 35.3822 28.4288 35.2073L28.4299 35.2078Z" fill="#FFDB5B"/>
<path fill-rule="evenodd" clip-rule="evenodd" d="M32.6715 32.1546C32.074 32.1937 31.5059 32.3876 31.0201 32.6235C31.4606 32.2363 31.9339 31.73 32.3501 31.0873C33.5422 29.2451 33.8104 26.9754 33.8104 26.9754C33.8104 26.9754 32.1443 27.6969 30.9527 29.5391C29.761 31.3813 29.4918 33.6516 29.4918 33.6516L29.4957 33.655C29.5745 33.7252 30.8608 34.8523 32.5207 34.7447C34.2339 34.6331 35.6999 33.2483 35.6999 33.2483C35.6999 33.2483 34.3847 32.0441 32.6715 32.1552V32.1546Z" fill="#FFDB5B"/>
<path fill-rule="evenodd" clip-rule="evenodd" d="M36.4169 28.6336C35.9243 28.766 35.4719 29.0168 35.0904 29.2872C35.4197 28.904 35.765 28.4196 36.049 27.8362C36.8636 26.1643 36.8721 24.3071 36.8721 24.3071C36.8721 24.3071 35.5575 25.1649 34.7429 26.8369C33.9282 28.5088 33.9197 30.3659 33.9197 30.3659L33.9237 30.3677C33.9957 30.4108 35.1697 31.0926 36.5371 30.7255C37.9481 30.347 39.0343 28.9932 39.0343 28.9932C39.0343 28.9932 37.8285 28.2545 36.4175 28.633L36.4169 28.6336Z" fill="#FFDB5B"/>
<path fill-rule="evenodd" clip-rule="evenodd" d="M39.4289 25.2052C39.0077 25.3962 38.6319 25.6822 38.3212 25.9727C38.5763 25.5947 38.836 25.1276 39.0344 24.5867C39.6013 23.0362 39.442 21.4581 39.442 21.4581C39.442 21.4581 38.3626 22.397 37.7963 23.9475C37.2294 25.4981 37.3887 27.0762 37.3887 27.0762L37.3915 27.0774C37.459 27.1027 38.5531 27.4933 39.722 26.9629C40.9295 26.4151 41.7628 25.0919 41.7628 25.0919C41.7628 25.0919 40.6364 24.6575 39.4289 25.2052Z" fill="#FFDB5B"/>
<path fill-rule="evenodd" clip-rule="evenodd" d="M41.9981 21.4419C41.6262 21.6692 41.3025 21.9747 41.04 22.2756C41.2452 21.9039 41.4487 21.4529 41.5893 20.9437C41.9924 19.4847 41.7271 18.0987 41.7271 18.0987C41.7271 18.0987 40.8081 19.0814 40.4051 20.5404C40.002 21.9994 40.2667 23.3854 40.2667 23.3854H40.2701C40.3336 23.3992 41.366 23.6006 42.3988 22.97C43.4646 22.3193 44.1296 21.0266 44.1296 21.0266C44.1296 21.0266 43.0638 20.7912 41.9975 21.4419H41.9981Z" fill="#FFDB5B"/>
<path fill-rule="evenodd" clip-rule="evenodd" d="M13.2785 29.3659C13.2785 29.3659 13.3187 31.967 14.4871 33.9053C14.8953 34.5819 15.3868 35.0882 15.8545 35.4616C15.3154 35.2723 14.6765 35.1469 13.9831 35.2078C11.9973 35.3827 10.317 37.0219 10.317 37.0219C10.317 37.0219 11.8612 38.3779 13.8471 38.203C15.7706 38.0339 17.4078 36.4897 17.5081 36.3942L17.5126 36.389C17.5126 36.389 17.4724 33.7879 16.304 31.8502C15.1356 29.9119 13.2779 29.3665 13.2779 29.3665L13.2785 29.3659Z" fill="#FFDB5B"/>
<path fill-rule="evenodd" clip-rule="evenodd" d="M13.215 33.6511C13.215 33.6511 13.3737 31.3808 12.5296 29.5386C11.6855 27.6964 10.1554 26.9749 10.1554 26.9749C10.1554 26.9749 9.9967 29.2446 10.8408 31.0868C11.1356 31.7295 11.5137 32.2363 11.8816 32.623C11.44 32.3871 10.9088 32.1926 10.3187 32.1541C8.62651 32.0425 7.08398 33.2472 7.08398 33.2472C7.08398 33.2472 8.28921 34.6326 9.9814 34.7436C11.6203 34.8512 13.1192 33.7247 13.211 33.654L13.2155 33.6505L13.215 33.6511Z" fill="#FFDB5B"/>
<path fill-rule="evenodd" clip-rule="evenodd" d="M9.40318 30.3677L9.40715 30.3659C9.40715 30.3659 9.74899 28.5088 9.24956 26.8369C8.75012 25.1649 7.59762 24.3071 7.59762 24.3071C7.59762 24.3071 7.25578 26.1643 7.75522 27.8362C7.92925 28.4196 8.18322 28.904 8.44002 29.2872C8.10952 29.0168 7.70419 28.7659 7.23707 28.6336C5.89749 28.2551 4.55225 28.9938 4.55225 28.9938C4.55225 28.9938 5.38275 30.347 6.72289 30.7261C8.02052 31.0926 9.32382 30.4108 9.40375 30.3682L9.40318 30.3677Z" fill="#FFDB5B"/>
<path fill-rule="evenodd" clip-rule="evenodd" d="M6.55621 27.0774L6.55961 27.0762C6.55961 27.0762 7.01654 25.4975 6.74216 23.9475C6.46778 22.397 5.56528 21.4581 5.56528 21.4581C5.56528 21.4581 5.10835 23.0368 5.38273 24.5867C5.47854 25.1276 5.65088 25.5947 5.83455 25.9727C5.57888 25.6822 5.25689 25.3962 4.8714 25.2052C3.76708 24.6575 2.55902 25.0919 2.55902 25.0919C2.55902 25.0919 3.14293 26.4151 4.24724 26.9629C5.31641 27.4933 6.48422 27.1021 6.55621 27.0774Z" fill="#FFDB5B"/>
<path fill-rule="evenodd" clip-rule="evenodd" d="M4.37253 23.386H4.37594C4.37594 23.386 4.90201 21.9989 4.77446 20.5404C4.64634 19.082 3.91335 18.0987 3.91335 18.0987C3.91335 18.0987 3.38726 19.4853 3.51482 20.9437C3.5596 21.4529 3.67808 21.904 3.81301 22.2756C3.60722 21.9742 3.34135 21.6692 3.01198 21.442C2.06923 20.7913 0.958679 21.0266 0.958679 21.0266C0.958679 21.0266 1.37988 22.3188 2.32263 22.9701C3.2359 23.6006 4.30677 23.3993 4.37253 23.386Z" fill="#FFDB5B"/>
<path fill-rule="evenodd" clip-rule="evenodd" d="M24.0201 2.33864C24.5195 1.71556 25.3959 1.56309 26.0717 1.98194C28.871 3.71944 35.8637 8.05916 38.2826 9.56078C38.7968 9.87951 39.087 10.4675 39.0321 11.0756C38.7356 14.3648 37.7894 24.8583 37.5122 27.9282C37.4646 28.4604 37.1585 28.9333 36.6964 29.1899C34.0507 30.6582 25.0665 35.6434 22.3228 37.1658C21.8262 37.4414 21.2224 37.4264 20.7394 37.1266C18.0319 35.4461 9.12256 29.9166 7.53412 28.9305C7.37312 28.8304 7.23083 28.7021 7.11461 28.5513C6.84874 28.2067 6.32833 27.533 5.88388 26.9577C5.42866 26.3679 5.43603 25.5372 5.90145 24.9555C9.06417 21.0076 20.7258 6.45111 24.0206 2.33807L24.0201 2.33864Z" fill="#FDB610"/>
<path fill-rule="evenodd" clip-rule="evenodd" d="M21.8063 0.196727C22.3029 -0.078857 22.9072 -0.0638983 23.3896 0.235274C25.8528 1.76393 33.4458 6.47647 35.9946 8.05863C36.511 8.37909 36.8018 8.97054 36.7434 9.58211C36.4419 12.7401 35.5133 22.4672 35.2338 25.4003C35.1834 25.929 34.8778 26.3985 34.4186 26.6534C31.7797 28.1181 22.7864 33.108 20.0404 34.6321C19.5438 34.9076 18.94 34.8927 18.457 34.5935C15.9939 33.0649 8.40143 28.3523 5.85209 26.7701C5.33565 26.4497 5.04483 25.8582 5.10322 25.2467C5.40481 22.0887 6.33282 12.3615 6.61344 9.4285C6.66389 8.89919 6.96888 8.4303 7.42863 8.17543C10.0681 6.71063 19.0614 1.72078 21.8068 0.196727H21.8063Z" fill="#F9EA74"/>
<path fill-rule="evenodd" clip-rule="evenodd" d="M21.5643 2.73057C22.0614 2.45499 22.6652 2.46994 23.1482 2.76912C25.3262 4.12115 31.4583 7.92696 33.7117 9.3256C34.2282 9.64606 34.519 10.2375 34.4606 10.8491C34.193 13.6486 33.4408 21.5313 33.1925 24.1335C33.1414 24.6622 32.8365 25.1317 32.3773 25.3866C30.0303 26.6891 22.7224 30.744 20.2819 32.0984C19.7853 32.374 19.1816 32.359 18.6986 32.0598C16.5206 30.7078 10.3884 26.902 8.1356 25.5033C7.61916 25.1829 7.32834 24.5914 7.38673 23.9799C7.65374 21.1803 8.40658 13.2977 8.65488 10.6955C8.70533 10.1667 9.01032 9.69726 9.47008 9.44239C11.817 8.13984 19.1249 4.0849 21.5648 2.73057H21.5643Z" fill="#FAB209"/>
<path fill-rule="evenodd" clip-rule="evenodd" d="M12.817 24.8577C12.7099 24.8577 12.6084 24.8077 12.5421 24.722C12.3097 24.4211 11.7569 23.7053 11.5619 23.4522C11.5171 23.3947 11.5013 23.3199 11.5183 23.2491C11.7257 22.3827 13.0738 16.7346 13.5154 14.8861C13.5444 14.7641 13.6351 14.6669 13.7535 14.6301C13.872 14.5938 14.0001 14.6237 14.0914 14.7083C14.9157 15.477 16.6867 17.1287 17.4469 17.8375C17.5296 17.9152 17.6442 17.9469 17.7547 17.9233C17.8652 17.8997 17.9577 17.8243 18.003 17.7196C18.6136 16.3164 20.4662 12.0578 21.0302 10.7604C21.0716 10.6655 21.1515 10.5941 21.2496 10.5642C21.3471 10.5343 21.4531 10.5498 21.5393 10.6056C21.8216 10.7903 22.2009 11.0383 22.3664 11.1464C22.4208 11.1815 22.4639 11.2316 22.4923 11.2908C22.8109 11.9611 24.8188 16.1892 25.5201 17.6655C25.5722 17.7754 25.6765 17.8502 25.7956 17.864C25.9146 17.8778 26.0325 17.8283 26.1079 17.7328C26.867 16.7674 28.655 14.4937 29.2077 13.7907C29.3035 13.6693 29.4719 13.6353 29.6062 13.7113C29.8477 13.8482 30.2225 14.0599 30.4515 14.1894C30.5728 14.2578 30.6425 14.393 30.6289 14.5334C30.4985 15.9021 29.8262 22.9453 29.6743 24.5384C29.6573 24.7202 29.5065 24.8589 29.3268 24.8589H12.8182L12.817 24.8577Z" fill="#ED8F0D"/>
<path fill-rule="evenodd" clip-rule="evenodd" d="M11.8375 23.6461C11.7388 23.6461 11.6453 23.6041 11.579 23.5299C11.5126 23.4557 11.4803 23.3567 11.49 23.2572C11.639 21.6923 12.198 15.8406 12.393 13.7987C12.4055 13.6647 12.4917 13.5496 12.6158 13.5019C12.7394 13.4541 12.8789 13.4806 12.9769 13.5721C13.855 14.3908 15.6119 16.0293 16.3125 16.6829C16.3879 16.7525 16.4889 16.7859 16.5898 16.7744C16.6907 16.7623 16.7814 16.7059 16.8386 16.6207C17.5926 15.4885 20.015 11.8507 20.9146 10.5004C20.9843 10.3951 21.1045 10.3358 21.2292 10.3456C21.354 10.3548 21.4645 10.4308 21.5189 10.5452C22.1658 11.9076 23.8194 15.389 24.3789 16.5661C24.4248 16.6627 24.5116 16.7329 24.6142 16.7577C24.7168 16.7824 24.8251 16.7577 24.9084 16.6921C25.7185 16.0512 27.7667 14.4293 28.816 13.5985C28.926 13.5117 29.0768 13.499 29.1993 13.5675C29.3217 13.6354 29.392 13.7711 29.379 13.9121C29.1715 16.0817 28.6165 21.8977 28.4804 23.3268C28.4634 23.5086 28.3126 23.6473 28.1324 23.6473H11.8392L11.8375 23.6461Z" fill="#FFE729"/>
<path fill-rule="evenodd" clip-rule="evenodd" d="M8.13674 25.5044C7.61746 25.1385 7.32891 24.5143 7.3907 23.8699C7.66338 21.014 8.38618 13.4443 8.63958 10.7875C8.6957 10.2006 9.03414 9.68052 9.54378 9.39746C11.944 8.06556 18.9758 4.16367 21.4707 2.77884C22.0218 2.47334 22.6918 2.48945 23.227 2.82199C25.4458 4.19876 31.3189 7.84464 33.6131 9.26801C33.8246 9.39976 34.0026 9.57236 34.1392 9.77257C34.112 9.75301 34.0836 9.7346 34.0553 9.71677C31.7616 8.2934 25.8874 4.64752 23.6692 3.27075C23.1334 2.93821 22.4639 2.9221 21.9129 3.2276C19.418 4.61185 12.3856 8.51432 9.98539 9.84622C9.47575 10.1287 9.13732 10.6494 9.0812 11.2362C8.82779 13.8931 8.105 21.4627 7.83289 24.3187C7.7915 24.7456 7.90488 25.1644 8.13674 25.5044Z" fill="#FFA72C"/>
</svg>
