<svg width="32" height="34" viewBox="0 0 32 34" fill="none" xmlns="http://www.w3.org/2000/svg">
<path fill-rule="evenodd" clip-rule="evenodd" d="M30.7485 30.2445C30.8716 30.2465 30.9869 30.1857 31.0534 30.0825C31.1198 29.9799 31.1281 29.8501 31.0745 29.7402C30.0268 27.5781 26.037 19.3408 26.037 19.3408L18.7651 23.285C18.7651 23.285 22.6957 31.3997 23.7789 33.6354C23.8345 33.7498 23.9479 33.8259 24.0756 33.8341C24.2039 33.8423 24.3259 33.7815 24.396 33.6747C24.9986 32.7551 26.2178 30.8959 26.5851 30.3354C26.6515 30.2338 26.7664 30.173 26.889 30.1755C27.5493 30.1873 29.7054 30.2266 30.7485 30.245V30.2445Z" fill="#E0E0E0"/>
<path fill-rule="evenodd" clip-rule="evenodd" d="M3.31564 30.2424C3.18326 30.245 3.06067 30.174 2.99732 30.0585C2.93396 29.9431 2.94066 29.8026 3.01483 29.6937C4.53122 27.4626 10.0524 19.3403 10.0524 19.3403L16.5542 23.2845C16.5542 23.2845 10.9656 31.5064 9.48938 33.6778C9.41727 33.7835 9.29365 33.8423 9.16591 33.8321C9.03766 33.8213 8.92537 33.7432 8.87232 33.6277C8.45356 32.7178 7.65415 30.9812 7.37858 30.3814C7.31987 30.2537 7.19058 30.173 7.04945 30.176C6.37109 30.1883 4.3767 30.2241 3.31615 30.243L3.31564 30.2424Z" fill="#E0E0E0"/>
<path fill-rule="evenodd" clip-rule="evenodd" d="M17.7637 2.343C18.2175 1.78969 19.0143 1.6543 19.6278 2.02623C22.1712 3.56917 28.5242 7.42291 30.722 8.75637C31.1887 9.03941 31.4529 9.56156 31.4035 10.1016C31.1341 13.0224 30.2744 22.3408 30.0226 25.067C29.9793 25.5396 29.7012 25.9595 29.2814 26.1874C26.878 27.4912 18.715 31.9182 16.2215 33.2701C15.7703 33.5148 15.2218 33.5015 14.7829 33.2353C12.3229 31.743 4.2279 26.8327 2.78465 25.957C2.63836 25.8681 2.50908 25.7542 2.40349 25.6203C2.16191 25.3143 1.68907 24.716 1.28525 24.2051C0.871641 23.6814 0.878337 22.9437 1.30122 22.4271C4.17433 18.9213 14.77 5.99494 17.7637 2.34248V2.343Z" fill="#EAEAEA"/>
<path fill-rule="evenodd" clip-rule="evenodd" d="M15.7524 0.440932C16.2036 0.196209 16.7522 0.209493 17.191 0.475163C19.4285 1.83263 26.3275 6.01745 28.6433 7.42244C29.1126 7.70701 29.3768 8.23222 29.3237 8.77531C29.0497 11.5797 28.206 20.2175 27.9516 22.8221C27.9057 23.2916 27.6281 23.7085 27.2109 23.9349C24.8127 25.2356 16.642 29.6667 14.1469 31.0201C13.6957 31.2648 13.1471 31.2515 12.7083 30.9858C10.4708 29.6284 3.5713 25.4436 1.2555 24.0386C0.786263 23.754 0.522026 23.2288 0.57508 22.6857C0.849102 19.8813 1.6928 11.2435 1.94725 8.6389C1.99309 8.16887 2.27021 7.75248 2.68794 7.52615C5.08615 6.22539 13.2574 1.79432 15.7524 0.440932Z" fill="#FDFDFD"/>
<path fill-rule="evenodd" clip-rule="evenodd" d="M15.5329 2.69095C15.9841 2.44622 16.5327 2.45951 16.9715 2.72518C18.9505 3.9258 24.5221 7.30543 26.5695 8.54744C27.0388 8.83201 27.303 9.35722 27.25 9.90031C27.0068 12.3864 26.3233 19.3863 26.0977 21.6971C26.0519 22.1666 25.7743 22.5835 25.357 22.8098C23.2246 23.9665 16.5847 27.5674 14.3673 28.77C13.9161 29.0148 13.3675 29.0015 12.9287 28.7358C10.9492 27.5352 5.37762 24.1556 3.33069 22.9136C2.86146 22.629 2.59722 22.1038 2.65028 21.5607C2.89288 19.0746 3.5769 12.0747 3.80251 9.7639C3.84835 9.29438 4.12546 8.87748 4.54319 8.65115C6.67562 7.49447 13.3155 3.89362 15.5329 2.69095Z" fill="#EAEAEA"/>
<path fill-rule="evenodd" clip-rule="evenodd" d="M7.58504 22.3403C7.48769 22.3403 7.39549 22.2959 7.33523 22.2198C7.12404 21.9525 6.62184 21.317 6.44414 21.0922C6.40396 21.0411 6.38954 20.9747 6.40499 20.9118C6.593 20.1424 7.81837 15.1269 8.21911 13.4853C8.24537 13.377 8.32779 13.2907 8.43544 13.258C8.54309 13.2258 8.6595 13.2524 8.74243 13.3275C9.49135 14.01 11.1005 15.4768 11.7912 16.1063C11.8664 16.1752 11.9709 16.2033 12.0709 16.1824C12.1708 16.1615 12.2553 16.0945 12.2965 16.0015C12.8512 14.7554 14.534 10.9737 15.047 9.82164C15.0846 9.73734 15.1572 9.67399 15.2458 9.64742C15.3349 9.62086 15.4307 9.63465 15.509 9.68421C15.7655 9.84821 16.1101 10.0684 16.2605 10.1645C16.3095 10.1956 16.3491 10.2401 16.3749 10.2927C16.6643 10.8879 18.4888 14.6425 19.1259 15.9535C19.1733 16.0511 19.2681 16.1175 19.3762 16.1298C19.4844 16.142 19.5921 16.0981 19.6601 16.0133C20.3503 15.156 21.9743 13.1369 22.477 12.5126C22.5641 12.4048 22.7171 12.3746 22.8386 12.4421C23.0585 12.5637 23.3985 12.7517 23.6066 12.8666C23.7168 12.9274 23.7802 13.0475 23.7683 13.1722C23.6493 14.3876 23.0385 20.6421 22.9004 22.0568C22.8845 22.2182 22.748 22.3413 22.5847 22.3413H7.58556L7.58504 22.3403Z" fill="#E0E0E0"/>
<path fill-rule="evenodd" clip-rule="evenodd" d="M6.69519 21.2644C6.60557 21.2644 6.52058 21.2271 6.46032 21.1612C6.40005 21.0953 6.37069 21.0074 6.37945 20.919C6.51492 19.5294 7.02227 14.333 7.19946 12.5198C7.21131 12.4007 7.2896 12.2985 7.40188 12.2561C7.51417 12.2137 7.6414 12.2372 7.72999 12.3185C8.52785 13.0455 10.1241 14.5005 10.7607 15.0809C10.8287 15.1427 10.9204 15.1724 11.0121 15.1621C11.1038 15.1514 11.1862 15.1014 11.2382 15.0257C11.9233 14.0203 14.1242 10.7898 14.9416 9.59074C15.005 9.49724 15.1142 9.44462 15.2275 9.45331C15.3408 9.46148 15.4407 9.52892 15.4902 9.63059C16.0779 10.8404 17.5804 13.9319 18.0888 14.9772C18.1305 15.063 18.2088 15.1254 18.3025 15.1473C18.3957 15.1693 18.4941 15.1473 18.5698 15.0891C19.3059 14.5199 21.1669 13.0797 22.1203 12.342C22.2202 12.2648 22.3572 12.2536 22.4685 12.3144C22.5797 12.3747 22.6436 12.4952 22.6318 12.6204C22.4438 14.547 21.939 19.7118 21.8154 20.9808C21.7994 21.1423 21.6629 21.2654 21.4996 21.2654H6.69519V21.2644Z" fill="white"/>
<path fill-rule="evenodd" clip-rule="evenodd" d="M3.33233 22.9146C2.86001 22.5897 2.59834 22.0354 2.65449 21.4631C2.90224 18.927 3.55845 12.2051 3.78921 9.8457C3.8402 9.32458 4.1477 8.86272 4.61076 8.61136C6.79161 7.42861 13.1807 3.96366 15.4475 2.73392C15.9477 2.46263 16.557 2.47693 17.0432 2.77224C19.0587 3.99483 24.3955 7.23243 26.48 8.4964C26.6727 8.6134 26.8339 8.76667 26.958 8.94447C26.9328 8.9271 26.9075 8.91075 26.8813 8.89491C24.7972 7.63093 19.4605 4.39333 17.445 3.17074C16.9582 2.87544 16.3494 2.86113 15.8493 3.13242C13.5824 4.36166 7.19337 7.82712 5.01252 9.00986C4.54947 9.26072 4.24145 9.72308 4.19097 10.2442C3.96073 12.6036 3.304 19.3255 3.05625 21.8617C3.01917 22.2407 3.12167 22.6127 3.33285 22.9146H3.33233Z" fill="#E0E0E0"/>
</svg>
