<svg width="35" height="38" viewBox="0 0 35 38" fill="none" xmlns="http://www.w3.org/2000/svg">
<path fill-rule="evenodd" clip-rule="evenodd" d="M34.2707 33.891C34.4065 33.8933 34.5338 33.8262 34.6071 33.7124C34.6804 33.5991 34.6895 33.4559 34.6304 33.3348C33.4747 30.9497 29.0734 21.8629 29.0734 21.8629L21.0517 26.2138C21.0517 26.2138 25.3876 35.1653 26.5825 37.6316C26.6438 37.7578 26.7688 37.8418 26.9098 37.8508C27.0512 37.8598 27.1859 37.7928 27.2632 37.675C27.928 36.6605 29.2729 34.6096 29.678 33.9913C29.7513 33.8792 29.878 33.8121 30.0132 33.8149C30.7417 33.8279 33.1201 33.8713 34.2707 33.8916V33.891Z" fill="#AFBED6"/>
<path fill-rule="evenodd" clip-rule="evenodd" d="M4.00917 33.8888C3.86314 33.8916 3.72791 33.8132 3.65802 33.6859C3.58814 33.5585 3.59552 33.4035 3.67734 33.2835C5.35011 30.8223 11.4406 21.8623 11.4406 21.8623L18.6129 26.2132C18.6129 26.2132 12.448 35.2831 10.8196 37.6783C10.74 37.795 10.6037 37.8598 10.4627 37.8485C10.3213 37.8367 10.1974 37.7505 10.1389 37.6231C9.67693 36.6194 8.79509 34.7037 8.4911 34.0421C8.42633 33.9012 8.28371 33.8121 8.12802 33.8155C7.37971 33.829 5.17965 33.8685 4.00974 33.8893L4.00917 33.8888Z" fill="#AFBED6"/>
<path fill-rule="evenodd" clip-rule="evenodd" d="M19.9471 3.11219C20.4477 2.50183 21.3267 2.35248 22.0034 2.76277C24.8091 4.46481 31.8173 8.71597 34.2418 10.1869C34.7566 10.4992 35.048 11.0752 34.9935 11.6709C34.6963 14.8929 33.748 25.1722 33.4702 28.1795C33.4224 28.7009 33.1156 29.1641 32.6525 29.4155C30.0013 30.8538 20.9965 35.7373 18.2459 37.2286C17.7482 37.4985 17.143 37.4839 16.6589 37.1902C13.9452 35.544 5.01546 30.1273 3.42337 29.1613C3.26201 29.0633 3.11939 28.9376 3.00291 28.7899C2.73642 28.4523 2.21482 27.7924 1.76936 27.2288C1.31309 26.6511 1.32048 25.8373 1.78697 25.2675C4.95637 21.4001 16.6447 7.14074 19.9471 3.11163V3.11219Z" fill="#566C90"/>
<path fill-rule="evenodd" clip-rule="evenodd" d="M17.7283 1.014C18.226 0.744042 18.8311 0.758695 19.3152 1.05176C21.7835 2.54922 29.3939 7.16559 31.9485 8.71546C32.4662 9.02938 32.7576 9.60875 32.6991 10.2078C32.3968 13.3014 31.4661 22.83 31.1854 25.7032C31.1349 26.2211 30.8286 26.681 30.3684 26.9307C27.7228 28.3656 18.7095 33.2536 15.9572 34.7466C15.4595 35.0165 14.8543 35.0019 14.3702 34.7088C11.902 33.2113 4.29101 28.595 1.7364 27.0451C1.21877 26.7312 0.927283 26.1518 0.985807 25.5527C1.28809 22.4592 2.21879 12.9305 2.49948 10.0574C2.55005 9.53886 2.85574 9.07954 3.31655 8.82987C5.96207 7.39497 14.9759 2.50695 17.7283 1.014Z" fill="#9CB2D8"/>
<path fill-rule="evenodd" clip-rule="evenodd" d="M17.4862 3.49602C17.984 3.22606 18.5891 3.24072 19.0732 3.53378C21.2562 4.85822 27.4024 8.58637 29.661 9.95645C30.1786 10.2704 30.4701 10.8497 30.4115 11.4488C30.1434 14.1913 29.3894 21.913 29.1405 24.4621C29.0899 24.9801 28.7837 25.44 28.3234 25.6896C25.9711 26.9656 18.6465 30.9378 16.2004 32.2645C15.7026 32.5344 15.0975 32.5198 14.6134 32.2267C12.4298 30.9023 6.28366 27.1741 4.02565 25.804C3.50802 25.4901 3.21654 24.9107 3.27506 24.3117C3.54268 21.5692 4.29724 13.8475 4.54611 11.2984C4.59668 10.7804 4.90237 10.3205 5.36318 10.0709C7.71551 8.7949 15.0401 4.82271 17.4862 3.49602Z" fill="#C0D2EE"/>
<path fill-rule="evenodd" clip-rule="evenodd" d="M17.4862 3.49602C17.984 3.22606 18.5891 3.24072 19.0732 3.53378C21.2562 4.85822 27.4024 8.58637 29.661 9.95645C30.1786 10.2704 30.4701 10.8497 30.4115 11.4488C30.1434 14.1913 29.3894 21.913 29.1405 24.4621C29.0899 24.9801 28.7837 25.44 28.3234 25.6896C25.9711 26.9656 18.6465 30.9378 16.2004 32.2645C15.7026 32.5344 15.0975 32.5198 14.6134 32.2267C12.4298 30.9023 6.28366 27.1741 4.02565 25.804C3.50802 25.4901 3.21654 24.9107 3.27506 24.3117C3.54268 21.5692 4.29724 13.8475 4.54611 11.2984C4.59668 10.7804 4.90237 10.3205 5.36318 10.0709C7.71551 8.7949 15.0401 4.82271 17.4862 3.49602Z" fill="url(#paint0_linear_22_4323)" fill-opacity="0.2" style="mix-blend-mode:multiply"/>
<path fill-rule="evenodd" clip-rule="evenodd" d="M8.71837 25.1717C8.61098 25.1717 8.50927 25.1227 8.44279 25.0387C8.20983 24.744 7.65584 24.0429 7.45981 23.7949C7.41549 23.7385 7.39958 23.6653 7.41663 23.5959C7.62402 22.7472 8.97576 17.2144 9.41782 15.4036C9.4468 15.2841 9.53771 15.1889 9.65646 15.1528C9.77521 15.1173 9.90362 15.1466 9.9951 15.2295C10.8213 15.9824 12.5963 17.6005 13.3583 18.2948C13.4412 18.3709 13.5566 18.4019 13.6668 18.3788C13.777 18.3557 13.8702 18.2819 13.9157 18.1793C14.5276 16.8047 16.3839 12.633 16.9498 11.3621C16.9913 11.2691 17.0714 11.1992 17.1692 11.1699C17.2674 11.1406 17.3731 11.1558 17.4595 11.2105C17.7425 11.3914 18.1226 11.6343 18.2885 11.7403C18.3425 11.7746 18.3862 11.8237 18.4146 11.8817C18.734 12.5383 20.7465 16.6801 21.4494 18.1263C21.5016 18.234 21.6062 18.3072 21.7255 18.3207C21.8448 18.3343 21.9636 18.2858 22.0386 18.1922C22.8 17.2465 24.5915 15.0192 25.1461 14.3305C25.2421 14.2116 25.4108 14.1784 25.5449 14.2528C25.7875 14.3869 26.1626 14.5943 26.3921 14.7211C26.5137 14.7882 26.5836 14.9206 26.5705 15.0581C26.4393 16.3989 25.7654 23.2984 25.6131 24.859C25.5955 25.037 25.4449 25.1729 25.2648 25.1729H8.71894L8.71837 25.1717Z" fill="#566C90"/>
<path fill-rule="evenodd" clip-rule="evenodd" d="M7.73709 23.9849C7.63822 23.9849 7.54447 23.9437 7.47799 23.871C7.41151 23.7983 7.37913 23.7014 7.38878 23.6039C7.53822 22.0709 8.0979 16.3386 8.29336 14.3385C8.30642 14.2071 8.39279 14.0944 8.51666 14.0476C8.64052 14.0009 8.78087 14.0268 8.8786 14.1164C9.75873 14.9184 11.5196 16.5235 12.2219 17.1637C12.2969 17.2319 12.398 17.2646 12.4991 17.2533C12.6003 17.2415 12.6912 17.1863 12.7486 17.1029C13.5043 15.9937 15.9322 12.4301 16.8339 11.1074C16.9038 11.0043 17.0243 10.9462 17.1493 10.9558C17.2743 10.9648 17.3845 11.0392 17.439 11.1514C18.0874 12.4859 19.7448 15.8962 20.3056 17.0493C20.3516 17.144 20.438 17.2128 20.5414 17.237C20.6442 17.2612 20.7528 17.237 20.8363 17.1728C21.6482 16.5449 23.7011 14.9562 24.7529 14.1423C24.8631 14.0572 25.0142 14.0448 25.137 14.1119C25.2597 14.1784 25.3301 14.3114 25.3171 14.4495C25.1097 16.5748 24.5529 22.2721 24.4165 23.6721C24.3989 23.8502 24.2483 23.986 24.0682 23.986H7.73709V23.9849Z" fill="#D9E7FF"/>
<path fill-rule="evenodd" clip-rule="evenodd" d="M4.02737 25.8053C3.50633 25.4468 3.21769 24.8353 3.27962 24.2041C3.55292 21.4065 4.27681 13.9913 4.53136 11.3886C4.58761 10.8138 4.92682 10.3043 5.43763 10.027C7.84338 8.72229 14.8913 4.90003 17.3919 3.54347C17.9436 3.2442 18.6158 3.25998 19.1522 3.58574C21.3755 4.93441 27.2626 8.50588 29.5621 9.9002C29.7746 10.0293 29.9525 10.1983 30.0894 10.3945C30.0615 10.3753 30.0337 10.3573 30.0047 10.3398C27.7058 8.94548 21.8187 5.37401 19.5954 4.02534C19.0584 3.69958 18.3868 3.6838 17.8351 3.98307C15.3345 5.33906 8.28657 9.1619 5.88082 10.4666C5.37002 10.7433 5.03023 11.2534 4.97455 11.8282C4.72057 14.4309 3.99612 21.8461 3.72282 24.6437C3.68191 25.0619 3.79498 25.4722 4.02794 25.8053H4.02737Z" fill="#566C90"/>
<defs>
<linearGradient id="paint0_linear_22_4323" x1="3.00001" y1="37.5" x2="30" y2="29" gradientUnits="userSpaceOnUse">
<stop offset="0.278464" stop-color="#A0ADA9"/>
<stop offset="1" stop-opacity="0"/>
</linearGradient>
</defs>
</svg>
