<svg width="32" height="32" viewBox="0 0 32 32" fill="none" xmlns="http://www.w3.org/2000/svg">
<rect x="1" y="1" width="30" height="30" rx="15" fill="#DDF2EC"/>
<path fill-rule="evenodd" clip-rule="evenodd" d="M23.6265 7.89921C24.858 8.66716 24.3521 12.0897 23.4724 13.5003C22.5926 14.911 21.4797 14.7607 20.2483 13.9927C19.0169 13.2248 17.9772 12.1244 18.856 10.7137C19.3493 9.92171 20.8688 9.33587 21.7871 8.97935C22.504 8.70088 23.086 7.56196 23.6256 7.89824L23.6265 7.89921Z" fill="#FEA9AC"/>
<path fill-rule="evenodd" clip-rule="evenodd" d="M23.2257 9.37729C24.0543 9.73766 23.3519 11.8199 22.8046 12.6977C22.4789 13.2209 22.1012 13.3992 21.6878 13.3568C21.6657 13.3548 20.4343 13.562 19.8812 12.4433C19.6952 12.0675 19.4428 11.4489 19.9082 11.0076C20.2242 10.7089 20.7956 10.494 21.3757 10.285C22.1532 10.0055 22.8142 9.19807 23.2257 9.37632V9.37729Z" fill="#F46C6E"/>
<path fill-rule="evenodd" clip-rule="evenodd" d="M8.37342 7.89919C7.14199 8.66714 7.64786 12.0897 8.52759 13.5003C9.40731 14.911 10.5202 14.7607 11.7516 13.9927C12.9831 13.2248 14.0227 12.1244 13.144 10.7137C12.6506 9.92169 11.1311 9.33585 10.2128 8.97934C9.49596 8.70087 8.91397 7.56195 8.37438 7.89823L8.37342 7.89919Z" fill="#FEA9AC"/>
<path fill-rule="evenodd" clip-rule="evenodd" d="M8.77327 9.37729C7.94461 9.73766 8.64704 11.8199 9.19434 12.6977C9.52002 13.2209 9.89774 13.3992 10.3111 13.3568C10.3333 13.3548 11.5647 13.562 12.1178 12.4433C12.3037 12.0675 12.5562 11.4489 12.0898 11.0076C11.7747 10.7089 11.2024 10.494 10.6223 10.285C9.84474 10.0055 9.18374 9.19807 8.7723 9.37632L8.77327 9.37729Z" fill="#F46C6E"/>
<path fill-rule="evenodd" clip-rule="evenodd" d="M18.3877 10.6386C19.9583 11.3275 22.1677 12.8432 22.2891 15.9487C22.2959 16.128 22.3016 16.3043 22.3045 16.4768C23.2912 17.3469 23.8751 18.427 23.8751 19.5977C23.8751 22.4739 20.3485 24.8048 15.999 24.8048C11.6495 24.8048 8.12293 22.4739 8.12293 19.5977C8.12293 18.427 8.70684 17.3469 9.69352 16.4768C9.69738 16.3043 9.7022 16.128 9.70894 15.9487C9.83035 12.8345 12.0523 11.3189 13.6239 10.6328C13.7424 9.92749 14.3735 9.14026 14.2598 8.57562C14.254 8.54768 14.2656 8.52166 14.2906 8.50432C14.3157 8.48601 14.3485 8.48119 14.3803 8.48987C14.9083 8.63729 15.0682 9.13834 15.3139 9.50931C15.3332 9.53821 15.3698 9.55363 15.4093 9.54785C15.4488 9.54303 15.4777 9.51894 15.4855 9.48618C15.6656 8.73268 15.5018 7.93582 16.0694 7.22954C16.0935 7.19967 16.1378 7.18714 16.1792 7.20063C16.2197 7.21316 16.2438 7.24688 16.239 7.28349C16.1175 8.07072 16.5945 8.28656 16.6774 9.14508C16.6803 9.17977 16.7101 9.20771 16.7506 9.21446C16.7911 9.2212 16.8315 9.20579 16.8508 9.17495C17.0194 8.9119 17.2025 8.74135 17.2738 7.88186C17.2767 7.85199 17.2979 7.82694 17.3307 7.81538C17.3634 7.80381 17.4 7.80863 17.427 7.8279C18.0659 8.29041 18.3434 9.8215 18.3858 10.6376L18.3877 10.6386Z" fill="#FFCECD"/>
<path fill-rule="evenodd" clip-rule="evenodd" d="M12.6449 17.5656C12.6449 17.4972 12.6198 17.4345 12.5717 17.3864C12.5235 17.3372 12.4599 17.3112 12.3915 17.3112C12.3231 17.3112 12.2604 17.3363 12.2113 17.3844C12.1612 17.4336 12.1352 17.4972 12.1352 17.5665C12.1352 17.6359 12.1622 17.6995 12.2113 17.7477C12.2604 17.7959 12.3231 17.8219 12.3915 17.8219C12.4599 17.8219 12.5235 17.7949 12.5717 17.7458C12.6189 17.6976 12.6449 17.635 12.6449 17.5675V17.5656ZM12.0128 17.5656C12.0128 17.4972 11.9878 17.4345 11.9396 17.3864C11.8914 17.3372 11.8278 17.3112 11.7594 17.3112C11.691 17.3112 11.6283 17.3363 11.5792 17.3844C11.5291 17.4336 11.5031 17.4972 11.5031 17.5665C11.5031 17.6359 11.5301 17.6995 11.5792 17.7477C11.6283 17.7959 11.691 17.8219 11.7594 17.8219C11.8278 17.8219 11.8914 17.7949 11.9396 17.7458C11.9868 17.6976 12.0128 17.635 12.0128 17.5675V17.5656ZM12.3289 17.0424C12.3289 16.974 12.3028 16.9123 12.2556 16.8632C12.2074 16.814 12.1438 16.787 12.0754 16.787C12.007 16.787 11.9444 16.8121 11.8953 16.8603C11.8451 16.9084 11.8191 16.973 11.8191 17.0424C11.8191 17.1118 11.8461 17.1744 11.8953 17.2235C11.9444 17.2717 12.007 17.2977 12.0754 17.2977C12.1438 17.2977 12.2074 17.2707 12.2556 17.2216C12.3028 17.1734 12.3289 17.1108 12.3289 17.0433V17.0424Z" fill="#F46C6E"/>
<path fill-rule="evenodd" clip-rule="evenodd" d="M20.4978 17.5656C20.4978 17.4972 20.4728 17.4345 20.4246 17.3864C20.3764 17.3372 20.3128 17.3112 20.2444 17.3112C20.176 17.3112 20.1133 17.3363 20.0642 17.3844C20.0141 17.4336 19.9881 17.4972 19.9881 17.5665C19.9881 17.6359 20.0151 17.6995 20.0642 17.7477C20.1133 17.7959 20.176 17.8219 20.2444 17.8219C20.3128 17.8219 20.3764 17.7949 20.4246 17.7458C20.4718 17.6976 20.4978 17.635 20.4978 17.5675V17.5656ZM19.8657 17.5656C19.8657 17.4972 19.8407 17.4345 19.7925 17.3864C19.7443 17.3372 19.6807 17.3112 19.6123 17.3112C19.5439 17.3112 19.4813 17.3363 19.4321 17.3844C19.383 17.4336 19.356 17.4972 19.356 17.5665C19.356 17.6359 19.383 17.6995 19.4321 17.7477C19.4813 17.7959 19.5439 17.8219 19.6123 17.8219C19.6807 17.8219 19.7443 17.7949 19.7925 17.7458C19.8397 17.6976 19.8657 17.635 19.8657 17.5675V17.5656ZM20.1818 17.0424C20.1818 16.974 20.1557 16.9123 20.1085 16.8632C20.0603 16.814 19.9968 16.787 19.9283 16.787C19.8599 16.787 19.7973 16.8121 19.7482 16.8603C19.6981 16.9084 19.672 16.973 19.672 17.0424C19.672 17.1118 19.699 17.1744 19.7482 17.2235C19.7973 17.2717 19.8599 17.2977 19.9283 17.2977C19.9968 17.2977 20.0603 17.2707 20.1085 17.2216C20.1557 17.1734 20.1818 17.1108 20.1818 17.0433V17.0424Z" fill="#F46C6E"/>
<path fill-rule="evenodd" clip-rule="evenodd" d="M17.9628 14.2519C17.4213 14.3194 17.0359 14.8127 17.1033 15.3552C17.1708 15.8977 17.6641 16.2821 18.2066 16.2147C18.7481 16.1472 19.1335 15.6539 19.0661 15.1114C18.9986 14.5699 18.5053 14.1845 17.9628 14.2519Z" fill="#460003"/>
<path fill-rule="evenodd" clip-rule="evenodd" d="M18.3019 14.5294C18.1189 14.5526 17.9888 14.7192 18.0119 14.9023C18.035 15.0854 18.2017 15.2155 18.3848 15.1924C18.5679 15.1692 18.698 15.0025 18.6748 14.8195C18.6517 14.6364 18.485 14.5063 18.3019 14.5294Z" fill="#DDF2EC"/>
<path fill-rule="evenodd" clip-rule="evenodd" d="M13.7935 14.2519C13.252 14.3194 12.8665 14.8127 12.934 15.3552C13.0014 15.8967 13.4948 16.2821 14.0373 16.2147C14.5788 16.1472 14.9642 15.6539 14.8968 15.1114C14.8293 14.5699 14.335 14.1845 13.7935 14.2519Z" fill="#460003"/>
<path fill-rule="evenodd" clip-rule="evenodd" d="M14.1327 14.5294C13.9497 14.5526 13.8196 14.7192 13.8427 14.9023C13.8658 15.0854 14.0325 15.2155 14.2156 15.1924C14.3987 15.1692 14.5288 15.0025 14.5056 14.8195C14.4825 14.6364 14.3158 14.5063 14.1327 14.5294Z" fill="#DDF2EC"/>
<path fill-rule="evenodd" clip-rule="evenodd" d="M13.1855 13.7778C13.6037 13.7008 14.3119 13.5196 14.7782 13.6757C15.0837 13.7778 15.1617 13.4579 14.8438 13.2373C14.4073 12.9347 13.7106 13.0928 13.2481 13.2874C12.7818 13.483 12.5187 13.9002 13.1864 13.7769L13.1855 13.7778Z" fill="#460003"/>
<path fill-rule="evenodd" clip-rule="evenodd" d="M18.8136 13.7778C18.3954 13.7008 17.6872 13.5196 17.2209 13.6757C16.9154 13.7778 16.8374 13.4579 17.1553 13.2373C17.5918 12.9347 18.2885 13.0928 18.751 13.2874C19.2173 13.483 19.4804 13.9002 18.8127 13.7769L18.8136 13.7778Z" fill="#460003"/>
<path fill-rule="evenodd" clip-rule="evenodd" d="M17.0184 20.2057C20.4824 18.9069 18.8916 22.87 16.026 22.8777C13.143 22.8854 11.5455 18.9049 15.0143 20.2057C15.8044 20.5015 16.2293 20.5015 17.0194 20.2057H17.0184Z" fill="#460003"/>
<path fill-rule="evenodd" clip-rule="evenodd" d="M17.6313 22.2812C17.1553 22.5684 16.608 22.7293 16.0549 22.7302C15.471 22.7322 14.8948 22.5568 14.3986 22.2427C14.3658 22.2215 14.3485 22.1858 14.3523 22.1463C14.3562 22.1068 14.3803 22.075 14.4169 22.0625C14.8553 21.9025 15.366 21.8033 15.9403 21.8033C16.5772 21.8033 17.1409 21.918 17.6159 22.1001C17.6515 22.1136 17.6756 22.1463 17.6785 22.1858C17.6814 22.2253 17.6641 22.261 17.6303 22.2812H17.6313Z" fill="#CE3963"/>
<path fill-rule="evenodd" clip-rule="evenodd" d="M16.0163 20.0496C18.1805 19.5727 18.9022 18.1273 18.6391 17.3247C18.2287 16.0711 16.6215 16.5702 16.0154 17.343C15.4103 16.5712 13.8021 16.0721 13.3916 17.3247C13.1286 18.1273 13.8561 19.5717 16.0154 20.0496H16.0163Z" fill="#FF8E94"/>
<path fill-rule="evenodd" clip-rule="evenodd" d="M17.2121 17.4519C16.8797 17.4519 16.6108 17.7207 16.6108 18.0532C16.6108 18.3856 16.8797 18.6544 17.2121 18.6544C17.5445 18.6544 17.8134 18.3856 17.8134 18.0532C17.8134 17.7207 17.5445 17.4519 17.2121 17.4519ZM14.8196 17.4519C14.4872 17.4519 14.2183 17.7207 14.2183 18.0532C14.2183 18.3856 14.4872 18.6544 14.8196 18.6544C15.152 18.6544 15.4208 18.3856 15.4208 18.0532C15.4208 17.7207 15.152 17.4519 14.8196 17.4519Z" fill="#E82E2F"/>
<rect x="1" y="1" width="30" height="30" rx="15" stroke="#FCB00D" stroke-width="2"/>
</svg>
