<svg width="32" height="32" viewBox="0 0 32 32" fill="none" xmlns="http://www.w3.org/2000/svg">
<rect x="1" y="1" width="30" height="30" rx="15" fill="#DDF2EC"/>
<path fill-rule="evenodd" clip-rule="evenodd" d="M23.6265 7.89921C24.8579 8.66716 24.3521 12.0897 23.4724 13.5004C22.5926 14.911 21.4797 14.7607 20.2483 13.9927C19.0169 13.2248 17.9772 12.1244 18.856 10.7138C19.3493 9.92171 20.8688 9.33587 21.7871 8.97935C22.504 8.70088 23.086 7.56196 23.6256 7.89824L23.6265 7.89921Z" fill="#84A415"/>
<path fill-rule="evenodd" clip-rule="evenodd" d="M23.2267 9.37633C24.0553 9.7367 23.3529 11.8189 22.8056 12.6967C22.4799 13.22 22.1022 13.3982 21.6888 13.3558C21.6667 13.3539 20.4352 13.562 19.8822 12.4424C19.6962 12.0656 19.4437 11.448 19.9091 11.0067C20.2252 10.708 20.7966 10.4931 21.3766 10.285C22.1552 10.0055 22.8152 9.19807 23.2267 9.37633Z" fill="#E2F5A1"/>
<path fill-rule="evenodd" clip-rule="evenodd" d="M8.37342 7.8992C7.14199 8.66716 7.64786 12.0897 8.52758 13.5003C9.40731 14.911 10.5202 14.7607 11.7516 13.9927C12.9831 13.2248 14.0227 12.1244 13.144 10.7137C12.6506 9.92171 11.1311 9.33586 10.2128 8.97935C9.49595 8.70088 8.91397 7.56196 8.37438 7.89824L8.37342 7.8992Z" fill="#84A415"/>
<path fill-rule="evenodd" clip-rule="evenodd" d="M8.7743 9.37633C7.94564 9.7367 8.64807 11.8189 9.19537 12.6967C9.52105 13.2199 9.89877 13.3982 10.3121 13.3558C10.3343 13.3539 11.5657 13.562 12.1188 12.4424C12.3048 12.0656 12.5572 11.448 12.0918 11.0067C11.7758 10.708 11.2044 10.4931 10.6243 10.285C9.84577 10.0055 9.18574 9.19807 8.7743 9.37633Z" fill="#E2F5A1"/>
<path fill-rule="evenodd" clip-rule="evenodd" d="M18.3887 10.6386C19.9592 11.3275 22.1687 12.8432 22.2901 15.9487C22.2968 16.128 22.3026 16.3043 22.3055 16.4768C23.2922 17.3469 23.8761 18.427 23.8761 19.5977C23.8761 22.4739 20.3495 24.8048 16 24.8048C11.6505 24.8048 8.1239 22.4739 8.1239 19.5977C8.1239 18.427 8.70781 17.3469 9.69449 16.4768C9.69738 16.3043 9.70317 16.128 9.70991 15.9487C9.83132 12.8345 12.0533 11.3189 13.6248 10.6328C13.7434 9.92749 14.3745 9.14026 14.2608 8.57562C14.255 8.54768 14.2666 8.52166 14.2916 8.50432C14.3167 8.48601 14.3494 8.48119 14.3812 8.48986C14.9093 8.63729 15.0692 9.13834 15.3149 9.50931C15.3342 9.53821 15.3708 9.55363 15.4103 9.54785C15.4498 9.54303 15.4787 9.51894 15.4864 9.48618C15.6666 8.73268 15.5028 7.93582 16.0703 7.22954C16.0944 7.19967 16.1387 7.18714 16.1802 7.20063C16.2207 7.21315 16.2447 7.24688 16.2399 7.28349C16.1185 8.07072 16.5955 8.28655 16.6783 9.14508C16.6822 9.17977 16.7111 9.20771 16.7516 9.21446C16.792 9.2212 16.8325 9.20579 16.8518 9.17495C17.0204 8.9119 17.2035 8.74135 17.2748 7.88186C17.2777 7.85199 17.2989 7.82694 17.3316 7.81538C17.3644 7.80381 17.401 7.80863 17.428 7.8279C18.0668 8.29041 18.3443 9.8215 18.3867 10.6376L18.3887 10.6386Z" fill="#98BA25"/>
<path fill-rule="evenodd" clip-rule="evenodd" d="M12.6448 17.5656C12.6448 17.4972 12.6197 17.4346 12.5715 17.3864C12.5234 17.3372 12.4598 17.3112 12.3914 17.3112C12.3229 17.3112 12.2603 17.3363 12.2112 17.3844C12.162 17.4326 12.1351 17.4972 12.1351 17.5666C12.1351 17.6359 12.162 17.6986 12.2112 17.7477C12.2603 17.7959 12.3229 17.8219 12.3914 17.8219C12.4598 17.8219 12.5234 17.7949 12.5715 17.7458C12.6188 17.6976 12.6448 17.635 12.6448 17.5675V17.5656ZM12.0117 17.5656C12.0117 17.4972 11.9867 17.4346 11.9385 17.3864C11.8903 17.3372 11.8267 17.3112 11.7583 17.3112C11.6899 17.3112 11.6263 17.3363 11.5781 17.3844C11.529 17.4326 11.502 17.4972 11.502 17.5666C11.502 17.6359 11.529 17.6986 11.5781 17.7477C11.6273 17.7959 11.6899 17.8219 11.7583 17.8219C11.8267 17.8219 11.8903 17.7949 11.9385 17.7458C11.9857 17.6976 12.0117 17.635 12.0117 17.5675V17.5656ZM12.3278 17.0424C12.3278 16.974 12.3027 16.9123 12.2545 16.8632C12.2064 16.814 12.1428 16.787 12.0743 16.787C12.0059 16.787 11.9433 16.8121 11.8942 16.8603C11.8441 16.9085 11.818 16.973 11.818 17.0424C11.818 17.1118 11.845 17.1744 11.8942 17.2235C11.9433 17.2717 12.0059 17.2977 12.0743 17.2977C12.1428 17.2977 12.2064 17.2707 12.2545 17.2216C12.3017 17.1734 12.3278 17.1108 12.3278 17.0434V17.0424Z" fill="#607809"/>
<path fill-rule="evenodd" clip-rule="evenodd" d="M20.4979 17.5656C20.4979 17.4972 20.4729 17.4345 20.4247 17.3864C20.3765 17.3372 20.3129 17.3112 20.2445 17.3112C20.1761 17.3112 20.1135 17.3363 20.0643 17.3844C20.0142 17.4326 19.9882 17.4972 19.9882 17.5666C19.9882 17.6359 20.0152 17.6986 20.0643 17.7477C20.1135 17.7959 20.1761 17.8219 20.2445 17.8219C20.3129 17.8219 20.3765 17.7949 20.4247 17.7458C20.4719 17.6976 20.4979 17.635 20.4979 17.5675V17.5656ZM19.8658 17.5656C19.8658 17.4972 19.8408 17.4345 19.7926 17.3864C19.7444 17.3372 19.6808 17.3112 19.6124 17.3112C19.544 17.3112 19.4814 17.3363 19.4322 17.3844C19.3831 17.4326 19.3561 17.4972 19.3561 17.5666C19.3561 17.6359 19.3831 17.6986 19.4322 17.7477C19.4814 17.7959 19.544 17.8219 19.6124 17.8219C19.6808 17.8219 19.7444 17.7949 19.7926 17.7458C19.8398 17.6976 19.8658 17.635 19.8658 17.5675V17.5656ZM20.1819 17.0424C20.1819 16.974 20.1568 16.9123 20.1086 16.8632C20.0605 16.814 19.9969 16.787 19.9285 16.787C19.86 16.787 19.7974 16.8121 19.7483 16.8603C19.6982 16.9084 19.6722 16.973 19.6722 17.0424C19.6722 17.1118 19.6991 17.1744 19.7483 17.2235C19.7974 17.2717 19.86 17.2977 19.9285 17.2977C19.9969 17.2977 20.0605 17.2707 20.1086 17.2216C20.1559 17.1734 20.1819 17.1108 20.1819 17.0433V17.0424Z" fill="#607809"/>
<path fill-rule="evenodd" clip-rule="evenodd" d="M16.0173 20.0496C18.1815 19.5727 18.9032 18.1273 18.6401 17.3247C18.2296 16.0711 16.6224 16.5702 16.0164 17.343C15.4112 16.5712 13.8031 16.0721 13.3926 17.3247C13.1295 18.1273 13.857 19.5717 16.0164 20.0496H16.0173Z" fill="#E2F5A1"/>
<path fill-rule="evenodd" clip-rule="evenodd" d="M17.2122 17.4519C16.8798 17.4519 16.611 17.7207 16.611 18.0531C16.611 18.3856 16.8798 18.6544 17.2122 18.6544C17.5446 18.6544 17.8135 18.3846 17.8135 18.0531C17.8135 17.7217 17.5446 17.4519 17.2122 17.4519ZM14.8197 17.4519C14.4873 17.4519 14.2185 17.7207 14.2185 18.0531C14.2185 18.3856 14.4873 18.6544 14.8197 18.6544C15.1521 18.6544 15.421 18.3846 15.421 18.0531C15.421 17.7217 15.1521 17.4519 14.8197 17.4519Z" fill="#607809"/>
<path fill-rule="evenodd" clip-rule="evenodd" d="M19.069 13.4233C18.6546 13.3269 17.9329 13.2103 17.5677 12.8817C17.3288 12.6659 17.1293 12.929 17.3326 13.2575C17.6121 13.7094 18.3145 13.8414 18.8165 13.8482C19.3224 13.854 19.73 13.5774 19.069 13.4233Z" fill="#431F07"/>
<path fill-rule="evenodd" clip-rule="evenodd" d="M18.2123 14.2905C17.6881 14.356 17.3162 14.8329 17.3808 15.3571C17.4463 15.8813 17.9233 16.2532 18.4474 16.1887C18.9716 16.1231 19.3435 15.6462 19.279 15.122C19.2135 14.5978 18.7365 14.2259 18.2123 14.2905Z" fill="#431F07"/>
<path fill-rule="evenodd" clip-rule="evenodd" d="M18.541 14.5583C18.3637 14.5805 18.2385 14.7414 18.2606 14.9187C18.2828 15.096 18.4437 15.2213 18.621 15.1991C18.7983 15.177 18.9236 15.016 18.9014 14.8387C18.8792 14.6615 18.7183 14.5362 18.541 14.5583Z" fill="#DDF2EC"/>
<path fill-rule="evenodd" clip-rule="evenodd" d="M12.9321 13.4233C13.3464 13.3269 14.0681 13.2103 14.4333 12.8817C14.6723 12.6659 14.8718 12.929 14.6684 13.2575C14.389 13.7094 13.6866 13.8414 13.1846 13.8482C12.6787 13.854 12.2711 13.5774 12.9321 13.4233Z" fill="#431F07"/>
<path fill-rule="evenodd" clip-rule="evenodd" d="M13.5525 14.2905C13.0284 14.356 12.6564 14.8329 12.721 15.3571C12.7865 15.8813 13.2635 16.2532 13.7876 16.1887C14.3118 16.1231 14.6837 15.6462 14.6192 15.122C14.5537 14.5978 14.0767 14.2259 13.5525 14.2905Z" fill="#431F07"/>
<path fill-rule="evenodd" clip-rule="evenodd" d="M13.8802 14.5583C13.703 14.5805 13.5777 14.7414 13.5999 14.9187C13.622 15.096 13.7829 15.2213 13.9602 15.1991C14.1375 15.177 14.2628 15.016 14.2406 14.8387C14.2185 14.6615 14.0575 14.5362 13.8802 14.5583Z" fill="#DDF2EC"/>
<path fill-rule="evenodd" clip-rule="evenodd" d="M15.6531 21.9122C15.8911 21.9748 16.1349 21.8322 16.1975 21.5942C16.2602 21.3562 16.1176 21.1124 15.8796 21.0498C15.3062 20.8985 14.7445 20.832 14.1914 20.8369C13.6383 20.8417 13.1016 20.9168 12.5784 21.0479C12.3395 21.1076 12.194 21.3504 12.2537 21.5894C12.3134 21.8284 12.5553 21.9739 12.7952 21.9141C13.2587 21.7985 13.726 21.731 14.1991 21.7272C14.6713 21.7233 15.1559 21.7802 15.6531 21.9122Z" fill="#607809"/>
<rect x="1" y="1" width="30" height="30" rx="15" stroke="#FCB00D" stroke-width="2"/>
</svg>
