<svg width="32" height="32" viewBox="0 0 32 32" fill="none" xmlns="http://www.w3.org/2000/svg">
<rect x="1" y="1" width="30" height="30" rx="15" fill="#DDF2EC"/>
<path fill-rule="evenodd" clip-rule="evenodd" d="M23.6265 7.89921C24.858 8.66716 24.3521 12.0897 23.4724 13.5004C22.5926 14.911 21.4797 14.7607 20.2483 13.9927C19.0169 13.2248 17.9772 12.1244 18.856 10.7138C19.3493 9.92171 20.8688 9.33587 21.7871 8.97935C22.504 8.70088 23.086 7.56196 23.6256 7.89824L23.6265 7.89921Z" fill="#FEA9AC"/>
<path fill-rule="evenodd" clip-rule="evenodd" d="M23.2257 9.37633C24.0543 9.7367 23.3519 11.8189 22.8046 12.6967C22.4789 13.22 22.1012 13.3982 21.6878 13.3558C21.6657 13.3539 20.4343 13.562 19.8812 12.4424C19.6952 12.0656 19.4428 11.448 19.9091 11.0067C20.2252 10.708 20.7966 10.4931 21.3766 10.285C22.1542 10.0055 22.8152 9.19807 23.2266 9.37633H23.2257Z" fill="#F46C6E"/>
<path fill-rule="evenodd" clip-rule="evenodd" d="M8.37342 7.8992C7.14199 8.66715 7.64786 12.0897 8.52759 13.5003C9.40731 14.911 10.5202 14.7607 11.7516 13.9927C12.9831 13.2248 14.0227 12.1244 13.144 10.7137C12.6506 9.9217 11.1311 9.33586 10.2128 8.97934C9.49596 8.70088 8.91397 7.56195 8.37438 7.89824L8.37342 7.8992Z" fill="#FEA9AC"/>
<path fill-rule="evenodd" clip-rule="evenodd" d="M8.77327 9.37632C7.94461 9.73669 8.64704 11.8189 9.19434 12.6967C9.52002 13.2199 9.89773 13.3982 10.3111 13.3558C10.3333 13.3539 11.5647 13.562 12.1178 12.4424C12.3037 12.0656 12.5562 11.448 12.0898 11.0067C11.7738 10.708 11.2024 10.4931 10.6223 10.285C9.84378 10.0055 9.18374 9.19807 8.7723 9.37632H8.77327Z" fill="#F46C6E"/>
<path fill-rule="evenodd" clip-rule="evenodd" d="M18.3877 10.6386C19.9583 11.3275 22.1677 12.8432 22.2891 15.9487C22.2959 16.128 22.3016 16.3043 22.3045 16.4768C23.2912 17.3469 23.8751 18.427 23.8751 19.5977C23.8751 22.4739 20.3485 24.8048 15.999 24.8048C11.6495 24.8048 8.12293 22.4739 8.12293 19.5977C8.12293 18.427 8.70684 17.3469 9.69352 16.4768C9.69738 16.3043 9.70219 16.128 9.70894 15.9487C9.83035 12.8345 12.0523 11.3189 13.6239 10.6328C13.7424 9.92749 14.3735 9.14026 14.2598 8.57562C14.254 8.54768 14.2656 8.52166 14.2906 8.50432C14.3157 8.48601 14.3485 8.48119 14.3803 8.48986C14.9083 8.63729 15.0682 9.13834 15.3139 9.50931C15.3332 9.53821 15.3698 9.55363 15.4093 9.54785C15.4488 9.54303 15.4777 9.51894 15.4854 9.48618C15.6656 8.73268 15.5018 7.93582 16.0694 7.22954C16.0935 7.19967 16.1378 7.18714 16.1792 7.20063C16.2197 7.21315 16.2438 7.24688 16.239 7.28349C16.1175 8.07072 16.5945 8.28655 16.6774 9.14508C16.6803 9.17977 16.7101 9.20771 16.7506 9.21446C16.7911 9.2212 16.8315 9.20579 16.8508 9.17495C17.0194 8.9119 17.2025 8.74135 17.2738 7.88186C17.2767 7.85199 17.2979 7.82694 17.3307 7.81538C17.3634 7.80381 17.4 7.80863 17.427 7.8279C18.0659 8.29041 18.3434 9.8215 18.3858 10.6376L18.3877 10.6386Z" fill="#FFCECD"/>
<path fill-rule="evenodd" clip-rule="evenodd" d="M12.6449 17.5656C12.6449 17.4972 12.6198 17.4345 12.5717 17.3864C12.5235 17.3372 12.4599 17.3112 12.3915 17.3112C12.3231 17.3112 12.2604 17.3363 12.2113 17.3844C12.1622 17.4326 12.1352 17.4972 12.1352 17.5666C12.1352 17.6359 12.1622 17.6986 12.2113 17.7477C12.2604 17.7959 12.3231 17.8219 12.3915 17.8219C12.4599 17.8219 12.5235 17.7949 12.5717 17.7458C12.6189 17.6976 12.6449 17.635 12.6449 17.5675V17.5656ZM12.0128 17.5656C12.0128 17.4972 11.9878 17.4345 11.9396 17.3864C11.8914 17.3372 11.8278 17.3112 11.7594 17.3112C11.691 17.3112 11.6283 17.3363 11.5792 17.3844C11.5301 17.4326 11.5031 17.4972 11.5031 17.5666C11.5031 17.6359 11.5301 17.6986 11.5792 17.7477C11.6283 17.7959 11.691 17.8219 11.7594 17.8219C11.8278 17.8219 11.8914 17.7949 11.9396 17.7458C11.9868 17.6976 12.0128 17.635 12.0128 17.5675V17.5656ZM12.3288 17.0424C12.3288 16.974 12.3038 16.9123 12.2556 16.8632C12.2074 16.814 12.1438 16.787 12.0754 16.787C12.007 16.787 11.9444 16.8121 11.8952 16.8603C11.8451 16.9084 11.8191 16.973 11.8191 17.0424C11.8191 17.1118 11.8461 17.1744 11.8952 17.2235C11.9444 17.2717 12.007 17.2977 12.0754 17.2977C12.1438 17.2977 12.2074 17.2707 12.2556 17.2216C12.3028 17.1734 12.3288 17.1108 12.3288 17.0433V17.0424Z" fill="#F46C6E"/>
<path fill-rule="evenodd" clip-rule="evenodd" d="M20.4978 17.5656C20.4978 17.4972 20.4727 17.4345 20.4246 17.3864C20.3764 17.3372 20.3128 17.3112 20.2444 17.3112C20.176 17.3112 20.1124 17.3363 20.0642 17.3844C20.0151 17.4326 19.9881 17.4972 19.9881 17.5666C19.9881 17.6359 20.0151 17.6986 20.0642 17.7477C20.1133 17.7959 20.176 17.8219 20.2444 17.8219C20.3128 17.8219 20.3764 17.7949 20.4246 17.7458C20.4718 17.6976 20.4978 17.635 20.4978 17.5675V17.5656ZM19.8657 17.5656C19.8657 17.4972 19.8407 17.4345 19.7925 17.3864C19.7443 17.3372 19.6807 17.3112 19.6123 17.3112C19.5439 17.3112 19.4803 17.3363 19.4321 17.3844C19.383 17.4326 19.356 17.4972 19.356 17.5666C19.356 17.6359 19.383 17.6986 19.4321 17.7477C19.4813 17.7959 19.5439 17.8219 19.6123 17.8219C19.6807 17.8219 19.7443 17.7949 19.7925 17.7458C19.8397 17.6976 19.8657 17.635 19.8657 17.5675V17.5656ZM20.1818 17.0424C20.1818 16.974 20.1567 16.9123 20.1085 16.8632C20.0603 16.814 19.9968 16.787 19.9283 16.787C19.8599 16.787 19.7973 16.8121 19.7482 16.8603C19.6981 16.9084 19.672 16.973 19.672 17.0424C19.672 17.1118 19.699 17.1744 19.7482 17.2235C19.7973 17.2717 19.8599 17.2977 19.9283 17.2977C19.9968 17.2977 20.0603 17.2707 20.1085 17.2216C20.1557 17.1734 20.1818 17.1108 20.1818 17.0433V17.0424Z" fill="#F46C6E"/>
<path fill-rule="evenodd" clip-rule="evenodd" d="M16.0163 20.0496C18.1805 19.5727 18.9022 18.1273 18.6391 17.3247C18.2287 16.0711 16.6215 16.5702 16.0154 17.343C15.4103 16.5712 13.8021 16.0721 13.3916 17.3247C13.1286 18.1273 13.8561 19.5717 16.0154 20.0496H16.0163Z" fill="#FF8E94"/>
<path fill-rule="evenodd" clip-rule="evenodd" d="M17.2122 17.4519C16.8798 17.4519 16.611 17.7207 16.611 18.0531C16.611 18.3856 16.8798 18.6544 17.2122 18.6544C17.5446 18.6544 17.8135 18.3846 17.8135 18.0531C17.8135 17.7217 17.5446 17.4519 17.2122 17.4519ZM14.8197 17.4519C14.4873 17.4519 14.2185 17.7207 14.2185 18.0531C14.2185 18.3856 14.4873 18.6544 14.8197 18.6544C15.1521 18.6544 15.421 18.3846 15.421 18.0531C15.421 17.7217 15.1521 17.4519 14.8197 17.4519Z" fill="#E82E2F"/>
<path fill-rule="evenodd" clip-rule="evenodd" d="M16.7323 22.3082C17.8664 22.6522 18.142 22.0866 17.8818 21.4709C17.6217 20.8552 16.8267 20.1884 15.8208 20.3319C14.8148 20.4755 14.2627 21.3774 14.1953 22.0625C14.1278 22.7476 14.546 23.2139 15.4816 22.4865C15.9229 22.1434 16.211 22.1511 16.7333 22.3092L16.7323 22.3082Z" fill="#460003"/>
<path fill-rule="evenodd" clip-rule="evenodd" d="M16.768 22.1916C16.2101 22.022 15.8805 22.0201 15.4055 22.3891C15.208 22.5423 14.7378 22.8661 14.4786 22.6695C13.9014 22.233 14.9074 21.6636 16 21.4882C17.0792 21.3157 18.1796 21.4776 17.7913 22.102C17.6043 22.4026 17.031 22.2706 16.768 22.1906V22.1916Z" fill="#CE3963"/>
<path fill-rule="evenodd" clip-rule="evenodd" d="M19.068 13.4445C18.6537 13.3481 17.932 13.2315 17.5668 12.9029C17.3278 12.6871 17.1284 12.9502 17.3326 13.2787C17.6121 13.7306 18.3145 13.8626 18.8165 13.8694C19.3224 13.8752 19.73 13.5986 19.069 13.4445H19.068Z" fill="#460003"/>
<path fill-rule="evenodd" clip-rule="evenodd" d="M18.2123 14.3107C17.6881 14.3762 17.3162 14.8532 17.3808 15.3774C17.4463 15.9015 17.9233 16.2735 18.4474 16.2089C18.9716 16.1434 19.3435 15.6664 19.279 15.1423C19.2135 14.6181 18.7365 14.2462 18.2123 14.3107Z" fill="#460003"/>
<path fill-rule="evenodd" clip-rule="evenodd" d="M18.5409 14.5786C18.3636 14.6007 18.2383 14.7617 18.2605 14.939C18.2827 15.1162 18.4436 15.2415 18.6209 15.2193C18.7982 15.1972 18.9234 15.0363 18.9013 14.859C18.8791 14.6817 18.7182 14.5564 18.5409 14.5786Z" fill="#DDF2EC"/>
<path fill-rule="evenodd" clip-rule="evenodd" d="M12.9321 13.4445C13.3464 13.3481 14.0681 13.2315 14.4333 12.903C14.6723 12.6871 14.8717 12.9502 14.6675 13.2788C14.388 13.7307 13.6856 13.8627 13.1836 13.8694C12.6777 13.8752 12.2701 13.5987 12.9311 13.4445H12.9321Z" fill="#460003"/>
<path fill-rule="evenodd" clip-rule="evenodd" d="M13.5517 14.3107C13.0275 14.3762 12.6556 14.8532 12.7201 15.3774C12.7856 15.9015 13.2626 16.2735 13.7868 16.2089C14.311 16.1434 14.6829 15.6664 14.6183 15.1423C14.5528 14.6181 14.0758 14.2462 13.5517 14.3107Z" fill="#460003"/>
<path fill-rule="evenodd" clip-rule="evenodd" d="M13.8803 14.5786C13.703 14.6007 13.5777 14.7617 13.5999 14.939C13.622 15.1162 13.7829 15.2415 13.9602 15.2193C14.1375 15.1972 14.2628 15.0363 14.2406 14.859C14.2185 14.6817 14.0575 14.5564 13.8803 14.5786Z" fill="#DDF2EC"/>
<path fill-rule="evenodd" clip-rule="evenodd" d="M12.8637 16.3419C12.8377 16.3371 12.2701 17.0115 11.9213 17.7294C10.9636 19.6999 13.4033 20.1836 13.2472 17.9953C13.1903 17.1956 12.909 16.3505 12.8637 16.3428V16.3419Z" fill="#6DCAD9"/>
<rect x="1" y="1" width="30" height="30" rx="15" stroke="#FCB00D" stroke-width="2"/>
</svg>
