<svg width="32" height="32" viewBox="0 0 32 32" fill="none" xmlns="http://www.w3.org/2000/svg">
<rect x="1" y="1" width="30" height="30" rx="15" fill="#DDF2EC"/>
<path fill-rule="evenodd" clip-rule="evenodd" d="M23.6265 7.89921C24.8579 8.66716 24.3521 12.0897 23.4724 13.5003C22.5926 14.911 21.4797 14.7607 20.2483 13.9927C19.0169 13.2248 17.9772 12.1244 18.856 10.7137C19.3493 9.92171 20.8688 9.33587 21.7871 8.97935C22.504 8.70088 23.086 7.56196 23.6256 7.89824L23.6265 7.89921Z" fill="#FEA9AC"/>
<path fill-rule="evenodd" clip-rule="evenodd" d="M23.2267 9.37729C24.0553 9.73766 23.3529 11.8199 22.8056 12.6977C22.4799 13.2209 22.1022 13.3992 21.6888 13.3568C21.6667 13.3548 20.4352 13.562 19.8822 12.4433C19.6962 12.0675 19.4437 11.4489 19.9091 11.0076C20.2252 10.7089 20.7966 10.4941 21.3766 10.285C22.1552 10.0055 22.8152 9.19807 23.2267 9.37633V9.37729Z" fill="#F46C6E"/>
<path fill-rule="evenodd" clip-rule="evenodd" d="M8.37342 7.8992C7.14199 8.66715 7.64786 12.0897 8.52758 13.5003C9.40731 14.911 10.5202 14.7607 11.7516 13.9927C12.9831 13.2248 14.0227 12.1244 13.144 10.7137C12.6506 9.9217 11.1311 9.33586 10.2128 8.97934C9.49595 8.70088 8.91397 7.56195 8.37438 7.89824L8.37342 7.8992Z" fill="#FEA9AC"/>
<path fill-rule="evenodd" clip-rule="evenodd" d="M8.7743 9.37729C7.94564 9.73766 8.64807 11.8199 9.19537 12.6977C9.52105 13.2209 9.89877 13.3992 10.3121 13.3568C10.3343 13.3548 11.5657 13.562 12.1188 12.4433C12.3048 12.0675 12.5572 11.4489 12.0918 11.0076C11.7758 10.7089 11.2044 10.494 10.6243 10.285C9.84577 10.0055 9.18574 9.19807 8.7743 9.37632V9.37729Z" fill="#F46C6E"/>
<path fill-rule="evenodd" clip-rule="evenodd" d="M18.3887 10.6386C19.9592 11.3275 22.1687 12.8432 22.2901 15.9487C22.2968 16.128 22.3026 16.3043 22.3055 16.4768C23.2922 17.3469 23.8761 18.427 23.8761 19.5977C23.8761 22.4739 20.3495 24.8048 16 24.8048C11.6505 24.8048 8.1239 22.4739 8.1239 19.5977C8.1239 18.427 8.70781 17.3469 9.69449 16.4768C9.69738 16.3043 9.70317 16.128 9.70991 15.9487C9.83132 12.8345 12.0533 11.3189 13.6248 10.6328C13.7434 9.92749 14.3745 9.14026 14.2608 8.57562C14.255 8.54768 14.2666 8.52166 14.2916 8.50432C14.3167 8.48601 14.3494 8.48119 14.3812 8.48987C14.9093 8.63729 15.0692 9.13834 15.3149 9.50931C15.3342 9.53821 15.3708 9.55363 15.4103 9.54785C15.4498 9.54303 15.4787 9.51894 15.4864 9.48618C15.6666 8.73268 15.5028 7.93582 16.0703 7.22954C16.0944 7.19967 16.1387 7.18714 16.1802 7.20063C16.2207 7.21316 16.2447 7.24688 16.2399 7.28349C16.1185 8.07072 16.5955 8.28656 16.6783 9.14508C16.6822 9.17977 16.7111 9.20771 16.7516 9.21446C16.792 9.2212 16.8325 9.20579 16.8518 9.17495C17.0204 8.9119 17.2035 8.74135 17.2748 7.88186C17.2777 7.85199 17.2989 7.82694 17.3316 7.81538C17.3644 7.80381 17.401 7.80863 17.428 7.8279C18.0668 8.29041 18.3443 9.8215 18.3867 10.6376L18.3887 10.6386Z" fill="#FFCECD"/>
<path fill-rule="evenodd" clip-rule="evenodd" d="M12.6448 17.5656C12.6448 17.4972 12.6197 17.4345 12.5715 17.3864C12.5234 17.3372 12.4598 17.3112 12.3914 17.3112C12.3229 17.3112 12.2603 17.3363 12.2112 17.3844C12.162 17.4336 12.1351 17.4972 12.1351 17.5666C12.1351 17.6359 12.162 17.6995 12.2112 17.7477C12.2603 17.7959 12.3229 17.8219 12.3914 17.8219C12.4598 17.8219 12.5234 17.7949 12.5715 17.7458C12.6188 17.6976 12.6448 17.635 12.6448 17.5675V17.5656ZM12.0117 17.5656C12.0117 17.4972 11.9867 17.4345 11.9385 17.3864C11.8903 17.3372 11.8267 17.3112 11.7583 17.3112C11.6899 17.3112 11.6263 17.3363 11.5781 17.3844C11.529 17.4336 11.502 17.4972 11.502 17.5666C11.502 17.6359 11.529 17.6995 11.5781 17.7477C11.6273 17.7959 11.6899 17.8219 11.7583 17.8219C11.8267 17.8219 11.8903 17.7949 11.9385 17.7458C11.9857 17.6976 12.0117 17.635 12.0117 17.5675V17.5656ZM12.3278 17.0424C12.3278 16.974 12.3027 16.9123 12.2545 16.8632C12.2064 16.814 12.1428 16.787 12.0743 16.787C12.0059 16.787 11.9433 16.8121 11.8942 16.8603C11.8441 16.9084 11.818 16.973 11.818 17.0424C11.818 17.1118 11.845 17.1744 11.8942 17.2235C11.9433 17.2717 12.0059 17.2977 12.0743 17.2977C12.1428 17.2977 12.2064 17.2707 12.2545 17.2216C12.3017 17.1734 12.3278 17.1108 12.3278 17.0433V17.0424Z" fill="#F46C6E"/>
<path fill-rule="evenodd" clip-rule="evenodd" d="M20.4979 17.5656C20.4979 17.4972 20.4729 17.4345 20.4247 17.3864C20.3765 17.3372 20.3129 17.3112 20.2445 17.3112C20.1761 17.3112 20.1135 17.3363 20.0643 17.3844C20.0142 17.4336 19.9882 17.4972 19.9882 17.5666C19.9882 17.6359 20.0152 17.6995 20.0643 17.7477C20.1135 17.7959 20.1761 17.8219 20.2445 17.8219C20.3129 17.8219 20.3765 17.7949 20.4247 17.7458C20.4719 17.6976 20.4979 17.635 20.4979 17.5675V17.5656ZM19.8658 17.5656C19.8658 17.4972 19.8408 17.4345 19.7926 17.3864C19.7444 17.3372 19.6808 17.3112 19.6124 17.3112C19.544 17.3112 19.4814 17.3363 19.4322 17.3844C19.3831 17.4336 19.3561 17.4972 19.3561 17.5666C19.3561 17.6359 19.3831 17.6995 19.4322 17.7477C19.4814 17.7959 19.544 17.8219 19.6124 17.8219C19.6808 17.8219 19.7444 17.7949 19.7926 17.7458C19.8398 17.6976 19.8658 17.635 19.8658 17.5675V17.5656ZM20.1819 17.0424C20.1819 16.974 20.1568 16.9123 20.1086 16.8632C20.0605 16.814 19.9969 16.787 19.9285 16.787C19.86 16.787 19.7974 16.8121 19.7483 16.8603C19.6982 16.9084 19.6722 16.973 19.6722 17.0424C19.6722 17.1118 19.6991 17.1744 19.7483 17.2235C19.7974 17.2717 19.86 17.2977 19.9285 17.2977C19.9969 17.2977 20.0605 17.2707 20.1086 17.2216C20.1559 17.1734 20.1819 17.1108 20.1819 17.0433V17.0424Z" fill="#F46C6E"/>
<path fill-rule="evenodd" clip-rule="evenodd" d="M16.0173 20.0496C18.1815 19.5727 18.9032 18.1273 18.6401 17.3247C18.2296 16.0711 16.6224 16.5702 16.0164 17.343C15.4112 16.5712 13.8031 16.0721 13.3926 17.3247C13.1295 18.1273 13.857 19.5717 16.0164 20.0496H16.0173Z" fill="#FF8E94"/>
<path fill-rule="evenodd" clip-rule="evenodd" d="M17.2122 17.4519C16.8798 17.4519 16.611 17.7207 16.611 18.0531C16.611 18.3856 16.8798 18.6544 17.2122 18.6544C17.5446 18.6544 17.8135 18.3856 17.8135 18.0531C17.8135 17.7207 17.5446 17.4519 17.2122 17.4519ZM14.8197 17.4519C14.4873 17.4519 14.2185 17.7207 14.2185 18.0531C14.2185 18.3856 14.4873 18.6544 14.8197 18.6544C15.1521 18.6544 15.421 18.3856 15.421 18.0531C15.421 17.7207 15.1521 17.4519 14.8197 17.4519Z" fill="#E82E2F"/>
<path fill-rule="evenodd" clip-rule="evenodd" d="M13.563 14.3165C13.0389 14.382 12.6669 14.859 12.7315 15.3831C12.797 15.9073 13.274 16.2792 13.7981 16.2147C14.3223 16.1492 14.6942 15.6722 14.6297 15.148C14.5642 14.6239 14.0872 14.2519 13.563 14.3165Z" fill="#460003"/>
<path fill-rule="evenodd" clip-rule="evenodd" d="M13.8916 14.5853C13.7143 14.6075 13.589 14.7684 13.6112 14.9457C13.6334 15.123 13.7943 15.2482 13.9716 15.2261C14.1489 15.2039 14.2741 15.043 14.252 14.8657C14.2298 14.6884 14.0689 14.5631 13.8916 14.5853Z" fill="#DDF2EC"/>
<path fill-rule="evenodd" clip-rule="evenodd" d="M12.9512 13.8607C13.3694 13.7836 14.0776 13.6025 14.544 13.7586C14.8494 13.8607 14.9275 13.5408 14.6095 13.3202C14.173 13.0176 13.4764 13.1756 13.0139 13.3703C12.5475 13.5659 12.2844 13.9831 12.9522 13.8598L12.9512 13.8607Z" fill="#460003"/>
<path fill-rule="evenodd" clip-rule="evenodd" d="M18.4435 13.8607C18.0253 13.7836 17.3171 13.6025 16.8507 13.7586C16.5453 13.8607 16.4682 13.5408 16.7852 13.3202C17.2217 13.0176 17.9184 13.1756 18.3809 13.3703C18.8472 13.5659 19.1103 13.9831 18.4425 13.8598L18.4435 13.8607Z" fill="#460003"/>
<path fill-rule="evenodd" clip-rule="evenodd" d="M18.8742 14.6981C18.7345 14.7588 18.5572 14.8291 18.3732 14.912C18.3587 14.9187 18.351 14.9332 18.3529 14.9486C18.3549 14.964 18.3664 14.9756 18.3818 14.9775C18.59 15.0064 18.7923 15.0613 18.9648 15.123C19.4408 15.2926 19.7279 15.6944 19.0534 15.6086C18.6314 15.5547 17.9145 15.414 17.4578 15.5961C17.3239 15.65 17.2304 15.6154 17.1957 15.5402C17.1957 15.5392 17.1947 15.5383 17.1938 15.5363C17.1475 15.4593 17.1369 15.3301 17.1967 15.176C17.3894 14.6807 18.0552 14.4234 18.5485 14.3261C19.0448 14.2278 19.4957 14.4273 18.8732 14.6981H18.8742Z" fill="#460003"/>
<path fill-rule="evenodd" clip-rule="evenodd" d="M17.0782 20.173C20.8775 18.7941 19.5632 23.0511 15.9721 23.0492C12.3809 23.0472 11.2092 18.5465 14.8447 20.173C15.6271 20.5227 16.1069 20.5256 17.0782 20.173Z" fill="#460003"/>
<path fill-rule="evenodd" clip-rule="evenodd" d="M15.9172 21.4343C15.4238 21.4343 14.9873 21.2425 14.6751 21.4227C14.362 21.6038 14.1731 21.9054 14.1731 22.3911C14.1731 23.3614 14.7069 24.5003 15.9239 24.5273C17.1409 24.5542 17.8289 23.5358 17.8289 22.3911C17.8289 21.9064 17.5976 21.6038 17.243 21.4227C16.8884 21.2415 16.4105 21.4343 15.9181 21.4343H15.9172Z" fill="#CE3963"/>
<path fill-rule="evenodd" clip-rule="evenodd" d="M18.619 20.0342C18.3666 20.5343 17.3943 21.123 15.9779 21.1221C14.5278 21.1221 13.5738 20.4688 13.3619 19.9446C13.835 19.8935 14.4603 20.1354 14.7812 20.279C15.6734 20.6779 16.214 20.6162 17.1322 20.2828C17.4801 20.1566 18.1305 19.9591 18.619 20.0332V20.0342Z" fill="#DDF2EC"/>
<rect x="1" y="1" width="30" height="30" rx="15" stroke="#FCB00D" stroke-width="2"/>
</svg>
