<svg width="32" height="32" viewBox="0 0 32 32" fill="none" xmlns="http://www.w3.org/2000/svg">
<rect x="1" y="1" width="30" height="30" rx="15" fill="#DDF2EC"/>
<path fill-rule="evenodd" clip-rule="evenodd" d="M23.6265 7.90017C24.858 8.66812 24.3521 12.0907 23.4724 13.5013C22.5926 14.912 21.4797 14.7616 20.2483 13.9937C19.0169 13.2257 17.9772 12.1254 18.856 10.7147C19.3493 9.92267 20.8688 9.33683 21.7871 8.98031C22.504 8.70185 23.086 7.56292 23.6256 7.8992L23.6265 7.90017Z" fill="#FEA9AC"/>
<path fill-rule="evenodd" clip-rule="evenodd" d="M23.2265 9.37728C24.0552 9.73765 23.3528 11.8199 22.8055 12.6977C22.4798 13.2209 22.1021 13.3992 21.6887 13.3568C21.6665 13.3548 20.4351 13.562 19.882 12.4433C19.6961 12.0666 19.4436 11.4489 19.91 11.0076C20.2251 10.7089 20.7974 10.494 21.3775 10.285C22.156 10.0055 22.8161 9.19807 23.2275 9.37632L23.2265 9.37728Z" fill="#F46C6E"/>
<path fill-rule="evenodd" clip-rule="evenodd" d="M8.37342 7.90017C7.14199 8.66812 7.64786 12.0907 8.52759 13.5013C9.40731 14.912 10.5202 14.7616 11.7516 13.9937C12.9831 13.2257 14.0227 12.1254 13.144 10.7147C12.6506 9.92267 11.1311 9.33683 10.2128 8.98031C9.49596 8.70185 8.91397 7.56292 8.37438 7.8992L8.37342 7.90017Z" fill="#FEA9AC"/>
<path fill-rule="evenodd" clip-rule="evenodd" d="M8.77424 9.37728C7.94559 9.73765 8.64802 11.8199 9.19532 12.6977C9.521 13.2209 9.89871 13.3992 10.3121 13.3568C10.3342 13.3548 11.5657 13.562 12.1187 12.4433C12.3047 12.0666 12.5572 11.4489 12.0908 11.0076C11.7757 10.7089 11.2034 10.494 10.6233 10.285C9.84572 10.0055 9.18472 9.19807 8.77328 9.37632L8.77424 9.37728Z" fill="#F46C6E"/>
<path fill-rule="evenodd" clip-rule="evenodd" d="M18.3887 10.6386C19.9602 11.3275 22.1687 12.8432 22.2901 15.9487C22.2968 16.128 22.3026 16.3043 22.3055 16.4768C23.2922 17.3469 23.8761 18.427 23.8761 19.5977C23.8761 22.4739 20.3495 24.8048 16 24.8048C11.6505 24.8048 8.1239 22.4739 8.1239 19.5977C8.1239 18.427 8.70782 17.3469 9.6945 16.4768C9.69835 16.3043 9.70317 16.128 9.70992 15.9487C9.83132 12.8345 12.0533 11.3189 13.6248 10.6328C13.7434 9.92749 14.3745 9.14026 14.2608 8.57659C14.255 8.54864 14.2666 8.52263 14.2916 8.50432C14.3167 8.48601 14.3494 8.48119 14.3812 8.48987C14.9093 8.63729 15.0692 9.13834 15.3149 9.50931C15.3342 9.53821 15.3708 9.55363 15.4103 9.54785C15.4498 9.54303 15.4787 9.51894 15.4864 9.48618C15.6666 8.73268 15.5028 7.93582 16.0703 7.22953C16.0944 7.19966 16.1388 7.18714 16.1802 7.20063C16.2207 7.21316 16.2447 7.24688 16.2399 7.2835C16.1185 8.07072 16.5955 8.28655 16.6783 9.14508C16.6812 9.17977 16.7111 9.20771 16.7516 9.21446C16.792 9.2212 16.8325 9.20579 16.8518 9.17495C17.0204 8.9119 17.2035 8.74135 17.2748 7.88186C17.2777 7.85199 17.2989 7.82694 17.3316 7.81538C17.3654 7.80381 17.401 7.80863 17.428 7.8279C18.0668 8.29041 18.3443 9.8215 18.3867 10.6376L18.3887 10.6386Z" fill="#FFCECD"/>
<path fill-rule="evenodd" clip-rule="evenodd" d="M12.6449 17.5665C12.6449 17.4981 12.6198 17.4355 12.5717 17.3864C12.5235 17.3372 12.4599 17.3112 12.3915 17.3112C12.3231 17.3112 12.2604 17.3363 12.2113 17.3844C12.1622 17.4326 12.1352 17.4972 12.1352 17.5665C12.1352 17.6359 12.1622 17.6986 12.2113 17.7477C12.2604 17.7959 12.3231 17.8219 12.3915 17.8219C12.4599 17.8219 12.5235 17.7949 12.5717 17.7458C12.6189 17.6976 12.6449 17.635 12.6449 17.5675V17.5665ZM12.0128 17.5665C12.0128 17.4981 11.9878 17.4355 11.9396 17.3864C11.8914 17.3372 11.8278 17.3112 11.7594 17.3112C11.691 17.3112 11.6283 17.3363 11.5792 17.3844C11.5291 17.4326 11.5031 17.4972 11.5031 17.5665C11.5031 17.6359 11.5301 17.6986 11.5792 17.7477C11.6283 17.7959 11.691 17.8219 11.7594 17.8219C11.8278 17.8219 11.8914 17.7949 11.9396 17.7458C11.9868 17.6976 12.0128 17.635 12.0128 17.5675V17.5665ZM12.3289 17.0433C12.3289 16.9749 12.3038 16.9133 12.2556 16.8641C12.2074 16.815 12.1438 16.788 12.0754 16.788C12.007 16.788 11.9444 16.813 11.8953 16.8612C11.8451 16.9094 11.8191 16.974 11.8191 17.0433C11.8191 17.1127 11.8461 17.1753 11.8953 17.2245C11.9444 17.2727 12.007 17.2987 12.0754 17.2987C12.1438 17.2987 12.2074 17.2717 12.2556 17.2226C12.3028 17.1744 12.3289 17.1117 12.3289 17.0443V17.0433Z" fill="#F46C6E"/>
<path fill-rule="evenodd" clip-rule="evenodd" d="M20.4978 17.5665C20.4978 17.4981 20.4727 17.4355 20.4246 17.3864C20.3764 17.3372 20.3128 17.3112 20.2444 17.3112C20.176 17.3112 20.1133 17.3363 20.0642 17.3844C20.0151 17.4326 19.9881 17.4972 19.9881 17.5665C19.9881 17.6359 20.0151 17.6986 20.0642 17.7477C20.1133 17.7959 20.176 17.8219 20.2444 17.8219C20.3128 17.8219 20.3764 17.7949 20.4246 17.7458C20.4718 17.6976 20.4978 17.635 20.4978 17.5675V17.5665ZM19.8657 17.5665C19.8657 17.4981 19.8407 17.4355 19.7925 17.3864C19.7443 17.3372 19.6807 17.3112 19.6123 17.3112C19.5439 17.3112 19.4813 17.3363 19.4321 17.3844C19.382 17.4326 19.356 17.4972 19.356 17.5665C19.356 17.6359 19.383 17.6986 19.4321 17.7477C19.4813 17.7959 19.5439 17.8219 19.6123 17.8219C19.6807 17.8219 19.7443 17.7949 19.7925 17.7458C19.8397 17.6976 19.8657 17.635 19.8657 17.5675V17.5665ZM20.1818 17.0433C20.1818 16.9749 20.1567 16.9133 20.1085 16.8641C20.0603 16.815 19.9968 16.788 19.9283 16.788C19.8599 16.788 19.7973 16.813 19.7482 16.8612C19.6981 16.9094 19.672 16.974 19.672 17.0433C19.672 17.1127 19.699 17.1753 19.7482 17.2245C19.7973 17.2727 19.8599 17.2987 19.9283 17.2987C19.9968 17.2987 20.0603 17.2717 20.1085 17.2226C20.1557 17.1744 20.1818 17.1117 20.1818 17.0443V17.0433Z" fill="#F46C6E"/>
<path fill-rule="evenodd" clip-rule="evenodd" d="M19.4784 20.0072C19.3012 19.7981 18.9841 19.7702 18.7722 19.9456C17.4646 21.0238 14.5605 21.1067 13.2847 19.9514C13.0814 19.7664 12.7634 19.7789 12.5765 19.9803C11.8182 20.7935 13.9823 22.8738 15.9191 22.8989C18.1035 22.9268 20.2185 20.8793 19.4784 20.0072Z" fill="#460003"/>
<path fill-rule="evenodd" clip-rule="evenodd" d="M19.3803 20.8812C19.3668 20.9082 19.3523 20.9351 19.3388 20.9602C19.1557 21.2868 18.8638 21.5827 18.5709 21.8149C17.8424 22.394 16.8634 22.7871 15.9211 22.7746C15.4326 22.7678 14.9402 22.6262 14.4998 22.4219C13.942 22.1637 13.3802 21.7638 12.9842 21.2955C12.8724 21.1635 12.7317 20.9718 12.6412 20.7685C12.6373 20.7588 12.6344 20.7501 12.6344 20.7395C12.6344 20.7386 12.6344 20.7376 12.6344 20.7357L13.0902 20.0766C13.1046 20.0554 13.1258 20.0429 13.1509 20.04C13.1769 20.0371 13.2 20.0439 13.2193 20.0612C14.5471 21.2387 17.4801 21.1539 18.8358 20.0583C18.8561 20.0419 18.8802 20.0352 18.9062 20.04C18.9322 20.0448 18.9524 20.0593 18.9659 20.0814C19.0931 20.2982 19.2473 20.5632 19.3812 20.8031C19.3947 20.8282 19.3957 20.8561 19.3831 20.8812H19.3803Z" fill="#DDF2EC"/>
<path fill-rule="evenodd" clip-rule="evenodd" d="M17.2949 12.7401C18.0398 12.6794 20.0237 12.6967 20.7204 12.7584C21.4845 12.8259 22.1397 12.9473 22.4596 13.0292C22.5637 13.0562 22.6359 13.1448 22.6388 13.2527L22.687 14.6335C22.6899 14.7241 22.6465 14.8021 22.5685 14.8484C22.0934 15.1259 22.6668 16.7206 21.2686 17.1551C20.7927 17.3025 18.8077 17.3218 17.8615 17.1089C16.9298 16.8998 16.6821 16.3939 16.4952 15.7474C16.2167 14.7838 15.7831 14.7838 15.5047 15.7474C15.3177 16.3939 15.0701 16.8998 14.1383 17.1089C13.1921 17.3208 11.2062 17.3025 10.7312 17.1551C9.33405 16.7206 9.90641 15.1259 9.43138 14.8484C9.35333 14.8031 9.30997 14.7241 9.31286 14.6335L9.36104 13.2527C9.36489 13.1448 9.43619 13.0562 9.54026 13.0292C9.85919 12.9473 10.5154 12.8259 11.2795 12.7584C11.9771 12.6967 13.9601 12.6794 14.7049 12.7401C16.7804 12.9087 15.2185 12.9087 17.2949 12.7401Z" fill="black"/>
<path fill-rule="evenodd" clip-rule="evenodd" d="M12.5245 13.1959C11.9522 13.1882 11.0301 13.2392 10.477 13.3587C10.1455 13.431 9.94318 13.6699 9.948 14.4109C9.95378 15.1972 9.98943 16.6107 10.8942 16.8921C11.4743 17.0722 13.6837 16.9364 14.3187 16.7938C15.1984 16.5962 15.3054 15.2829 15.4904 14.487C15.6465 13.8174 15.7419 13.4772 15.0134 13.3144C14.3428 13.1641 12.8444 13.1997 12.5236 13.1959H12.5245ZM19.4766 13.1959C20.0489 13.1882 20.9711 13.2392 21.5241 13.3587C21.8556 13.431 22.058 13.6699 22.0531 14.4109C22.0474 15.1972 22.0117 16.6107 21.1069 16.8921C20.5269 17.0722 18.3174 16.9364 17.6825 16.7938C16.8027 16.5962 16.6958 15.2829 16.5108 14.487C16.3547 13.8174 16.2593 13.4772 16.9877 13.3144C17.6584 13.1641 19.1567 13.1997 19.4776 13.1959H19.4766Z" fill="#333333"/>
<path fill-rule="evenodd" clip-rule="evenodd" d="M16.0173 20.0496C18.1815 19.5727 18.9032 18.1273 18.6401 17.3247C18.2296 16.0711 16.6224 16.5702 16.0164 17.343C15.4112 16.5712 13.8031 16.0721 13.3926 17.3247C13.1295 18.1273 13.857 19.5717 16.0164 20.0496H16.0173Z" fill="#FF8E94"/>
<path fill-rule="evenodd" clip-rule="evenodd" d="M17.2122 17.4529C16.8798 17.4529 16.611 17.7217 16.611 18.0541C16.611 18.3865 16.8798 18.6554 17.2122 18.6554C17.5446 18.6554 17.8135 18.3856 17.8135 18.0541C17.8135 17.7227 17.5446 17.4529 17.2122 17.4529ZM14.8197 17.4529C14.4873 17.4529 14.2185 17.7217 14.2185 18.0541C14.2185 18.3865 14.4873 18.6554 14.8197 18.6554C15.1521 18.6554 15.421 18.3856 15.421 18.0541C15.421 17.7227 15.1521 17.4529 14.8197 17.4529Z" fill="#E82E2F"/>
<rect x="1" y="1" width="30" height="30" rx="15" stroke="#FCB00D" stroke-width="2"/>
</svg>
