<svg width="32" height="32" viewBox="0 0 32 32" fill="none" xmlns="http://www.w3.org/2000/svg">
<rect x="1" y="1" width="30" height="30" rx="15" fill="#DDF2EC"/>
<path fill-rule="evenodd" clip-rule="evenodd" d="M23.6265 7.90017C24.858 8.66812 24.3521 12.0907 23.4724 13.5013C22.5926 14.912 21.4797 14.7616 20.2483 13.9937C19.0169 13.2257 17.9772 12.1254 18.856 10.7147C19.3493 9.92267 20.8688 9.33683 21.7871 8.98031C22.504 8.70185 23.086 7.56292 23.6256 7.8992L23.6265 7.90017Z" fill="#FEA9AC"/>
<path fill-rule="evenodd" clip-rule="evenodd" d="M23.2257 9.3773C24.0543 9.73767 23.3519 11.8199 22.8046 12.6977C22.4789 13.2209 22.1012 13.3992 21.6878 13.3568C21.6657 13.3549 20.4343 13.562 19.8812 12.4433C19.6952 12.0666 19.4428 11.4489 19.9091 11.0076C20.2252 10.7089 20.7966 10.4941 21.3766 10.285C22.1542 10.0055 22.8152 9.19808 23.2266 9.37634L23.2257 9.3773Z" fill="#F46C6E"/>
<path fill-rule="evenodd" clip-rule="evenodd" d="M8.37342 7.90017C7.14199 8.66812 7.64786 12.0907 8.52759 13.5013C9.40731 14.912 10.5202 14.7616 11.7516 13.9937C12.9831 13.2257 14.0227 12.1254 13.144 10.7147C12.6506 9.92267 11.1311 9.33683 10.2128 8.98031C9.49596 8.70185 8.91397 7.56292 8.37438 7.8992L8.37342 7.90017Z" fill="#FEA9AC"/>
<path fill-rule="evenodd" clip-rule="evenodd" d="M8.77327 9.3773C7.94461 9.73767 8.64704 11.8199 9.19434 12.6977C9.52002 13.2209 9.89773 13.3992 10.3111 13.3568C10.3333 13.3549 11.5647 13.562 12.1178 12.4433C12.3037 12.0666 12.5562 11.4489 12.0898 11.0076C11.7738 10.7089 11.2024 10.4941 10.6223 10.285C9.84378 10.0055 9.18374 9.19808 8.7723 9.37634L8.77327 9.3773Z" fill="#F46C6E"/>
<path fill-rule="evenodd" clip-rule="evenodd" d="M18.3877 10.6386C19.9583 11.3275 22.1677 12.8432 22.2891 15.9487C22.2959 16.128 22.3016 16.3043 22.3045 16.4768C23.2912 17.3469 23.8751 18.427 23.8751 19.5977C23.8751 22.4739 20.3485 24.8048 15.999 24.8048C11.6495 24.8048 8.12293 22.4739 8.12293 19.5977C8.12293 18.427 8.70684 17.3469 9.69352 16.4768C9.69738 16.3043 9.70219 16.128 9.70894 15.9487C9.83035 12.8345 12.0523 11.3189 13.6239 10.6328C13.7424 9.92749 14.3735 9.14026 14.2598 8.57659C14.254 8.54864 14.2656 8.52263 14.2906 8.50432C14.3157 8.48601 14.3485 8.48119 14.3803 8.48987C14.9083 8.63729 15.0682 9.13834 15.3139 9.50931C15.3332 9.53821 15.3698 9.55363 15.4093 9.54785C15.4488 9.54303 15.4777 9.51894 15.4854 9.48618C15.6656 8.73268 15.5018 7.93582 16.0694 7.22953C16.0935 7.19966 16.1378 7.18714 16.1792 7.20063C16.2197 7.21316 16.2438 7.24688 16.239 7.2835C16.1175 8.07072 16.5945 8.28655 16.6774 9.14508C16.6803 9.17977 16.7101 9.20771 16.7506 9.21446C16.7911 9.2212 16.8315 9.20579 16.8508 9.17495C17.0194 8.9119 17.2025 8.74135 17.2738 7.88186C17.2767 7.85199 17.2979 7.82694 17.3307 7.81538C17.3634 7.80381 17.4 7.80863 17.427 7.8279C18.0659 8.29041 18.3434 9.8215 18.3858 10.6376L18.3877 10.6386Z" fill="#FFCECD"/>
<path fill-rule="evenodd" clip-rule="evenodd" d="M12.6449 17.5665C12.6449 17.4981 12.6198 17.4355 12.5717 17.3864C12.5235 17.3372 12.4599 17.3112 12.3915 17.3112C12.3231 17.3112 12.2604 17.3363 12.2113 17.3844C12.1622 17.4326 12.1352 17.4972 12.1352 17.5665C12.1352 17.6359 12.1622 17.6986 12.2113 17.7477C12.2604 17.7959 12.3231 17.8219 12.3915 17.8219C12.4599 17.8219 12.5235 17.7949 12.5717 17.7458C12.6189 17.6976 12.6449 17.635 12.6449 17.5675V17.5665ZM12.0128 17.5665C12.0128 17.4981 11.9878 17.4355 11.9396 17.3864C11.8914 17.3372 11.8278 17.3112 11.7594 17.3112C11.691 17.3112 11.6283 17.3363 11.5792 17.3844C11.5301 17.4326 11.5031 17.4972 11.5031 17.5665C11.5031 17.6359 11.5301 17.6986 11.5792 17.7477C11.6283 17.7959 11.691 17.8219 11.7594 17.8219C11.8278 17.8219 11.8914 17.7949 11.9396 17.7458C11.9868 17.6976 12.0128 17.635 12.0128 17.5675V17.5665ZM12.3288 17.0433C12.3288 16.9749 12.3038 16.9133 12.2556 16.8641C12.2074 16.815 12.1438 16.788 12.0754 16.788C12.007 16.788 11.9444 16.813 11.8952 16.8612C11.8451 16.9094 11.8191 16.974 11.8191 17.0433C11.8191 17.1127 11.8461 17.1753 11.8952 17.2245C11.9444 17.2727 12.007 17.2987 12.0754 17.2987C12.1438 17.2987 12.2074 17.2717 12.2556 17.2226C12.3028 17.1744 12.3288 17.1117 12.3288 17.0443V17.0433Z" fill="#F46C6E"/>
<path fill-rule="evenodd" clip-rule="evenodd" d="M20.4978 17.5665C20.4978 17.4981 20.4727 17.4355 20.4246 17.3864C20.3764 17.3372 20.3128 17.3112 20.2444 17.3112C20.176 17.3112 20.1124 17.3363 20.0642 17.3844C20.0151 17.4326 19.9881 17.4972 19.9881 17.5665C19.9881 17.6359 20.0151 17.6986 20.0642 17.7477C20.1133 17.7959 20.176 17.8219 20.2444 17.8219C20.3128 17.8219 20.3764 17.7949 20.4246 17.7458C20.4718 17.6976 20.4978 17.635 20.4978 17.5675V17.5665ZM19.8657 17.5665C19.8657 17.4981 19.8407 17.4355 19.7925 17.3864C19.7443 17.3372 19.6807 17.3112 19.6123 17.3112C19.5439 17.3112 19.4803 17.3363 19.4321 17.3844C19.383 17.4326 19.356 17.4972 19.356 17.5665C19.356 17.6359 19.383 17.6986 19.4321 17.7477C19.4813 17.7959 19.5439 17.8219 19.6123 17.8219C19.6807 17.8219 19.7443 17.7949 19.7925 17.7458C19.8397 17.6976 19.8657 17.635 19.8657 17.5675V17.5665ZM20.1818 17.0433C20.1818 16.9749 20.1567 16.9133 20.1085 16.8641C20.0603 16.815 19.9968 16.788 19.9283 16.788C19.8599 16.788 19.7973 16.813 19.7482 16.8612C19.6981 16.9094 19.672 16.974 19.672 17.0433C19.672 17.1127 19.699 17.1753 19.7482 17.2245C19.7973 17.2727 19.8599 17.2987 19.9283 17.2987C19.9968 17.2987 20.0603 17.2717 20.1085 17.2226C20.1557 17.1744 20.1818 17.1117 20.1818 17.0443V17.0433Z" fill="#F46C6E"/>
<path fill-rule="evenodd" clip-rule="evenodd" d="M16.0163 20.0496C18.1805 19.5727 18.9022 18.1273 18.6391 17.3247C18.2287 16.0711 16.6215 16.5702 16.0154 17.343C15.4103 16.5712 13.8021 16.0721 13.3916 17.3247C13.1286 18.1273 13.8561 19.5717 16.0154 20.0496H16.0163Z" fill="#FF8E94"/>
<path fill-rule="evenodd" clip-rule="evenodd" d="M17.2122 17.4529C16.8798 17.4529 16.611 17.7217 16.611 18.0541C16.611 18.3865 16.8798 18.6554 17.2122 18.6554C17.5446 18.6554 17.8135 18.3856 17.8135 18.0541C17.8135 17.7227 17.5446 17.4529 17.2122 17.4529ZM14.8197 17.4529C14.4873 17.4529 14.2185 17.7217 14.2185 18.0541C14.2185 18.3865 14.4873 18.6554 14.8197 18.6554C15.1521 18.6554 15.421 18.3856 15.421 18.0541C15.421 17.7227 15.1521 17.4529 14.8197 17.4529Z" fill="#E82E2F"/>
<path fill-rule="evenodd" clip-rule="evenodd" d="M14.2511 23.239C13.3936 23.239 12.694 22.5395 12.694 21.6819C12.694 20.8243 13.3936 20.1248 14.2511 20.1248C15.1087 20.1248 15.8082 20.8243 15.8082 21.6819C15.8082 22.5395 15.1087 23.239 14.2511 23.239Z" fill="#460003"/>
<path fill-rule="evenodd" clip-rule="evenodd" d="M12.9205 22.2735C13.147 22.7832 13.6576 23.1388 14.2522 23.1388C14.5239 23.1388 14.7783 23.0646 14.9951 22.9345C15.024 22.9172 15.0365 22.8815 15.024 22.8497C14.8264 22.3573 14.3003 22.0047 13.6817 22.0047C13.4148 22.0047 13.1653 22.0702 12.9514 22.1839C12.9196 22.2012 12.9061 22.2398 12.9205 22.2725V22.2735Z" fill="#CE3963"/>
<path fill-rule="evenodd" clip-rule="evenodd" d="M12.9351 13.88C13.3561 13.8164 14.0701 13.6593 14.5297 13.8308C14.8313 13.9436 14.92 13.6256 14.6097 13.3944C14.1838 13.0773 13.4824 13.2122 13.0131 13.3915C12.541 13.5717 12.2635 13.9802 12.9351 13.879V13.88Z" fill="#460003"/>
<path fill-rule="evenodd" clip-rule="evenodd" d="M18.2124 14.2693C17.6883 14.3348 17.3163 14.8117 17.3809 15.3359C17.4464 15.8601 17.9234 16.232 18.4476 16.1675C18.9717 16.1019 19.3437 15.625 19.2791 15.1008C19.2136 14.5766 18.7366 14.2047 18.2124 14.2693Z" fill="#460003"/>
<path fill-rule="evenodd" clip-rule="evenodd" d="M18.5409 14.5371C18.3636 14.5593 18.2383 14.7202 18.2605 14.8975C18.2827 15.0748 18.4436 15.2001 18.6209 15.1779C18.7982 15.1557 18.9234 14.9948 18.9013 14.8175C18.8791 14.6402 18.7182 14.515 18.5409 14.5371Z" fill="#DDF2EC"/>
<path fill-rule="evenodd" clip-rule="evenodd" d="M13.5517 14.2693C13.0275 14.3348 12.6556 14.8117 12.7201 15.3359C12.7856 15.8601 13.2626 16.232 13.7868 16.1675C14.311 16.1019 14.6829 15.625 14.6183 15.1008C14.5528 14.5766 14.0758 14.2047 13.5517 14.2693Z" fill="#460003"/>
<path fill-rule="evenodd" clip-rule="evenodd" d="M13.8803 14.5371C13.703 14.5593 13.5777 14.7202 13.5999 14.8975C13.622 15.0748 13.7829 15.2001 13.9602 15.1779C14.1375 15.1557 14.2628 14.9948 14.2406 14.8175C14.2185 14.6402 14.0575 14.515 13.8803 14.5371Z" fill="#DDF2EC"/>
<path fill-rule="evenodd" clip-rule="evenodd" d="M19.5112 13.6584C19.1479 13.4368 18.5515 13.0147 18.06 12.9945C17.7382 12.981 17.7796 12.6544 18.1554 12.5619C18.6709 12.4347 19.2654 12.8316 19.6287 13.1785C19.9939 13.5283 20.0912 14.012 19.5112 13.6584Z" fill="#460003"/>
<rect x="1" y="1" width="30" height="30" rx="15" stroke="#FCB00D" stroke-width="2"/>
</svg>
