<svg width="32" height="32" viewBox="0 0 32 32" fill="none" xmlns="http://www.w3.org/2000/svg">
<rect x="1" y="1" width="30" height="30" rx="15" fill="#DDF2EC"/>
<path fill-rule="evenodd" clip-rule="evenodd" d="M23.6265 7.89921C24.858 8.66716 24.3521 12.0897 23.4724 13.5004C22.5926 14.911 21.4797 14.7607 20.2483 13.9937C19.0169 13.2257 17.9772 12.1254 18.856 10.7147C19.3493 9.92268 20.8688 9.33684 21.7871 8.98032C22.504 8.70186 23.086 7.56293 23.6256 7.89921H23.6265Z" fill="#FEA9AC"/>
<path fill-rule="evenodd" clip-rule="evenodd" d="M23.2257 9.37634C24.0543 9.73671 23.3519 11.8189 22.8046 12.6967C22.4789 13.22 22.1012 13.3982 21.6878 13.3558C21.6657 13.3539 20.4343 13.562 19.8812 12.4424C19.6952 12.0656 19.4428 11.448 19.9082 11.0067C20.2242 10.708 20.7956 10.4931 21.3757 10.284C22.1532 10.0036 22.8142 9.19615 23.2257 9.37537V9.37634Z" fill="#F46C6E"/>
<path fill-rule="evenodd" clip-rule="evenodd" d="M8.37342 7.8992C7.14199 8.66716 7.64786 12.0897 8.52759 13.5003C9.40731 14.911 10.5202 14.7607 11.7516 13.9937C12.9831 13.2257 14.0227 12.1254 13.144 10.7147C12.6506 9.92267 11.1311 9.33683 10.2128 8.98032C9.49596 8.70185 8.91397 7.56292 8.37438 7.8992H8.37342Z" fill="#FEA9AC"/>
<path fill-rule="evenodd" clip-rule="evenodd" d="M8.77327 9.37634C7.94461 9.73671 8.64704 11.8189 9.19434 12.6967C9.52002 13.22 9.89774 13.3982 10.3111 13.3558C10.3333 13.3539 11.5647 13.562 12.1178 12.4424C12.3037 12.0656 12.5562 11.448 12.0898 11.0067C11.7747 10.708 11.2024 10.4931 10.6223 10.284C9.84474 10.0036 9.18374 9.19615 8.7723 9.37537L8.77327 9.37634Z" fill="#F46C6E"/>
<path fill-rule="evenodd" clip-rule="evenodd" d="M18.3877 10.6386C19.9583 11.3275 22.1677 12.8432 22.2891 15.9487C22.2959 16.128 22.3016 16.3043 22.3045 16.4768C23.2912 17.3469 23.8751 18.427 23.8751 19.5977C23.8751 22.4739 20.3485 24.8048 15.999 24.8048C11.6495 24.8048 8.12293 22.473 8.12293 19.5977C8.12293 18.427 8.70684 17.3469 9.69352 16.4768C9.69738 16.3043 9.7022 16.128 9.70894 15.9487C9.83035 12.8345 12.0523 11.3189 13.6239 10.6328C13.7424 9.92749 14.3735 9.14027 14.2598 8.57562C14.254 8.54768 14.2656 8.52167 14.2906 8.50432C14.3157 8.48601 14.3485 8.48119 14.3803 8.48987C14.9083 8.63729 15.0682 9.13834 15.3139 9.50931C15.3332 9.53821 15.3698 9.55363 15.4093 9.54785C15.4488 9.54303 15.4777 9.51894 15.4855 9.48618C15.6656 8.73268 15.5018 7.93582 16.0694 7.22953C16.0935 7.19966 16.1378 7.18714 16.1792 7.20063C16.2197 7.21316 16.2438 7.24688 16.239 7.28349C16.1175 8.07072 16.5945 8.28559 16.6774 9.14508C16.6803 9.17977 16.7101 9.20772 16.7506 9.21446C16.7911 9.22121 16.8315 9.20579 16.8508 9.17495C17.0194 8.9119 17.2025 8.74135 17.2738 7.88186C17.2767 7.85199 17.2979 7.82694 17.3307 7.81538C17.3634 7.80381 17.4 7.80863 17.427 7.8279C18.0659 8.29041 18.3434 9.8215 18.3858 10.6376L18.3877 10.6386Z" fill="#FFCECD"/>
<path fill-rule="evenodd" clip-rule="evenodd" d="M12.6449 17.5656C12.6449 17.4972 12.6198 17.4345 12.5717 17.3864C12.5235 17.3372 12.4599 17.3112 12.3915 17.3112C12.3231 17.3112 12.2604 17.3363 12.2113 17.3844C12.1612 17.4326 12.1352 17.4972 12.1352 17.5666C12.1352 17.6359 12.1622 17.6986 12.2113 17.7477C12.2604 17.7959 12.3231 17.8219 12.3915 17.8219C12.4599 17.8219 12.5235 17.7949 12.5717 17.7458C12.6189 17.6976 12.6449 17.635 12.6449 17.5675V17.5656ZM12.0128 17.5656C12.0128 17.4972 11.9878 17.4345 11.9396 17.3864C11.8914 17.3372 11.8278 17.3112 11.7594 17.3112C11.691 17.3112 11.6283 17.3363 11.5792 17.3844C11.5291 17.4326 11.5031 17.4972 11.5031 17.5666C11.5031 17.6359 11.5301 17.6986 11.5792 17.7477C11.6283 17.7959 11.691 17.8219 11.7594 17.8219C11.8278 17.8219 11.8914 17.7949 11.9396 17.7458C11.9868 17.6976 12.0128 17.635 12.0128 17.5675V17.5656ZM12.3289 17.0424C12.3289 16.974 12.3028 16.9123 12.2556 16.8632C12.2074 16.814 12.1438 16.787 12.0754 16.787C12.007 16.787 11.9444 16.8121 11.8953 16.8603C11.8451 16.9084 11.8191 16.973 11.8191 17.0424C11.8191 17.1118 11.8461 17.1744 11.8953 17.2235C11.9444 17.2717 12.007 17.2977 12.0754 17.2977C12.1438 17.2977 12.2074 17.2707 12.2556 17.2216C12.3028 17.1734 12.3289 17.1108 12.3289 17.0433V17.0424Z" fill="#F46C6E"/>
<path fill-rule="evenodd" clip-rule="evenodd" d="M20.4978 17.5656C20.4978 17.4972 20.4728 17.4346 20.4246 17.3864C20.3764 17.3372 20.3128 17.3112 20.2444 17.3112C20.176 17.3112 20.1133 17.3363 20.0642 17.3844C20.0141 17.4326 19.9881 17.4972 19.9881 17.5666C19.9881 17.6359 20.0151 17.6986 20.0642 17.7477C20.1133 17.7959 20.176 17.8219 20.2444 17.8219C20.3128 17.8219 20.3764 17.7949 20.4246 17.7458C20.4718 17.6976 20.4978 17.635 20.4978 17.5675V17.5656ZM19.8657 17.5656C19.8657 17.4972 19.8407 17.4346 19.7925 17.3864C19.7443 17.3372 19.6807 17.3112 19.6123 17.3112C19.5439 17.3112 19.4813 17.3363 19.4321 17.3844C19.383 17.4326 19.356 17.4972 19.356 17.5666C19.356 17.6359 19.383 17.6986 19.4321 17.7477C19.4813 17.7959 19.5439 17.8219 19.6123 17.8219C19.6807 17.8219 19.7443 17.7949 19.7925 17.7458C19.8397 17.6976 19.8657 17.635 19.8657 17.5675V17.5656ZM20.1818 17.0424C20.1818 16.974 20.1557 16.9123 20.1085 16.8632C20.0603 16.814 19.9968 16.787 19.9283 16.787C19.8599 16.787 19.7973 16.8121 19.7482 16.8603C19.6981 16.9084 19.672 16.973 19.672 17.0424C19.672 17.1118 19.699 17.1744 19.7482 17.2235C19.7973 17.2717 19.8599 17.2977 19.9283 17.2977C19.9968 17.2977 20.0603 17.2707 20.1085 17.2216C20.1557 17.1734 20.1818 17.1108 20.1818 17.0433V17.0424Z" fill="#F46C6E"/>
<path fill-rule="evenodd" clip-rule="evenodd" d="M16.0163 20.0496C18.1805 19.5727 18.9022 18.1273 18.6391 17.3237C18.2287 16.0702 16.6215 16.5693 16.0154 17.342C15.4103 16.5702 13.8021 16.0711 13.3916 17.3237C13.1286 18.1264 13.8561 19.5707 16.0154 20.0496H16.0163Z" fill="#FF8E94"/>
<path fill-rule="evenodd" clip-rule="evenodd" d="M17.2121 17.4519C16.8797 17.4519 16.6108 17.7207 16.6108 18.0532C16.6108 18.3856 16.8797 18.6544 17.2121 18.6544C17.5445 18.6544 17.8134 18.3856 17.8134 18.0532C17.8134 17.7207 17.5445 17.4519 17.2121 17.4519ZM14.8196 17.4519C14.4872 17.4519 14.2183 17.7207 14.2183 18.0532C14.2183 18.3856 14.4872 18.6544 14.8196 18.6544C15.152 18.6544 15.4208 18.3856 15.4208 18.0532C15.4208 17.7207 15.152 17.4519 14.8196 17.4519Z" fill="#E82E2F"/>
<path fill-rule="evenodd" clip-rule="evenodd" d="M12.6006 14.4735C13.0188 14.3965 13.727 14.2153 14.1934 14.3714C14.4988 14.4735 14.5769 14.1536 14.2589 13.933C13.8224 13.6304 13.1258 13.7885 12.6633 13.9831C12.1969 14.1787 11.9339 14.5959 12.6016 14.4726L12.6006 14.4735Z" fill="#460003"/>
<path fill-rule="evenodd" clip-rule="evenodd" d="M19.3994 14.4735C18.9813 14.3965 18.273 14.2153 17.8067 14.3714C17.5012 14.4735 17.4232 14.1536 17.7412 13.933C18.1776 13.6304 18.8743 13.7885 19.3368 13.9831C19.8032 14.1787 20.0662 14.5959 19.3985 14.4726L19.3994 14.4735Z" fill="#460003"/>
<path fill-rule="evenodd" clip-rule="evenodd" d="M13.494 15.4631C12.9698 15.5286 12.4919 14.8378 12.5564 15.3619C12.622 15.8861 13.0989 16.258 13.6231 16.1925C14.1473 16.127 14.5192 15.65 14.4546 15.1259C14.3891 14.6017 14.0181 15.3976 13.494 15.4621V15.4631Z" fill="#460003"/>
<path fill-rule="evenodd" clip-rule="evenodd" d="M18.5064 15.4631C19.0306 15.5286 19.5085 14.8378 19.444 15.3619C19.3784 15.8861 18.9015 16.258 18.3773 16.1925C17.8531 16.127 17.4812 15.65 17.5458 15.1259C17.6113 14.6017 17.9822 15.3976 18.5064 15.4621V15.4631Z" fill="#460003"/>
<path fill-rule="evenodd" clip-rule="evenodd" d="M11.9213 10.8699L12.7673 11.8161H11.8615C11.7883 11.8161 11.7324 11.8334 11.6958 11.8671C11.6582 11.9018 11.6399 11.9461 11.6399 12.0001C11.6399 12.0541 11.6582 12.0945 11.6948 12.1273C11.7314 12.1601 11.7873 12.1764 11.8615 12.1764H13.1141C13.2018 12.1764 13.2683 12.1572 13.3107 12.1186C13.3541 12.0801 13.3762 12.028 13.3762 11.9616C13.3762 11.9221 13.3608 11.8825 13.3309 11.8421C13.3001 11.8026 13.2375 11.7284 13.1411 11.6214C13.039 11.5087 12.9474 11.4066 12.8646 11.315C12.7817 11.2235 12.7046 11.1377 12.6333 11.0587C12.562 10.9797 12.5032 10.9122 12.457 10.8564C12.4098 10.8005 12.3722 10.7533 12.3443 10.7147H13.0313C13.1257 10.7147 13.198 10.706 13.2461 10.6897C13.2943 10.6733 13.3194 10.628 13.3194 10.5557C13.3194 10.5027 13.3011 10.4603 13.2644 10.4295C13.2278 10.3977 13.1758 10.3823 13.1084 10.3823H12.0465C11.9482 10.3823 11.8731 10.3967 11.821 10.4257C11.768 10.4536 11.742 10.5056 11.742 10.5798C11.742 10.6049 11.7468 10.6309 11.7574 10.6569C11.768 10.6839 11.7786 10.7051 11.7912 10.7224C11.8037 10.7388 11.821 10.76 11.8422 10.7841C11.8634 10.8082 11.8904 10.8371 11.9213 10.8718V10.8699ZM10.8209 12.8567L11.559 13.6815H10.7698C10.7062 13.6815 10.6571 13.6969 10.6253 13.7268C10.5925 13.7567 10.5761 13.7962 10.5761 13.8424C10.5761 13.8887 10.5925 13.9243 10.6243 13.9532C10.6561 13.9821 10.7052 13.9956 10.7698 13.9956H11.8615C11.9376 13.9956 11.9954 13.9792 12.033 13.9455C12.0706 13.9128 12.0899 13.8665 12.0899 13.8087C12.0899 13.774 12.0764 13.7393 12.0504 13.7046C12.0234 13.6699 11.9685 13.6063 11.8856 13.5119C11.797 13.4136 11.716 13.325 11.6447 13.245C11.5724 13.165 11.505 13.0908 11.4433 13.0215C11.3817 12.9521 11.3296 12.8933 11.2892 12.8451C11.2487 12.797 11.2159 12.7555 11.1909 12.7208H11.7892C11.8721 12.7208 11.9347 12.7131 11.9762 12.6987C12.0186 12.6842 12.0398 12.6457 12.0398 12.5821C12.0398 12.5358 12.0244 12.4992 11.9916 12.4722C11.9598 12.4443 11.9135 12.4308 11.8548 12.4308H10.9298C10.844 12.4308 10.7785 12.4433 10.7332 12.4684C10.6869 12.4934 10.6648 12.5387 10.6648 12.6033C10.6648 12.6245 10.6696 12.6476 10.6783 12.6707C10.6869 12.6939 10.6966 12.7131 10.7081 12.7276C10.7187 12.742 10.7342 12.7603 10.7525 12.7815C10.7708 12.8027 10.7939 12.8278 10.8218 12.8577L10.8209 12.8567ZM9.79083 10.2513L10.7467 11.3198H9.72435C9.64148 11.3198 9.57885 11.3391 9.53742 11.3776C9.49502 11.4171 9.47382 11.4673 9.47382 11.528C9.47382 11.5887 9.49502 11.634 9.53549 11.6715C9.57692 11.7091 9.63955 11.7274 9.72435 11.7274H11.1388C11.2381 11.7274 11.3123 11.7062 11.3614 11.6619C11.4106 11.6185 11.4356 11.5598 11.4356 11.4846C11.4356 11.4403 11.4183 11.395 11.3836 11.3497C11.3489 11.3044 11.2776 11.2216 11.1697 11.1001C11.055 10.973 10.95 10.8573 10.8575 10.7533C10.7631 10.6502 10.6763 10.5538 10.5964 10.4632C10.5164 10.3736 10.4499 10.2975 10.3969 10.2349C10.3439 10.1722 10.3015 10.1183 10.2697 10.074H11.0454C11.1523 10.074 11.2333 10.0643 11.2882 10.045C11.3431 10.0258 11.3701 9.97567 11.3701 9.89377C11.3701 9.83403 11.3499 9.78585 11.3084 9.75117C11.267 9.71551 11.2082 9.69817 11.1321 9.69817H9.93344C9.82263 9.69817 9.73784 9.71455 9.6781 9.74731C9.61836 9.77911 9.58945 9.83788 9.58945 9.92171C9.58945 9.94965 9.59523 9.97953 9.60679 10.0084C9.61836 10.0383 9.63088 10.0634 9.64534 10.0826C9.65883 10.1019 9.6781 10.125 9.70315 10.152C9.72724 10.179 9.75711 10.2117 9.79276 10.2503L9.79083 10.2513Z" fill="#6DCAD9"/>
<path fill-rule="evenodd" clip-rule="evenodd" d="M15.9287 23.8017C15.3274 23.8017 14.837 23.3113 14.837 22.71C14.837 22.1088 15.3274 21.6183 15.9287 21.6183C16.5299 21.6183 17.0204 22.1088 17.0204 22.71C17.0204 23.3113 16.5299 23.8017 15.9287 23.8017Z" fill="#460003"/>
<path fill-rule="evenodd" clip-rule="evenodd" d="M15.312 23.4857C15.4816 23.6206 15.6955 23.7015 15.9287 23.7015C16.1619 23.7015 16.3623 23.6263 16.529 23.4992C16.5511 23.4818 16.5608 23.4548 16.554 23.4279C16.5473 23.4009 16.5261 23.3816 16.4991 23.3768C16.3045 23.3431 16.0954 23.3238 15.8747 23.3238C15.6888 23.3238 15.5115 23.3382 15.3438 23.3643C15.3159 23.3681 15.2947 23.3874 15.2879 23.4144C15.2812 23.4413 15.2899 23.4683 15.312 23.4857Z" fill="#CE3963"/>
<rect x="1" y="1" width="30" height="30" rx="15" stroke="#FCB00D" stroke-width="2"/>
</svg>
