<svg width="32" height="32" viewBox="0 0 32 32" fill="none" xmlns="http://www.w3.org/2000/svg">
<rect x="1" y="1" width="30" height="30" rx="15" fill="#DDF2EC"/>
<path fill-rule="evenodd" clip-rule="evenodd" d="M23.6265 7.90017C24.8579 8.66812 24.3521 12.0907 23.4724 13.5013C22.5926 14.912 21.4797 14.7616 20.2483 13.9937C19.0169 13.2257 17.9772 12.1254 18.856 10.7147C19.3493 9.92267 20.8688 9.33683 21.7871 8.98031C22.504 8.70185 23.086 7.56292 23.6256 7.8992L23.6265 7.90017Z" fill="#FEA9AC"/>
<path fill-rule="evenodd" clip-rule="evenodd" d="M23.2265 9.3773C24.0552 9.73767 23.3528 11.8199 22.8055 12.6977C22.4798 13.2209 22.1021 13.3992 21.6887 13.3568C21.6665 13.3549 20.4351 13.562 19.882 12.4433C19.6961 12.0666 19.4436 11.4489 19.909 11.0076C20.2251 10.7089 20.7965 10.4941 21.3765 10.285C22.1551 10.0055 22.8151 9.19808 23.2265 9.37633V9.3773Z" fill="#F46C6E"/>
<path fill-rule="evenodd" clip-rule="evenodd" d="M8.37342 7.90017C7.14199 8.66812 7.64786 12.0907 8.52758 13.5013C9.40731 14.912 10.5202 14.7616 11.7516 13.9937C12.9831 13.2257 14.0227 12.1254 13.144 10.7147C12.6506 9.92267 11.1311 9.33683 10.2128 8.98031C9.49595 8.70185 8.91397 7.56292 8.37438 7.8992L8.37342 7.90017Z" fill="#FEA9AC"/>
<path fill-rule="evenodd" clip-rule="evenodd" d="M8.7743 9.3773C7.94564 9.73767 8.64807 11.8199 9.19537 12.6977C9.52105 13.2209 9.89877 13.3992 10.3121 13.3568C10.3343 13.3549 11.5657 13.562 12.1188 12.4433C12.3048 12.0666 12.5572 11.4489 12.0918 11.0076C11.7758 10.7089 11.2044 10.4941 10.6243 10.285C9.84577 10.0055 9.18574 9.19808 8.7743 9.37634V9.3773Z" fill="#F46C6E"/>
<path fill-rule="evenodd" clip-rule="evenodd" d="M18.3887 10.6386C19.9592 11.3275 22.1687 12.8432 22.2901 15.9487C22.2968 16.128 22.3026 16.3043 22.3055 16.4768C23.2922 17.3469 23.8761 18.427 23.8761 19.5977C23.8761 22.4739 20.3495 24.8048 16 24.8048C11.6505 24.8048 8.1239 22.4739 8.1239 19.5977C8.1239 18.427 8.70781 17.3469 9.69449 16.4768C9.69738 16.3043 9.70317 16.128 9.70991 15.9487C9.83132 12.8345 12.0533 11.3189 13.6248 10.6328C13.7434 9.92749 14.3745 9.14026 14.2608 8.57659C14.255 8.54864 14.2666 8.52263 14.2916 8.50432C14.3167 8.48601 14.3494 8.48119 14.3812 8.48987C14.9093 8.63729 15.0692 9.13834 15.3149 9.50931C15.3342 9.53821 15.3708 9.55363 15.4103 9.54785C15.4498 9.54303 15.4787 9.51894 15.4864 9.48618C15.6666 8.73268 15.5028 7.93582 16.0703 7.22953C16.0944 7.19966 16.1387 7.18714 16.1802 7.20063C16.2207 7.21316 16.2447 7.24688 16.2399 7.2835C16.1185 8.07072 16.5955 8.28655 16.6783 9.14508C16.6822 9.17977 16.7111 9.20771 16.7516 9.21446C16.792 9.2212 16.8325 9.20579 16.8518 9.17495C17.0204 8.9119 17.2035 8.74135 17.2748 7.88186C17.2777 7.85199 17.2989 7.82694 17.3316 7.81538C17.3644 7.80381 17.401 7.80863 17.428 7.8279C18.0668 8.29041 18.3443 9.8215 18.3867 10.6376L18.3887 10.6386Z" fill="#FFCECD"/>
<path fill-rule="evenodd" clip-rule="evenodd" d="M12.645 17.5665C12.645 17.4981 12.62 17.4355 12.5718 17.3864C12.5236 17.3372 12.46 17.3112 12.3916 17.3112C12.3232 17.3112 12.2606 17.3363 12.2114 17.3844C12.1623 17.4326 12.1353 17.4972 12.1353 17.5665C12.1353 17.6359 12.1623 17.6986 12.2114 17.7477C12.2606 17.7959 12.3232 17.8219 12.3916 17.8219C12.46 17.8219 12.5236 17.7949 12.5718 17.7458C12.619 17.6976 12.645 17.635 12.645 17.5675V17.5665ZM12.012 17.5665C12.012 17.4981 11.9869 17.4355 11.9387 17.3864C11.8906 17.3372 11.827 17.3112 11.7585 17.3112C11.6901 17.3112 11.6265 17.3363 11.5784 17.3844C11.5292 17.4326 11.5022 17.4972 11.5022 17.5665C11.5022 17.6359 11.5292 17.6986 11.5784 17.7477C11.6275 17.7959 11.6901 17.8219 11.7585 17.8219C11.827 17.8219 11.8906 17.7949 11.9387 17.7458C11.9859 17.6976 12.012 17.635 12.012 17.5675V17.5665ZM12.328 17.0433C12.328 16.9749 12.303 16.9133 12.2548 16.8641C12.2066 16.815 12.143 16.788 12.0746 16.788C12.0062 16.788 11.9435 16.813 11.8944 16.8612C11.8443 16.9094 11.8183 16.974 11.8183 17.0433C11.8183 17.1127 11.8453 17.1753 11.8944 17.2245C11.9435 17.2727 12.0062 17.2987 12.0746 17.2987C12.143 17.2987 12.2066 17.2717 12.2548 17.2226C12.302 17.1744 12.328 17.1117 12.328 17.0443V17.0433Z" fill="#F46C6E"/>
<path fill-rule="evenodd" clip-rule="evenodd" d="M20.4979 17.5666C20.4979 17.4981 20.4729 17.4355 20.4247 17.3864C20.3765 17.3372 20.3129 17.3112 20.2445 17.3112C20.1761 17.3112 20.1135 17.3363 20.0643 17.3844C20.0142 17.4326 19.9882 17.4972 19.9882 17.5666C19.9882 17.6359 20.0152 17.6986 20.0643 17.7477C20.1135 17.7959 20.1761 17.8219 20.2445 17.8219C20.3129 17.8219 20.3765 17.7949 20.4247 17.7458C20.4719 17.6976 20.4979 17.635 20.4979 17.5675V17.5666ZM19.8658 17.5666C19.8658 17.4981 19.8408 17.4355 19.7926 17.3864C19.7444 17.3372 19.6808 17.3112 19.6124 17.3112C19.544 17.3112 19.4814 17.3363 19.4322 17.3844C19.3831 17.4326 19.3561 17.4972 19.3561 17.5666C19.3561 17.6359 19.3831 17.6986 19.4322 17.7477C19.4814 17.7959 19.544 17.8219 19.6124 17.8219C19.6808 17.8219 19.7444 17.7949 19.7926 17.7458C19.8398 17.6976 19.8658 17.635 19.8658 17.5675V17.5666ZM20.1819 17.0433C20.1819 16.9749 20.1568 16.9133 20.1086 16.8641C20.0605 16.815 19.9969 16.788 19.9285 16.788C19.86 16.788 19.7974 16.8131 19.7483 16.8612C19.6982 16.9094 19.6722 16.974 19.6722 17.0433C19.6722 17.1127 19.6991 17.1754 19.7483 17.2245C19.7974 17.2727 19.86 17.2987 19.9285 17.2987C19.9969 17.2987 20.0605 17.2717 20.1086 17.2226C20.1559 17.1744 20.1819 17.1118 20.1819 17.0443V17.0433Z" fill="#F46C6E"/>
<path fill-rule="evenodd" clip-rule="evenodd" d="M16.0173 20.0496C18.1815 19.5727 18.9032 18.1273 18.6401 17.3247C18.2296 16.0711 16.6224 16.5702 16.0164 17.343C15.4112 16.5712 13.8031 16.0721 13.3926 17.3247C13.1295 18.1273 13.857 19.5717 16.0164 20.0496H16.0173Z" fill="#FF8E94"/>
<path fill-rule="evenodd" clip-rule="evenodd" d="M17.2122 17.4529C16.8798 17.4529 16.611 17.7217 16.611 18.0541C16.611 18.3865 16.8798 18.6554 17.2122 18.6554C17.5446 18.6554 17.8135 18.3856 17.8135 18.0541C17.8135 17.7226 17.5446 17.4529 17.2122 17.4529ZM14.8197 17.4529C14.4873 17.4529 14.2185 17.7217 14.2185 18.0541C14.2185 18.3865 14.4873 18.6554 14.8197 18.6554C15.1521 18.6554 15.421 18.3856 15.421 18.0541C15.421 17.7226 15.1521 17.4529 14.8197 17.4529Z" fill="#E82E2F"/>
<path fill-rule="evenodd" clip-rule="evenodd" d="M13.4947 15.4891C12.9705 15.4236 12.4926 16.1145 12.5572 15.5903C12.6227 15.0661 13.0996 14.6942 13.6238 14.7587C14.148 14.8243 14.5199 15.3012 14.4554 15.8254C14.3898 16.3496 14.0189 15.5537 13.4947 15.4891Z" fill="#431F07"/>
<path fill-rule="evenodd" clip-rule="evenodd" d="M18.5062 15.4891C19.0303 15.4236 19.5083 16.1145 19.4437 15.5903C19.3782 15.0661 18.9012 14.6942 18.3771 14.7587C17.8529 14.8243 17.481 15.3012 17.5455 15.8254C17.611 16.3496 17.982 15.5537 18.5062 15.4891Z" fill="#431F07"/>
<path fill-rule="evenodd" clip-rule="evenodd" d="M12.7691 13.6237C13.1835 13.5273 13.9052 13.4107 14.2703 13.0822C14.5093 12.8663 14.7088 13.1294 14.5045 13.4579C14.2251 13.9099 13.5226 14.0419 13.0206 14.0486C12.5147 14.0544 12.1072 13.7778 12.7682 13.6237H12.7691Z" fill="#431F07"/>
<path fill-rule="evenodd" clip-rule="evenodd" d="M19.2317 13.6237C18.8174 13.5273 18.0957 13.4107 17.7305 13.0822C17.4915 12.8663 17.2921 13.1294 17.4963 13.458C17.7758 13.9099 18.4782 14.0419 18.9802 14.0486C19.4861 14.0544 19.8937 13.7779 19.2327 13.6237H19.2317Z" fill="#431F07"/>
<path fill-rule="evenodd" clip-rule="evenodd" d="M12.3308 9.67504C12.2942 9.67504 11.6718 10.7523 11.3644 11.8363C10.5194 14.8118 14.0315 14.8821 13.2732 11.8777C12.9957 10.7802 12.3973 9.67504 12.3318 9.67504H12.3308Z" fill="#6DCAD9"/>
<path fill-rule="evenodd" clip-rule="evenodd" d="M16.8064 20.2944C19.5911 19.2855 18.3124 22.3631 16.0076 22.3689C13.6903 22.3747 12.4058 19.2846 15.1944 20.2944C15.8293 20.5247 16.1714 20.5247 16.8064 20.2944Z" fill="#460003"/>
<path fill-rule="evenodd" clip-rule="evenodd" d="M17.2747 21.9054C16.8922 22.128 16.4518 22.2533 16.0076 22.2542C15.5384 22.2552 15.0749 22.1203 14.676 21.8756C14.65 21.8592 14.6365 21.8313 14.6394 21.8014C14.6423 21.7705 14.6615 21.7465 14.6914 21.7359C15.0441 21.6116 15.4545 21.5345 15.9161 21.5345C16.4277 21.5345 16.8816 21.6241 17.2631 21.7648C17.2921 21.7754 17.3113 21.8004 17.3142 21.8312C17.3171 21.8621 17.3027 21.89 17.2757 21.9054H17.2747Z" fill="#CE3963"/>
<rect x="1" y="1" width="30" height="30" rx="15" stroke="#FCB00D" stroke-width="2"/>
</svg>
