<svg width="32" height="32" viewBox="0 0 32 32" fill="none" xmlns="http://www.w3.org/2000/svg">
<rect x="1" y="1" width="30" height="30" rx="15" fill="#DDF2EC"/>
<path fill-rule="evenodd" clip-rule="evenodd" d="M23.6265 7.89921C24.858 8.66716 24.3521 12.0897 23.4724 13.5004C22.5926 14.911 21.4797 14.7607 20.2483 13.9927C19.0169 13.2248 17.9772 12.1244 18.856 10.7138C19.3493 9.92171 20.8688 9.33587 21.7871 8.97935C22.504 8.70088 23.086 7.56196 23.6256 7.89824L23.6265 7.89921Z" fill="#FEA9AC"/>
<path fill-rule="evenodd" clip-rule="evenodd" d="M23.2265 9.37633C24.0552 9.7367 23.3528 11.8189 22.8055 12.6967C22.4798 13.22 22.1021 13.3982 21.6887 13.3558C21.6665 13.3539 20.4351 13.562 19.882 12.4424C19.6961 12.0656 19.4436 11.448 19.91 11.0067C20.2251 10.708 20.7974 10.4931 21.3775 10.285C22.156 10.0055 22.8161 9.19807 23.2275 9.37633H23.2265Z" fill="#F46C6E"/>
<path fill-rule="evenodd" clip-rule="evenodd" d="M8.37342 7.8992C7.14199 8.66716 7.64786 12.0897 8.52759 13.5003C9.40731 14.911 10.5202 14.7607 11.7516 13.9927C12.9831 13.2248 14.0227 12.1244 13.144 10.7137C12.6506 9.92171 11.1311 9.33586 10.2128 8.97935C9.49596 8.70088 8.91397 7.56196 8.37438 7.89824L8.37342 7.8992Z" fill="#FEA9AC"/>
<path fill-rule="evenodd" clip-rule="evenodd" d="M8.77424 9.37633C7.94559 9.7367 8.64802 11.8189 9.19532 12.6967C9.521 13.2199 9.89871 13.3982 10.3121 13.3558C10.3342 13.3539 11.5657 13.562 12.1187 12.4424C12.3047 12.0656 12.5572 11.448 12.0908 11.0067C11.7757 10.708 11.2034 10.4931 10.6233 10.285C9.84572 10.0055 9.18472 9.19807 8.77328 9.37633H8.77424Z" fill="#F46C6E"/>
<path fill-rule="evenodd" clip-rule="evenodd" d="M18.3887 10.6386C19.9602 11.3275 22.1687 12.8432 22.2901 15.9487C22.2968 16.128 22.3026 16.3043 22.3055 16.4768C23.2922 17.3469 23.8761 18.427 23.8761 19.5977C23.8761 22.4739 20.3495 24.8048 16 24.8048C11.6505 24.8048 8.1239 22.4739 8.1239 19.5977C8.1239 18.427 8.70782 17.3469 9.6945 16.4768C9.69835 16.3043 9.70317 16.128 9.70992 15.9487C9.83132 12.8345 12.0533 11.3189 13.6248 10.6328C13.7434 9.92749 14.3745 9.14026 14.2608 8.57562C14.255 8.54768 14.2666 8.52166 14.2916 8.50432C14.3167 8.48601 14.3494 8.48119 14.3812 8.48986C14.9093 8.63729 15.0692 9.13834 15.3149 9.50931C15.3342 9.53821 15.3708 9.55363 15.4103 9.54785C15.4498 9.54303 15.4787 9.51894 15.4864 9.48618C15.6666 8.73268 15.5028 7.93582 16.0703 7.22954C16.0944 7.19967 16.1388 7.18714 16.1802 7.20063C16.2207 7.21315 16.2447 7.24688 16.2399 7.28349C16.1185 8.07072 16.5955 8.28655 16.6783 9.14508C16.6812 9.17977 16.7111 9.20771 16.7516 9.21446C16.792 9.2212 16.8325 9.20579 16.8518 9.17495C17.0204 8.9119 17.2035 8.74135 17.2748 7.88186C17.2777 7.85199 17.2989 7.82694 17.3316 7.81538C17.3654 7.80381 17.401 7.80863 17.428 7.8279C18.0668 8.29041 18.3443 9.8215 18.3867 10.6376L18.3887 10.6386Z" fill="#FFCECD"/>
<path fill-rule="evenodd" clip-rule="evenodd" d="M12.6449 17.5656C12.6449 17.4972 12.6198 17.4346 12.5717 17.3864C12.5235 17.3372 12.4599 17.3112 12.3915 17.3112C12.3231 17.3112 12.2604 17.3363 12.2113 17.3844C12.1622 17.4326 12.1352 17.4972 12.1352 17.5666C12.1352 17.6359 12.1622 17.6986 12.2113 17.7477C12.2604 17.7959 12.3231 17.8219 12.3915 17.8219C12.4599 17.8219 12.5235 17.7949 12.5717 17.7458C12.6189 17.6976 12.6449 17.635 12.6449 17.5675V17.5656ZM12.0128 17.5656C12.0128 17.4972 11.9878 17.4346 11.9396 17.3864C11.8914 17.3372 11.8278 17.3112 11.7594 17.3112C11.691 17.3112 11.6283 17.3363 11.5792 17.3844C11.5291 17.4326 11.5031 17.4972 11.5031 17.5666C11.5031 17.6359 11.5301 17.6986 11.5792 17.7477C11.6283 17.7959 11.691 17.8219 11.7594 17.8219C11.8278 17.8219 11.8914 17.7949 11.9396 17.7458C11.9868 17.6976 12.0128 17.635 12.0128 17.5675V17.5656ZM12.3289 17.0424C12.3289 16.974 12.3038 16.9123 12.2556 16.8632C12.2074 16.814 12.1438 16.787 12.0754 16.787C12.007 16.787 11.9444 16.8121 11.8953 16.8603C11.8451 16.9085 11.8191 16.973 11.8191 17.0424C11.8191 17.1118 11.8461 17.1744 11.8953 17.2235C11.9444 17.2717 12.007 17.2977 12.0754 17.2977C12.1438 17.2977 12.2074 17.2707 12.2556 17.2216C12.3028 17.1734 12.3289 17.1108 12.3289 17.0434V17.0424Z" fill="#F46C6E"/>
<path fill-rule="evenodd" clip-rule="evenodd" d="M20.4978 17.5656C20.4978 17.4972 20.4727 17.4345 20.4246 17.3864C20.3764 17.3372 20.3128 17.3112 20.2444 17.3112C20.176 17.3112 20.1133 17.3363 20.0642 17.3844C20.0151 17.4326 19.9881 17.4972 19.9881 17.5666C19.9881 17.6359 20.0151 17.6986 20.0642 17.7477C20.1133 17.7959 20.176 17.8219 20.2444 17.8219C20.3128 17.8219 20.3764 17.7949 20.4246 17.7458C20.4718 17.6976 20.4978 17.635 20.4978 17.5675V17.5656ZM19.8657 17.5656C19.8657 17.4972 19.8407 17.4345 19.7925 17.3864C19.7443 17.3372 19.6807 17.3112 19.6123 17.3112C19.5439 17.3112 19.4813 17.3363 19.4321 17.3844C19.382 17.4326 19.356 17.4972 19.356 17.5666C19.356 17.6359 19.383 17.6986 19.4321 17.7477C19.4813 17.7959 19.5439 17.8219 19.6123 17.8219C19.6807 17.8219 19.7443 17.7949 19.7925 17.7458C19.8397 17.6976 19.8657 17.635 19.8657 17.5675V17.5656ZM20.1818 17.0424C20.1818 16.974 20.1567 16.9123 20.1085 16.8632C20.0603 16.814 19.9968 16.787 19.9283 16.787C19.8599 16.787 19.7973 16.8121 19.7482 16.8603C19.6981 16.9084 19.672 16.973 19.672 17.0424C19.672 17.1118 19.699 17.1744 19.7482 17.2235C19.7973 17.2717 19.8599 17.2977 19.9283 17.2977C19.9968 17.2977 20.0603 17.2707 20.1085 17.2216C20.1557 17.1734 20.1818 17.1108 20.1818 17.0433V17.0424Z" fill="#F46C6E"/>
<path fill-rule="evenodd" clip-rule="evenodd" d="M16.0173 20.0496C18.1815 19.5727 18.9032 18.1273 18.6401 17.3247C18.2296 16.0711 16.6224 16.5702 16.0164 17.343C15.4112 16.5712 13.8031 16.0721 13.3926 17.3247C13.1295 18.1273 13.857 19.5717 16.0164 20.0496H16.0173Z" fill="#FF8E94"/>
<path fill-rule="evenodd" clip-rule="evenodd" d="M17.2122 17.4519C16.8798 17.4519 16.611 17.7207 16.611 18.0531C16.611 18.3856 16.8798 18.6544 17.2122 18.6544C17.5446 18.6544 17.8135 18.3846 17.8135 18.0531C17.8135 17.7217 17.5446 17.4519 17.2122 17.4519ZM14.8197 17.4519C14.4873 17.4519 14.2185 17.7207 14.2185 18.0531C14.2185 18.3856 14.4873 18.6544 14.8197 18.6544C15.1521 18.6544 15.421 18.3846 15.421 18.0531C15.421 17.7217 15.1521 17.4519 14.8197 17.4519Z" fill="#E82E2F"/>
<path fill-rule="evenodd" clip-rule="evenodd" d="M18.2016 14.3165C17.6774 14.382 17.3055 14.859 17.37 15.3831C17.4355 15.9073 17.9125 16.2792 18.4367 16.2147C18.9609 16.1492 19.3328 15.6722 19.2682 15.148C19.2027 14.6239 18.7258 14.2519 18.2016 14.3165Z" fill="#460003"/>
<path fill-rule="evenodd" clip-rule="evenodd" d="M18.5302 14.5843C18.3529 14.6065 18.2276 14.7674 18.2498 14.9447C18.2719 15.122 18.4328 15.2473 18.6101 15.2251C18.7874 15.2029 18.9127 15.042 18.8905 14.8647C18.8684 14.6874 18.7075 14.5622 18.5302 14.5843Z" fill="#DDF2EC"/>
<path fill-rule="evenodd" clip-rule="evenodd" d="M19.0496 13.8598C18.6314 13.7827 17.9232 13.6015 17.4568 13.7576C17.1514 13.8598 17.0733 13.5399 17.3913 13.3192C17.8278 13.0166 18.5244 13.1747 18.9869 13.3693C19.4533 13.5649 19.7164 13.9821 19.0486 13.8588L19.0496 13.8598Z" fill="#460003"/>
<path fill-rule="evenodd" clip-rule="evenodd" d="M13.5572 13.8598C13.9754 13.7827 14.6836 13.6015 15.1499 13.7576C15.4554 13.8598 15.5334 13.5399 15.2155 13.3192C14.779 13.0166 14.0823 13.1747 13.6198 13.3693C13.1535 13.5649 12.8904 13.9821 13.5582 13.8588L13.5572 13.8598Z" fill="#460003"/>
<path fill-rule="evenodd" clip-rule="evenodd" d="M13.1256 14.698C13.2653 14.7588 13.4426 14.8291 13.6266 14.912C13.6411 14.9187 13.6488 14.9332 13.6469 14.9486C13.6449 14.964 13.6334 14.9756 13.6179 14.9775C13.4098 15.0064 13.2075 15.0613 13.035 15.123C12.559 15.2926 12.2728 15.6944 12.9463 15.6086C13.3684 15.5546 14.0853 15.414 14.542 15.5961C14.6759 15.65 14.7694 15.6154 14.8041 15.5402C14.8041 15.5392 14.805 15.5383 14.806 15.5363C14.8523 15.4593 14.8629 15.3301 14.8031 15.176C14.6104 14.6807 13.9436 14.4234 13.4512 14.3261C12.955 14.2278 12.5041 14.4273 13.1265 14.698H13.1256Z" fill="#460003"/>
<path fill-rule="evenodd" clip-rule="evenodd" d="M15.0373 20.4322C15.1404 20.4784 15.2609 20.4322 15.3071 20.3291C15.3534 20.226 15.3071 20.1055 15.204 20.0593C14.7261 19.8444 14.3291 19.8974 14.0805 20.0737C13.9678 20.1527 13.8849 20.2578 13.8358 20.3753C13.7866 20.4948 13.7722 20.6258 13.7972 20.7598C13.8358 20.9602 13.9649 21.1616 14.2029 21.3186C13.9398 21.5441 13.831 21.7917 13.83 22.0172C13.83 22.1569 13.8695 22.287 13.9399 22.3988C14.0092 22.5077 14.1065 22.6002 14.2222 22.6666C14.5026 22.8276 14.8986 22.8468 15.2657 22.6098C15.3601 22.5491 15.3881 22.4229 15.3274 22.3275C15.2667 22.2321 15.1404 22.2051 15.045 22.2658C14.8205 22.4113 14.5864 22.4046 14.4255 22.3121C14.3667 22.2783 14.3176 22.233 14.2858 22.182C14.2549 22.1328 14.2376 22.0779 14.2376 22.0191C14.2376 21.8563 14.3667 21.6578 14.6953 21.4709C14.7415 21.4478 14.7791 21.4073 14.7974 21.3553C14.834 21.2493 14.7781 21.1327 14.6721 21.0951C14.3744 20.992 14.228 20.833 14.199 20.6837C14.1894 20.6307 14.1942 20.5796 14.2135 20.5333C14.2337 20.4861 14.2684 20.4428 14.3156 20.409C14.4592 20.3069 14.7097 20.2867 15.0373 20.4331V20.4322Z" fill="#460003"/>
<path fill-rule="evenodd" clip-rule="evenodd" d="M11.6833 20.2838C12.0485 18.6583 13.2915 19.1872 13.4851 19.8646C13.7164 20.6721 12.9571 21.6954 12.3742 22.7351C12.3568 22.7659 12.3183 22.7775 12.2865 22.7601C11.242 22.1878 10.0549 21.7224 9.82363 20.9149C9.62899 20.2366 10.4027 19.1304 11.5744 20.3146C11.5918 20.3319 11.6149 20.3377 11.638 20.331C11.6611 20.3242 11.6775 20.3069 11.6833 20.2828V20.2838Z" fill="#F45B69"/>
<rect x="1" y="1" width="30" height="30" rx="15" stroke="#FCB00D" stroke-width="2"/>
</svg>
