<svg width="32" height="32" viewBox="0 0 32 32" fill="none" xmlns="http://www.w3.org/2000/svg">
<rect x="1" y="1" width="30" height="30" rx="15" fill="#DDF2EC"/>
<path fill-rule="evenodd" clip-rule="evenodd" d="M23.6265 7.89921C24.858 8.66716 24.3521 12.0897 23.4724 13.5003C22.5926 14.911 21.4797 14.7607 20.2483 13.9927C19.0169 13.2248 17.9772 12.1244 18.856 10.7137C19.3493 9.92171 20.8688 9.33587 21.7871 8.97935C22.504 8.70088 23.086 7.56196 23.6256 7.89824L23.6265 7.89921Z" fill="#FEA9AC"/>
<path fill-rule="evenodd" clip-rule="evenodd" d="M23.2267 9.3773C24.0553 9.73767 23.3529 11.8199 22.8056 12.6977C22.4799 13.2209 22.1022 13.3992 21.6888 13.3568C21.6667 13.3549 20.4352 13.562 19.8822 12.4433C19.6962 12.0675 19.4437 11.4489 19.9101 11.0076C20.2252 10.7089 20.7975 10.4941 21.3776 10.285C22.1561 10.0055 22.8162 9.19808 23.2276 9.37633L23.2267 9.3773Z" fill="#F46C6E"/>
<path fill-rule="evenodd" clip-rule="evenodd" d="M8.37342 7.89921C7.14199 8.66716 7.64786 12.0897 8.52759 13.5003C9.40731 14.911 10.5202 14.7607 11.7516 13.9927C12.9831 13.2248 14.0227 12.1244 13.144 10.7137C12.6506 9.92171 11.1311 9.33587 10.2128 8.97935C9.49596 8.70088 8.91397 7.56196 8.37438 7.89824L8.37342 7.89921Z" fill="#FEA9AC"/>
<path fill-rule="evenodd" clip-rule="evenodd" d="M8.77436 9.3773C7.94571 9.73767 8.64814 11.8199 9.19544 12.6977C9.52112 13.2209 9.89883 13.3992 10.3122 13.3568C10.3344 13.3549 11.5658 13.562 12.1189 12.4433C12.3048 12.0675 12.5573 11.4489 12.0909 11.0076C11.7758 10.7089 11.2035 10.4941 10.6234 10.285C9.84584 10.0055 9.18484 9.19808 8.7734 9.37634L8.77436 9.3773Z" fill="#F46C6E"/>
<path fill-rule="evenodd" clip-rule="evenodd" d="M18.3887 10.6386C19.9602 11.3275 22.1687 12.8432 22.2901 15.9487C22.2968 16.128 22.3026 16.3043 22.3055 16.4768C23.2922 17.3469 23.8761 18.427 23.8761 19.5977C23.8761 22.4739 20.3495 24.8048 16 24.8048C11.6505 24.8048 8.1239 22.4739 8.1239 19.5977C8.1239 18.427 8.70782 17.3469 9.6945 16.4768C9.69835 16.3043 9.70317 16.128 9.70992 15.9487C9.83132 12.8345 12.0533 11.3189 13.6248 10.6328C13.7434 9.92749 14.3745 9.14026 14.2608 8.57562C14.255 8.54768 14.2666 8.52166 14.2916 8.50432C14.3167 8.48601 14.3494 8.48119 14.3812 8.48987C14.9093 8.63729 15.0692 9.13834 15.3149 9.50931C15.3342 9.53821 15.3708 9.55363 15.4103 9.54785C15.4498 9.54303 15.4787 9.51894 15.4864 9.48618C15.6666 8.73268 15.5028 7.93582 16.0703 7.22954C16.0944 7.19967 16.1388 7.18714 16.1802 7.20063C16.2207 7.21316 16.2447 7.24688 16.2399 7.28349C16.1185 8.07072 16.5955 8.28656 16.6783 9.14508C16.6812 9.17977 16.7111 9.20771 16.7516 9.21446C16.792 9.2212 16.8325 9.20579 16.8518 9.17495C17.0204 8.9119 17.2035 8.74135 17.2748 7.88186C17.2777 7.85199 17.2989 7.82694 17.3316 7.81538C17.3654 7.80381 17.401 7.80863 17.428 7.8279C18.0668 8.29041 18.3443 9.8215 18.3867 10.6376L18.3887 10.6386Z" fill="#FFCECD"/>
<path fill-rule="evenodd" clip-rule="evenodd" d="M12.6449 17.5656C12.6449 17.4972 12.6198 17.4345 12.5717 17.3864C12.5235 17.3372 12.4599 17.3112 12.3915 17.3112C12.3231 17.3112 12.2604 17.3363 12.2113 17.3844C12.1622 17.4336 12.1352 17.4972 12.1352 17.5665C12.1352 17.6359 12.1622 17.6995 12.2113 17.7477C12.2604 17.7959 12.3231 17.8219 12.3915 17.8219C12.4599 17.8219 12.5235 17.7949 12.5717 17.7458C12.6189 17.6976 12.6449 17.635 12.6449 17.5675V17.5656ZM12.0128 17.5656C12.0128 17.4972 11.9878 17.4345 11.9396 17.3864C11.8914 17.3372 11.8278 17.3112 11.7594 17.3112C11.691 17.3112 11.6283 17.3363 11.5792 17.3844C11.5291 17.4336 11.5031 17.4972 11.5031 17.5665C11.5031 17.6359 11.5301 17.6995 11.5792 17.7477C11.6283 17.7959 11.691 17.8219 11.7594 17.8219C11.8278 17.8219 11.8914 17.7949 11.9396 17.7458C11.9868 17.6976 12.0128 17.635 12.0128 17.5675V17.5656ZM12.3289 17.0424C12.3289 16.974 12.3038 16.9123 12.2556 16.8632C12.2074 16.814 12.1438 16.787 12.0754 16.787C12.007 16.787 11.9444 16.8121 11.8953 16.8603C11.8451 16.9084 11.8191 16.973 11.8191 17.0424C11.8191 17.1118 11.8461 17.1744 11.8953 17.2235C11.9444 17.2717 12.007 17.2977 12.0754 17.2977C12.1438 17.2977 12.2074 17.2707 12.2556 17.2216C12.3028 17.1734 12.3289 17.1108 12.3289 17.0433V17.0424Z" fill="#F46C6E"/>
<path fill-rule="evenodd" clip-rule="evenodd" d="M20.4978 17.5656C20.4978 17.4972 20.4727 17.4345 20.4246 17.3864C20.3764 17.3372 20.3128 17.3112 20.2444 17.3112C20.176 17.3112 20.1133 17.3363 20.0642 17.3844C20.0151 17.4336 19.9881 17.4972 19.9881 17.5666C19.9881 17.6359 20.0151 17.6995 20.0642 17.7477C20.1133 17.7959 20.176 17.8219 20.2444 17.8219C20.3128 17.8219 20.3764 17.7949 20.4246 17.7458C20.4718 17.6976 20.4978 17.635 20.4978 17.5675V17.5656ZM19.8657 17.5656C19.8657 17.4972 19.8407 17.4345 19.7925 17.3864C19.7443 17.3372 19.6807 17.3112 19.6123 17.3112C19.5439 17.3112 19.4813 17.3363 19.4321 17.3844C19.382 17.4336 19.356 17.4972 19.356 17.5666C19.356 17.6359 19.383 17.6995 19.4321 17.7477C19.4813 17.7959 19.5439 17.8219 19.6123 17.8219C19.6807 17.8219 19.7443 17.7949 19.7925 17.7458C19.8397 17.6976 19.8657 17.635 19.8657 17.5675V17.5656ZM20.1818 17.0424C20.1818 16.974 20.1567 16.9123 20.1085 16.8632C20.0603 16.814 19.9968 16.787 19.9283 16.787C19.8599 16.787 19.7973 16.8121 19.7482 16.8603C19.6981 16.9084 19.672 16.973 19.672 17.0424C19.672 17.1118 19.699 17.1744 19.7482 17.2235C19.7973 17.2717 19.8599 17.2977 19.9283 17.2977C19.9968 17.2977 20.0603 17.2707 20.1085 17.2216C20.1557 17.1734 20.1818 17.1108 20.1818 17.0433V17.0424Z" fill="#F46C6E"/>
<path fill-rule="evenodd" clip-rule="evenodd" d="M16.0173 20.0496C18.1815 19.5727 18.9032 18.1273 18.6401 17.3247C18.2296 16.0711 16.6224 16.5702 16.0164 17.343C15.4112 16.5712 13.8031 16.0721 13.3926 17.3247C13.1295 18.1273 13.857 19.5717 16.0164 20.0496H16.0173Z" fill="#FF8E94"/>
<path fill-rule="evenodd" clip-rule="evenodd" d="M17.2122 17.4519C16.8798 17.4519 16.611 17.7207 16.611 18.0532C16.611 18.3856 16.8798 18.6544 17.2122 18.6544C17.5446 18.6544 17.8135 18.3856 17.8135 18.0532C17.8135 17.7207 17.5446 17.4519 17.2122 17.4519ZM14.8197 17.4519C14.4873 17.4519 14.2185 17.7207 14.2185 18.0532C14.2185 18.3856 14.4873 18.6544 14.8197 18.6544C15.1521 18.6544 15.421 18.3856 15.421 18.0532C15.421 17.7207 15.1521 17.4519 14.8197 17.4519Z" fill="#E82E2F"/>
<path fill-rule="evenodd" clip-rule="evenodd" d="M18.8444 13.6796C18.4792 12.0541 17.2362 12.583 17.0416 13.2604C16.8103 14.0679 17.5696 15.0912 18.1526 16.1309C18.1699 16.1617 18.2094 16.1733 18.2402 16.1559C19.2847 15.5836 20.4718 15.1182 20.7031 14.3107C20.8977 13.6324 20.124 12.5262 18.9523 13.7104C18.935 13.7278 18.9118 13.7335 18.8887 13.7268C18.8656 13.72 18.8492 13.7027 18.8434 13.6786L18.8444 13.6796Z" fill="#F45B69"/>
<path fill-rule="evenodd" clip-rule="evenodd" d="M13.1565 13.6796C13.5216 12.0541 14.7646 12.583 14.9593 13.2604C15.1905 14.0679 14.4312 15.0912 13.8483 16.1309C13.8309 16.1617 13.7914 16.1732 13.7606 16.1559C12.7161 15.5836 11.529 15.1182 11.2978 14.3107C11.1031 13.6324 11.8768 12.5262 13.0485 13.7104C13.0659 13.7277 13.089 13.7335 13.1121 13.7268C13.1352 13.72 13.1516 13.7027 13.1574 13.6786L13.1565 13.6796Z" fill="#F45B69"/>
<path fill-rule="evenodd" clip-rule="evenodd" d="M17.0012 20.1672C20.47 18.8124 19.2703 22.9933 15.9914 22.9914C12.7124 22.9894 11.6428 18.5706 14.9623 20.1672C15.6772 20.5112 16.1147 20.5131 17.0021 20.1672H17.0012Z" fill="#460003"/>
<path fill-rule="evenodd" clip-rule="evenodd" d="M17.4358 22.5655C17.0032 22.7678 16.5117 22.8805 15.9905 22.8805C15.4461 22.8805 14.9431 22.7495 14.5095 22.5231C14.4806 22.5077 14.4652 22.4826 14.468 22.4537C14.4709 22.4258 14.4912 22.4026 14.523 22.3911C14.9026 22.2581 15.3651 22.1723 15.8951 22.1723C16.4973 22.1723 17.0166 22.2764 17.43 22.4335C17.4618 22.445 17.4811 22.4691 17.483 22.498C17.4849 22.5269 17.4676 22.552 17.4368 22.5664L17.4358 22.5655Z" fill="#CE3963"/>
<path fill-rule="evenodd" clip-rule="evenodd" d="M17.0591 20.2664C17.4397 20.118 18.1672 19.8849 18.6085 20.0834C18.6355 20.5661 17.618 21.3244 15.9953 21.3234C14.3168 21.3234 13.3263 20.4649 13.4323 19.9783C13.8639 19.8126 14.5558 20.0988 14.894 20.2616C15.713 20.6557 16.2141 20.596 17.0601 20.2664H17.0591Z" fill="#DDF2EC"/>
<rect x="1" y="1" width="30" height="30" rx="15" stroke="#FCB00D" stroke-width="2"/>
</svg>
