<svg width="32" height="32" viewBox="0 0 32 32" fill="none" xmlns="http://www.w3.org/2000/svg">
<rect x="1" y="1" width="30" height="30" rx="15" fill="#DDF2EC"/>
<path fill-rule="evenodd" clip-rule="evenodd" d="M23.6265 7.89921C24.858 8.66716 24.3521 12.0897 23.4724 13.5004C22.5926 14.911 21.4797 14.7607 20.2483 13.9927C19.0169 13.2248 17.9772 12.1244 18.856 10.7138C19.3493 9.92171 20.8688 9.33587 21.7871 8.97935C22.504 8.70089 23.086 7.56196 23.6256 7.89824L23.6265 7.89921Z" fill="#C9271E"/>
<path fill-rule="evenodd" clip-rule="evenodd" d="M23.2257 9.37633C24.0543 9.7367 23.3519 11.8189 22.8046 12.6967C22.4789 13.2199 22.1012 13.3982 21.6878 13.3558C21.6657 13.3539 20.4343 13.562 19.8812 12.4424C19.6952 12.0656 19.4428 11.448 19.9082 11.0067C20.2242 10.708 20.7956 10.4931 21.3757 10.285C22.1532 10.0055 22.8142 9.19807 23.2257 9.37633Z" fill="#FA5950"/>
<path fill-rule="evenodd" clip-rule="evenodd" d="M8.37342 7.8992C7.14199 8.66715 7.64786 12.0897 8.52759 13.5003C9.40731 14.911 10.5202 14.7607 11.7516 13.9927C12.9831 13.2248 14.0227 12.1244 13.144 10.7137C12.6506 9.9217 11.1311 9.33586 10.2128 8.97934C9.49596 8.70087 8.91397 7.56195 8.37438 7.89823L8.37342 7.8992Z" fill="#C9271E"/>
<path fill-rule="evenodd" clip-rule="evenodd" d="M8.77327 9.37632C7.94461 9.73669 8.64704 11.8189 9.19434 12.6967C9.52002 13.2199 9.89774 13.3982 10.3111 13.3558C10.3333 13.3539 11.5647 13.562 12.1178 12.4424C12.3037 12.0656 12.5562 11.448 12.0898 11.0067C11.7747 10.708 11.2024 10.4931 10.6223 10.285C9.84474 10.0055 9.18374 9.19806 8.7723 9.37632H8.77327Z" fill="#FA5950"/>
<path fill-rule="evenodd" clip-rule="evenodd" d="M18.3877 10.6386C19.9583 11.3275 22.1677 12.8432 22.2891 15.9487C22.2959 16.128 22.3016 16.3043 22.3045 16.4768C23.2912 17.3469 23.8751 18.427 23.8751 19.5977C23.8751 22.4739 20.3485 24.8048 15.999 24.8048C11.6495 24.8048 8.12293 22.4739 8.12293 19.5977C8.12293 18.427 8.70684 17.3469 9.69352 16.4768C9.69738 16.3043 9.7022 16.128 9.70894 15.9487C9.83035 12.8345 12.0523 11.3189 13.6239 10.6328C13.7424 9.92749 14.3735 9.14027 14.2598 8.57562C14.254 8.54768 14.2656 8.52166 14.2906 8.50432C14.3157 8.48601 14.3485 8.48119 14.3803 8.48987C14.9083 8.63729 15.0682 9.13834 15.3139 9.50931C15.3332 9.53822 15.3698 9.55363 15.4093 9.54785C15.4488 9.54303 15.4777 9.51894 15.4855 9.48618C15.6656 8.73268 15.5018 7.93582 16.0694 7.22954C16.0935 7.19967 16.1378 7.18714 16.1792 7.20063C16.2197 7.21316 16.2438 7.24688 16.239 7.2835C16.1175 8.07072 16.5945 8.28656 16.6774 9.14508C16.6803 9.17977 16.7101 9.20771 16.7506 9.21446C16.7911 9.2212 16.8315 9.20579 16.8508 9.17495C17.0194 8.9119 17.2025 8.74135 17.2738 7.88186C17.2767 7.85199 17.2979 7.82694 17.3307 7.81538C17.3634 7.80382 17.4 7.80863 17.427 7.8279C18.0659 8.29041 18.3434 9.8215 18.3858 10.6376L18.3877 10.6386Z" fill="#F2372E"/>
<path fill-rule="evenodd" clip-rule="evenodd" d="M12.6449 17.5656C12.6449 17.4972 12.6198 17.4345 12.5717 17.3864C12.5235 17.3372 12.4599 17.3112 12.3915 17.3112C12.3231 17.3112 12.2604 17.3363 12.2113 17.3844C12.1612 17.4326 12.1352 17.4972 12.1352 17.5665C12.1352 17.6359 12.1622 17.6986 12.2113 17.7477C12.2604 17.7959 12.3231 17.8219 12.3915 17.8219C12.4599 17.8219 12.5235 17.7949 12.5717 17.7458C12.6189 17.6976 12.6449 17.635 12.6449 17.5675V17.5656ZM12.0128 17.5656C12.0128 17.4972 11.9878 17.4345 11.9396 17.3864C11.8914 17.3372 11.8278 17.3112 11.7594 17.3112C11.691 17.3112 11.6283 17.3363 11.5792 17.3844C11.5291 17.4326 11.5031 17.4972 11.5031 17.5665C11.5031 17.6359 11.5301 17.6986 11.5792 17.7477C11.6283 17.7959 11.691 17.8219 11.7594 17.8219C11.8278 17.8219 11.8914 17.7949 11.9396 17.7458C11.9868 17.6976 12.0128 17.635 12.0128 17.5675V17.5656ZM12.3289 17.0424C12.3289 16.974 12.3028 16.9123 12.2556 16.8632C12.2074 16.814 12.1438 16.787 12.0754 16.787C12.007 16.787 11.9444 16.8121 11.8953 16.8603C11.8451 16.9084 11.8191 16.973 11.8191 17.0424C11.8191 17.1118 11.8461 17.1744 11.8953 17.2235C11.9444 17.2717 12.007 17.2977 12.0754 17.2977C12.1438 17.2977 12.2074 17.2707 12.2556 17.2216C12.3028 17.1734 12.3289 17.1108 12.3289 17.0433V17.0424Z" fill="#C9271E"/>
<path fill-rule="evenodd" clip-rule="evenodd" d="M20.4978 17.5656C20.4978 17.4972 20.4728 17.4345 20.4246 17.3864C20.3764 17.3372 20.3128 17.3112 20.2444 17.3112C20.176 17.3112 20.1133 17.3363 20.0642 17.3844C20.0141 17.4326 19.9881 17.4972 19.9881 17.5666C19.9881 17.6359 20.0151 17.6986 20.0642 17.7477C20.1133 17.7959 20.176 17.8219 20.2444 17.8219C20.3128 17.8219 20.3764 17.7949 20.4246 17.7458C20.4718 17.6976 20.4978 17.635 20.4978 17.5675V17.5656ZM19.8657 17.5656C19.8657 17.4972 19.8407 17.4345 19.7925 17.3864C19.7443 17.3372 19.6807 17.3112 19.6123 17.3112C19.5439 17.3112 19.4813 17.3363 19.4321 17.3844C19.383 17.4326 19.356 17.4972 19.356 17.5666C19.356 17.6359 19.383 17.6986 19.4321 17.7477C19.4813 17.7959 19.5439 17.8219 19.6123 17.8219C19.6807 17.8219 19.7443 17.7949 19.7925 17.7458C19.8397 17.6976 19.8657 17.635 19.8657 17.5675V17.5656ZM20.1818 17.0424C20.1818 16.974 20.1557 16.9123 20.1085 16.8632C20.0603 16.814 19.9968 16.787 19.9283 16.787C19.8599 16.787 19.7973 16.8121 19.7482 16.8603C19.6981 16.9084 19.672 16.973 19.672 17.0424C19.672 17.1118 19.699 17.1744 19.7482 17.2235C19.7973 17.2717 19.8599 17.2977 19.9283 17.2977C19.9968 17.2977 20.0603 17.2707 20.1085 17.2216C20.1557 17.1734 20.1818 17.1108 20.1818 17.0433V17.0424Z" fill="#C9271E"/>
<path fill-rule="evenodd" clip-rule="evenodd" d="M17.9628 14.2519C17.4213 14.3194 17.0359 14.8127 17.1033 15.3552C17.1708 15.8967 17.6641 16.2821 18.2066 16.2147C18.7481 16.1472 19.1335 15.6539 19.0661 15.1114C18.9986 14.5699 18.5053 14.1845 17.9628 14.2519Z" fill="#460003"/>
<path fill-rule="evenodd" clip-rule="evenodd" d="M18.3018 14.5294C18.1187 14.5525 17.9887 14.7192 18.0118 14.9023C18.0349 15.0854 18.2016 15.2155 18.3847 15.1923C18.5678 15.1692 18.6978 15.0025 18.6747 14.8194C18.6516 14.6364 18.4849 14.5063 18.3018 14.5294Z" fill="#DDF2EC"/>
<path fill-rule="evenodd" clip-rule="evenodd" d="M13.7935 14.2519C13.252 14.3194 12.8665 14.8127 12.934 15.3552C13.0014 15.8967 13.4948 16.2821 14.0373 16.2147C14.5788 16.1472 14.9642 15.6539 14.8968 15.1114C14.8293 14.5699 14.335 14.1845 13.7935 14.2519Z" fill="#460003"/>
<path fill-rule="evenodd" clip-rule="evenodd" d="M14.1327 14.5294C13.9497 14.5525 13.8196 14.7192 13.8427 14.9023C13.8658 15.0854 14.0325 15.2155 14.2156 15.1923C14.3987 15.1692 14.5288 15.0025 14.5056 14.8194C14.4825 14.6364 14.3158 14.5063 14.1327 14.5294Z" fill="#DDF2EC"/>
<path fill-rule="evenodd" clip-rule="evenodd" d="M16.0163 20.0496C18.1805 19.5727 18.9022 18.1273 18.6391 17.3247C18.2287 16.0711 16.6215 16.5702 16.0154 17.343C15.4103 16.5712 13.8021 16.0721 13.3916 17.3247C13.1286 18.1273 13.8561 19.5717 16.0154 20.0496H16.0163Z" fill="#FF8E94"/>
<path fill-rule="evenodd" clip-rule="evenodd" d="M17.2122 17.4519C16.8798 17.4519 16.611 17.7207 16.611 18.0532C16.611 18.3856 16.8798 18.6544 17.2122 18.6544C17.5446 18.6544 17.8135 18.3846 17.8135 18.0532C17.8135 17.7217 17.5446 17.4519 17.2122 17.4519ZM14.8197 17.4519C14.4873 17.4519 14.2185 17.7207 14.2185 18.0532C14.2185 18.3856 14.4873 18.6544 14.8197 18.6544C15.1521 18.6544 15.421 18.3846 15.421 18.0532C15.421 17.7217 15.1521 17.4519 14.8197 17.4519Z" fill="#E82E2F"/>
<path fill-rule="evenodd" clip-rule="evenodd" d="M17.0204 22.658C17.6535 23.5734 18.2104 22.8834 18.1189 22.3371C18.0264 21.7908 17.3577 21.0257 16.1976 20.7887C15.0374 20.5516 14.1375 21.0334 13.8446 21.5191C13.5516 22.0047 13.9236 22.8912 14.6934 22.182C15.2716 21.6491 16.4693 21.8602 17.0204 22.658Z" fill="#460003"/>
<path fill-rule="evenodd" clip-rule="evenodd" d="M18.6778 13.483C18.2683 13.5986 17.5533 13.7489 17.2045 14.0958C16.9762 14.3232 16.7642 14.0698 16.9521 13.7316C17.2093 13.2672 17.905 13.1014 18.4061 13.0716C18.911 13.0417 19.3311 13.299 18.6778 13.484V13.483Z" fill="#460003"/>
<path fill-rule="evenodd" clip-rule="evenodd" d="M13.1806 13.483C13.5901 13.5986 14.3051 13.7489 14.6539 14.0958C14.8823 14.3232 15.0942 14.0698 14.9063 13.7316C14.6491 13.2672 13.9534 13.1014 13.4523 13.0716C12.9474 13.0417 12.5273 13.299 13.1806 13.484V13.483Z" fill="#460003"/>
<rect x="1" y="1" width="30" height="30" rx="15" stroke="#FCB00D" stroke-width="2"/>
</svg>
