<svg width="32" height="32" viewBox="0 0 32 32" fill="none" xmlns="http://www.w3.org/2000/svg">
<rect x="1" y="1" width="30" height="30" rx="15" fill="#DDF2EC"/>
<path fill-rule="evenodd" clip-rule="evenodd" d="M23.6265 7.89921C24.858 8.66716 24.3521 12.0897 23.4724 13.5004C22.5926 14.911 21.4797 14.7607 20.2483 13.9927C19.0169 13.2248 17.9772 12.1244 18.856 10.7138C19.3493 9.92171 20.8688 9.33587 21.7871 8.97935C22.504 8.70089 23.086 7.56196 23.6256 7.89824L23.6265 7.89921Z" fill="#FEA9AC"/>
<path fill-rule="evenodd" clip-rule="evenodd" d="M23.2257 9.37729C24.0543 9.73766 23.3519 11.8199 22.8046 12.6977C22.4789 13.2209 22.1012 13.3992 21.6878 13.3568C21.6657 13.3548 20.4343 13.562 19.8812 12.4433C19.6952 12.0675 19.4428 11.4489 19.9091 11.0076C20.2252 10.7089 20.7966 10.4941 21.3766 10.285C22.1542 10.0055 22.8152 9.19807 23.2266 9.37633L23.2257 9.37729Z" fill="#F46C6E"/>
<path fill-rule="evenodd" clip-rule="evenodd" d="M8.37342 7.8992C7.14199 8.66715 7.64786 12.0897 8.52759 13.5003C9.40731 14.911 10.5202 14.7607 11.7516 13.9927C12.9831 13.2248 14.0227 12.1244 13.144 10.7137C12.6506 9.9217 11.1311 9.33586 10.2128 8.97934C9.49596 8.70088 8.91397 7.56195 8.37438 7.89824L8.37342 7.8992Z" fill="#FEA9AC"/>
<path fill-rule="evenodd" clip-rule="evenodd" d="M8.77327 9.37729C7.94461 9.73766 8.64704 11.8199 9.19434 12.6977C9.52002 13.2209 9.89773 13.3992 10.3111 13.3568C10.3333 13.3548 11.5647 13.562 12.1178 12.4433C12.3037 12.0675 12.5562 11.4489 12.0898 11.0076C11.7738 10.7089 11.2024 10.494 10.6223 10.285C9.84378 10.0055 9.18374 9.19807 8.7723 9.37633L8.77327 9.37729Z" fill="#F46C6E"/>
<path fill-rule="evenodd" clip-rule="evenodd" d="M18.3877 10.6386C19.9583 11.3275 22.1677 12.8432 22.2891 15.9487C22.2959 16.128 22.3016 16.3043 22.3045 16.4768C23.2912 17.3469 23.8751 18.427 23.8751 19.5977C23.8751 22.4739 20.3485 24.8048 15.999 24.8048C11.6495 24.8048 8.12293 22.4739 8.12293 19.5977C8.12293 18.427 8.70684 17.3469 9.69352 16.4768C9.69738 16.3043 9.70219 16.128 9.70894 15.9487C9.83035 12.8345 12.0523 11.3189 13.6239 10.6328C13.7424 9.92749 14.3735 9.14027 14.2598 8.57562C14.254 8.54768 14.2656 8.52166 14.2906 8.50432C14.3157 8.48601 14.3485 8.4812 14.3803 8.48987C14.9083 8.63729 15.0682 9.13834 15.3139 9.50931C15.3332 9.53821 15.3698 9.55363 15.4093 9.54785C15.4488 9.54303 15.4777 9.51894 15.4854 9.48618C15.6656 8.73268 15.5018 7.93582 16.0694 7.22954C16.0935 7.19967 16.1378 7.18714 16.1792 7.20063C16.2197 7.21316 16.2438 7.24688 16.239 7.2835C16.1175 8.07072 16.5945 8.28656 16.6774 9.14508C16.6803 9.17977 16.7101 9.20772 16.7506 9.21446C16.7911 9.22121 16.8315 9.20579 16.8508 9.17495C17.0194 8.9119 17.2025 8.74135 17.2738 7.88186C17.2767 7.85199 17.2979 7.82694 17.3307 7.81538C17.3634 7.80382 17.4 7.80863 17.427 7.82791C18.0659 8.29041 18.3434 9.8215 18.3858 10.6376L18.3877 10.6386Z" fill="#FFCECD"/>
<path fill-rule="evenodd" clip-rule="evenodd" d="M12.6449 17.5656C12.6449 17.4972 12.6198 17.4345 12.5717 17.3864C12.5235 17.3372 12.4599 17.3112 12.3915 17.3112C12.3231 17.3112 12.2604 17.3363 12.2113 17.3844C12.1622 17.4336 12.1352 17.4972 12.1352 17.5665C12.1352 17.6359 12.1622 17.6995 12.2113 17.7477C12.2604 17.7959 12.3231 17.8219 12.3915 17.8219C12.4599 17.8219 12.5235 17.7949 12.5717 17.7458C12.6189 17.6976 12.6449 17.635 12.6449 17.5675V17.5656ZM12.0128 17.5656C12.0128 17.4972 11.9878 17.4345 11.9396 17.3864C11.8914 17.3372 11.8278 17.3112 11.7594 17.3112C11.691 17.3112 11.6283 17.3363 11.5792 17.3844C11.5301 17.4336 11.5031 17.4972 11.5031 17.5665C11.5031 17.6359 11.5301 17.6995 11.5792 17.7477C11.6283 17.7959 11.691 17.8219 11.7594 17.8219C11.8278 17.8219 11.8914 17.7949 11.9396 17.7458C11.9868 17.6976 12.0128 17.635 12.0128 17.5675V17.5656ZM12.3288 17.0424C12.3288 16.974 12.3038 16.9123 12.2556 16.8632C12.2074 16.814 12.1438 16.787 12.0754 16.787C12.007 16.787 11.9444 16.8121 11.8952 16.8603C11.8451 16.9084 11.8191 16.973 11.8191 17.0424C11.8191 17.1118 11.8461 17.1744 11.8952 17.2235C11.9444 17.2717 12.007 17.2977 12.0754 17.2977C12.1438 17.2977 12.2074 17.2707 12.2556 17.2216C12.3028 17.1734 12.3288 17.1108 12.3288 17.0433V17.0424Z" fill="#F46C6E"/>
<path fill-rule="evenodd" clip-rule="evenodd" d="M20.4978 17.5656C20.4978 17.4972 20.4727 17.4345 20.4246 17.3864C20.3764 17.3372 20.3128 17.3112 20.2444 17.3112C20.176 17.3112 20.1124 17.3363 20.0642 17.3844C20.0151 17.4336 19.9881 17.4972 19.9881 17.5666C19.9881 17.6359 20.0151 17.6995 20.0642 17.7477C20.1133 17.7959 20.176 17.8219 20.2444 17.8219C20.3128 17.8219 20.3764 17.7949 20.4246 17.7458C20.4718 17.6976 20.4978 17.635 20.4978 17.5675V17.5656ZM19.8657 17.5656C19.8657 17.4972 19.8407 17.4345 19.7925 17.3864C19.7443 17.3372 19.6807 17.3112 19.6123 17.3112C19.5439 17.3112 19.4803 17.3363 19.4321 17.3844C19.383 17.4336 19.356 17.4972 19.356 17.5666C19.356 17.6359 19.383 17.6995 19.4321 17.7477C19.4813 17.7959 19.5439 17.8219 19.6123 17.8219C19.6807 17.8219 19.7443 17.7949 19.7925 17.7458C19.8397 17.6976 19.8657 17.635 19.8657 17.5675V17.5656ZM20.1818 17.0424C20.1818 16.974 20.1567 16.9123 20.1085 16.8632C20.0603 16.814 19.9968 16.787 19.9283 16.787C19.8599 16.787 19.7973 16.8121 19.7482 16.8603C19.6981 16.9084 19.672 16.973 19.672 17.0424C19.672 17.1118 19.699 17.1744 19.7482 17.2235C19.7973 17.2717 19.8599 17.2977 19.9283 17.2977C19.9968 17.2977 20.0603 17.2707 20.1085 17.2216C20.1557 17.1734 20.1818 17.1108 20.1818 17.0433V17.0424Z" fill="#F46C6E"/>
<path fill-rule="evenodd" clip-rule="evenodd" d="M16.0163 20.0496C18.1805 19.5727 18.9022 18.1273 18.6391 17.3247C18.2287 16.0711 16.6215 16.5702 16.0154 17.343C15.4103 16.5712 13.8021 16.0721 13.3916 17.3247C13.1286 18.1273 13.8561 19.5717 16.0154 20.0496H16.0163Z" fill="#FF8E94"/>
<path fill-rule="evenodd" clip-rule="evenodd" d="M17.2121 17.4519C16.8797 17.4519 16.6108 17.7207 16.6108 18.0532C16.6108 18.3856 16.8797 18.6544 17.2121 18.6544C17.5445 18.6544 17.8134 18.3856 17.8134 18.0532C17.8134 17.7207 17.5445 17.4519 17.2121 17.4519ZM14.8196 17.4519C14.4872 17.4519 14.2183 17.7207 14.2183 18.0532C14.2183 18.3856 14.4872 18.6544 14.8196 18.6544C15.152 18.6544 15.4208 18.3856 15.4208 18.0532C15.4208 17.7207 15.152 17.4519 14.8196 17.4519Z" fill="#E82E2F"/>
<path fill-rule="evenodd" clip-rule="evenodd" d="M13.4941 15.4188C12.9699 15.4843 12.492 14.7934 12.5566 15.3176C12.6221 15.8418 13.099 16.2137 13.6232 16.1491C14.1474 16.0836 14.5193 15.6067 14.4548 15.0825C14.3892 14.5583 14.0183 15.3542 13.4941 15.4188Z" fill="#460003"/>
<path fill-rule="evenodd" clip-rule="evenodd" d="M12.7684 13.4271C13.1827 13.3308 13.9045 13.2142 14.2696 12.8856C14.5086 12.6698 14.7081 12.9328 14.5047 13.2614C14.2253 13.7133 13.5229 13.8453 13.0209 13.852C12.515 13.8578 12.1074 13.5813 12.7684 13.4271Z" fill="#460003"/>
<path fill-rule="evenodd" clip-rule="evenodd" d="M18.5064 15.4188C19.0306 15.4843 19.5085 14.7934 19.444 15.3176C19.3784 15.8418 18.9015 16.2137 18.3773 16.1491C17.8531 16.0836 17.4812 15.6067 17.5458 15.0825C17.6113 14.5583 17.9822 15.3542 18.5064 15.4188Z" fill="#460003"/>
<path fill-rule="evenodd" clip-rule="evenodd" d="M19.2308 13.4271C18.8165 13.3308 18.0948 13.2142 17.7296 12.8856C17.4906 12.6698 17.2912 12.9328 17.4945 13.2614C17.7739 13.7133 18.4764 13.8453 18.9784 13.852C19.4842 13.8578 19.8918 13.5813 19.2299 13.4271H19.2308Z" fill="#460003"/>
<path fill-rule="evenodd" clip-rule="evenodd" d="M17.033 21.6337C17.2055 21.679 17.3818 21.5759 17.4271 21.4034C17.4724 21.231 17.3693 21.0546 17.1968 21.0093C16.7815 20.8995 16.3749 20.8513 15.975 20.8552C15.5751 20.859 15.1859 20.913 14.8072 21.0084C14.6337 21.0517 14.5287 21.2271 14.5721 21.4005C14.6154 21.574 14.7908 21.679 14.9642 21.6356C15.2996 21.5518 15.6387 21.5036 15.9808 21.5007C16.3228 21.4979 16.6736 21.5393 17.0339 21.6347L17.033 21.6337Z" fill="#460003"/>
<rect x="1" y="1" width="30" height="30" rx="15" stroke="#FCB00D" stroke-width="2"/>
</svg>
