<svg width="98" height="143" viewBox="0 0 98 143" fill="none" xmlns="http://www.w3.org/2000/svg">
<g clip-path="url(#clip0_31_609)">
<g style="mix-blend-mode:multiply" opacity="0.44">
<path d="M48.8994 106.109C64.946 106.109 79.122 99.8924 87.7048 90.3873V70.5898C87.7048 69.338 83.8482 70.5898 82.5304 70.5898H14.0123C12.6945 70.5898 10.2952 69.338 10.2952 70.5898V90.6089C18.8995 99.9885 32.9789 106.109 48.8994 106.109Z" fill="#06470B"/>
</g>
<path d="M85.3109 116.15C85.3109 116.15 58.0781 124.398 48.9987 124.398C39.9193 124.398 12.6865 116.15 12.6865 116.15C11.3687 116.15 10.2925 115.125 10.2925 113.876V73.4485C10.2925 72.1966 12.6945 73.4485 14.0096 73.4485H82.5277C83.8455 73.4485 87.7021 72.1966 87.7021 73.4485V113.876C87.7021 115.128 86.6259 116.15 85.3082 116.15H85.3109Z" fill="#006A0F"/>
<path d="M85.3109 114.186C85.3109 114.186 58.0781 122.434 48.9987 122.434C39.9193 122.434 12.6865 114.186 12.6865 114.186C11.3687 114.186 10.2925 113.161 10.2925 111.912V73.0748C10.2925 71.823 12.6945 73.0748 14.0096 73.0748H82.5277C83.8455 73.0748 87.7021 71.823 87.7021 73.0748V111.912C87.7021 113.164 86.6259 114.186 85.3082 114.186H85.3109Z" fill="url(#paint0_linear_31_609)"/>
<path d="M80.3242 110.219C80.3242 110.219 56.9239 116.852 49.122 116.852C41.3201 116.852 17.9198 110.219 17.9198 110.219C16.7872 110.219 15.8613 109.272 15.8613 108.113V73.0721C15.8613 71.9137 17.9252 73.0721 19.0551 73.0721H77.9329C79.0655 73.0721 82.38 71.9137 82.38 73.0721V108.113C82.38 109.272 81.4541 110.219 80.3215 110.219H80.3242Z" fill="url(#paint1_linear_31_609)"/>
<path d="M68.7866 134.752C68.7866 134.752 53.9477 143 49.0014 143C44.0551 143 29.2162 134.752 29.2162 134.752C28.4996 134.752 27.9119 133.727 27.9119 132.478V92.0502C27.9119 90.7983 29.2216 92.0502 29.9382 92.0502H67.2729C67.9895 92.0502 70.0936 90.7983 70.0936 92.0502V132.478C70.0936 133.73 69.5058 134.752 68.7893 134.752H68.7866Z" fill="#006A0F"/>
<path d="M68.7866 132.788C68.7866 132.788 53.9477 141.035 49.0014 141.035C44.0551 141.035 29.2162 132.788 29.2162 132.788C28.4996 132.788 27.9119 131.763 27.9119 130.513V91.6765C27.9119 90.4246 29.2216 91.6765 29.9382 91.6765H67.2729C67.9895 91.6765 70.0936 90.4246 70.0936 91.6765V130.513C70.0936 131.765 69.5058 132.788 68.7893 132.788H68.7866Z" fill="url(#paint2_linear_31_609)"/>
<path d="M64.275 128.821C64.275 128.821 52.8204 135.454 49.0013 135.454C45.1822 135.454 33.7276 128.821 33.7276 128.821C33.1748 128.821 32.7212 127.874 32.7212 126.715V91.6738C32.7212 90.5154 33.7303 91.6738 34.2859 91.6738H63.1075C63.6604 91.6738 65.2841 90.5154 65.2841 91.6738V126.715C65.2841 127.874 64.8305 128.821 64.2776 128.821H64.275Z" fill="url(#paint3_linear_31_609)"/>
<g style="mix-blend-mode:multiply" opacity="0.44">
<path d="M48.8994 103.509C56.5188 103.509 63.7141 102.105 70.0909 99.6174V86.7412C70.0909 85.4893 67.9895 86.7412 67.2702 86.7412H65.2815C65.2815 85.5828 63.6578 86.7412 63.1049 86.7412H34.2833C33.7304 86.7412 32.7186 85.5828 32.7186 86.7412H29.9355C29.2189 86.7412 27.9092 85.4893 27.9092 86.7412V99.6948C34.235 102.135 41.3605 103.509 48.8994 103.509Z" fill="#06470B"/>
</g>
<path d="M83.6467 87.4369C102.782 68.406 102.782 37.5508 83.6467 18.5199C64.5115 -0.511024 33.4873 -0.51102 14.3521 18.5199C-4.78305 37.5508 -4.78305 68.406 14.3521 87.4369C33.4873 106.468 64.5115 106.468 83.6467 87.4369Z" fill="#A54700"/>
<path d="M83.6467 83.1902C102.782 64.1593 102.782 33.3041 83.6467 14.2732C64.5115 -4.75773 33.4873 -4.75772 14.3521 14.2732C-4.78305 33.3041 -4.78305 64.1593 14.3521 83.1902C33.4873 102.221 64.5115 102.221 83.6467 83.1902Z" fill="url(#paint4_linear_31_609)"/>
<path d="M77.1659 76.7447C92.7218 61.2735 92.7218 36.1899 77.1659 20.7187C61.61 5.24757 36.3889 5.24756 20.833 20.7187C5.27706 36.1898 5.27706 61.2735 20.833 76.7447C36.3889 92.2158 61.61 92.2158 77.1659 76.7447Z" fill="url(#paint5_linear_31_609)"/>
<path d="M74.8277 18.5857C82.6457 25.8192 87.5437 36.1357 87.5437 47.5919C87.5437 69.4714 69.7096 87.2083 47.7103 87.2083C37.8526 87.2083 28.8376 83.6396 21.8811 77.7406C28.9932 84.3202 38.5208 88.3507 48.9985 88.3507C70.9979 88.3507 88.8319 70.6138 88.8319 48.7344C88.8319 36.6589 83.3918 25.8539 74.8277 18.5857Z" fill="#FAFF8F"/>
<path d="M74.6343 74.2269C88.792 60.1463 88.792 37.3171 74.6343 23.2365C60.4766 9.15591 37.5223 9.15591 23.3646 23.2365C9.20685 37.3171 9.20685 60.1463 23.3646 74.2269C37.5223 88.3075 60.4766 88.3075 74.6343 74.2269Z" fill="url(#paint6_linear_31_609)"/>
<g style="mix-blend-mode:multiply" opacity="0.44">
<path d="M15.6522 50.2905C15.6522 30.3782 31.884 14.2348 51.9053 14.2348C57.5145 14.2348 62.8258 15.5027 67.5655 17.7635C62.1334 14.5365 55.7862 12.676 48.9988 12.676C28.9774 12.676 12.7456 28.8194 12.7456 48.7317C12.7456 63.0653 21.1567 75.4451 33.3386 81.2586C22.7482 74.9646 15.6522 63.4523 15.6522 50.2905Z" fill="#06470B"/>
</g>
<path d="M3.10247 15.9591L1.46265 31.598L19.9864 28.1307L3.10247 15.9591Z" fill="#D58D21"/>
<path d="M3.10254 15.9618L17.5603 9.59839L19.9409 28.1947L3.10254 15.9618Z" fill="url(#paint7_linear_31_609)"/>
<path d="M3.10251 15.9617L3.5346 15.7695L19.9408 28.1947L3.0542 16.4208L3.10251 15.9617Z" fill="#FAFF8F"/>
<path d="M94.7123 15.9591L96.336 31.598L77.8149 28.1147L94.7123 15.9591Z" fill="#D58D21"/>
<path d="M94.7124 15.9591L80.2599 9.58508L77.8606 28.1788L94.7124 15.9591Z" fill="url(#paint8_linear_31_609)"/>
<path d="M94.7124 15.9592L94.2776 15.7697L77.8606 28.1788L94.758 16.4183L94.7124 15.9592Z" fill="#FAFF8F"/>
<path d="M94.7418 80.893L96.2662 65.2434L77.7693 68.8442L94.7418 80.893Z" fill="url(#paint9_linear_31_609)"/>
<path d="M94.7419 80.893L80.3297 87.3578L77.8149 68.7802L94.7419 80.893Z" fill="#D58D21"/>
<path d="M94.7418 80.893L94.3097 81.0852L77.8149 68.7802L94.7875 80.4312L94.7418 80.893Z" fill="#FAFF8F"/>
<path d="M2.98706 80.893L1.46265 65.2434L19.9596 68.8442L2.98706 80.893Z" fill="url(#paint10_linear_31_609)"/>
<path d="M2.98706 80.893L17.3992 87.3578L19.914 68.7802L2.98706 80.893Z" fill="#D58D21"/>
<path d="M2.98703 80.893L3.41913 81.0852L19.9139 68.7802L2.94141 80.4312L2.98703 80.893Z" fill="#FAFF8F"/>
<path d="M69.8091 70.6886C58.1157 82.3183 39.1571 82.3183 27.461 70.6886C15.7676 59.0588 15.7676 40.2036 27.461 28.5739C39.1544 16.9441 58.113 16.9441 69.8064 28.5739C81.4999 40.2036 81.5026 59.0588 69.8064 70.6912L69.8091 70.6886Z" fill="url(#paint11_linear_31_609)"/>
<path style="mix-blend-mode:overlay" opacity="0.5" d="M62.0796 62.9533C54.8548 70.1388 43.1452 70.1388 35.923 62.9533C28.6982 55.7678 28.6982 44.1194 35.923 36.9339C43.1479 29.7484 54.8575 29.7511 62.0823 36.9339C69.3045 44.1167 69.3045 55.7625 62.0823 62.948L62.0796 62.9533Z" fill="url(#paint12_linear_31_609)"/>
<g style="mix-blend-mode:soft-light">
<path d="M69.2617 29.0624C80.923 40.6601 81.0786 59.3338 69.7824 71.1531C69.9729 70.9742 70.1769 70.8194 70.3621 70.6352C82.2085 58.8534 82.2085 39.7499 70.3621 27.968C58.5157 16.1861 39.3075 16.1861 27.4611 27.968C27.2759 28.1522 27.1202 28.355 26.9377 28.5419C38.8244 17.3072 57.6005 17.462 69.2617 29.0624Z" fill="#F3EFF9"/>
</g>
<g style="mix-blend-mode:multiply" opacity="0.25">
<path d="M28.5157 69.5863C16.8464 57.9806 16.6988 39.2908 28.0139 27.4716C27.8314 27.6451 27.6381 27.7919 27.4583 27.968C15.6119 39.7499 15.6119 58.8534 27.4583 70.6353C39.3047 82.4171 58.5129 82.4171 70.3593 70.6353C70.5364 70.4591 70.6867 70.2643 70.8585 70.0827C58.9745 81.3361 40.1823 81.1893 28.5157 69.5836V69.5863Z" fill="#890000"/>
</g>
<g style="mix-blend-mode:overlay" opacity="0.58">
<path d="M68.9745 29.3534C58.0352 18.4737 40.3031 18.4737 29.3639 29.3534C18.4273 40.2304 18.4246 57.8685 29.3639 68.7482C40.2978 79.6225 58.0352 79.6198 68.9691 68.7455C79.9084 57.8658 79.9084 40.2304 68.9718 29.356L68.9745 29.3534Z" fill="#F3EFF9"/>
</g>
<g style="mix-blend-mode:soft-light">
<path d="M57.9465 22.739L56.3523 29.1718C59.3152 30.1914 62.1011 31.8517 64.4655 34.2032C67.2218 36.9445 69.0468 40.2543 69.9808 43.751L70.0962 43.8658L76.4569 42.3283C75.2572 37.6438 72.8417 33.2023 69.1542 29.5348C65.9014 26.2997 62.042 24.0469 57.9438 22.7363L57.9465 22.739Z" fill="#F3EFF9"/>
</g>
<path d="M36.2425 37.9856C43.4647 30.8027 55.1796 30.8027 62.4018 37.9856C65.0266 40.596 66.6879 43.8018 67.4045 47.1649C66.9133 43.2492 65.1715 39.459 62.1495 36.4534C54.9273 29.2706 43.2151 29.2679 35.9903 36.4534C31.3929 41.0258 29.7316 47.4052 30.9903 53.2908C30.3032 47.8509 32.0423 42.1629 36.2452 37.9856H36.2425Z" fill="white"/>
<path style="mix-blend-mode:overlay" opacity="0.53" d="M62.1469 36.4535C61.4411 35.7515 60.6869 35.1402 59.9033 34.577L45.9205 31.3473C42.2839 31.9692 38.7976 33.6615 35.9904 36.4535C33.1455 39.2828 31.4359 42.8089 30.832 46.479L65.2575 40.5827C64.4362 39.1013 63.4083 37.7053 62.1469 36.4508V36.4535Z" fill="url(#paint13_linear_31_609)"/>
<path style="mix-blend-mode:overlay" opacity="0.53" d="M35.9877 62.4702C39.3694 65.8334 43.7386 67.6031 48.1696 67.8166L67.5549 49.2523C67.5227 46.3135 66.7873 43.3881 65.3488 40.7349L33.9829 60.0759C34.5787 60.9141 35.2363 61.7202 35.9904 62.4702H35.9877Z" fill="url(#paint14_linear_31_609)"/>
<path style="mix-blend-mode:overlay" opacity="0.4" d="M62.1466 36.4534C54.9245 29.2706 43.2122 29.2679 35.9874 36.4534C32.2246 40.1957 30.4426 45.1444 30.5982 50.045C33.902 47.7015 39.2214 44.8961 46.049 44.3569C53.6872 43.7537 62.0581 48.4729 67.3425 52.1697C68.1718 46.6071 66.4542 40.7375 62.1466 36.4534Z" fill="url(#paint15_linear_31_609)"/>
<g style="mix-blend-mode:multiply" opacity="0.25">
<path d="M42.0958 75.9443L43.8484 69.5809C40.2467 68.6681 36.8355 66.837 34.0175 64.0343C31.2397 61.2717 29.4094 57.9325 28.4781 54.4092L22.0771 56.1281C23.2956 60.7325 25.6923 65.094 29.3208 68.7028C32.9869 72.3489 37.4179 74.7379 42.0958 75.9417V75.9443Z" fill="#890000"/>
</g>
<g style="mix-blend-mode:multiply" opacity="0.15">
<path d="M68.9691 68.7428C69.0631 68.6494 69.1463 68.5453 69.2375 68.4492L64.5677 63.7567C64.4657 63.8581 64.3825 63.9729 64.2778 64.077C58.7438 69.5809 50.9311 71.412 43.8619 69.6156L42.1201 75.9817C51.4142 78.376 61.6933 75.9843 68.9718 68.7455L68.9691 68.7428Z" fill="#890000"/>
</g>
<path style="mix-blend-mode:multiply" d="M34.0148 64.0343C31.2371 61.2717 29.4067 57.9325 28.4754 54.4092L22.0745 56.1281C23.2929 60.7325 25.6896 65.094 29.3181 68.7028C32.9842 72.3489 37.4152 74.7379 42.0931 75.9417L43.8457 69.5783C40.244 68.6654 36.8328 66.8343 34.0148 64.0317V64.0343Z" fill="url(#paint16_linear_31_609)"/>
<path style="mix-blend-mode:multiply" d="M64.5677 63.7567C64.4657 63.8581 64.3825 63.9729 64.2778 64.077C58.7437 69.5809 50.9311 71.412 43.8619 69.6156L42.1201 75.9817C51.4142 78.376 61.6933 75.9843 68.9718 68.7455C69.0658 68.652 69.149 68.5479 69.2402 68.4518L64.5703 63.7594L64.5677 63.7567Z" fill="url(#paint17_linear_31_609)"/>
<g style="mix-blend-mode:multiply" opacity="0.1">
<path d="M28.521 54.4625C26.6531 47.3945 28.4862 39.5577 34.0551 34.0191C34.149 33.9257 34.2483 33.8509 34.3423 33.7628L29.6429 29.0997C29.5516 29.1905 29.455 29.2626 29.3638 29.3533C22.0557 36.6216 19.6564 46.9007 22.1174 56.1735L28.521 54.4625Z" fill="#890000"/>
</g>
</g>
<defs>
<linearGradient id="paint0_linear_31_609" x1="48.9987" y1="99.8309" x2="48.9987" y2="121.566" gradientUnits="userSpaceOnUse">
<stop offset="0.25" stop-color="#006A0F"/>
<stop offset="1" stop-color="#539F00"/>
</linearGradient>
<linearGradient id="paint1_linear_31_609" x1="49.122" y1="115.71" x2="49.122" y2="91.6204" gradientUnits="userSpaceOnUse">
<stop offset="0.25" stop-color="#F7E436"/>
<stop offset="1" stop-color="#D58D21"/>
</linearGradient>
<linearGradient id="paint2_linear_31_609" x1="48.9987" y1="118.43" x2="48.9987" y2="140.168" gradientUnits="userSpaceOnUse">
<stop offset="0.25" stop-color="#006A0F"/>
<stop offset="1" stop-color="#539F00"/>
</linearGradient>
<linearGradient id="paint3_linear_31_609" x1="48.9986" y1="134.309" x2="48.9986" y2="110.222" gradientUnits="userSpaceOnUse">
<stop offset="0.25" stop-color="#F7E436"/>
<stop offset="1" stop-color="#D58D21"/>
</linearGradient>
<linearGradient id="paint4_linear_31_609" x1="33.0714" y1="8.52601" x2="66.8802" y2="94.7953" gradientUnits="userSpaceOnUse">
<stop stop-color="#F7E436"/>
<stop offset="1" stop-color="#CE7C1D"/>
</linearGradient>
<linearGradient id="paint5_linear_31_609" x1="67.7009" y1="81.4701" x2="32.4438" y2="19.0667" gradientUnits="userSpaceOnUse">
<stop offset="0.25" stop-color="#F7E436"/>
<stop offset="1" stop-color="#D58D21"/>
</linearGradient>
<linearGradient id="paint6_linear_31_609" x1="69.8131" y1="82.6178" x2="34.532" y2="24.5406" gradientUnits="userSpaceOnUse">
<stop stop-color="#539F00"/>
<stop offset="0.75" stop-color="#006A0F"/>
</linearGradient>
<linearGradient id="paint7_linear_31_609" x1="11.7428" y1="21.8579" x2="24.1482" y2="9.38836" gradientUnits="userSpaceOnUse">
<stop offset="0.25" stop-color="#F7E436"/>
<stop offset="1" stop-color="#D58D21"/>
</linearGradient>
<linearGradient id="paint8_linear_31_609" x1="86.0687" y1="21.8539" x2="73.6743" y2="9.37352" gradientUnits="userSpaceOnUse">
<stop offset="0.25" stop-color="#F7E436"/>
<stop offset="1" stop-color="#D58D21"/>
</linearGradient>
<linearGradient id="paint9_linear_31_609" x1="81.6249" y1="62.3381" x2="100.477" y2="78.9794" gradientUnits="userSpaceOnUse">
<stop offset="0.25" stop-color="#F7E436"/>
<stop offset="1" stop-color="#D58D21"/>
</linearGradient>
<linearGradient id="paint10_linear_31_609" x1="16.1102" y1="62.3309" x2="-2.74416" y2="78.9725" gradientUnits="userSpaceOnUse">
<stop offset="0.25" stop-color="#F7E436"/>
<stop offset="1" stop-color="#D58D21"/>
</linearGradient>
<linearGradient id="paint11_linear_31_609" x1="59.8687" y1="22.2735" x2="35.9149" y2="81.2053" gradientUnits="userSpaceOnUse">
<stop stop-color="#F7E436"/>
<stop offset="1" stop-color="#CE7C1D"/>
</linearGradient>
<linearGradient id="paint12_linear_31_609" x1="35.9114" y1="36.9388" x2="61.9271" y2="63.097" gradientUnits="userSpaceOnUse">
<stop stop-color="white"/>
<stop offset="1" stop-color="white"/>
</linearGradient>
<linearGradient id="paint13_linear_31_609" x1="40.4871" y1="51.9117" x2="47.401" y2="42.5536" gradientUnits="userSpaceOnUse">
<stop stop-color="white"/>
<stop offset="1" stop-color="white"/>
</linearGradient>
<linearGradient id="paint14_linear_31_609" x1="42.7037" y1="65.4482" x2="51.747" y2="53.2063" gradientUnits="userSpaceOnUse">
<stop stop-color="white"/>
<stop offset="1" stop-color="white"/>
</linearGradient>
<linearGradient id="paint15_linear_31_609" x1="37.7559" y1="34.689" x2="61.2048" y2="58.2663" gradientUnits="userSpaceOnUse">
<stop stop-color="white"/>
<stop offset="1" stop-color="white"/>
</linearGradient>
<linearGradient id="paint16_linear_31_609" x1="22.0771" y1="65.1768" x2="43.8484" y2="65.1768" gradientUnits="userSpaceOnUse">
<stop offset="0.25" stop-color="#F7E436"/>
<stop offset="1" stop-color="#D58D21"/>
</linearGradient>
<linearGradient id="paint17_linear_31_609" x1="42.1174" y1="70.3176" x2="69.2375" y2="70.3176" gradientUnits="userSpaceOnUse">
<stop offset="0.25" stop-color="#F7E436"/>
<stop offset="1" stop-color="#D58D21"/>
</linearGradient>
<clipPath id="clip0_31_609">
<rect width="98" height="143" fill="white"/>
</clipPath>
</defs>
</svg>
