<svg width="87" height="127" viewBox="0 0 87 127" fill="none" xmlns="http://www.w3.org/2000/svg">
<path d="M80.2033 122.46C80.2033 121.682 80.2033 77.5346 80.2033 77.5346H6.29739V122.46C6.29739 123.237 5.78474 125.767 8.11455 125.997C10.2328 126.206 38.1555 119.777 43.2492 119.187C48.343 119.777 76.2657 126.206 78.384 125.997C80.7159 125.767 80.2011 123.237 80.2011 122.46H80.2033Z" fill="#001AA4"/>
<path d="M80.2011 120.959C80.2011 120.182 80.2011 76.0339 80.2011 76.0339H6.29739V120.959C6.29739 121.736 5.78474 124.266 8.11455 124.496C10.2328 124.705 38.1555 118.276 43.2492 117.686C48.343 118.276 76.2657 124.705 78.384 124.496C80.7159 124.266 80.2011 121.736 80.2011 120.959Z" fill="url(#paint0_linear_102_1877)"/>
<path d="M75.3172 114.851C75.3172 114.073 75.3172 76.0339 75.3172 76.0339H70.4198C70.4198 87.081 70.4198 107.821 70.4198 108.398C70.4198 109.175 70.7972 111.705 69.0804 111.935C67.5207 112.144 46.9429 105.715 43.1886 105.125C39.4343 105.715 18.8565 112.144 17.2967 111.935C15.5778 111.705 15.9573 109.175 15.9573 108.398V76.0339H11.0599V114.851C11.0599 115.628 10.6127 118.158 12.6415 118.388C14.4827 118.597 38.7602 112.168 43.1908 111.578C47.6191 112.168 71.8989 118.597 73.74 118.388C75.7666 118.158 75.3216 115.628 75.3216 114.851H75.3172Z" fill="url(#paint1_linear_102_1877)"/>
<g style="mix-blend-mode:multiply" opacity="0.68">
<path d="M80.2518 82.8203H6.29785V92.0244H80.2518V82.8203Z" fill="#054466"/>
</g>
<path d="M43.2496 4.31677L1.19092 28.282V88.6376L43.2496 88.601L85.3083 88.6376V88.601V28.282L43.2496 4.31677Z" fill="#A54700"/>
<path d="M43.2496 0.893494L1.19092 24.8588V85.2144L43.2496 85.1778L85.3083 85.2144V24.8588L43.2496 0.893494ZM66.6589 69.5275L43.2496 64.9351L19.8403 69.5275V35.4861L43.2496 22.1481L66.6589 35.4861V69.5275Z" fill="url(#paint2_linear_102_1877)"/>
<path d="M85.2909 24.848L77.5882 29.266L77.2871 77.401L85.3084 85.1777V24.8587L85.2909 24.848Z" fill="#D58D21"/>
<g style="mix-blend-mode:overlay" opacity="0.51">
<path d="M9.21217 29.4059L1.20837 24.848L1.19092 24.8588L43.2496 0.893494V10.0094L9.21217 29.4059Z" fill="white"/>
</g>
<path d="M43.2496 0.893494V22.1459L66.6589 35.4861V69.5253L43.2496 64.9329V77.401H9.21217L1.19092 85.1778H43.2496L85.3083 85.2144V24.8588L43.2496 0.893494Z" fill="#D58D21"/>
<path d="M43.2498 10.0093L9.2124 29.4058V77.4009H77.2894V29.4058L43.2498 10.0093ZM70.324 71.5921L43.2498 69.0881L16.1756 71.5921V33.3738L43.2498 17.9475L70.324 33.3738V71.5921Z" fill="url(#paint3_linear_102_1877)"/>
<path d="M14.7795 71.4112L16.1756 33.3738L43.2498 17.9453V10.0093L9.2124 29.4058V77.4009L14.7795 71.4112Z" fill="#D58D21"/>
<path d="M73.8055 73.5751V31.3888L43.2497 13.9774L12.6938 31.3888V73.5751H73.8055Z" fill="url(#paint4_linear_102_1877)"/>
<g style="mix-blend-mode:multiply" opacity="0.68">
<path d="M14.2165 31.8711L43.1864 15.5469L73.8055 32.6397V31.3888L43.2497 13.9774L12.6938 31.3888V73.5751L14.2165 73.5493V31.8711Z" fill="#054466"/>
</g>
<path d="M77.287 29.4059L76.7351 76.9231H9.70955L1.19092 85.2143L9.21217 77.9264L77.287 77.5862L85.3083 85.1777L77.4615 77.2374L77.6797 29.5351L82.4942 26.4197L77.287 28.943L43.5136 9.85434L43.2496 4.05841L42.9878 10.1601L77.287 29.4059Z" fill="#FAFF8F"/>
<path d="M0.401367 24.5616V37.2451L15.0826 32.9218L0.401367 24.5616Z" fill="#D58D21"/>
<path d="M0.401367 24.5616L11.5508 18.2554L15.0499 32.9756L0.401367 24.5616Z" fill="url(#paint5_linear_102_1877)"/>
<path d="M0.401367 24.5617L0.735132 24.3744L15.0499 32.9757L0.401367 24.9342V24.5617Z" fill="#FAFF8F"/>
<path d="M86.098 24.5616V37.2451L71.4189 32.9218L86.098 24.5616Z" fill="#D58D21"/>
<path d="M86.0978 24.5616L74.9483 18.2554L71.4492 32.9756L86.0978 24.5616Z" fill="url(#paint6_linear_102_1877)"/>
<path d="M86.0978 24.5617L85.764 24.3744L71.4492 32.9757L86.0978 24.9342V24.5617Z" fill="#FAFF8F"/>
<path d="M43.2492 0L31.9819 6.0995L42.8805 16.7247L43.2492 0Z" fill="url(#paint7_linear_102_1877)"/>
<path d="M43.2476 0L54.2117 6.61623L42.8179 16.7247L43.2476 0Z" fill="#D58D21"/>
<path d="M43.2476 0L43.577 0.198078L42.8179 16.7247L42.916 0.180854L43.2476 0Z" fill="#FAFF8F"/>
<path d="M86.4249 86.5708V75.726L71.7437 72.2274L86.4249 86.5708Z" fill="url(#paint8_linear_102_1877)"/>
<path d="M86.4251 86.5708L74.0104 86.4351L71.7744 72.1735L86.4251 86.5708Z" fill="#D58D21"/>
<path d="M86.4251 86.5708H85.906L71.7744 72.1735L86.4251 86.1983V86.5708Z" fill="#FAFF8F"/>
<path d="M0 86.5708V75.726L14.6813 72.2274L0 86.5708Z" fill="url(#paint9_linear_102_1877)"/>
<path d="M0 86.5708L12.4125 86.4351L14.6507 72.1735L0 86.5708Z" fill="#D58D21"/>
<path d="M0 86.5708H0.517008L14.6507 72.1735L0 86.1983V86.5708Z" fill="#FAFF8F"/>
<path d="M55.5796 33.6238C53.9347 30.715 49.1595 22.5766 46.0116 20.3525C42.5126 17.8809 36.4765 27.8257 32.949 33.9316C26.2955 33.8735 13.3355 34.9285 15.3773 39.6048C17.0658 43.4738 22.8008 49.2784 26.2585 52.5617C24.2493 58.4287 20.9117 72.264 26.2955 71.6848C31.2802 71.1509 40.4991 66.1301 43.9262 64.1816C47.4034 66.0418 56.7554 70.8172 61.7531 71.2219C67.1501 71.659 63.4416 57.9163 61.2754 52.1031C64.6436 48.7293 70.2216 42.7784 71.8031 38.8642C73.5832 34.4699 62.4948 33.5419 55.5817 33.6195L55.5796 33.6238Z" fill="url(#paint10_linear_102_1877)"/>
<path style="mix-blend-mode:multiply" d="M71.9336 37.5508L66.8508 38.5714L52.0736 37.9556L55.5683 33.6216C53.9234 30.7128 49.1482 22.5744 46.0004 20.3504C45.4572 19.9671 44.8551 19.8832 44.2094 20.036V33.4536L54.9684 42.7159L51.3777 52.7167C42.5013 48.8929 27.4404 42.4554 26.6311 42.4554C25.8218 42.4554 18.8215 40.1732 15.1719 38.9568C15.2024 39.1634 15.2657 39.3787 15.3638 39.6027C17.0523 43.4716 22.7874 49.2762 26.245 52.5595C26.2297 52.6069 26.2123 52.6564 26.197 52.7038L31.2013 50.9362C31.2013 50.9362 34.8727 56.6675 36.5852 59.2834L34.5346 59.5095L24.814 71.3834C25.2066 71.6374 25.6931 71.7472 26.2821 71.6827C31.2667 71.1487 40.4856 66.1279 43.9127 64.1794C47.39 66.0396 56.7419 70.815 61.7396 71.2198C67.1366 71.6568 63.4281 57.9141 61.2619 52.1009C64.6301 48.7272 70.2081 42.7762 71.7897 38.862C71.9838 38.384 72.0253 37.9448 71.9358 37.5465L71.9336 37.5508Z" fill="url(#paint11_linear_102_1877)"/>
<path style="mix-blend-mode:multiply" d="M71.9449 37.5508L66.8621 38.5713L63.1885 38.4184C61.7094 39.9579 60.5205 41.3315 60.5205 41.3315C60.5205 41.3315 57.6715 43.2154 53.9216 45.6698L51.3911 52.7167C49.8684 52.06 48.1647 51.328 46.3803 50.5636C41.2211 53.8836 36.5244 56.8246 36.0794 56.8246C35.931 56.8246 35.6518 56.9861 35.281 57.2638C35.7718 58.0238 36.2299 58.7279 36.5964 59.2877L34.5458 59.5137L24.8252 71.3876C25.2179 71.6417 25.7043 71.7515 26.2933 71.6869C31.278 71.153 40.4969 66.1321 43.9239 64.1836C47.4012 66.0438 56.7531 70.8192 61.7509 71.224C62.462 71.2821 63.0139 71.0905 63.4328 70.7051L59.2902 65.4841L54.2008 49.2955C54.2008 49.2955 58.9368 51.1385 61.295 52.1676C61.2862 52.1461 61.2797 52.1246 61.271 52.1052C64.6391 48.7314 70.2172 42.7805 71.7987 38.8663C71.9929 38.3883 72.0343 37.9491 71.9449 37.5508Z" fill="url(#paint12_linear_102_1877)"/>
<path style="mix-blend-mode:multiply" d="M41.0509 53.9547C38.335 55.6534 36.3608 56.8246 36.0794 56.8246C35.931 56.8246 35.6518 56.9861 35.281 57.2638C35.7718 58.0239 36.2299 58.7279 36.5964 59.2877L34.5458 59.5137L24.8252 71.3877C25.2179 71.6417 25.7043 71.7515 26.2933 71.6869C31.2147 71.1594 40.2569 66.2635 43.7843 64.2612L43.9043 60.9541L44.2992 58.4695L41.0509 53.9547Z" fill="url(#paint13_linear_102_1877)"/>
<path d="M66.8622 38.3991C66.0398 37.2171 63.0141 36.4312 59.9797 35.9576C57.5561 35.5786 54.982 35.5011 53.3393 35.499C51.5025 32.3039 48.4114 27.3261 46.1252 25.7114C45.4795 25.2549 44.7116 25.1064 43.9066 25.2786C41.0817 25.8901 37.9447 30.5987 34.9517 35.7315C32.5172 35.7444 29.9104 35.9382 27.8576 36.2655C24.4523 36.8059 21.2063 38.0029 20.3468 39.2797C19.8211 40.0612 20.5628 40.4875 21.3219 41.5877C23.0606 44.1111 26.2084 48.2858 29.2625 51.2268C28.6626 53.0913 27.9601 55.7266 27.5675 58.2219C26.9981 61.8455 27.2141 64.2138 28.2284 65.4625C28.7193 66.0654 29.3977 66.4077 30.1787 66.4572C30.3576 66.468 30.5386 66.4637 30.7262 66.4443C34.4304 66.046 40.8133 62.6916 43.9066 60.9584C47.0458 62.6098 53.516 65.7963 57.2289 66.0977C58.2432 66.1817 59.118 65.807 59.7005 65.0513C60.6821 63.7767 60.8348 61.4041 60.1673 57.7956C59.707 55.3111 58.9348 52.6973 58.2847 50.8479C61.258 47.8293 64.816 43.8398 65.9635 41.0042C65.9635 41.0042 67.4032 39.1699 66.8666 38.3991H66.8622Z" fill="url(#paint14_linear_102_1877)"/>
<path d="M27.8573 38.0567C29.91 37.7316 32.5169 37.5357 34.9514 37.5228C37.9444 32.3878 41.0813 27.6792 43.9063 27.0699C44.7113 26.8955 45.4792 27.0441 46.1249 27.5026C48.4089 29.1153 51.5022 34.093 53.339 37.2881C54.9795 37.2903 57.5558 37.3678 59.9794 37.7467C62.8393 38.1924 65.6926 38.918 66.6983 39.9902C66.9448 39.4777 67.1019 38.9201 66.8619 38.5735C66.0395 37.3915 63.0138 36.6056 59.9794 36.132C57.5558 35.753 54.9816 35.6755 53.339 35.6734C51.5022 32.4783 48.4111 27.5005 46.1249 25.8857C45.4792 25.4293 44.7113 25.2807 43.9063 25.453C41.0813 26.0644 37.9444 30.7731 34.9514 35.9059C32.5169 35.9188 29.91 36.1126 27.8573 36.4398C24.452 36.9802 21.206 38.1773 20.3465 39.4541C20.0084 39.9557 20.196 40.311 20.5712 40.7932C21.6794 39.622 24.6985 38.5562 27.8551 38.0567H27.8573Z" fill="white"/>
<path style="mix-blend-mode:overlay" d="M46.1272 25.7135C45.4814 25.257 44.7136 25.1085 43.9086 25.2807C41.0836 25.8922 37.9467 30.6008 34.9537 35.7336C32.5192 35.7466 29.9123 35.9403 27.8595 36.2676C24.4543 36.808 21.2083 38.0051 20.3488 39.2818C19.823 40.0634 20.5647 40.4897 21.3239 41.5899C23.0625 44.1132 26.2104 48.2879 29.2644 51.2289C28.8085 52.6456 28.2937 54.5058 27.901 56.4112C29.9952 57.0981 32.2356 57.4727 34.5654 57.4727C46.2253 57.4727 55.6754 48.1436 55.6754 36.6379C55.6754 36.274 55.6667 35.9123 55.6471 35.5549C54.7788 35.5162 53.987 35.5033 53.3413 35.5033C51.5045 32.3082 48.4133 27.3304 46.1272 25.7178V25.7135Z" fill="url(#paint15_linear_102_1877)"/>
<path d="M42.0587 21.8575C39.3559 23.7715 35.5448 31.6085 34.5632 32.7065C33.5815 33.8024 34.2578 34.8423 34.5632 34.8423C34.8686 34.8423 39.0766 27.0527 42.2921 24.3399C43.8519 23.0244 42.9924 21.1965 42.0587 21.8596V21.8575Z" fill="white"/>
<defs>
<linearGradient id="paint0_linear_102_1877" x1="43.0682" y1="52.5337" x2="43.3232" y2="129.711" gradientUnits="userSpaceOnUse">
<stop stop-color="#001AA4"/>
<stop offset="1" stop-color="#4ABAFF"/>
</linearGradient>
<linearGradient id="paint1_linear_102_1877" x1="43.0293" y1="55.4962" x2="43.2525" y2="122.946" gradientUnits="userSpaceOnUse">
<stop stop-color="#D58D21"/>
<stop offset="0.75" stop-color="#F7E436"/>
</linearGradient>
<linearGradient id="paint2_linear_102_1877" x1="65.638" y1="88.642" x2="21.6947" y2="20.9295" gradientUnits="userSpaceOnUse">
<stop stop-color="#CE7C1D"/>
<stop offset="1" stop-color="#F7E436"/>
</linearGradient>
<linearGradient id="paint3_linear_102_1877" x1="60.8717" y1="83.959" x2="26.6172" y2="22.98" gradientUnits="userSpaceOnUse">
<stop offset="0.25" stop-color="#F7E436"/>
<stop offset="1" stop-color="#D58D21"/>
</linearGradient>
<linearGradient id="paint4_linear_102_1877" x1="21.3935" y1="18.6946" x2="66.2369" y2="89.8627" gradientUnits="userSpaceOnUse">
<stop stop-color="#001AA4"/>
<stop offset="1" stop-color="#4ABAFF"/>
</linearGradient>
<linearGradient id="paint5_linear_102_1877" x1="7.8838" y1="28.577" x2="16.7747" y2="17.4759" gradientUnits="userSpaceOnUse">
<stop offset="0.25" stop-color="#F7E436"/>
<stop offset="1" stop-color="#D58D21"/>
</linearGradient>
<linearGradient id="paint6_linear_102_1877" x1="78.6153" y1="28.577" x2="69.7245" y2="17.4759" gradientUnits="userSpaceOnUse">
<stop offset="0.25" stop-color="#F7E436"/>
<stop offset="1" stop-color="#D58D21"/>
</linearGradient>
<linearGradient id="paint7_linear_102_1877" x1="36.7236" y1="17.1303" x2="39.1571" y2="-2.94746" gradientUnits="userSpaceOnUse">
<stop offset="0.25" stop-color="#F7E436"/>
<stop offset="1" stop-color="#D58D21"/>
</linearGradient>
<linearGradient id="paint8_linear_102_1877" x1="71.3335" y1="70.4296" x2="91.2722" y2="84.9695" gradientUnits="userSpaceOnUse">
<stop offset="0.25" stop-color="#F7E436"/>
<stop offset="1" stop-color="#D58D21"/>
</linearGradient>
<linearGradient id="paint9_linear_102_1877" x1="15.0914" y1="70.4296" x2="-4.8473" y2="84.9695" gradientUnits="userSpaceOnUse">
<stop offset="0.25" stop-color="#F7E436"/>
<stop offset="1" stop-color="#D58D21"/>
</linearGradient>
<linearGradient id="paint10_linear_102_1877" x1="46.6857" y1="62.2439" x2="44.4068" y2="44.2328" gradientUnits="userSpaceOnUse">
<stop stop-color="#D58D21"/>
<stop offset="1" stop-color="#F7E436"/>
</linearGradient>
<linearGradient id="paint11_linear_102_1877" x1="36.8164" y1="4.8357" x2="43.3145" y2="37.9323" gradientUnits="userSpaceOnUse">
<stop offset="0.25" stop-color="#F7E436"/>
<stop offset="1" stop-color="#D58D21"/>
</linearGradient>
<linearGradient id="paint12_linear_102_1877" x1="43.913" y1="32.278" x2="47.7864" y2="52.0084" gradientUnits="userSpaceOnUse">
<stop offset="0.25" stop-color="#F7E436"/>
<stop offset="1" stop-color="#D58D21"/>
</linearGradient>
<linearGradient id="paint13_linear_102_1877" x1="31.8037" y1="51.2462" x2="33.5713" y2="60.2417" gradientUnits="userSpaceOnUse">
<stop offset="0.25" stop-color="#F7E436"/>
<stop offset="1" stop-color="#D58D21"/>
</linearGradient>
<linearGradient id="paint14_linear_102_1877" x1="50.2591" y1="83.8364" x2="39.9197" y2="13.0876" gradientUnits="userSpaceOnUse">
<stop stop-color="#D58D21"/>
<stop offset="1" stop-color="#F7E436"/>
</linearGradient>
<linearGradient id="paint15_linear_102_1877" x1="37.5954" y1="37.0082" x2="44.7991" y2="54.4719" gradientUnits="userSpaceOnUse">
<stop stop-color="white"/>
<stop offset="1" stop-color="white"/>
</linearGradient>
</defs>
</svg>
