<svg width="90" height="125" viewBox="0 0 90 125" fill="none" xmlns="http://www.w3.org/2000/svg">
<path d="M71.0243 121.512C71.0243 120.746 71.0243 77.2442 71.0243 77.2442H18.1486V121.512C18.1486 122.278 17.7815 124.77 19.4493 124.997C20.9643 125.203 40.9421 113.745 44.5854 113.166C48.2308 113.747 68.2064 125.203 69.7214 124.997C71.3893 124.77 71.0222 122.278 71.0222 121.512H71.0243Z" fill="#5081F5"/>
<path d="M71.0243 120.152C71.0243 119.386 71.0243 75.8843 71.0243 75.8843H18.1486V120.152C18.1486 120.918 17.7815 123.41 19.4493 123.637C20.9643 123.843 40.9421 112.385 44.5854 111.806C48.2308 112.387 68.2064 123.843 69.7236 123.637C71.3914 123.41 71.0243 120.918 71.0243 120.152Z" fill="url(#paint0_linear_102_1937)"/>
<path d="M67.5297 114.133C67.5297 113.367 67.5297 75.8843 67.5297 75.8843H64.0264C64.0264 86.7697 64.0264 107.206 64.0264 107.775C64.0264 108.541 64.298 111.033 63.0673 111.26C61.9512 111.466 47.2294 101.856 44.5431 101.277C41.8568 101.858 27.135 111.466 26.0189 111.26C24.7903 111.033 25.0598 108.541 25.0598 107.775V75.8843H21.5565V114.133C21.5565 114.899 21.2382 117.392 22.6875 117.619C24.0052 117.824 41.3751 106.366 44.5431 105.787C47.7111 106.368 65.081 117.824 66.3987 117.619C67.848 117.392 67.5297 114.899 67.5297 114.133Z" fill="url(#paint1_linear_102_1937)"/>
<g style="mix-blend-mode:multiply">
<path d="M64.024 73.6758H18.1484V84.2919C28.3018 95.2219 40.4603 100.532 41.1244 100.818L44.477 102.257L47.8275 100.821C48.498 100.534 60.8242 95.1498 71.0221 84.0606V73.678H64.0219L64.024 73.6758Z" fill="#5081F5"/>
</g>
<path d="M88.0382 26.1667L87.8027 20.061L44.4797 7.32135L1.15678 20.0589L0.921244 26.1625C0.880928 27.1872 0.0555074 51.4721 9.70169 69.7786C19.681 88.7195 40.255 97.7062 41.125 98.0796L44.4776 99.5179L47.8281 98.0817C48.7002 97.7083 69.2721 88.7237 79.2556 69.7807C88.9018 51.47 88.0764 27.1893 88.0361 26.1667H88.0382Z" fill="#A54700"/>
<path d="M88.0361 22.121L87.8005 16.0153L44.4776 3.27563L1.15678 16.0153L0.921244 22.1189C0.880928 23.1436 0.0555075 47.4285 9.70169 65.735C19.681 84.6759 40.255 93.6626 41.125 94.036L44.4776 95.4744L47.8281 94.0381C48.6981 93.6647 69.272 84.6801 79.2535 65.7371C88.9018 47.4264 88.0742 23.1457 88.0339 22.1231L88.0361 22.121Z" fill="url(#paint2_linear_102_1937)"/>
<g style="mix-blend-mode:overlay">
<path d="M44.5241 14.9609V3.3053L1.30518 16.0153L11.0596 23.8245L44.5241 14.9609Z" fill="white"/>
</g>
<path opacity="0.32" d="M88.0375 22.121L87.8019 16.0153L44.479 3.27563L87.7998 16.0153V16.0747L79.535 22.3904H44.479V95.4701L47.8295 94.0339C48.7016 93.6605 69.2735 84.6759 79.257 65.7329C88.9032 47.4221 88.0778 23.1415 88.0375 22.1189V22.121Z" fill="#B52F00"/>
<path opacity="0.57" d="M44.4771 3.27563V22.3926H44.4792V3.27563H44.4771Z" fill="#602718"/>
<g style="mix-blend-mode:overlay" opacity="0.2">
<path d="M87.8019 16.0747L87.7998 16.0153L44.479 3.27563V22.3926H79.535L87.8019 16.0747Z" fill="white"/>
</g>
<path d="M81.4455 24.3125L81.3224 21.1112L44.4798 10.2766L7.63713 21.1112L7.51406 24.3104C7.47799 25.2227 6.74381 46.8536 15.2654 63.0258C23.9631 79.5333 41.9632 87.3893 42.7228 87.716L44.4798 88.4691L46.2367 87.716C46.9985 87.3893 64.9986 79.5312 73.6963 63.0258C82.2179 46.8514 81.4815 25.2227 81.4455 24.3104V24.3125Z" fill="url(#paint3_linear_102_1937)"/>
<path d="M81.4455 25.7615L81.3224 22.5602L80.7474 22.3904L80.7962 23.6443C80.8323 24.5565 81.5686 46.1853 73.047 62.3597C64.3493 78.8672 46.3492 86.7231 45.5874 87.0498L43.8305 87.803L42.0736 87.0498C41.3118 86.7231 23.3138 78.8672 14.6161 62.3597C13.1477 59.572 11.9531 56.6231 10.9834 53.6466C12.055 57.336 13.4491 61.0295 15.2654 64.477C23.9631 80.9844 41.9632 88.8404 42.7229 89.1671L44.4798 89.9202L46.2367 89.1671C46.9985 88.8404 64.9986 80.9823 73.6963 64.477C82.2179 48.3026 81.4816 26.6738 81.4455 25.7615Z" fill="#FAFF8F"/>
<path d="M77.8127 23.239L44.4797 13.4355L11.1446 23.239C11.1446 23.239 10.3043 44.9442 18.567 60.6285C26.8319 76.3129 44.4776 83.8739 44.4776 83.8739C44.4776 83.8739 62.1255 76.3129 70.3882 60.6285C78.653 44.9442 77.8106 23.239 77.8106 23.239H77.8127Z" fill="url(#paint4_linear_102_1937)"/>
<g style="mix-blend-mode:multiply">
<path d="M12.112 24.7326L45.4472 14.9291L77.8359 24.4547C77.8295 23.6697 77.8126 23.239 77.8126 23.239L44.4796 13.4355L11.1466 23.239C11.1466 23.239 10.3063 44.9442 18.569 60.6285C19.2798 61.9778 20.0607 63.2656 20.8946 64.4939C20.4193 63.7259 19.9652 62.9367 19.5366 62.1242C11.2718 46.4378 12.112 24.7326 12.112 24.7326Z" fill="#5081F5"/>
</g>
<path d="M0.787227 15.6992L0 27.4417L13.6481 26.0139L0.787227 15.6992Z" fill="#D58D21"/>
<path d="M0.787109 15.7013L11.9038 11.9886L13.6098 26.0627L0.787109 15.7013Z" fill="url(#paint5_linear_102_1937)"/>
<path d="M0.787272 15.7013L1.13526 15.5655L13.6099 26.0627L0.72998 16.064L0.787272 15.7013Z" fill="#FAFF8F"/>
<path d="M88.3858 15.6992L89.173 27.4417L75.5249 26.0139L88.3858 15.6992Z" fill="#D58D21"/>
<path d="M88.3857 15.7013L77.269 11.9886L75.563 26.0627L88.3857 15.7013Z" fill="url(#paint6_linear_102_1937)"/>
<path d="M88.3857 15.7013L88.0377 15.5655L75.563 26.0627L88.443 16.064L88.3857 15.7013Z" fill="#FAFF8F"/>
<path d="M44.1465 97.0548L55.1061 91.0446L44.5051 80.575L44.1465 97.0548Z" fill="url(#paint7_linear_102_1937)"/>
<path d="M44.1486 97.0548L33.4839 90.5354L44.5666 80.575L44.1486 97.0548Z" fill="#D58D21"/>
<path d="M44.1485 97.0548L43.8281 96.8597L44.5665 80.575L44.4711 96.8766L44.1485 97.0548Z" fill="#FAFF8F"/>
<path d="M45.7013 0L34.7417 6.01024L45.3449 16.4799L45.7013 0Z" fill="url(#paint8_linear_102_1937)"/>
<path d="M45.7017 0L56.3664 6.5194L45.2837 16.4799L45.7017 0Z" fill="#D58D21"/>
<path d="M45.7017 0L46.02 0.195179L45.2837 16.4799L45.3792 0.178207L45.7017 0Z" fill="#FAFF8F"/>
<path d="M64.5059 41.1485C64.5059 41.1485 64.5123 41.1591 64.5144 41.1655C65.2974 41.9229 65.7876 42.9942 65.7876 44.1802C65.7876 46.4778 63.9564 48.3426 61.6987 48.3426C59.4409 48.3426 57.6097 46.4799 57.6097 44.1802C57.6097 41.8805 59.4409 40.0178 61.6987 40.0178C61.8493 40.0178 61.9978 40.0263 62.1464 40.0432C62.1909 40.0432 62.2355 40.039 62.2822 40.039C62.3161 40.039 62.3501 40.039 62.384 40.0411C62.3862 40.0411 62.3904 40.0411 62.3925 40.039C62.889 39.1246 62.9548 37.1177 62.8721 35.7726C62.7129 33.161 62.0085 31.4002 62.0085 31.4002C62.0085 31.4002 58.7089 31.432 56.4342 34.0075C55.2693 35.325 54.6561 36.5555 54.3187 37.2131C55.2162 37.9323 55.7934 39.0461 55.7934 40.2999C55.7934 42.4702 54.064 44.2268 51.9336 44.2268C49.8033 44.2268 48.0739 42.4681 48.0739 40.2999C48.0739 38.1317 49.8033 36.3709 51.9336 36.3709C52.4132 36.3709 52.8715 36.46 53.2959 36.6233L44.838 22.3986L36.3801 36.6233C36.8045 36.46 37.2628 36.3709 37.7423 36.3709C39.8749 36.3709 41.6021 38.1296 41.6021 40.2999C41.6021 42.4702 39.8749 44.2268 37.7423 44.2268C35.6098 44.2268 33.8826 42.4681 33.8826 40.2999C33.8826 39.0482 34.4598 37.9323 35.3573 37.2131C35.0221 36.5555 34.4067 35.3271 33.2418 34.0075C30.9671 31.432 27.6675 31.4002 27.6675 31.4002C27.6675 31.4002 26.9631 33.161 26.8039 35.7726C26.7212 37.1155 26.787 39.1225 27.2835 40.039C27.2856 40.039 27.2898 40.039 27.292 40.0411C27.3259 40.0411 27.3599 40.039 27.3938 40.039C27.4384 40.039 27.4829 40.039 27.5296 40.0432C27.676 40.0263 27.8246 40.0178 27.9773 40.0178C30.235 40.0178 32.0662 41.8805 32.0662 44.1802C32.0662 46.4799 30.235 48.3426 27.9773 48.3426C25.7196 48.3426 23.8884 46.4799 23.8884 44.1802C23.8884 42.9921 24.3786 41.9229 25.1616 41.1655C25.1637 41.1613 25.1679 41.1549 25.1701 41.1485C23.5595 39.7462 16.7164 37.2556 12.6147 39.2455L25.2019 61.5384H64.4783L77.0655 39.2455C72.9638 37.2556 66.1207 39.7462 64.5102 41.1485H64.5059Z" fill="url(#paint9_linear_102_1937)"/>
<g style="mix-blend-mode:multiply">
<path d="M64.4741 59.1244H25.1977L13.7373 38.83C13.3447 38.9382 12.9649 39.0761 12.6084 39.2501L25.1955 61.5429H64.472L77.0591 39.2501C76.7027 39.0761 76.3228 38.9403 75.9303 38.83L64.4699 59.1244H64.4741Z" fill="url(#paint10_linear_102_1937)"/>
</g>
<g style="mix-blend-mode:overlay">
<path d="M48.4579 41.9804C48.407 42.235 48.3794 42.496 48.3794 42.7654C48.3794 44.9357 50.1087 46.6923 52.2391 46.6923C54.3695 46.6923 56.0989 44.9336 56.0989 42.7654C56.0989 42.1523 55.9588 41.5752 55.7148 41.0597C55.3583 42.8545 53.8009 44.2059 51.9315 44.2059C50.3994 44.2059 49.0796 43.2958 48.4558 41.9804H48.4579Z" fill="white"/>
<path d="M38.0479 46.6945C40.1804 46.6945 41.9076 44.9357 41.9076 42.7675C41.9076 42.1565 41.7676 41.5795 41.5215 41.064C41.1629 42.8566 39.6054 44.2059 37.7381 44.2059C36.2103 44.2059 34.8926 43.3 34.2667 41.9889C34.2157 42.2414 34.186 42.5002 34.186 42.7675C34.186 44.9378 35.9154 46.6945 38.0458 46.6945H38.0479Z" fill="white"/>
<path d="M61.6968 48.3195C60.048 48.3195 58.6327 47.3266 57.9855 45.8968C57.9431 46.1407 57.9155 46.3889 57.9155 46.6456C57.9155 48.9432 59.7467 50.808 62.0044 50.808C64.2621 50.808 66.0934 48.9454 66.0934 46.6456C66.0934 46.024 65.9554 45.4364 65.7157 44.906C65.3698 46.8472 63.702 48.3195 61.6946 48.3195H61.6968Z" fill="white"/>
<path d="M28.2829 50.808C30.5406 50.808 32.3718 48.9454 32.3718 46.6456C32.3718 46.024 32.2339 45.4364 31.9941 44.906C31.6461 46.8472 29.9805 48.3174 27.9731 48.3174C26.3265 48.3174 24.9091 47.3245 24.2619 45.8968C24.2195 46.1407 24.1919 46.3889 24.1919 46.6435C24.1919 48.9411 26.0231 50.8059 28.2808 50.8059L28.2829 50.808Z" fill="white"/>
<path d="M65.6367 43.0539C67.7713 41.8362 72.4034 40.3872 75.9385 41.2146L77.0631 39.2225C72.9615 37.2325 66.1183 39.721 64.5078 41.1255C64.5099 41.1318 64.5142 41.1361 64.5163 41.1424C65.0468 41.6558 65.4372 42.3156 65.6388 43.0539H65.6367Z" fill="white"/>
<path d="M55.3223 38.41C55.6703 37.835 56.1287 37.1689 56.7419 36.4751C59.0166 33.8996 62.3161 33.8678 62.3161 33.8678C62.3161 33.8678 62.6259 34.6464 62.8827 35.932C62.8806 35.8705 62.8763 35.8111 62.8742 35.7517C62.7151 33.1401 62.0106 31.3793 62.0106 31.3793C62.0106 31.3793 58.711 31.4111 56.4363 33.9866C55.2714 35.3041 54.6582 36.5345 54.3208 37.1922C54.7325 37.5232 55.072 37.939 55.3245 38.4121L55.3223 38.41Z" fill="white"/>
<path d="M27.1096 38.2402C27.2687 35.6287 27.9732 33.8678 27.9732 33.8678C27.9732 33.8678 31.2728 33.8996 33.5474 36.4751C33.993 36.9801 34.358 37.4722 34.6572 37.9241C34.8588 37.6526 35.0901 37.4044 35.3532 37.1922C35.0179 36.5345 34.4026 35.3062 33.2376 33.9866C30.963 31.4111 27.6634 31.3793 27.6634 31.3793C27.6634 31.3793 26.9589 33.1401 26.7998 35.7517C26.7298 36.8888 26.7679 38.4969 27.082 39.5195C27.0735 39.0655 27.0862 38.6242 27.1096 38.2402Z" fill="white"/>
<path d="M24.1217 42.7739C24.3381 42.1481 24.6946 41.5901 25.1572 41.1425C25.1593 41.1382 25.1635 41.1319 25.1657 41.1255C23.5551 39.7232 16.712 37.2325 12.6104 39.2225L13.8177 41.3589C17.1449 40.3172 21.69 41.5646 24.1217 42.7718V42.7739Z" fill="white"/>
<path d="M38.2899 36.3945L45.1437 24.8662L51.972 36.3521C52.4367 36.3563 52.8802 36.4454 53.2918 36.6024L44.8339 22.3777L36.376 36.6024C36.8004 36.4391 37.2587 36.35 37.7382 36.35C37.925 36.35 38.1075 36.369 38.2878 36.3945H38.2899Z" fill="white"/>
</g>
<path d="M44.6703 42.7484L38.6802 50.808L44.6703 58.8655L50.6605 50.808L44.6703 42.7484Z" fill="#D58D21"/>
<path d="M44.5706 44.5029L39.8896 50.7274L44.5706 57.0452L48.999 50.9417L44.5706 44.5029Z" fill="url(#paint11_linear_102_1937)"/>
<g style="mix-blend-mode:overlay">
<path d="M44.6703 50.808V44.5029L39.8896 50.7274L44.6703 50.808Z" fill="white"/>
</g>
<g style="mix-blend-mode:overlay">
<path d="M48.999 50.9417H39.8896L44.6703 44.5029L48.999 50.9417Z" fill="white"/>
</g>
<g style="mix-blend-mode:overlay" opacity="0.53">
<path d="M44.5706 57.0452V44.5029L39.8896 50.7274L44.5706 57.0452Z" fill="white"/>
</g>
<defs>
<linearGradient id="paint0_linear_102_1937" x1="44.5854" y1="159.255" x2="44.5854" y2="91.2546" gradientUnits="userSpaceOnUse">
<stop offset="0.1" stop-color="#C9FFFF"/>
<stop offset="1" stop-color="#5081F5"/>
</linearGradient>
<linearGradient id="paint1_linear_102_1937" x1="44.3924" y1="55.7045" x2="44.6152" y2="122.076" gradientUnits="userSpaceOnUse">
<stop stop-color="#D58D21"/>
<stop offset="0.75" stop-color="#F7E436"/>
</linearGradient>
<linearGradient id="paint2_linear_102_1937" x1="44.4776" y1="95.4722" x2="44.4776" y2="3.27563" gradientUnits="userSpaceOnUse">
<stop stop-color="#CE7C1D"/>
<stop offset="1" stop-color="#F7E436"/>
</linearGradient>
<linearGradient id="paint3_linear_102_1937" x1="44.4798" y1="88.4712" x2="44.4798" y2="10.2766" gradientUnits="userSpaceOnUse">
<stop stop-color="#F7E436"/>
<stop offset="1" stop-color="#CE7C1D"/>
</linearGradient>
<linearGradient id="paint4_linear_102_1937" x1="68.5527" y1="87.8624" x2="41.3499" y2="26.6467" gradientUnits="userSpaceOnUse">
<stop offset="0.1" stop-color="#C9FFFF"/>
<stop offset="1" stop-color="#5081F5"/>
</linearGradient>
<linearGradient id="paint5_linear_102_1937" x1="7.29084" y1="20.7966" x2="16.7975" y2="12.1782" gradientUnits="userSpaceOnUse">
<stop offset="0.25" stop-color="#F7E436"/>
<stop offset="1" stop-color="#D58D21"/>
</linearGradient>
<linearGradient id="paint6_linear_102_1937" x1="81.8757" y1="20.7915" x2="72.369" y2="12.173" gradientUnits="userSpaceOnUse">
<stop offset="0.25" stop-color="#F7E436"/>
<stop offset="1" stop-color="#D58D21"/>
</linearGradient>
<linearGradient id="paint7_linear_102_1937" x1="50.508" y1="80.1868" x2="48.0797" y2="99.9632" gradientUnits="userSpaceOnUse">
<stop offset="0.25" stop-color="#F7E436"/>
<stop offset="1" stop-color="#D58D21"/>
</linearGradient>
<linearGradient id="paint8_linear_102_1937" x1="39.3351" y1="16.9065" x2="41.7633" y2="-2.86987" gradientUnits="userSpaceOnUse">
<stop offset="0.25" stop-color="#F7E436"/>
<stop offset="1" stop-color="#D58D21"/>
</linearGradient>
<linearGradient id="paint9_linear_102_1937" x1="44.8359" y1="30.9886" x2="44.8359" y2="65.1768" gradientUnits="userSpaceOnUse">
<stop stop-color="#F7E436"/>
<stop offset="1" stop-color="#CE7C1D"/>
</linearGradient>
<linearGradient id="paint10_linear_102_1937" x1="44.8359" y1="43.8113" x2="44.8359" y2="63.6517" gradientUnits="userSpaceOnUse">
<stop offset="0.25" stop-color="#F7E436"/>
<stop offset="1" stop-color="#D58D21"/>
</linearGradient>
<linearGradient id="paint11_linear_102_1937" x1="44.1674" y1="44.8296" x2="44.651" y2="55.348" gradientUnits="userSpaceOnUse">
<stop stop-color="#F7E436"/>
<stop offset="1" stop-color="#CE7C1D"/>
</linearGradient>
</defs>
</svg>
