<svg width="77" height="125" viewBox="0 0 77 125" fill="none" xmlns="http://www.w3.org/2000/svg">
<path d="M76.1057 116.56C76.1057 116.56 50.0493 125.002 41.3639 125.002C32.6784 125.002 6.62207 116.56 6.62207 116.56C5.36265 116.56 4.33203 115.512 4.33203 114.231V76.2926C4.33203 75.0111 6.63062 74.1654 7.89003 74.1654C7.89003 74.1654 16.9304 75.9041 41.3639 75.9041C68.0874 75.9041 73.4457 74.4123 73.4457 74.4123C74.7051 74.4123 78.3957 75.0111 78.3957 76.2926V114.231C78.3957 115.512 77.3651 116.56 76.1057 116.56Z" fill="#7F0505"/>
<path d="M76.1057 115.201C76.1057 115.201 50.0493 123.641 41.3639 123.641C32.6784 123.641 6.62207 115.201 6.62207 115.201C5.36265 115.201 4.33203 114.153 4.33203 112.872V74.9339C4.33203 73.6524 6.63062 72.8066 7.89003 72.8066C7.89003 72.8066 16.9304 74.5453 41.3639 74.5453C68.0874 74.5453 73.4457 73.0535 73.4457 73.0535C74.7051 73.0535 78.3957 73.6524 78.3957 74.9339V112.872C78.3957 114.153 77.3651 115.201 76.1057 115.201Z" fill="url(#paint0_linear_102_1800)"/>
<path d="M65.1386 73.5944L65.3653 73.8627H65.8891C66.9048 73.8627 68.6838 74.3178 69.197 74.6892V105.806C69.197 106.284 68.7779 106.688 68.2818 106.688H68.1086L67.9418 106.741C67.7088 106.814 49.1533 114.111 41.6032 114.111C34.0532 114.111 15.4977 106.817 15.2646 106.741L15.0979 106.688H14.9247C14.4286 106.688 14.0095 106.284 14.0095 105.806V74.511C14.1912 74.1976 15.2988 73.6459 16.0643 73.6459H16.3851L16.6588 73.4764C16.6588 73.4764 16.7208 73.4399 16.8277 73.3819C13.7978 73.0664 7.88991 72.8088 7.88991 72.8088C7.87922 72.8088 7.86853 72.8088 7.85784 72.8088C7.42806 73.2596 7.14795 73.8112 7.14795 74.4595V110.393C7.14795 112.099 8.4822 113.499 10.1628 113.598C12.3567 114.289 33.9505 121.025 41.6032 121.025C49.2559 121.025 70.8498 114.289 73.0436 113.598C74.7221 113.499 76.0585 112.099 76.0585 110.393V74.4595C76.0585 74.0216 75.9067 73.6502 75.6565 73.3325C74.7927 73.1479 69.3659 73.0556 68.8762 73.0556C68.8762 73.0556 67.9889 73.3025 65.1386 73.5966V73.5944Z" fill="url(#paint1_linear_102_1800)"/>
<path style="mix-blend-mode:overlay" d="M41.3638 33.0933C56.032 33.0933 69.1992 31.4877 78.2225 28.9419C77.4784 27.9802 74.5426 27.5252 73.4457 27.5252C73.4457 27.5252 68.0895 29.017 41.3638 29.017C16.9304 29.017 7.88999 27.2783 7.88999 27.2783C6.79522 27.2783 4.92 27.918 4.44531 28.9247C13.4686 31.4813 26.6636 33.0933 41.366 33.0933H41.3638Z" fill="url(#paint2_linear_102_1800)"/>
<g style="mix-blend-mode:multiply" opacity="0.68">
<path d="M73.4457 29.9444C73.4457 29.9444 68.0895 31.4362 41.3639 31.4362C16.9304 31.4362 7.89003 29.6975 7.89003 29.6975C6.63062 29.6975 4.33203 30.5432 4.33203 31.8247V80.4655L41.9989 102.298L78.3979 81.2018V31.8247C78.3979 30.5432 74.7073 29.9444 73.4479 29.9444H73.4457Z" fill="#990D0A"/>
</g>
<path d="M41.9988 4.30383L0.773926 28.1971V75.9836L41.9988 99.8789L83.2237 75.9836V75.9492V28.1971L41.9988 4.30383Z" fill="#A54700"/>
<path d="M41.9988 0.890808L0.773926 24.784V72.5727L41.9988 96.4659L83.2237 72.5727V24.784L41.9988 0.890808ZM64.9441 61.9773L41.9988 75.2752L19.0536 61.9773V35.3794L41.9988 22.0815L64.9441 35.3794V61.9773Z" fill="url(#paint3_linear_102_1800)"/>
<path d="M41.999 22.0794L64.9443 35.3794V61.9752L41.999 75.2752V96.4659L83.2239 72.5705V24.784L41.999 0.890808V22.0794Z" fill="#D58D21"/>
<path d="M83.2065 24.7733L75.6543 29.178L75.3613 67.9919L83.2236 72.5362V24.784L83.2065 24.7733Z" fill="#D58D21"/>
<g style="mix-blend-mode:overlay" opacity="0.51">
<path d="M8.63403 29.3176L0.791032 24.7733L0.773926 24.784L41.9988 0.890808V9.9793L8.63403 29.3176Z" fill="white"/>
</g>
<path d="M8.63403 67.9919L0.773926 72.5362L41.9988 96.4659V86.9095L8.63403 67.9919Z" fill="#D58D21"/>
<path d="M41.9991 9.97925L8.63428 29.3175V67.9919L41.9969 87.3301L75.3596 67.9919V29.3175L41.9991 9.97925ZM68.5365 64.0358L41.9991 79.418L15.4616 64.0358V33.2736L41.9991 17.8936L68.5365 33.2736V64.0358Z" fill="url(#paint4_linear_102_1800)"/>
<path d="M15.4616 64.0358V33.2736L41.9991 17.8914V9.97925L8.63428 29.3175V67.9919L41.9991 87.3301V79.418L15.4616 64.0358Z" fill="#D58D21"/>
<path d="M71.9491 66.0128V31.2945L41.9991 13.9354L12.0469 31.2945V66.0128L41.9991 83.3741L71.9491 66.0128Z" fill="url(#paint5_linear_102_1800)"/>
<g style="mix-blend-mode:multiply" opacity="0.68">
<path d="M13.5415 31.7753L41.9371 15.5002L71.9491 32.5417V31.2945L41.9991 13.9354L12.0469 31.2945V66.0128L13.5415 66.88V31.7753Z" fill="#990D0A"/>
</g>
<path d="M75.3615 29.3175L74.8205 67.5175L41.9988 86.5037L9.12369 67.5175L3.51514 70.9262L8.63404 68.5157L41.8299 87.4676L41.9988 96.2383L42.2576 87.4482L75.3615 68.1765L83.2237 72.5705L75.5326 67.8288L75.7442 29.4463L83.2237 24.784L75.3615 28.856L42.2576 9.82472L41.9988 1.06036L41.7401 10.1295L75.3615 29.3175Z" fill="#FAFF8F"/>
<path d="M0 24.4878V37.1331L14.3902 32.8228L0 24.4878Z" fill="#D58D21"/>
<path d="M0 24.4878L10.9284 18.2006L14.3603 32.8765L0 24.4878Z" fill="url(#paint6_linear_102_1800)"/>
<path d="M0 24.4878L0.327148 24.301L14.3603 32.8765L0 24.8591V24.4878Z" fill="#FAFF8F"/>
<path d="M84.0001 24.4878V37.1331L69.6099 32.8228L84.0001 24.4878Z" fill="#D58D21"/>
<path d="M83.9999 24.4878L73.0715 18.2006L69.6396 32.8765L83.9999 24.4878Z" fill="url(#paint7_linear_102_1800)"/>
<path d="M83.9999 24.4878L83.6728 24.301L69.6396 32.8765L83.9999 24.8591V24.4878Z" fill="#FAFF8F"/>
<path d="M84.0001 72.5469V59.9016L69.6099 64.2119L84.0001 72.5469Z" fill="url(#paint8_linear_102_1800)"/>
<path d="M83.9999 72.5469L73.0715 78.8342L69.6396 64.1582L83.9999 72.5469Z" fill="#D58D21"/>
<path d="M83.9999 72.5469L83.6728 72.7337L69.6396 64.1582L83.9999 72.1756V72.5469Z" fill="#FAFF8F"/>
<path d="M41.7017 97.7066L52.7456 91.6254L42.0609 81.0322L41.7017 97.7066Z" fill="url(#paint9_linear_102_1800)"/>
<path d="M41.7018 97.7045L30.9551 91.1103L42.123 81.0322L41.7018 97.7045Z" fill="#D58D21"/>
<path d="M41.7016 97.7045L41.3809 97.507L42.1228 81.0322L42.0266 97.5263L41.7016 97.7045Z" fill="#FAFF8F"/>
<path d="M41.999 0L30.9551 6.08117L41.6398 16.6744L41.999 0Z" fill="url(#paint10_linear_102_1800)"/>
<path d="M41.9969 0L52.7457 6.59635L41.5757 16.6744L41.9969 0Z" fill="#D58D21"/>
<path d="M41.9969 0L42.3198 0.197483L41.5757 16.6744L41.674 0.18031L41.9969 0Z" fill="#FAFF8F"/>
<path d="M0 72.5469V59.9016L14.3902 64.2119L0 72.5469Z" fill="url(#paint11_linear_102_1800)"/>
<path d="M0 72.5469L10.9284 78.8342L14.3603 64.1582L0 72.5469Z" fill="#D58D21"/>
<path d="M0 72.5469L0.327148 72.7337L14.3603 64.1582L0 72.1756V72.5469Z" fill="#FAFF8F"/>
<path d="M61.3736 55.4496C61.3736 51.4957 60.0565 48.2351 57.4265 45.6657C55.4379 43.7552 51.4801 41.9393 45.5529 40.2177V31.492C46.5664 32.0866 47.2934 32.6748 47.7318 33.2586C48.1701 33.8425 44.873 34.407 45.4204 35.9139L53.026 35.9418L60.0864 34.5143C60.0864 34.5143 60.0843 34.5079 60.0843 34.5036H60.0864C60.0736 34.4392 60.0565 34.377 60.0415 34.3147C60.0223 34.2267 60.003 34.1387 59.9816 34.0528L59.956 34.0121C59.2546 30.6162 57.8776 27.9588 55.5662 26.0054C53.2569 24.0521 49.917 22.9273 45.5508 22.6311V19.4799H41.2808V22.6311C36.4847 22.908 32.8733 24.3139 30.4464 26.8533C28.0195 29.3905 26.8071 32.5503 26.8071 36.3325V36.3454C26.8071 36.4226 26.8093 36.4978 26.8114 36.575C26.8114 36.6523 26.8071 36.7274 26.8071 36.8069V36.8176C26.8071 39.5802 27.4101 41.9199 28.6204 43.8433C29.8284 45.7644 31.2568 46.6209 32.9053 47.4902C33.5254 47.8187 34.308 48.1686 35.2531 48.5421C35.2638 48.5421 35.2745 48.5421 35.283 48.5421C36.8439 49.1581 38.841 49.9051 41.2808 50.6414V61.8871C39.9166 61.1659 38.9373 60.3373 38.3428 59.4036C37.7805 58.5214 40.8959 56.7784 40.5516 54.8551C40.5324 54.7413 38.7683 53.6873 38.4284 53.653L29.11 54.9001C29.11 54.9001 21.3525 56.5272 21.3525 56.5294C21.3782 56.6861 25.165 56.6582 25.1928 56.8127L25.2249 56.993C25.5755 59.116 25.9882 60.7559 26.6895 62.2521C27.3909 63.7482 28.3894 65.1435 29.6873 66.44C30.9831 67.7343 32.5247 68.7475 34.308 69.4795C36.0913 70.2115 38.4155 70.7159 41.2808 70.9928V76.5416H45.5508V70.9928C47.9499 70.8876 49.9769 70.542 51.634 69.9582C53.2911 69.3743 54.8563 68.4341 56.3274 67.1398C57.7985 65.8432 59.0087 64.229 59.9538 62.2971C60.8989 60.3631 61.3715 58.2402 61.3715 55.924C61.3715 55.8339 61.3693 55.7437 61.3672 55.6536C61.3672 55.587 61.3715 55.5226 61.3715 55.4561L61.3736 55.4496ZM50.3489 57.1025C50.3489 57.2892 50.334 57.4738 50.3147 57.6542C50.3147 57.6542 50.3147 57.6542 50.3147 57.652C50.2613 58.1157 50.1437 58.5578 49.9598 58.9829C49.9598 58.9872 49.9555 58.9915 49.9555 58.9957C49.9128 59.0945 49.8657 59.1911 49.8144 59.2855C49.8058 59.3006 49.7973 59.3156 49.7887 59.3328C49.7396 59.4251 49.6861 59.5174 49.6305 59.6075C49.622 59.6182 49.6155 59.6311 49.6091 59.6419C49.4872 59.8372 49.3483 60.0261 49.1943 60.2128C48.4224 61.1402 47.21 61.8034 45.5529 62.2091V52.4659C47.4474 53.1872 48.7218 53.9685 49.3718 54.81C49.793 55.3552 50.3489 56.8299 50.3489 57.1046V57.1025Z" fill="url(#paint12_linear_102_1800)"/>
<path d="M45.5529 30.2062H33.1362V40.2371H45.5529V30.2062Z" fill="#A85007"/>
<path d="M45.5529 52.0581H41.084V62.0889H45.5529V52.0581Z" fill="#A85007"/>
<path d="M45.3692 50.6435H41.7642V63.5056L45.3884 62.9153L45.3692 50.6435Z" fill="#A85007"/>
<path d="M45.3906 70.9928H41.7642V76.5416H45.3906V70.9928Z" fill="url(#paint13_linear_102_1800)"/>
<path d="M56.2973 34.0355L45.4201 35.9138C44.8727 34.4069 44.381 33.3615 43.9426 32.7777C43.5043 32.1938 42.7773 31.6056 41.7659 31.011V40.224C47.6931 41.9456 51.6488 43.7616 53.6373 45.672C56.2695 48.2435 57.5866 51.5042 57.5866 55.4538C57.5866 57.7699 57.1141 59.8929 56.169 61.8269C55.2239 63.7609 54.0158 65.3752 52.5425 66.6695C51.0693 67.9639 49.5063 68.9041 47.8491 69.4879C46.192 70.0718 44.165 70.4174 41.768 70.5226V76.5415H37.498V70.5226C34.6328 70.2478 32.3086 69.7434 30.5253 69.0093C28.742 68.2773 27.2004 67.2641 25.9046 65.9697C24.6088 64.6754 23.6081 63.2801 22.9068 61.784C22.2055 60.2878 21.6773 58.4783 21.3267 56.3554L33.1403 54.8592C33.491 56.9607 33.9635 58.4783 34.5601 59.412C35.1545 60.3458 36.1338 61.1744 37.498 61.8956V50.6434C33.5616 49.4542 30.7669 48.4239 29.1205 47.5502C27.4719 46.6809 26.0457 45.2835 24.8376 43.3601C23.6274 41.439 23.0244 39.095 23.0244 36.3345C23.0244 32.5544 24.2389 29.3947 26.6658 26.8553C29.0927 24.3181 32.7041 22.91 37.5002 22.6331V19.4819H41.7702V22.6331C46.1364 22.9314 49.4763 24.0562 51.7856 26.0074C54.0949 27.9608 55.6023 30.6354 56.3037 34.0312L56.2973 34.0355ZM37.4937 30.8522C36.2472 31.3008 35.379 31.8546 34.8915 32.5158C34.404 33.1769 34.1603 33.9561 34.1603 34.8512C34.1603 35.7463 34.4062 36.605 34.9022 37.2983C35.3962 37.9916 36.26 38.5733 37.4937 39.0391V30.8522ZM41.7638 62.2154C43.4209 61.8097 44.6333 61.1443 45.4052 60.2191C46.1749 59.2918 46.5598 58.2551 46.5598 57.1045C46.5598 56.1042 46.2327 55.1833 45.5805 54.3419C44.9283 53.5004 43.6561 52.7191 41.7638 51.9979V62.2154Z" fill="url(#paint14_linear_102_1800)"/>
<g style="mix-blend-mode:overlay" opacity="0.72">
<path d="M41.764 31.0391C42.7775 31.6336 43.5024 32.2218 43.9407 32.8057C44.3791 33.3895 44.8709 34.4349 45.4183 35.9418L56.2954 34.0635C55.594 30.6677 54.0887 27.9931 51.7773 26.0397C49.468 24.0885 46.1281 22.9616 41.7619 22.6654V19.5121H37.4919V22.6654C32.6958 22.9423 29.0865 24.3483 26.6575 26.8876C24.2306 29.4248 23.0161 32.5867 23.0161 36.3668C23.0161 39.1294 23.6191 41.4691 24.8293 43.3924C26.0374 45.3158 27.4636 46.711 29.1122 47.5825C29.7323 47.9109 30.5149 48.2608 31.4599 48.6343C32.4286 48.6858 33.4036 48.7159 34.3872 48.7159C41.0456 48.7159 47.3982 47.5117 53.2142 45.3265C51.1145 43.5513 47.2977 41.8598 41.7576 40.252V31.0412L41.764 31.0391ZM37.494 39.0671C36.2603 38.6013 35.3964 38.0196 34.9025 37.3263C34.4086 36.633 34.1605 35.8173 34.1605 34.8792C34.1605 33.9412 34.4043 33.2049 34.8918 32.5438C35.3793 31.8826 36.2474 31.3267 37.494 30.8802V39.0671Z" fill="#FFFAFC"/>
</g>
<g style="mix-blend-mode:overlay">
<path d="M42.7007 40.4989V40.9218C47.4689 42.3063 50.9585 43.7531 53.178 45.2599C51.1916 43.6007 47.6998 42.0122 42.7007 40.4989Z" fill="white"/>
<path d="M51.7493 25.9882C49.6111 24.1937 46.5877 23.1119 42.6982 22.7233V23.3372C46.4914 23.5948 49.5085 24.4814 51.7493 25.9882Z" fill="white"/>
<path d="M43.9428 32.8057C44.3812 33.3895 44.873 34.4349 45.4204 35.9418L46.0469 35.8344C45.6214 34.759 45.2322 33.9798 44.8773 33.5076C44.5223 33.0375 43.9728 32.561 43.2437 32.0823C43.5216 32.3248 43.7632 32.5652 43.9428 32.8057Z" fill="white"/>
<path d="M38.4302 51.3454C38.1095 51.2488 37.7995 51.1522 37.4958 51.0578V61.8936C37.1751 61.724 36.8779 61.548 36.6021 61.3677C37.1067 61.8056 37.7139 62.2156 38.4324 62.5955V51.3454H38.4302Z" fill="white"/>
<path d="M38.4303 39.739V31.5822C38.0882 31.7045 37.7781 31.8354 37.4959 31.975V39.0393C37.0148 38.8568 36.5914 38.6572 36.2236 38.4404C36.7368 38.9427 37.4702 39.3763 38.4324 39.7412L38.4303 39.739Z" fill="white"/>
<path d="M45.5828 54.3399C46.235 55.1813 46.5621 56.1022 46.5621 57.1025C46.5621 58.253 46.1772 59.2898 45.4075 60.2171C44.7895 60.9577 43.8851 61.5308 42.7026 61.9365V62.9154C44.3598 62.5097 45.5721 61.8442 46.344 60.9191C47.1138 59.9939 47.4987 58.955 47.4987 57.8044C47.4987 56.8041 47.1737 55.8833 46.5215 55.0418C46.205 54.634 45.741 54.2411 45.1338 53.8612C45.3049 54.0179 45.4609 54.1789 45.5871 54.3399H45.5828Z" fill="white"/>
<path d="M26.8349 66.6718C25.5391 65.3774 24.5385 63.9822 23.8371 62.486C23.1358 60.9899 22.6076 59.1803 22.2591 57.0574L33.2838 55.66C33.2325 55.4024 33.1833 55.1362 33.1384 54.8572L21.3247 56.3533C21.6754 58.4763 22.2035 60.2858 22.9049 61.7819C23.6062 63.2781 24.6047 64.6755 25.9026 65.9677C26.4714 66.5366 27.0958 67.041 27.7586 67.5003C27.44 67.2363 27.13 66.9616 26.837 66.6696L26.8349 66.6718Z" fill="white"/>
<path d="M38.4305 71.2246C38.1119 71.1946 37.8019 71.1602 37.4961 71.1237V76.5416H38.4305V71.2246Z" fill="white"/>
<path d="M24.8337 43.3903C25.8344 44.9831 26.9869 46.2087 28.2912 47.0802C27.3654 46.2903 26.525 45.2943 25.7703 44.0922C24.56 42.1711 23.957 39.8292 23.957 37.0666C23.957 37.0623 23.957 37.058 23.957 37.0559C23.957 37.0494 23.957 37.0451 23.957 37.0387C23.957 33.2586 25.1694 30.0989 27.5963 27.5595C30.0232 25.0223 33.6346 23.6142 38.4307 23.3373V20.184H41.7663V19.4821H37.4963V22.6332C32.7002 22.9101 29.0909 24.3161 26.6619 26.8555C24.235 29.3927 23.0205 32.5524 23.0205 36.3346C23.0205 36.3411 23.0205 36.3453 23.0205 36.3518C23.0205 36.3561 23.0205 36.3604 23.0205 36.3625C23.0205 39.1251 23.6235 41.4649 24.8337 43.3882V43.3903Z" fill="white"/>
</g>
<path d="M45.5463 19.4842H41.9199V22.631H45.5463V19.4842Z" fill="url(#paint15_linear_102_1800)"/>
<g style="mix-blend-mode:overlay" opacity="0.72">
<path d="M37.5153 53.7796L33.0443 54.87L21.3247 56.3555L29.1121 54.9044L37.5153 53.7796Z" fill="#FFFAFC"/>
</g>
<path d="M56.2973 34.0636L60.0862 34.5144L53.0258 35.9418L45.5527 35.9204L56.2973 34.0636Z" fill="#C26B18"/>
<g style="mix-blend-mode:overlay" opacity="0.72">
<path d="M50.6698 42.3621L49.9941 42.8794C49.9941 42.8794 51.9356 43.7252 54.0097 45.5798C55.0617 46.52 56.3682 48.3896 56.845 49.8493C58.2626 54.1853 57.8179 56.9952 57.5848 58.3861C57.3518 59.7771 58.2199 59.5903 59.5114 59.8436C60.8028 60.0969 61.1343 57.4846 61.3695 55.6471C61.6047 53.8118 60.7259 48.7996 57.5848 46.052C55.5129 44.2404 50.8409 41.6387 50.6698 42.36V42.3621Z" fill="#FFFAFC"/>
</g>
<g style="mix-blend-mode:overlay" opacity="0.72">
<path d="M54.1121 45.2621C54.1121 45.2621 57.251 48.4626 57.7578 51.5794C58.2646 54.6962 59.8169 53.6702 60.4242 53.2065C61.0314 52.7429 59.8832 49.1581 59.0749 48.014C58.2646 46.8699 55.7008 44.5667 54.4521 44.0579C53.2034 43.5492 52.6966 44.0601 54.1143 45.2621H54.1121Z" fill="#FFFAFC"/>
</g>
<defs>
<linearGradient id="paint0_linear_102_1800" x1="41.3639" y1="104.168" x2="41.3639" y2="124.635" gradientUnits="userSpaceOnUse">
<stop stop-color="#880000"/>
<stop offset="1" stop-color="#D60000"/>
</linearGradient>
<linearGradient id="paint1_linear_102_1800" x1="49.6793" y1="120.851" x2="39.9901" y2="87.1312" gradientUnits="userSpaceOnUse">
<stop offset="0.25" stop-color="#F7E436"/>
<stop offset="1" stop-color="#D58D21"/>
</linearGradient>
<linearGradient id="paint2_linear_102_1800" x1="4.44531" y1="30.1847" x2="78.2225" y2="30.1847" gradientUnits="userSpaceOnUse">
<stop stop-color="white"/>
<stop offset="0.95" stop-color="white"/>
</linearGradient>
<linearGradient id="paint3_linear_102_1800" x1="59.3013" y1="82.6572" x2="24.3556" y2="14.5607" gradientUnits="userSpaceOnUse">
<stop stop-color="#CE7C1D"/>
<stop offset="1" stop-color="#F7E436"/>
</linearGradient>
<linearGradient id="paint4_linear_102_1800" x1="57.5418" y1="76.0672" x2="26.6434" y2="21.9937" gradientUnits="userSpaceOnUse">
<stop offset="0.25" stop-color="#F7E436"/>
<stop offset="1" stop-color="#D58D21"/>
</linearGradient>
<linearGradient id="paint5_linear_102_1800" x1="28.911" y1="15.4959" x2="54.6758" y2="80.2681" gradientUnits="userSpaceOnUse">
<stop stop-color="#880000"/>
<stop offset="1" stop-color="#D60000"/>
</linearGradient>
<linearGradient id="paint6_linear_102_1800" x1="7.33624" y1="28.4911" x2="16.2321" y2="17.5711" gradientUnits="userSpaceOnUse">
<stop offset="0.25" stop-color="#F7E436"/>
<stop offset="1" stop-color="#D58D21"/>
</linearGradient>
<linearGradient id="paint7_linear_102_1800" x1="76.6637" y1="28.4911" x2="67.7678" y2="17.5711" gradientUnits="userSpaceOnUse">
<stop offset="0.25" stop-color="#F7E436"/>
<stop offset="1" stop-color="#D58D21"/>
</linearGradient>
<linearGradient id="paint8_linear_102_1800" x1="72.1629" y1="58.7038" x2="88.5057" y2="70.4196" gradientUnits="userSpaceOnUse">
<stop offset="0.25" stop-color="#F7E436"/>
<stop offset="1" stop-color="#D58D21"/>
</linearGradient>
<linearGradient id="paint9_linear_102_1800" x1="48.0931" y1="80.6198" x2="45.6273" y2="100.624" gradientUnits="userSpaceOnUse">
<stop offset="0.25" stop-color="#F7E436"/>
<stop offset="1" stop-color="#D58D21"/>
</linearGradient>
<linearGradient id="paint10_linear_102_1800" x1="35.6169" y1="17.0756" x2="38.0817" y2="-2.93073" gradientUnits="userSpaceOnUse">
<stop offset="0.25" stop-color="#F7E436"/>
<stop offset="1" stop-color="#D58D21"/>
</linearGradient>
<linearGradient id="paint11_linear_102_1800" x1="9.18366" y1="60.6078" x2="-7.00749" y2="72.3218" gradientUnits="userSpaceOnUse">
<stop offset="0.25" stop-color="#F7E436"/>
<stop offset="1" stop-color="#D58D21"/>
</linearGradient>
<linearGradient id="paint12_linear_102_1800" x1="55.316" y1="29.5086" x2="41.0208" y2="50.5984" gradientUnits="userSpaceOnUse">
<stop stop-color="#EBB43A"/>
<stop offset="1" stop-color="#C26B18"/>
</linearGradient>
<linearGradient id="paint13_linear_102_1800" x1="43.5774" y1="70.9821" x2="43.5774" y2="76.2411" gradientUnits="userSpaceOnUse">
<stop stop-color="#EBB43A"/>
<stop offset="1" stop-color="#C26B18"/>
</linearGradient>
<linearGradient id="paint14_linear_102_1800" x1="39.4545" y1="17.4685" x2="39.4545" y2="79.0658" gradientUnits="userSpaceOnUse">
<stop stop-color="#F7E436"/>
<stop offset="1" stop-color="#D58D21"/>
</linearGradient>
<linearGradient id="paint15_linear_102_1800" x1="43.7331" y1="17.6747" x2="43.7331" y2="22.7641" gradientUnits="userSpaceOnUse">
<stop stop-color="#F7E436"/>
<stop offset="1" stop-color="#D58D21"/>
</linearGradient>
</defs>
</svg>
