<svg width="14" height="15" viewBox="0 0 14 15" fill="none" xmlns="http://www.w3.org/2000/svg">
<path d="M12.5 3.40631H10.25V2.65631C10.25 2.19218 10.0656 1.74706 9.73744 1.41887C9.40925 1.09069 8.96413 0.906311 8.5 0.906311H5.5C5.03587 0.906311 4.59075 1.09069 4.26256 1.41887C3.93437 1.74706 3.75 2.19218 3.75 2.65631V3.40631H1.5C1.30109 3.40631 1.11032 3.48533 0.96967 3.62598C0.829018 3.76663 0.75 3.9574 0.75 4.15631C0.75 4.35522 0.829018 4.54599 0.96967 4.68664C1.11032 4.82729 1.30109 4.90631 1.5 4.90631H1.75V13.4063C1.75 13.7378 1.8817 14.0558 2.11612 14.2902C2.35054 14.5246 2.66848 14.6563 3 14.6563H11C11.3315 14.6563 11.6495 14.5246 11.8839 14.2902C12.1183 14.0558 12.25 13.7378 12.25 13.4063V4.90631H12.5C12.6989 4.90631 12.8897 4.82729 13.0303 4.68664C13.171 4.54599 13.25 4.35522 13.25 4.15631C13.25 3.9574 13.171 3.76663 13.0303 3.62598C12.8897 3.48533 12.6989 3.40631 12.5 3.40631ZM5.25 2.65631C5.25 2.59001 5.27634 2.52642 5.32322 2.47953C5.37011 2.43265 5.4337 2.40631 5.5 2.40631H8.5C8.5663 2.40631 8.62989 2.43265 8.67678 2.47953C8.72366 2.52642 8.75 2.59001 8.75 2.65631V3.40631H5.25V2.65631ZM10.75 13.1563H3.25V4.90631H10.75V13.1563ZM6.25 6.90631V10.9063C6.25 11.1052 6.17098 11.296 6.03033 11.4366C5.88968 11.5773 5.69891 11.6563 5.5 11.6563C5.30109 11.6563 5.11032 11.5773 4.96967 11.4366C4.82902 11.296 4.75 11.1052 4.75 10.9063V6.90631C4.75 6.7074 4.82902 6.51663 4.96967 6.37598C5.11032 6.23533 5.30109 6.15631 5.5 6.15631C5.69891 6.15631 5.88968 6.23533 6.03033 6.37598C6.17098 6.51663 6.25 6.7074 6.25 6.90631ZM9.25 6.90631V10.9063C9.25 11.1052 9.17098 11.296 9.03033 11.4366C8.88968 11.5773 8.69891 11.6563 8.5 11.6563C8.30109 11.6563 8.11032 11.5773 7.96967 11.4366C7.82902 11.296 7.75 11.1052 7.75 10.9063V6.90631C7.75 6.7074 7.82902 6.51663 7.96967 6.37598C8.11032 6.23533 8.30109 6.15631 8.5 6.15631C8.69891 6.15631 8.88968 6.23533 9.03033 6.37598C9.17098 6.51663 9.25 6.7074 9.25 6.90631Z" fill="#A9A9A9"/>
</svg>
