<svg width="24" height="24" viewBox="0 0 24 24" fill="none" xmlns="http://www.w3.org/2000/svg">
<g clip-path="url(#clip0_22_5778)">
<path fill-rule="evenodd" clip-rule="evenodd" d="M5.5 10C5.5 9.40905 5.6164 8.82389 5.84254 8.27792C6.06869 7.73196 6.40016 7.23588 6.81802 6.81802C7.23589 6.40016 7.73196 6.06869 8.27793 5.84254C8.82389 5.6164 9.40905 5.5 10 5.5C10.591 5.5 11.1761 5.6164 11.7221 5.84254C12.268 6.06869 12.7641 6.40016 13.182 6.81802C13.5998 7.23588 13.9313 7.73196 14.1575 8.27792C14.3836 8.82389 14.5 9.40905 14.5 10C14.5 11.1935 14.0259 12.3381 13.182 13.182C12.3381 14.0259 11.1935 14.5 10 14.5C8.80653 14.5 7.66194 14.0259 6.81802 13.182C5.97411 12.3381 5.5 11.1935 5.5 10ZM10 2.5C8.8305 2.50012 7.67723 2.77374 6.63232 3.299C5.58741 3.82426 4.67982 4.5866 3.98203 5.52512C3.28425 6.46365 2.81562 7.55235 2.61357 8.70427C2.41152 9.85619 2.48166 11.0394 2.81838 12.1594C3.1551 13.2794 3.74906 14.3051 4.55284 15.1546C5.35661 16.0041 6.34791 16.6539 7.44756 17.052C8.54721 17.4502 9.72472 17.5856 10.886 17.4476C12.0474 17.3095 13.1603 16.9018 14.136 16.257L18.939 21.061C19.2204 21.3424 19.602 21.5005 20 21.5005C20.398 21.5005 20.7796 21.3424 21.061 21.061C21.3424 20.7796 21.5005 20.398 21.5005 20C21.5005 19.602 21.3424 19.2204 21.061 18.939L16.257 14.136C17.0043 13.0056 17.4313 11.6939 17.4928 10.3402C17.5543 8.98652 17.2478 7.64148 16.6061 6.44801C15.9643 5.25454 15.0112 4.25724 13.848 3.56209C12.6849 2.86694 11.3551 2.49991 10 2.5Z" fill="#0E0642"/>
</g>
<defs>
<clipPath id="clip0_22_5778">
<rect width="24" height="24" fill="white"/>
</clipPath>
</defs>
</svg>
